<?xml version="1.0" standalone="no"?>
<!DOCTYPE svg PUBLIC "-//W3C//DTD SVG 20010904//EN"
 "http://www.w3.org/TR/2001/REC-SVG-20010904/DTD/svg10.dtd">
<svg version="1.0" xmlns="http://www.w3.org/2000/svg"
 width="651.000000pt" height="651.000000pt" viewBox="0 0 651.000000 651.000000"
 preserveAspectRatio="xMidYMid meet">
<metadata>
Created by potrace 1.11, written by Peter Selinger 2001-2013
</metadata>
<g transform="translate(0.000000,651.000000) scale(0.100000,-0.100000)"
fill="#000000" stroke="none">
<path d="M4926 3825 c-140 -48 -327 -307 -465 -647 -37 -89 -54 -117 -97 -160
-99 -98 -238 -171 -294 -153 -30 10 -30 67 0 125 36 67 144 160 187 160 14 0
14 -3 -4 -22 -32 -36 -35 -56 -11 -72 18 -13 25 -13 48 -1 53 28 79 89 55 135
-45 86 -182 50 -298 -80 -120 -133 -133 -269 -31 -317 29 -15 43 -15 89 -6 81
17 199 78 249 129 19 19 19 18 12 -16 -20 -91 -16 -124 15 -140 27 -15 57 4
76 48 52 124 230 291 288 269 16 -7 15 -26 -6 -119 -42 -181 93 -237 247 -104
l38 33 18 -38 c9 -21 30 -47 47 -57 63 -38 234 7 336 88 21 16 39 30 41 30 2
0 -1 -12 -7 -27 -15 -39 -14 -94 3 -104 7 -5 24 -9 38 -9 22 0 31 10 57 63 35
69 156 206 234 263 62 45 79 37 69 -32 -12 -75 -5 -176 14 -212 28 -54 88 -67
155 -32 79 40 258 231 263 281 2 19 -2 25 -23 27 -22 3 -36 -9 -85 -70 -104
-128 -169 -184 -203 -173 -28 8 -34 51 -26 164 10 121 9 128 -10 157 -11 18
-25 24 -51 24 -53 0 -102 -30 -192 -118 -45 -44 -82 -77 -82 -73 0 4 13 45 30
91 34 98 36 113 14 134 -39 39 -76 4 -114 -108 -26 -75 -39 -97 -88 -148 -75
-80 -159 -134 -229 -148 -63 -14 -97 -4 -106 29 -6 26 5 34 73 59 126 44 230
139 232 213 2 50 -42 83 -99 75 -89 -12 -151 -58 -253 -186 -64 -80 -150 -161
-189 -177 -32 -14 -36 -13 -48 3 -16 22 -16 33 2 119 20 95 19 131 -5 155 -30
30 -80 29 -150 -3 -38 -17 -101 -58 -120 -77 -3 -3 -18 -16 -34 -30 l-28 -25
16 40 c26 63 38 76 122 140 101 77 126 98 192 165 117 119 201 267 209 368 4
50 2 59 -19 78 -31 29 -58 34 -102 19z m44 -107 c0 -47 -85 -183 -182 -294
-60 -67 -178 -168 -187 -159 -6 7 87 184 145 272 85 131 175 220 210 206 8 -3
14 -14 14 -25z m374 -577 c9 -13 -76 -86 -133 -116 -28 -14 -51 -23 -51 -19 0
15 47 69 92 105 48 38 81 49 92 30z"/>
<path d="M3333 3815 c-80 -35 -194 -178 -267 -337 -18 -40 -59 -138 -91 -218
-32 -80 -64 -156 -71 -170 -20 -40 -134 -155 -192 -194 -103 -69 -112 -13 -29
164 15 30 35 69 47 85 24 36 26 80 4 89 -35 14 -53 5 -83 -42 -17 -27 -41 -53
-54 -59 -12 -6 -57 -36 -100 -67 -43 -31 -81 -56 -84 -56 -4 0 0 62 11 175 3
30 -12 55 -41 66 -38 14 -51 -5 -54 -76 -3 -73 -13 -94 -81 -166 -61 -64 -111
-103 -151 -118 -25 -10 -29 -8 -39 14 -14 31 8 92 68 191 50 80 56 119 22 130
-29 10 -49 6 -71 -14 -12 -11 -21 -13 -25 -6 -15 24 -54 35 -95 29 -148 -25
-308 -197 -324 -346 -4 -46 -2 -58 18 -83 19 -24 27 -28 60 -23 44 6 126 58
189 121 25 25 47 45 50 46 3 0 5 -23 6 -51 0 -44 5 -56 28 -75 55 -48 143 -19
256 85 36 32 67 57 69 55 2 -1 1 -18 -3 -37 -4 -21 -26 -54 -62 -93 -30 -32
-72 -79 -92 -104 -20 -25 -43 -52 -51 -60 -63 -65 -180 -286 -205 -386 -26
-102 -22 -140 19 -181 31 -31 40 -35 72 -30 114 19 235 186 318 440 19 59 37
120 40 135 2 15 9 52 15 82 6 30 13 70 16 88 5 44 21 71 58 105 28 25 93 73
122 90 6 3 2 -20 -9 -51 -34 -101 -6 -175 66 -175 40 0 104 31 167 81 77 61
74 59 66 36 -18 -57 -16 -91 7 -112 29 -27 29 -27 54 -14 14 8 27 29 34 55 13
49 40 88 123 175 105 109 186 159 194 119 5 -26 -69 -94 -143 -133 -70 -36
-77 -54 -45 -119 56 -115 176 -117 310 -5 l46 38 -1 -27 c-2 -48 33 -91 80
-96 27 -3 112 39 171 85 43 34 64 46 60 33 -34 -113 -23 -183 29 -183 34 0 48
23 41 67 -4 23 0 62 9 98 21 80 95 253 148 345 38 67 46 75 85 87 90 26 146
21 140 -13 -2 -9 5 -21 15 -28 15 -9 22 -6 43 17 32 37 32 81 -1 103 -25 16
-92 21 -145 9 -16 -4 -30 -4 -30 -1 0 15 56 105 85 136 64 68 53 109 -26 102
-14 -2 -99 -101 -99 -115 0 -18 -94 -167 -106 -168 -32 -3 -40 -3 -72 5 -39 9
-72 -13 -72 -50 0 -22 29 -38 86 -46 21 -3 19 -7 -25 -98 -38 -78 -61 -110
-131 -181 -82 -83 -151 -131 -177 -122 -19 7 -16 46 11 116 25 67 33 83 78
157 36 61 30 100 -17 100 -25 0 -58 -37 -90 -100 -21 -41 -78 -114 -149 -188
-50 -53 -110 -92 -141 -92 -25 0 -73 28 -85 49 -8 17 -3 23 38 47 107 61 169
129 177 195 5 44 -39 90 -81 83 -67 -11 -162 -73 -250 -161 -18 -18 -35 -33
-37 -33 -3 0 3 17 13 38 10 21 56 71 102 112 138 125 210 208 280 325 48 81
83 171 87 223 5 79 -55 113 -136 77z m57 -89 c0 -27 -61 -149 -111 -223 -56
-83 -199 -245 -199 -225 0 13 24 69 72 172 92 197 238 366 238 276z m-1406
-582 c28 -11 17 -44 -31 -96 -52 -55 -188 -168 -204 -168 -63 0 65 200 160
250 39 21 51 23 75 14z m279 -446 c-7 -64 -69 -241 -120 -344 -60 -122 -110
-188 -147 -192 l-29 -4 8 48 c14 95 62 208 142 333 40 62 141 201 147 201 2 0
1 -19 -1 -42z"/>
<path d="M650 3795 c-173 -43 -407 -205 -482 -335 -37 -63 -43 -115 -18 -140
11 -11 27 -20 35 -20 20 0 55 36 56 58 2 60 38 113 119 181 109 91 234 153
337 166 56 7 83 -8 83 -46 0 -56 -111 -327 -261 -638 -49 -102 -92 -194 -95
-206 -10 -38 39 -69 73 -47 7 5 43 66 79 138 53 103 142 245 174 274 3 3 25
30 50 60 104 127 264 287 336 335 94 63 131 54 121 -27 -9 -72 -54 -183 -162
-403 -115 -236 -126 -267 -99 -296 21 -24 56 -25 75 -1 8 9 34 55 57 102 54
110 153 241 272 361 174 175 318 260 328 194 3 -25 -53 -143 -150 -311 -138
-241 -181 -355 -182 -484 -1 -100 21 -156 70 -176 70 -29 111 41 58 98 -44 45
-39 124 16 266 28 73 61 135 208 397 77 136 99 201 86 251 -35 140 -228 81
-462 -141 -42 -40 -78 -72 -79 -71 -1 1 14 44 34 96 48 127 51 206 10 247 -25
25 -34 28 -90 27 -45 -1 -73 -7 -102 -24 -89 -52 -182 -137 -300 -275 -37 -44
-70 -82 -73 -85 -2 -3 4 13 13 35 52 121 95 249 101 298 6 47 3 61 -15 90 -42
68 -100 82 -221 52z"/>
<path d="M2880 3572 c-47 -15 -66 -76 -37 -116 32 -43 118 34 98 87 -8 23 -38
37 -61 29z"/>
<path d="M3762 3565 c-17 -8 -32 -18 -33 -22 0 -4 -2 -17 -5 -28 -5 -29 16
-75 35 -75 43 0 85 54 75 95 -9 36 -33 46 -72 30z"/>
<path d="M2386 3535 c-9 -13 -16 -30 -16 -37 1 -25 28 -49 63 -55 28 -4 37 -1
50 17 27 39 -5 100 -53 100 -18 0 -33 -8 -44 -25z"/>
</g>
</svg>
