<?xml version="1.0" standalone="no"?>
<!DOCTYPE svg PUBLIC "-//W3C//DTD SVG 1.1//EN" "http://www.w3.org/Graphics/SVG/1.1/DTD/svg11.dtd" >
<svg xmlns="http://www.w3.org/2000/svg" xmlns:xlink="http://www.w3.org/1999/xlink" version="1.1">
<metadata>
Created by FontForge 20160407 at Tue Nov  8 10:21:42 2016
 By Jimmy Warting
Copyright \(c\) 2015 by Fontfabric LLC. All rights reserved.
</metadata>
<defs>
<font id="MullerRegularItalic" horiz-adv-x="630" >
  <font-face 
    font-family="Muller Regular Italic"
    font-weight="400"
    font-style="italic"
    font-stretch="normal"
    units-per-em="1000"
    panose-1="0 0 0 0 0 0 0 0 0 0"
    ascent="780"
    descent="-220"
    x-height="480"
    cap-height="700"
    bbox="-209 -241 1231.43 964"
    underline-thickness="50"
    underline-position="-125"
    slope="-9"
    stemh="59"
    stemv="81"
    unicode-range="U+0020-25CA"
  />
<missing-glyph horiz-adv-x="251" 
 />
    <glyph glyph-name="f_f" unicode="ff" horiz-adv-x="692" 
d="M765 627c-25 12 -62 21 -97 21c-60 0 -112 -20 -126 -106l-10 -62h180l-12 -74h-180l-64 -406h-80l64 406h-230l-64 -406h-80l64 406h-90l12 74h90l9 56c17 109 106 166 211 166c60 0 100 -14 147 -41c39 46 95 61 147 61c45 0 89 -10 120 -23zM222 480h230l11 71
c3 18 7 33 12 48c-33 20 -65 29 -112 29c-67 0 -122 -28 -133 -98z" />
    <glyph glyph-name="f_f_i" unicode="ffi" horiz-adv-x="875" 
d="M146 0h-80l64 406h-90l12 74h90l9 56c17 109 104 166 211 166c61 0 103 -15 152 -44c40 43 98 64 161 64c55 0 98 -13 143 -36l-12 -78c-42 27 -81 40 -130 40c-67 0 -121 -28 -134 -108l-10 -60h297l-76 -480h-80l64 406h-217l-64 -406h-80l64 406h-230zM230 530l-8 -50
h230l11 66c3 18 7 34 13 49c-33 22 -62 33 -113 33c-67 0 -122 -28 -133 -98z" />
    <glyph glyph-name="f_f_l" unicode="ffl" horiz-adv-x="886" 
d="M671 722c51 0 92 -10 132 -29l73 17l-113 -710h-80l99 624c-35 17 -71 24 -106 24c-67 0 -121 -27 -134 -108l-10 -60h150l-12 -74h-150l-64 -406h-80l64 406h-230l-64 -406h-80l64 406h-90l12 74h90l9 56c17 109 108 166 211 166c59 0 102 -15 151 -44
c39 43 96 64 158 64zM452 480l11 66c3 18 7 35 13 50c-32 22 -63 32 -113 32c-63 0 -122 -28 -133 -98l-8 -50h230z" />
    <glyph glyph-name=".notdef" horiz-adv-x="251" 
 />
    <glyph glyph-name="Aacute" unicode="&#xc1;" horiz-adv-x="718" 
d="M664 0h-87l-45 169h-378l-98 -169h-94l415 700h94zM398 585l-199 -338h312l-91 340c-3 10 -5 19 -6 29c-5 -11 -10 -21 -16 -31zM466 770h-89l114 147h102z" />
    <glyph glyph-name="Abreve" unicode="&#x102;" horiz-adv-x="718" 
d="M664 0h-87l-45 169h-378l-98 -169h-94l415 700h94zM398 585l-199 -338h312l-91 340c-3 10 -5 19 -6 29c-5 -11 -10 -21 -16 -31zM582 816c-50 -32 -97 -42 -145 -42s-95 10 -135 42l12 78c45 -33 82 -44 131 -44s94 11 149 44z" />
    <glyph glyph-name="Acircumflex" unicode="&#xc2;" horiz-adv-x="718" 
d="M664 0h-87l-45 169h-378l-98 -169h-94l415 700h94zM398 585l-199 -338h312l-91 340c-3 10 -5 19 -6 29c-5 -11 -10 -21 -16 -31zM417 917h72l109 -146h-86l-65 86l-91 -86h-94z" />
    <glyph glyph-name="Adieresis" unicode="&#xc4;" horiz-adv-x="718" 
d="M664 0h-87l-45 169h-378l-98 -169h-94l415 700h94zM398 585l-199 -338h312l-91 340c-3 10 -5 19 -6 29c-5 -11 -10 -21 -16 -31zM594 832c-5 -28 -31 -50 -59 -50c-32 0 -55 28 -50 60c5 27 31 50 59 50c32 0 55 -29 50 -60zM392 832c-5 -28 -31 -50 -59 -50
c-32 0 -55 28 -50 60c5 27 31 50 59 50c32 0 55 -29 50 -60z" />
    <glyph glyph-name="Agrave" unicode="&#xc0;" horiz-adv-x="718" 
d="M664 0h-87l-45 169h-378l-98 -169h-94l415 700h94zM398 585l-199 -338h312l-91 340c-3 10 -5 19 -6 29c-5 -11 -10 -21 -16 -31zM496 770h-85l-81 147h98z" />
    <glyph glyph-name="Amacron" unicode="&#x100;" horiz-adv-x="718" 
d="M664 0h-87l-45 169h-378l-98 -169h-94l415 700h94zM398 585l-199 -338h312l-91 340c-3 10 -5 19 -6 29c-5 -11 -10 -21 -16 -31zM302 857h300l-12 -73h-300z" />
    <glyph glyph-name="Aogonek" unicode="&#x104;" horiz-adv-x="718" 
d="M664 0c-62 -38 -108 -92 -113 -130c-4 -22 7 -36 34 -36c17 0 38 7 54 17l-10 -68c-22 -10 -45 -14 -67 -14c-68 0 -96 42 -88 94c7 44 43 97 101 144l-43 162h-378l-98 -169h-94l415 700h94zM398 585l-199 -338h312l-91 340c-3 10 -5 19 -6 29c-5 -11 -10 -21 -16 -31z
" />
    <glyph glyph-name="Aring" unicode="&#xc5;" horiz-adv-x="718" 
d="M664 0h-87l-45 169h-378l-98 -169h-94l415 700h94zM398 585l-199 -338h312l-91 340c-3 10 -5 19 -6 29c-5 -11 -10 -21 -16 -31zM565 850c-11 -67 -70 -106 -128 -106c-61 0 -113 45 -102 116c11 65 70 104 129 104c60 0 112 -45 101 -114zM395 854c-6 -33 16 -55 43 -55
c31 0 62 18 68 55c5 32 -16 55 -43 55c-31 0 -63 -19 -68 -55z" />
    <glyph glyph-name="Atilde" unicode="&#xc3;" horiz-adv-x="718" 
d="M664 0h-87l-45 169h-378l-98 -169h-94l415 700h94zM398 585l-199 -338h312l-91 340c-3 10 -5 19 -6 29c-5 -11 -10 -21 -16 -31zM607 869c-1 -75 -48 -106 -94 -106c-63 0 -107 42 -145 42c-25 0 -37 -14 -36 -36h-69c1 74 48 106 93 106c62 0 107 -42 146 -42
c27 0 37 13 36 36h69z" />
    <glyph glyph-name="AE" unicode="&#xc6;" horiz-adv-x="1006" 
d="M1014 700l-12 -80h-357l-36 -227h327l-13 -80h-327l-37 -233h364l-13 -80h-448l27 171h-303l-144 -171h-101l595 700h478zM250 247h251l58 367z" />
    <glyph glyph-name="B" unicode="B" horiz-adv-x="693" 
d="M158 700h285c129 0 230 -64 211 -184c-14 -87 -76 -133 -136 -149c54 -16 130 -64 112 -180c-25 -157 -179 -187 -286 -187h-297zM548 206c17 107 -84 116 -147 116h-219l-38 -242h192c83 0 193 9 212 126zM569 516c13 81 -48 104 -142 104h-198l-34 -218h217
c78 0 144 32 157 114z" />
    <glyph glyph-name="C" unicode="C" horiz-adv-x="646" 
d="M57 370c36 221 243 342 418 342c72 0 134 -16 186 -48l-12 -81c-42 33 -101 49 -165 49c-147 0 -314 -90 -344 -272c-33 -205 117 -292 250 -292c69 0 137 18 190 52l-14 -91c-58 -29 -131 -41 -199 -41c-168 0 -352 127 -310 382z" />
    <glyph glyph-name="Cacute" unicode="&#x106;" horiz-adv-x="646" 
d="M57 370c36 221 243 342 418 342c72 0 134 -16 186 -48l-12 -81c-42 33 -101 49 -165 49c-147 0 -314 -90 -344 -272c-33 -205 117 -292 250 -292c69 0 137 18 190 52l-14 -91c-58 -29 -131 -41 -199 -41c-168 0 -352 127 -310 382zM524 770h-89l114 147h102z" />
    <glyph glyph-name="Ccaron" unicode="&#x10c;" horiz-adv-x="646" 
d="M57 370c36 221 243 342 418 342c72 0 134 -16 186 -48l-12 -81c-42 33 -101 49 -165 49c-147 0 -314 -90 -344 -272c-33 -205 117 -292 250 -292c69 0 137 18 190 52l-14 -91c-58 -29 -131 -41 -199 -41c-168 0 -352 127 -310 382zM677 907l-155 -146h-72l-109 146h88
l63 -86l89 86h96z" />
    <glyph glyph-name="Ccedilla" unicode="&#xc7;" horiz-adv-x="646" 
d="M649 583c-42 33 -101 49 -165 49c-147 0 -314 -90 -344 -272c-33 -205 117 -292 250 -292c69 0 137 18 190 52l-14 -91c-52 -26 -116 -38 -178 -41l-19 -46c61 2 101 -29 94 -83c-9 -63 -65 -91 -138 -91c-42 0 -74 8 -105 20l11 65c24 -12 59 -20 88 -20
c47 0 74 12 77 32c5 31 -52 38 -111 27l37 99c-154 21 -303 147 -265 379c36 221 243 342 418 342c72 0 134 -16 186 -48z" />
    <glyph glyph-name="Cdotaccent" unicode="&#x10a;" horiz-adv-x="646" 
d="M57 370c36 221 243 342 418 342c72 0 134 -16 186 -48l-12 -81c-42 33 -101 49 -165 49c-147 0 -314 -90 -344 -272c-33 -205 117 -292 250 -292c69 0 137 18 190 52l-14 -91c-58 -29 -131 -41 -199 -41c-168 0 -352 127 -310 382zM552 822c-6 -37 -33 -54 -64 -54
c-34 0 -61 23 -54 64c6 36 34 53 64 53c35 0 61 -23 54 -63z" />
    <glyph glyph-name="D" unicode="D" horiz-adv-x="739" 
d="M158 700h228c237 0 348 -151 316 -355c-32 -200 -168 -345 -423 -345h-232zM618 355c27 166 -52 265 -241 265h-148l-85 -540h144c189 0 303 105 330 275z" />
    <glyph glyph-name="Eth" unicode="&#xd0;" horiz-adv-x="743" 
d="M162 700h228c237 0 348 -151 316 -355c-32 -200 -168 -345 -423 -345h-232l49 311h-81l12 76h81zM292 80c189 0 303 105 330 275c27 166 -52 265 -241 265h-148l-37 -233h212l-12 -76h-212l-36 -231h144z" />
    <glyph glyph-name="Dcaron" unicode="&#x10e;" horiz-adv-x="739" 
d="M158 700h228c237 0 348 -151 316 -355c-32 -200 -168 -345 -423 -345h-232zM618 355c27 166 -52 265 -241 265h-148l-85 -540h144c189 0 303 105 330 275zM589 907l-155 -146h-72l-109 146h88l63 -86l89 86h96z" />
    <glyph glyph-name="Dcroat" unicode="&#x110;" horiz-adv-x="743" 
d="M162 700h228c237 0 348 -151 316 -355c-32 -200 -168 -345 -423 -345h-232l49 311h-81l12 76h81zM292 80c189 0 303 105 330 275c27 166 -52 265 -241 265h-148l-37 -233h212l-12 -76h-212l-36 -231h144z" />
    <glyph glyph-name="E" unicode="E" horiz-adv-x="621" 
d="M158 700h472l-13 -80h-388l-36 -227h358l-12 -80h-358l-37 -233h394l-13 -80h-478z" />
    <glyph glyph-name="Eacute" unicode="&#xc9;" horiz-adv-x="621" 
d="M158 700h472l-13 -80h-388l-36 -227h358l-12 -80h-358l-37 -233h394l-13 -80h-478zM438 770h-89l114 147h102z" />
    <glyph glyph-name="Ecaron" unicode="&#x11a;" horiz-adv-x="621" 
d="M158 700h472l-13 -80h-388l-36 -227h358l-12 -80h-358l-37 -233h394l-13 -80h-478zM591 907l-155 -146h-72l-109 146h88l63 -86l89 86h96z" />
    <glyph glyph-name="Ecircumflex" unicode="&#xca;" horiz-adv-x="621" 
d="M158 700h472l-13 -80h-388l-36 -227h358l-12 -80h-358l-37 -233h394l-13 -80h-478zM389 917h72l109 -146h-86l-65 86l-91 -86h-94z" />
    <glyph glyph-name="Edieresis" unicode="&#xcb;" horiz-adv-x="621" 
d="M158 700h472l-13 -80h-388l-36 -227h358l-12 -80h-358l-37 -233h394l-13 -80h-478zM566 832c-5 -28 -31 -50 -59 -50c-32 0 -55 28 -50 60c5 27 31 50 59 50c32 0 55 -29 50 -60zM364 832c-5 -28 -31 -50 -59 -50c-32 0 -55 28 -50 60c5 27 31 50 59 50
c32 0 55 -29 50 -60z" />
    <glyph glyph-name="Edotaccent" unicode="&#x116;" horiz-adv-x="621" 
d="M158 700h472l-13 -80h-388l-36 -227h358l-12 -80h-358l-37 -233h394l-13 -80h-478zM466 822c-6 -37 -33 -54 -64 -54c-34 0 -61 23 -54 64c6 36 34 53 64 53c35 0 61 -23 54 -63z" />
    <glyph glyph-name="Egrave" unicode="&#xc8;" horiz-adv-x="621" 
d="M158 700h472l-13 -80h-388l-36 -227h358l-12 -80h-358l-37 -233h394l-13 -80h-478zM468 770h-85l-81 147h98z" />
    <glyph glyph-name="Emacron" unicode="&#x112;" horiz-adv-x="621" 
d="M158 700h472l-13 -80h-388l-36 -227h358l-12 -80h-358l-37 -233h394l-13 -80h-478zM274 857h300l-12 -73h-300z" />
    <glyph glyph-name="Eogonek" unicode="&#x118;" horiz-adv-x="621" 
d="M499 -157l-12 -67c-19 -7 -41 -9 -64 -9c-68 0 -96 42 -88 94c7 44 43 98 104 139h-392l111 700h472l-13 -80h-388l-36 -227h358l-12 -80h-358l-37 -233h394l-13 -80c-62 -39 -108 -90 -113 -128c-4 -22 7 -40 34 -40c17 0 36 4 53 11z" />
    <glyph glyph-name="F" unicode="F" horiz-adv-x="607" 
d="M158 700h474l-13 -80h-390l-38 -241h361l-13 -80h-361l-47 -299h-84z" />
    <glyph glyph-name="G" unicode="G" horiz-adv-x="707" 
d="M55 365c38 239 251 347 425 347c81 0 147 -17 204 -48l-12 -80c-45 32 -114 48 -185 48c-144 0 -316 -75 -348 -277c-33 -209 118 -287 253 -287c49 0 99 10 137 27l44 277h86l-53 -338c-70 -30 -151 -46 -225 -46c-174 0 -368 111 -326 377z" />
    <glyph glyph-name="Gbreve" unicode="&#x11e;" horiz-adv-x="707" 
d="M55 365c38 239 251 347 425 347c81 0 147 -17 204 -48l-12 -80c-45 32 -114 48 -185 48c-144 0 -316 -75 -348 -277c-33 -209 118 -287 253 -287c49 0 99 10 137 27l44 277h86l-53 -338c-70 -30 -151 -46 -225 -46c-174 0 -368 111 -326 377zM620 816
c-50 -32 -97 -42 -145 -42s-95 10 -135 42l12 78c45 -33 82 -44 131 -44s94 11 149 44z" />
    <glyph glyph-name="Gcommaaccent" unicode="&#x122;" horiz-adv-x="707" 
d="M55 365c38 239 251 347 425 347c81 0 147 -17 204 -48l-12 -80c-45 32 -114 48 -185 48c-144 0 -316 -75 -348 -277c-33 -209 118 -287 253 -287c49 0 99 10 137 27l44 277h86l-53 -338c-70 -30 -151 -46 -225 -46c-174 0 -368 111 -326 377zM347 -241h-70l55 190h80z
" />
    <glyph glyph-name="Gdotaccent" unicode="&#x120;" horiz-adv-x="707" 
d="M55 365c38 239 251 347 425 347c81 0 147 -17 204 -48l-12 -80c-45 32 -114 48 -185 48c-144 0 -316 -75 -348 -277c-33 -209 118 -287 253 -287c49 0 99 10 137 27l44 277h86l-53 -338c-70 -30 -151 -46 -225 -46c-174 0 -368 111 -326 377zM532 822
c-6 -37 -33 -54 -64 -54c-34 0 -61 23 -54 64c6 36 34 53 64 53c35 0 61 -23 54 -63z" />
    <glyph glyph-name="H" unicode="H" horiz-adv-x="769" 
d="M657 700h84l-111 -700h-84l49 311h-415l-49 -311h-84l111 700h84l-49 -309h415z" />
    <glyph glyph-name="Hbar" unicode="&#x126;" horiz-adv-x="774" 
d="M133 0h-84l80 502h-74l11 70h74l20 128h84l-20 -128h415l20 128h84l-20 -128h74l-11 -70h-74l-80 -502h-84l49 311h-415zM213 502l-18 -111h415l18 111h-415z" />
    <glyph glyph-name="I" unicode="I" horiz-adv-x="270" 
d="M158 700h84l-111 -700h-84z" />
    <glyph glyph-name="IJ" unicode="&#x132;" horiz-adv-x="781" 
d="M158 700h84l-111 -700h-84zM470 700h290l-78 -495c-25 -157 -134 -215 -260 -215c-72 0 -135 16 -175 44l13 82c39 -31 91 -46 151 -46c94 0 170 33 188 144l64 406h-206z" />
    <glyph glyph-name="Iacute" unicode="&#xcd;" horiz-adv-x="270" 
d="M158 700h84l-111 -700h-84zM244 770h-89l114 147h102z" />
    <glyph glyph-name="Icircumflex" unicode="&#xce;" horiz-adv-x="270" 
d="M158 700h84l-111 -700h-84zM195 917h72l109 -146h-86l-65 86l-91 -86h-94z" />
    <glyph glyph-name="Idieresis" unicode="&#xcf;" horiz-adv-x="270" 
d="M158 700h84l-111 -700h-84zM372 832c-5 -28 -31 -50 -59 -50c-32 0 -55 28 -50 60c5 27 31 50 59 50c32 0 55 -29 50 -60zM170 832c-5 -28 -31 -50 -59 -50c-32 0 -55 28 -50 60c5 27 31 50 59 50c32 0 55 -29 50 -60z" />
    <glyph glyph-name="Idotaccent" unicode="&#x130;" horiz-adv-x="270" 
d="M158 700h84l-111 -700h-84zM272 822c-6 -37 -33 -54 -64 -54c-34 0 -61 23 -54 64c6 36 34 53 64 53c35 0 61 -23 54 -63z" />
    <glyph glyph-name="Igrave" unicode="&#xcc;" horiz-adv-x="270" 
d="M158 700h84l-111 -700h-84zM274 770h-85l-81 147h98z" />
    <glyph glyph-name="Imacron" unicode="&#x12a;" horiz-adv-x="270" 
d="M158 700h84l-111 -700h-84zM80 857h300l-12 -73h-300z" />
    <glyph glyph-name="Iogonek" unicode="&#x12e;" horiz-adv-x="270" 
d="M131 0c-51 -48 -83 -91 -88 -129c-4 -22 7 -40 34 -39c25 1 47 10 69 24l-11 -68c-25 -15 -52 -20 -81 -20c-63 0 -96 41 -88 93c7 44 30 90 82 145l110 694h84z" />
    <glyph glyph-name="J" unicode="J" horiz-adv-x="511" 
d="M200 700h290l-78 -495c-25 -157 -134 -215 -260 -215c-72 0 -135 16 -175 44l13 82c39 -31 91 -46 151 -46c94 0 170 33 188 144l64 406h-206z" />
    <glyph glyph-name="K" unicode="K" horiz-adv-x="662" 
d="M609 700h96l-288 -344l197 -356h-89l-179 317h-165l-50 -317h-84l111 700h84l-48 -303h159z" />
    <glyph glyph-name="Kcommaaccent" unicode="&#x136;" horiz-adv-x="662" 
d="M609 700h96l-288 -344l197 -356h-89l-179 317h-165l-50 -317h-84l111 700h84l-48 -303h159zM292 -231h-70l55 190h80z" />
    <glyph glyph-name="L" unicode="L" horiz-adv-x="576" 
d="M158 700h84l-98 -620h388l-13 -80h-472z" />
    <glyph glyph-name="Lacute" unicode="&#x139;" horiz-adv-x="576" 
d="M158 700h84l-98 -620h388l-13 -80h-472zM257 770h-89l114 147h102z" />
    <glyph glyph-name="Lcaron" unicode="&#x13d;" horiz-adv-x="577" 
d="M437 700h80l-57 -184h-70zM158 700h84l-98 -620h388l-13 -80h-472z" />
    <glyph glyph-name="Lcommaaccent" unicode="&#x13b;" horiz-adv-x="576" 
d="M158 700h84l-98 -620h388l-13 -80h-472zM272 -231h-70l55 190h80z" />
    <glyph glyph-name="Ldot" unicode="&#x13f;" horiz-adv-x="580" 
d="M423 345c-5 -32 -29 -46 -55 -46c-30 0 -54 20 -48 56c5 32 30 46 56 46c30 0 53 -20 47 -56zM158 700h84l-98 -620h388l-13 -80h-472z" />
    <glyph glyph-name="Lslash" unicode="&#x141;" horiz-adv-x="581" 
d="M524 0h-472l43 270l-85 -33l11 70l85 33l57 360h84l-52 -328l224 88l-11 -70l-224 -88l-35 -222h388z" />
    <glyph glyph-name="M" unicode="M" horiz-adv-x="906" 
d="M791 700h87l-111 -700h-84l88 551l-310 -386h-54l-188 386l-88 -551h-84l111 700h75l211 -433z" />
    <glyph glyph-name="N" unicode="N" horiz-adv-x="769" 
d="M131 0h-84l111 700h71l340 -566c3 30 6 48 9 70l79 496h84l-111 -700h-71l-340 567c-3 -30 -6 -49 -9 -70z" />
    <glyph glyph-name="Nacute" unicode="&#x143;" horiz-adv-x="769" 
d="M131 0h-84l111 700h71l340 -566c3 30 6 48 9 70l79 496h84l-111 -700h-71l-340 567c-3 -30 -6 -49 -9 -70zM494 770h-89l114 147h102z" />
    <glyph glyph-name="Ncaron" unicode="&#x147;" horiz-adv-x="769" 
d="M131 0h-84l111 700h71l340 -566c3 30 6 48 9 70l79 496h84l-111 -700h-71l-340 567c-3 -30 -6 -49 -9 -70zM647 907l-155 -146h-72l-109 146h88l63 -86l89 86h96z" />
    <glyph glyph-name="Ncommaaccent" unicode="&#x145;" horiz-adv-x="769" 
d="M131 0h-84l111 700h71l340 -566c3 30 6 48 9 70l79 496h84l-111 -700h-71l-340 567c-3 -30 -6 -49 -9 -70zM329 -231h-70l55 190h80z" />
    <glyph glyph-name="Eng" unicode="&#x14a;" horiz-adv-x="769" 
d="M617 -84c-17 -104 -84 -148 -162 -148c-26 0 -50 4 -77 13l12 76c15 -6 34 -9 50 -9c49 0 85 25 95 84l14 84l-330 551c-3 -30 -6 -49 -9 -70l-79 -497h-84l111 700h71l340 -566c3 30 6 48 9 70l79 496h84z" />
    <glyph glyph-name="Ntilde" unicode="&#xd1;" horiz-adv-x="769" 
d="M131 0h-84l111 700h71l340 -566c3 30 6 48 9 70l79 496h84l-111 -700h-71l-340 567c-3 -30 -6 -49 -9 -70zM635 869c-1 -75 -48 -106 -94 -106c-63 0 -107 42 -145 42c-25 0 -37 -14 -36 -36h-69c1 74 48 106 93 106c62 0 107 -42 146 -42c27 0 37 13 36 36h69z" />
    <glyph glyph-name="O" unicode="O" horiz-adv-x="819" 
d="M784 345c-29 -179 -166 -357 -419 -357c-227 0 -341 184 -312 367c29 179 176 357 419 357c227 0 341 -184 312 -367zM137 350c-21 -132 45 -282 233 -282c192 0 307 136 330 282c21 132 -45 282 -233 282c-192 0 -307 -136 -330 -282z" />
    <glyph glyph-name="Oacute" unicode="&#xd3;" horiz-adv-x="819" 
d="M784 345c-29 -179 -166 -357 -419 -357c-227 0 -341 184 -312 367c29 179 176 357 419 357c227 0 341 -184 312 -367zM137 350c-21 -132 45 -282 233 -282c192 0 307 136 330 282c21 132 -45 282 -233 282c-192 0 -307 -136 -330 -282zM517 770h-89l114 147h102z" />
    <glyph glyph-name="Ocircumflex" unicode="&#xd4;" horiz-adv-x="819" 
d="M784 345c-29 -179 -166 -357 -419 -357c-227 0 -341 184 -312 367c29 179 176 357 419 357c227 0 341 -184 312 -367zM137 350c-21 -132 45 -282 233 -282c192 0 307 136 330 282c21 132 -45 282 -233 282c-192 0 -307 -136 -330 -282zM468 917h72l109 -146h-86l-65 86
l-91 -86h-94z" />
    <glyph glyph-name="Odieresis" unicode="&#xd6;" horiz-adv-x="819" 
d="M784 345c-29 -179 -166 -357 -419 -357c-227 0 -341 184 -312 367c29 179 176 357 419 357c227 0 341 -184 312 -367zM137 350c-21 -132 45 -282 233 -282c192 0 307 136 330 282c21 132 -45 282 -233 282c-192 0 -307 -136 -330 -282zM645 832c-5 -28 -31 -50 -59 -50
c-32 0 -55 28 -50 60c5 27 31 50 59 50c32 0 55 -29 50 -60zM443 832c-5 -28 -31 -50 -59 -50c-32 0 -55 28 -50 60c5 27 31 50 59 50c32 0 55 -29 50 -60z" />
    <glyph glyph-name="Ograve" unicode="&#xd2;" horiz-adv-x="819" 
d="M784 345c-29 -179 -166 -357 -419 -357c-227 0 -341 184 -312 367c29 179 176 357 419 357c227 0 341 -184 312 -367zM137 350c-21 -132 45 -282 233 -282c192 0 307 136 330 282c21 132 -45 282 -233 282c-192 0 -307 -136 -330 -282zM547 770h-85l-81 147h98z" />
    <glyph glyph-name="Ohungarumlaut" unicode="&#x150;" horiz-adv-x="819" 
d="M784 345c-29 -179 -166 -357 -419 -357c-227 0 -341 184 -312 367c29 179 176 357 419 357c227 0 341 -184 312 -367zM137 350c-21 -132 45 -282 233 -282c192 0 307 136 330 282c21 132 -45 282 -233 282c-192 0 -307 -136 -330 -282zM608 780h-87l92 147h92zM453 780
h-87l92 147h92z" />
    <glyph glyph-name="Omacron" unicode="&#x14c;" horiz-adv-x="819" 
d="M784 345c-29 -179 -166 -357 -419 -357c-227 0 -341 184 -312 367c29 179 176 357 419 357c227 0 341 -184 312 -367zM137 350c-21 -132 45 -282 233 -282c192 0 307 136 330 282c21 132 -45 282 -233 282c-192 0 -307 -136 -330 -282zM353 857h300l-12 -73h-300z" />
    <glyph glyph-name="Oslash" unicode="&#xd8;" horiz-adv-x="819" 
d="M107 -48h-82l111 125c-70 71 -99 174 -83 278c29 179 176 357 419 357c72 0 133 -19 182 -50l76 86h82l-111 -125c70 -71 99 -174 83 -278c-29 -179 -166 -357 -419 -357c-72 0 -133 19 -182 50zM137 350c-12 -75 4 -155 54 -211l408 461c-35 20 -79 32 -132 32
c-192 0 -307 -136 -330 -282zM238 100c35 -20 79 -32 132 -32c192 0 307 136 330 282c12 75 -4 155 -54 211z" />
    <glyph glyph-name="Otilde" unicode="&#xd5;" horiz-adv-x="819" 
d="M784 345c-29 -179 -166 -357 -419 -357c-227 0 -341 184 -312 367c29 179 176 357 419 357c227 0 341 -184 312 -367zM137 350c-21 -132 45 -282 233 -282c192 0 307 136 330 282c21 132 -45 282 -233 282c-192 0 -307 -136 -330 -282zM658 869c-1 -75 -48 -106 -94 -106
c-63 0 -107 42 -145 42c-25 0 -37 -14 -36 -36h-69c1 74 48 106 93 106c62 0 107 -42 146 -42c27 0 37 13 36 36h69z" />
    <glyph glyph-name="OE" unicode="&#x152;" horiz-adv-x="1025" 
d="M483 -1c-31 -7 -65 -11 -100 -11c-238 0 -361 189 -325 392c30 168 179 332 402 332c48 0 91 -6 115 -13l459 1l-13 -80h-357l-36 -227h328l-13 -80h-328l-37 -233h364l-13 -80zM141 370c-29 -162 58 -302 247 -302c38 0 72 6 104 16l84 530c-33 15 -72 18 -121 18
c-172 0 -289 -126 -314 -262z" />
    <glyph glyph-name="P" unicode="P" horiz-adv-x="663" 
d="M158 700h247c140 0 280 -54 252 -231c-27 -173 -168 -221 -330 -221h-157l-39 -248h-84zM574 479c19 117 -81 141 -174 141h-171l-46 -292h157c119 0 215 31 234 151z" />
    <glyph glyph-name="Thorn" unicode="&#xde;" horiz-adv-x="658" 
d="M222 576h158c147 0 286 -54 258 -231c-28 -173 -168 -221 -330 -221h-157l-20 -124h-84l111 700h84zM163 204h157c119 0 215 31 234 151c19 117 -78 141 -178 141h-166z" />
    <glyph glyph-name="Q" unicode="Q" horiz-adv-x="819" 
d="M728 -8l-59 -51l-86 102c-60 -34 -132 -55 -218 -55c-227 0 -341 184 -312 367c29 179 176 357 419 357c227 0 341 -184 312 -367c-15 -95 -61 -189 -138 -257zM137 350c-21 -132 45 -282 233 -282c61 0 115 14 160 38l-103 122l58 50l109 -128c58 52 94 125 106 200
c21 132 -45 282 -233 282c-192 0 -307 -136 -330 -282z" />
    <glyph glyph-name="R" unicode="R" horiz-adv-x="697" 
d="M131 0h-84l111 700h272c126 0 255 -55 230 -217c-20 -127 -115 -182 -218 -200l190 -283h-99l-185 276h-173zM229 620l-41 -264h192c89 0 179 31 196 137c17 103 -67 127 -151 127h-196z" />
    <glyph glyph-name="Racute" unicode="&#x154;" horiz-adv-x="697" 
d="M131 0h-84l111 700h272c126 0 255 -55 230 -217c-20 -127 -115 -182 -218 -200l190 -283h-99l-185 276h-173zM229 620l-41 -264h192c89 0 179 31 196 137c17 103 -67 127 -151 127h-196zM444 770h-89l114 147h102z" />
    <glyph glyph-name="Rcaron" unicode="&#x158;" horiz-adv-x="697" 
d="M131 0h-84l111 700h272c126 0 255 -55 230 -217c-20 -127 -115 -182 -218 -200l190 -283h-99l-185 276h-173zM229 620l-41 -264h192c89 0 179 31 196 137c17 103 -67 127 -151 127h-196zM597 907l-155 -146h-72l-109 146h88l63 -86l89 86h96z" />
    <glyph glyph-name="Rcommaaccent" unicode="&#x156;" horiz-adv-x="697" 
d="M131 0h-84l111 700h272c126 0 255 -55 230 -217c-20 -127 -115 -182 -218 -200l190 -283h-99l-185 276h-173zM229 620l-41 -264h192c89 0 179 31 196 137c17 103 -67 127 -151 127h-196zM310 -231h-70l55 190h80z" />
    <glyph glyph-name="S" unicode="S" horiz-adv-x="582" 
d="M90 537c19 123 145 175 264 175c79 0 155 -23 204 -57l-12 -80c-49 38 -121 58 -191 57c-94 0 -168 -25 -181 -102c-28 -171 393 -115 355 -362c-21 -137 -152 -180 -274 -180c-93 0 -180 23 -242 61l13 81c67 -45 150 -62 228 -62c99 0 177 23 190 104
c30 180 -390 126 -354 365z" />
    <glyph glyph-name="Sacute" unicode="&#x15a;" horiz-adv-x="582" 
d="M90 537c19 123 145 175 264 175c79 0 155 -23 204 -57l-12 -80c-49 38 -121 58 -191 57c-94 0 -168 -25 -181 -102c-28 -171 393 -115 355 -362c-21 -137 -152 -180 -274 -180c-93 0 -180 23 -242 61l13 81c67 -45 150 -62 228 -62c99 0 177 23 190 104
c30 180 -390 126 -354 365zM386 770h-89l114 147h102z" />
    <glyph glyph-name="Scaron" unicode="&#x160;" horiz-adv-x="582" 
d="M90 537c19 123 145 175 264 175c79 0 155 -23 204 -57l-12 -80c-49 38 -121 58 -191 57c-94 0 -168 -25 -181 -102c-28 -171 393 -115 355 -362c-21 -137 -152 -180 -274 -180c-93 0 -180 23 -242 61l13 81c67 -45 150 -62 228 -62c99 0 177 23 190 104
c30 180 -390 126 -354 365zM539 907l-155 -146h-72l-109 146h88l63 -86l89 86h96z" />
    <glyph glyph-name="Scedilla" unicode="&#x15e;" horiz-adv-x="582" 
d="M365 -141c-9 -63 -65 -91 -138 -91c-42 0 -74 8 -105 20l11 65c24 -12 59 -20 88 -20c47 0 74 12 77 32c5 31 -52 38 -111 27l36 97c-81 5 -155 26 -210 60l13 81c67 -45 150 -62 228 -62c99 0 177 23 190 104c30 180 -390 126 -354 365c19 123 145 175 264 175
c79 0 155 -23 204 -57l-12 -80c-49 38 -121 58 -191 57c-94 0 -168 -25 -181 -102c-28 -171 393 -115 355 -362c-19 -124 -128 -171 -238 -179l-20 -47c61 2 101 -29 94 -83z" />
    <glyph glyph-name="Scommaaccent" unicode="&#x218;" horiz-adv-x="582" 
d="M90 537c19 123 145 175 264 175c79 0 155 -23 204 -57l-12 -80c-49 38 -121 58 -191 57c-94 0 -168 -25 -181 -102c-28 -171 393 -115 355 -362c-21 -137 -152 -180 -274 -180c-93 0 -180 23 -242 61l13 81c67 -45 150 -62 228 -62c99 0 177 23 190 104
c30 180 -390 126 -354 365zM246 -231h-70l55 190h80z" />
    <glyph glyph-name="T" unicode="T" horiz-adv-x="603" 
d="M78 700h576l-13 -80h-246l-98 -620h-84l98 620h-246z" />
    <glyph glyph-name="Tbar" unicode="&#x166;" horiz-adv-x="612" 
d="M301 0h-84l50 313h-119l11 70h119l37 237h-246l13 80h576l-13 -80h-246l-37 -237h119l-11 -70h-119z" />
    <glyph glyph-name="Tcaron" unicode="&#x164;" horiz-adv-x="603" 
d="M78 700h576l-13 -80h-246l-98 -620h-84l98 620h-246zM565 907l-155 -146h-72l-109 146h88l63 -86l89 86h96z" />
    <glyph glyph-name="Tcommaaccent" unicode="&#x162;" horiz-adv-x="603" 
d="M78 700h576l-13 -80h-246l-98 -620h-84l98 620h-246zM225 -231h-70l55 190h80z" />
    <glyph glyph-name="uni021A" unicode="&#x21a;" horiz-adv-x="603" 
d="M78 700h576l-13 -80h-246l-98 -620h-84l98 620h-246zM225 -231h-70l55 190h80z" />
    <glyph glyph-name="U" unicode="U" horiz-adv-x="755" 
d="M651 700h84l-71 -447c-32 -200 -171 -265 -324 -265c-158 0 -292 71 -260 271l70 441h84l-70 -443c-23 -142 56 -189 175 -189c128 0 220 53 243 195z" />
    <glyph glyph-name="Uacute" unicode="&#xda;" horiz-adv-x="755" 
d="M651 700h84l-71 -447c-32 -200 -171 -265 -324 -265c-158 0 -292 71 -260 271l70 441h84l-70 -443c-23 -142 56 -189 175 -189c128 0 220 53 243 195zM477 770h-89l114 147h102z" />
    <glyph glyph-name="Ucircumflex" unicode="&#xdb;" horiz-adv-x="755" 
d="M651 700h84l-71 -447c-32 -200 -171 -265 -324 -265c-158 0 -292 71 -260 271l70 441h84l-70 -443c-23 -142 56 -189 175 -189c128 0 220 53 243 195zM428 917h72l109 -146h-86l-65 86l-91 -86h-94z" />
    <glyph glyph-name="Udieresis" unicode="&#xdc;" horiz-adv-x="755" 
d="M651 700h84l-71 -447c-32 -200 -171 -265 -324 -265c-158 0 -292 71 -260 271l70 441h84l-70 -443c-23 -142 56 -189 175 -189c128 0 220 53 243 195zM605 832c-5 -28 -31 -50 -59 -50c-32 0 -55 28 -50 60c5 27 31 50 59 50c32 0 55 -29 50 -60zM403 832
c-5 -28 -31 -50 -59 -50c-32 0 -55 28 -50 60c5 27 31 50 59 50c32 0 55 -29 50 -60z" />
    <glyph glyph-name="Ugrave" unicode="&#xd9;" horiz-adv-x="755" 
d="M651 700h84l-71 -447c-32 -200 -171 -265 -324 -265c-158 0 -292 71 -260 271l70 441h84l-70 -443c-23 -142 56 -189 175 -189c128 0 220 53 243 195zM507 770h-85l-81 147h98z" />
    <glyph glyph-name="Uhungarumlaut" unicode="&#x170;" horiz-adv-x="755" 
d="M651 700h84l-71 -447c-32 -200 -171 -265 -324 -265c-158 0 -292 71 -260 271l70 441h84l-70 -443c-23 -142 56 -189 175 -189c128 0 220 53 243 195zM568 780h-87l92 147h92zM413 780h-87l92 147h92z" />
    <glyph glyph-name="Umacron" unicode="&#x16a;" horiz-adv-x="755" 
d="M651 700h84l-71 -447c-32 -200 -171 -265 -324 -265c-158 0 -292 71 -260 271l70 441h84l-70 -443c-23 -142 56 -189 175 -189c128 0 220 53 243 195zM313 857h300l-12 -73h-300z" />
    <glyph glyph-name="Uogonek" unicode="&#x172;" horiz-adv-x="755" 
d="M582 263l69 437h84l-71 -447c-15 -99 -57 -163 -115 -206c-104 -77 -144 -140 -149 -177c-4 -22 8 -39 35 -38c23 1 50 10 68 23l-11 -67c-25 -14 -52 -20 -83 -20c-68 0 -98 41 -90 93c6 39 43 85 93 132c-23 -3 -47 -5 -72 -5c-158 0 -292 71 -260 271l70 441h84
l-70 -443c-23 -142 56 -189 175 -189c128 0 220 53 243 195z" />
    <glyph glyph-name="Uring" unicode="&#x16e;" horiz-adv-x="755" 
d="M651 700h84l-71 -447c-32 -200 -171 -265 -324 -265c-158 0 -292 71 -260 271l70 441h84l-70 -443c-23 -142 56 -189 175 -189c128 0 220 53 243 195zM576 850c-11 -67 -70 -106 -128 -106c-61 0 -113 45 -102 116c11 65 70 104 129 104c60 0 112 -45 101 -114zM406 854
c-6 -33 16 -55 43 -55c31 0 62 18 68 55c5 32 -16 55 -43 55c-31 0 -63 -19 -68 -55z" />
    <glyph glyph-name="V" unicode="V" horiz-adv-x="689" 
d="M342 0h-87l-179 700h87l147 -606l340 606h93z" />
    <glyph glyph-name="W" unicode="W" horiz-adv-x="1011" 
d="M970 700h89l-325 -700h-96l-88 548l-261 -548h-100l-109 700h85l91 -594l283 594h68l94 -583z" />
    <glyph glyph-name="Wacute" unicode="&#x1e82;" horiz-adv-x="1011" 
d="M970 700h89l-325 -700h-96l-88 548l-261 -548h-100l-109 700h85l91 -594l283 594h68l94 -583zM612 770h-89l114 147h102z" />
    <glyph glyph-name="Wcircumflex" unicode="&#x174;" horiz-adv-x="1011" 
d="M970 700h89l-325 -700h-96l-88 548l-261 -548h-100l-109 700h85l91 -594l283 594h68l94 -583zM563 917h72l109 -146h-86l-65 86l-91 -86h-94z" />
    <glyph glyph-name="Wdieresis" unicode="&#x1e84;" horiz-adv-x="1011" 
d="M970 700h89l-325 -700h-96l-88 548l-261 -548h-100l-109 700h85l91 -594l283 594h68l94 -583zM740 832c-5 -28 -31 -50 -59 -50c-32 0 -55 28 -50 60c5 27 31 50 59 50c32 0 55 -29 50 -60zM538 832c-5 -28 -31 -50 -59 -50c-32 0 -55 28 -50 60c5 27 31 50 59 50
c32 0 55 -29 50 -60z" />
    <glyph glyph-name="Wgrave" unicode="&#x1e80;" horiz-adv-x="1011" 
d="M970 700h89l-325 -700h-96l-88 548l-261 -548h-100l-109 700h85l91 -594l283 594h68l94 -583zM642 770h-85l-81 147h98z" />
    <glyph glyph-name="X" unicode="X" horiz-adv-x="645" 
d="M60 0h-106l331 364l-199 336h93l163 -274l249 274h106l-314 -345l211 -355h-93l-174 293z" />
    <glyph glyph-name="Y" unicode="Y" horiz-adv-x="656" 
d="M323 0h-84l43 265l-206 435h88l168 -355l283 355h95l-344 -435z" />
    <glyph glyph-name="Yacute" unicode="&#xdd;" horiz-adv-x="656" 
d="M323 0h-84l43 265l-206 435h88l168 -355l283 355h95l-344 -435zM426 770h-89l114 147h102z" />
    <glyph glyph-name="Ycircumflex" unicode="&#x176;" horiz-adv-x="656" 
d="M323 0h-84l43 265l-206 435h88l168 -355l283 355h95l-344 -435zM377 917h72l109 -146h-86l-65 86l-91 -86h-94z" />
    <glyph glyph-name="Ydieresis" unicode="&#x178;" horiz-adv-x="656" 
d="M323 0h-84l43 265l-206 435h88l168 -355l283 355h95l-344 -435zM554 832c-5 -28 -31 -50 -59 -50c-32 0 -55 28 -50 60c5 27 31 50 59 50c32 0 55 -29 50 -60zM352 832c-5 -28 -31 -50 -59 -50c-32 0 -55 28 -50 60c5 27 31 50 59 50c32 0 55 -29 50 -60z" />
    <glyph glyph-name="Ygrave" unicode="&#x1ef2;" horiz-adv-x="656" 
d="M323 0h-84l43 265l-206 435h88l168 -355l283 355h95l-344 -435zM456 770h-85l-81 147h98z" />
    <glyph glyph-name="Z" unicode="Z" horiz-adv-x="586" 
d="M508 0h-519l11 76l485 544h-388l13 80h493l-12 -76l-485 -544h415z" />
    <glyph glyph-name="Zacute" unicode="&#x179;" horiz-adv-x="586" 
d="M508 0h-519l11 76l485 544h-388l13 80h493l-12 -76l-485 -544h415zM409 770h-89l114 147h102z" />
    <glyph glyph-name="Zcaron" unicode="&#x17d;" horiz-adv-x="586" 
d="M508 0h-519l11 76l485 544h-388l13 80h493l-12 -76l-485 -544h415zM562 907l-155 -146h-72l-109 146h88l63 -86l89 86h96z" />
    <glyph glyph-name="Zdotaccent" unicode="&#x17b;" horiz-adv-x="586" 
d="M508 0h-519l11 76l485 544h-388l13 80h493l-12 -76l-485 -544h415zM437 822c-6 -37 -33 -54 -64 -54c-34 0 -61 23 -54 64c6 36 34 53 64 53c35 0 61 -23 54 -63z" />
    <glyph glyph-name="a" unicode="a" horiz-adv-x="619" 
d="M441 82c-48 -53 -115 -94 -205 -94c-139 0 -226 111 -203 257c22 142 140 247 275 247c94 0 149 -46 183 -95l13 83h72l-76 -480h-72zM111 240c-17 -108 47 -178 138 -178c88 0 162 58 199 120l19 120c-15 61 -70 116 -154 116c-95 0 -184 -66 -202 -178z" />
    <glyph glyph-name="aacute" unicode="&#xe1;" horiz-adv-x="619" 
d="M441 82c-48 -53 -115 -94 -205 -94c-139 0 -226 111 -203 257c22 142 140 247 275 247c94 0 149 -46 183 -95l13 83h72l-76 -480h-72zM111 240c-17 -108 47 -178 138 -178c88 0 162 58 199 120l19 120c-15 61 -70 116 -154 116c-95 0 -184 -66 -202 -178zM371 550h-89
l114 147h102z" />
    <glyph glyph-name="abreve" unicode="&#x103;" horiz-adv-x="619" 
d="M441 82c-48 -53 -115 -94 -205 -94c-139 0 -226 111 -203 257c22 142 140 247 275 247c94 0 149 -46 183 -95l13 83h72l-76 -480h-72zM111 240c-17 -108 47 -178 138 -178c88 0 162 58 199 120l19 120c-15 61 -70 116 -154 116c-95 0 -184 -66 -202 -178zM487 596
c-50 -32 -97 -42 -145 -42s-95 10 -135 42l12 78c45 -33 82 -44 131 -44s94 11 149 44z" />
    <glyph glyph-name="acircumflex" unicode="&#xe2;" horiz-adv-x="619" 
d="M441 82c-48 -53 -115 -94 -205 -94c-139 0 -226 111 -203 257c22 142 140 247 275 247c94 0 149 -46 183 -95l13 83h72l-76 -480h-72zM111 240c-17 -108 47 -178 138 -178c88 0 162 58 199 120l19 120c-15 61 -70 116 -154 116c-95 0 -184 -66 -202 -178zM322 697h72
l109 -146h-86l-65 86l-91 -86h-94z" />
    <glyph glyph-name="adieresis" unicode="&#xe4;" horiz-adv-x="619" 
d="M441 82c-48 -53 -115 -94 -205 -94c-139 0 -226 111 -203 257c22 142 140 247 275 247c94 0 149 -46 183 -95l13 83h72l-76 -480h-72zM111 240c-17 -108 47 -178 138 -178c88 0 162 58 199 120l19 120c-15 61 -70 116 -154 116c-95 0 -184 -66 -202 -178zM499 612
c-5 -28 -31 -50 -59 -50c-32 0 -55 28 -50 60c5 27 31 50 59 50c32 0 55 -29 50 -60zM297 612c-5 -28 -31 -50 -59 -50c-32 0 -55 28 -50 60c5 27 31 50 59 50c32 0 55 -29 50 -60z" />
    <glyph glyph-name="agrave" unicode="&#xe0;" horiz-adv-x="619" 
d="M441 82c-48 -53 -115 -94 -205 -94c-139 0 -226 111 -203 257c22 142 140 247 275 247c94 0 149 -46 183 -95l13 83h72l-76 -480h-72zM111 240c-17 -108 47 -178 138 -178c88 0 162 58 199 120l19 120c-15 61 -70 116 -154 116c-95 0 -184 -66 -202 -178zM401 550h-85
l-81 147h98z" />
    <glyph glyph-name="amacron" unicode="&#x101;" horiz-adv-x="619" 
d="M441 82c-48 -53 -115 -94 -205 -94c-139 0 -226 111 -203 257c22 142 140 247 275 247c94 0 149 -46 183 -95l13 83h72l-76 -480h-72zM111 240c-17 -108 47 -178 138 -178c88 0 162 58 199 120l19 120c-15 61 -70 116 -154 116c-95 0 -184 -66 -202 -178zM207 637h300
l-12 -73h-300z" />
    <glyph glyph-name="aogonek" unicode="&#x105;" horiz-adv-x="619" 
d="M576 480l-76 -480c-62 -38 -108 -92 -113 -130c-4 -22 7 -37 34 -37c22 0 38 4 55 11l-11 -66c-18 -6 -39 -10 -65 -10c-68 0 -98 42 -90 94c7 44 43 98 121 157l10 63c-48 -53 -115 -94 -205 -94c-139 0 -226 111 -203 257c22 142 140 247 275 247c94 0 149 -46 183 -95
l13 83h72zM111 240c-17 -108 47 -178 138 -178c88 0 162 58 199 120l19 120c-15 61 -70 116 -154 116c-95 0 -184 -66 -202 -178z" />
    <glyph glyph-name="aring" unicode="&#xe5;" horiz-adv-x="619" 
d="M441 82c-48 -53 -115 -94 -205 -94c-139 0 -226 111 -203 257c22 142 140 247 275 247c94 0 149 -46 183 -95l13 83h72l-76 -480h-72zM111 240c-17 -108 47 -178 138 -178c88 0 162 58 199 120l19 120c-15 61 -70 116 -154 116c-95 0 -184 -66 -202 -178zM470 630
c-11 -67 -70 -106 -128 -106c-61 0 -113 45 -102 116c11 65 70 104 129 104c60 0 112 -45 101 -114zM300 634c-6 -33 16 -55 43 -55c31 0 62 18 68 55c5 32 -16 55 -43 55c-31 0 -63 -19 -68 -55z" />
    <glyph glyph-name="atilde" unicode="&#xe3;" horiz-adv-x="619" 
d="M441 82c-48 -53 -115 -94 -205 -94c-139 0 -226 111 -203 257c22 142 140 247 275 247c94 0 149 -46 183 -95l13 83h72l-76 -480h-72zM111 240c-17 -108 47 -178 138 -178c88 0 162 58 199 120l19 120c-15 61 -70 116 -154 116c-95 0 -184 -66 -202 -178zM512 649
c-1 -75 -48 -106 -94 -106c-63 0 -107 42 -145 42c-25 0 -37 -14 -36 -36h-69c1 74 48 106 93 106c62 0 107 -42 146 -42c27 0 37 13 36 36h69z" />
    <glyph glyph-name="ae" unicode="&#xe6;" horiz-adv-x="982" 
d="M441 82c-48 -53 -115 -94 -205 -94c-139 0 -226 111 -203 257c22 142 140 247 275 247c94 0 149 -46 183 -95l13 83h72l-13 -79c49 61 118 91 190 91c183 0 223 -153 171 -290h-382c-6 -102 87 -140 172 -140c57 0 119 16 166 41l-13 -81c-47 -22 -109 -34 -169 -34
c-69 0 -152 34 -184 102l-14 -90h-72zM111 240c-17 -108 47 -178 138 -178c88 0 162 58 199 120l19 120c-15 61 -70 116 -154 116c-95 0 -184 -66 -202 -178zM744 418c-86 0 -170 -54 -191 -146h312c15 55 -1 146 -121 146z" />
    <glyph glyph-name="b" unicode="b" horiz-adv-x="619" 
d="M138 700h80l-48 -294c43 45 109 86 197 86c139 0 226 -111 203 -257c-22 -142 -131 -247 -275 -247c-94 0 -147 45 -182 94l-14 -82h-72zM492 240c17 108 -47 178 -138 178c-92 0 -162 -58 -199 -120l-21 -120c18 -62 72 -116 156 -116c104 0 184 66 202 178z" />
    <glyph glyph-name="c" unicode="c" horiz-adv-x="495" 
d="M34 248c27 175 172 244 295 244c56 0 105 -15 148 -44l-13 -75c-35 32 -80 45 -129 45c-95 0 -202 -48 -223 -178c-19 -123 60 -178 162 -178c53 0 105 18 153 43l-13 -83c-49 -22 -99 -34 -158 -34c-132 0 -250 85 -222 260z" />
    <glyph glyph-name="cacute" unicode="&#x107;" horiz-adv-x="495" 
d="M34 248c27 175 172 244 295 244c56 0 105 -15 148 -44l-13 -75c-35 32 -80 45 -129 45c-95 0 -202 -48 -223 -178c-19 -123 60 -178 162 -178c53 0 105 18 153 43l-13 -83c-49 -22 -99 -34 -158 -34c-132 0 -250 85 -222 260zM364 550h-89l114 147h102z" />
    <glyph glyph-name="ccaron" unicode="&#x10d;" horiz-adv-x="495" 
d="M34 248c27 175 172 244 295 244c56 0 105 -15 148 -44l-13 -75c-35 32 -80 45 -129 45c-95 0 -202 -48 -223 -178c-19 -123 60 -178 162 -178c53 0 105 18 153 43l-13 -83c-49 -22 -99 -34 -158 -34c-132 0 -250 85 -222 260zM517 687l-155 -146h-72l-109 146h88l63 -86
l89 86h96z" />
    <glyph glyph-name="ccedilla" unicode="&#xe7;" horiz-adv-x="495" 
d="M464 373c-35 32 -80 45 -129 45c-95 0 -202 -48 -223 -178c-19 -123 60 -178 162 -178c53 0 105 18 153 43l-13 -83c-44 -20 -88 -31 -139 -34l-19 -46c61 2 101 -29 94 -83c-9 -63 -65 -91 -138 -91c-42 0 -74 8 -105 20l11 65c24 -12 59 -20 88 -20c47 0 74 12 77 32
c5 31 -52 38 -111 27l37 100c-111 18 -200 102 -175 256c27 175 172 244 295 244c56 0 105 -15 148 -44z" />
    <glyph glyph-name="cdotaccent" unicode="&#x10b;" horiz-adv-x="495" 
d="M34 248c27 175 172 244 295 244c56 0 105 -15 148 -44l-13 -75c-35 32 -80 45 -129 45c-95 0 -202 -48 -223 -178c-19 -123 60 -178 162 -178c53 0 105 18 153 43l-13 -83c-49 -22 -99 -34 -158 -34c-132 0 -250 85 -222 260zM392 602c-6 -37 -33 -54 -64 -54
c-34 0 -61 23 -54 64c6 36 34 53 64 53c35 0 61 -23 54 -63z" />
    <glyph glyph-name="d" unicode="d" horiz-adv-x="620" 
d="M531 700h80l-111 -700h-71l13 85c-46 -56 -111 -97 -206 -97c-139 0 -226 111 -203 257c22 142 135 247 270 247c94 0 152 -45 180 -90zM468 302c-16 62 -71 116 -155 116c-95 0 -184 -66 -202 -178c-17 -108 47 -178 138 -178c88 0 162 58 199 120z" />
    <glyph glyph-name="eth" unicode="&#xf0;" horiz-adv-x="591" 
d="M537 266c-29 -186 -147 -278 -291 -278c-143 0 -238 95 -215 238c20 128 137 218 257 218c94 0 167 -45 189 -105c1 10 1 16 2 27c-5 112 -56 184 -133 223l-108 -94l-40 46l83 70c-39 10 -81 13 -125 13l8 76c56 0 121 -9 179 -32l102 87l39 -46l-82 -71
c98 -59 167 -172 135 -372zM109 216c-14 -92 40 -152 141 -152c103 0 166 61 192 146c13 94 -46 160 -144 160c-97 0 -174 -64 -189 -154z" />
    <glyph glyph-name="dcaron" unicode="&#x10f;" horiz-adv-x="620" 
d="M685 700h80l-57 -184h-70zM531 700h80l-111 -700h-71l13 85c-46 -56 -111 -97 -206 -97c-139 0 -226 111 -203 257c22 142 135 247 270 247c94 0 152 -45 180 -90zM468 302c-16 62 -71 116 -155 116c-95 0 -184 -66 -202 -178c-17 -108 47 -178 138 -178
c88 0 162 58 199 120z" />
    <glyph glyph-name="dcroat" unicode="&#x111;" horiz-adv-x="620" 
d="M598 621h60l-9 -60h-60l-89 -561h-71l13 85c-46 -56 -111 -97 -206 -97c-139 0 -226 111 -203 257c22 142 135 247 270 247c94 0 152 -45 180 -90l26 159h-178l9 60h178l13 79h80zM249 62c88 0 162 58 199 120l20 120c-16 62 -71 116 -155 116c-95 0 -184 -66 -202 -178
c-17 -108 47 -178 138 -178z" />
    <glyph glyph-name="e" unicode="e" horiz-adv-x="548" 
d="M33 243c26 166 160 249 276 249c183 0 233 -153 181 -290h-382c-6 -102 87 -140 172 -140c62 0 124 16 171 41l-13 -81c-47 -22 -107 -34 -172 -34c-125 0 -260 82 -233 255zM431 272c15 55 -1 146 -121 146c-86 0 -170 -54 -191 -146h312z" />
    <glyph glyph-name="eacute" unicode="&#xe9;" horiz-adv-x="548" 
d="M33 243c26 166 160 249 276 249c183 0 233 -153 181 -290h-382c-6 -102 87 -140 172 -140c62 0 124 16 171 41l-13 -81c-47 -22 -107 -34 -172 -34c-125 0 -260 82 -233 255zM431 272c15 55 -1 146 -121 146c-86 0 -170 -54 -191 -146h312zM350 550h-89l114 147h102z" />
    <glyph glyph-name="ecaron" unicode="&#x11b;" horiz-adv-x="548" 
d="M33 243c26 166 160 249 276 249c183 0 233 -153 181 -290h-382c-6 -102 87 -140 172 -140c62 0 124 16 171 41l-13 -81c-47 -22 -107 -34 -172 -34c-125 0 -260 82 -233 255zM431 272c15 55 -1 146 -121 146c-86 0 -170 -54 -191 -146h312zM503 687l-155 -146h-72
l-109 146h88l63 -86l89 86h96z" />
    <glyph glyph-name="ecircumflex" unicode="&#xea;" horiz-adv-x="548" 
d="M33 243c26 166 160 249 276 249c183 0 233 -153 181 -290h-382c-6 -102 87 -140 172 -140c62 0 124 16 171 41l-13 -81c-47 -22 -107 -34 -172 -34c-125 0 -260 82 -233 255zM431 272c15 55 -1 146 -121 146c-86 0 -170 -54 -191 -146h312zM301 697h72l109 -146h-86
l-65 86l-91 -86h-94z" />
    <glyph glyph-name="edieresis" unicode="&#xeb;" horiz-adv-x="548" 
d="M33 243c26 166 160 249 276 249c183 0 233 -153 181 -290h-382c-6 -102 87 -140 172 -140c62 0 124 16 171 41l-13 -81c-47 -22 -107 -34 -172 -34c-125 0 -260 82 -233 255zM431 272c15 55 -1 146 -121 146c-86 0 -170 -54 -191 -146h312zM478 612
c-5 -28 -31 -50 -59 -50c-32 0 -55 28 -50 60c5 27 31 50 59 50c32 0 55 -29 50 -60zM276 612c-5 -28 -31 -50 -59 -50c-32 0 -55 28 -50 60c5 27 31 50 59 50c32 0 55 -29 50 -60z" />
    <glyph glyph-name="edotaccent" unicode="&#x117;" horiz-adv-x="548" 
d="M33 243c26 166 160 249 276 249c183 0 233 -153 181 -290h-382c-6 -102 87 -140 172 -140c62 0 124 16 171 41l-13 -81c-47 -22 -107 -34 -172 -34c-125 0 -260 82 -233 255zM431 272c15 55 -1 146 -121 146c-86 0 -170 -54 -191 -146h312zM378 602
c-6 -37 -33 -54 -64 -54c-34 0 -61 23 -54 64c6 36 34 53 64 53c35 0 61 -23 54 -63z" />
    <glyph glyph-name="egrave" unicode="&#xe8;" horiz-adv-x="548" 
d="M33 243c26 166 160 249 276 249c183 0 233 -153 181 -290h-382c-6 -102 87 -140 172 -140c62 0 124 16 171 41l-13 -81c-47 -22 -107 -34 -172 -34c-125 0 -260 82 -233 255zM431 272c15 55 -1 146 -121 146c-86 0 -170 -54 -191 -146h312zM380 550h-85l-81 147h98z" />
    <glyph glyph-name="emacron" unicode="&#x113;" horiz-adv-x="548" 
d="M33 243c26 166 160 249 276 249c183 0 233 -153 181 -290h-382c-6 -102 87 -140 172 -140c62 0 124 16 171 41l-13 -81c-47 -22 -107 -34 -172 -34c-125 0 -260 82 -233 255zM431 272c15 55 -1 146 -121 146c-86 0 -170 -54 -191 -146h312zM186 637h300l-12 -73h-300z
" />
    <glyph glyph-name="eogonek" unicode="&#x119;" horiz-adv-x="548" 
d="M392 -211c-25 -15 -54 -21 -81 -21c-68 -1 -96 41 -88 93c6 40 37 88 88 130c-15 -2 -30 -3 -45 -3c-125 0 -260 82 -233 255c26 166 160 249 276 249c183 0 233 -153 181 -290h-382c-6 -102 87 -140 172 -140c62 0 124 16 171 41l-13 -81c-88 -62 -132 -115 -138 -153
c-3 -21 7 -37 34 -36c25 1 51 12 69 25zM310 418c-86 0 -170 -54 -191 -146h312c15 55 -1 146 -121 146z" />
    <glyph glyph-name="f" unicode="f" horiz-adv-x="382" 
d="M153 551c20 124 116 161 198 161c46 0 80 -8 112 -23l-12 -72c-22 12 -55 21 -91 21c-58 0 -115 -14 -128 -96l-10 -62h180l-12 -74h-180l-64 -406h-80l64 406h-90l12 74h90z" />
    <glyph glyph-name="g" unicode="g" horiz-adv-x="621" 
d="M501 -3c-26 -165 -155 -229 -286 -229c-88 0 -152 19 -199 50l12 76c46 -34 102 -52 181 -52c104 0 194 47 212 161l11 68c-41 -42 -106 -83 -196 -83c-139 0 -226 111 -203 257c22 142 140 247 275 247c95 0 148 -45 181 -99l14 87h74zM111 240
c-17 -108 47 -178 138 -178c88 0 162 55 199 113l21 128c-17 61 -71 115 -156 115c-95 0 -184 -66 -202 -178z" />
    <glyph glyph-name="gbreve" unicode="&#x11f;" horiz-adv-x="621" 
d="M501 -3c-26 -165 -155 -229 -286 -229c-88 0 -152 19 -199 50l12 76c46 -34 102 -52 181 -52c104 0 194 47 212 161l11 68c-41 -42 -106 -83 -196 -83c-139 0 -226 111 -203 257c22 142 140 247 275 247c95 0 148 -45 181 -99l14 87h74zM111 240
c-17 -108 47 -178 138 -178c88 0 162 55 199 113l21 128c-17 61 -71 115 -156 115c-95 0 -184 -66 -202 -178zM472 596c-50 -32 -97 -42 -145 -42s-95 10 -135 42l12 78c45 -33 82 -44 131 -44s94 11 149 44z" />
    <glyph glyph-name="gcommaaccent" unicode="&#x123;" horiz-adv-x="621" 
d="M359 546h-80l59 164h70zM501 -3c-26 -165 -155 -229 -286 -229c-88 0 -152 19 -199 50l12 76c46 -34 102 -52 181 -52c104 0 194 47 212 161l11 68c-41 -42 -106 -83 -196 -83c-139 0 -226 111 -203 257c22 142 140 247 275 247c95 0 148 -45 181 -99l14 87h74zM111 240
c-17 -108 47 -178 138 -178c88 0 162 55 199 113l21 128c-17 61 -71 115 -156 115c-95 0 -184 -66 -202 -178z" />
    <glyph glyph-name="gdotaccent" unicode="&#x121;" horiz-adv-x="621" 
d="M501 -3c-26 -165 -155 -229 -286 -229c-88 0 -152 19 -199 50l12 76c46 -34 102 -52 181 -52c104 0 194 47 212 161l11 68c-41 -42 -106 -83 -196 -83c-139 0 -226 111 -203 257c22 142 140 247 275 247c95 0 148 -45 181 -99l14 87h74zM111 240
c-17 -108 47 -178 138 -178c88 0 162 55 199 113l21 128c-17 61 -71 115 -156 115c-95 0 -184 -66 -202 -178zM384 602c-6 -37 -33 -54 -64 -54c-34 0 -61 23 -54 64c6 36 34 53 64 53c35 0 61 -23 54 -63z" />
    <glyph glyph-name="h" unicode="h" horiz-adv-x="586" 
d="M138 700h80l-46 -286c46 43 112 78 181 78c118 0 184 -82 166 -199l-46 -293h-81l46 289c14 90 -33 129 -105 129c-68 0 -136 -49 -176 -99l-50 -319h-80z" />
    <glyph glyph-name="hbar" unicode="&#x127;" horiz-adv-x="586" 
d="M172 414c46 43 112 78 181 78c118 0 184 -82 166 -199l-46 -293h-81l46 289c14 90 -33 129 -105 129c-68 0 -136 -49 -176 -99l-50 -319h-80l89 561h-59l9 60h59l13 79h80l-13 -79h178l-9 -60h-178z" />
    <glyph glyph-name="i" unicode="i" horiz-adv-x="232" 
d="M110 0h-80l76 480h80zM222 628c-6 -32 -29 -46 -56 -46c-30 0 -53 20 -48 56c5 31 30 46 57 46c30 0 52 -21 47 -56z" />
    <glyph glyph-name="dotlessi" unicode="&#x131;" horiz-adv-x="232" 
d="M110 0h-80l76 480h80z" />
    <glyph glyph-name="iacute" unicode="&#xed;" horiz-adv-x="232" 
d="M110 0h-80l76 480h80zM190 550h-89l114 147h102z" />
    <glyph glyph-name="icircumflex" unicode="&#xee;" horiz-adv-x="232" 
d="M110 0h-80l76 480h80zM100 551h-94l135 146h72l89 -146h-86l-45 86z" />
    <glyph glyph-name="idieresis" unicode="&#xef;" horiz-adv-x="232" 
d="M110 0h-80l76 480h80zM131 612c-4 -25 -28 -45 -54 -45c-29 0 -50 25 -45 55c5 24 28 45 54 45c29 0 50 -26 45 -55zM293 612c-4 -25 -28 -45 -54 -45c-29 0 -50 25 -45 55c5 24 28 45 54 45c29 0 50 -26 45 -55z" />
    <glyph glyph-name="i.loclTRK" horiz-adv-x="232" 
d="M110 0h-80l76 480h80zM218 602c-6 -37 -33 -54 -64 -54c-34 0 -61 23 -54 64c6 36 34 53 64 53c35 0 61 -23 54 -63z" />
    <glyph glyph-name="igrave" unicode="&#xec;" horiz-adv-x="232" 
d="M210 550h-80l-56 147h98zM110 0h-80l76 480h80z" />
    <glyph glyph-name="ij" unicode="&#x133;" horiz-adv-x="465" 
d="M110 0h-80l76 480h80zM222 628c-6 -32 -29 -46 -56 -46c-30 0 -53 20 -48 56c5 31 30 46 57 46c30 0 52 -21 47 -56zM328 -92c-17 -108 -93 -140 -156 -140c-31 0 -56 6 -77 16l11 70c15 -8 36 -12 52 -12c44 0 83 21 93 84l88 554h80zM455 628c-6 -32 -29 -46 -56 -46
c-30 0 -53 20 -48 56c5 31 30 46 57 46c30 0 52 -21 47 -56z" />
    <glyph glyph-name="imacron" unicode="&#x12b;" horiz-adv-x="232" 
d="M271 574h-220l12 75h220zM110 0h-80l76 480h80z" />
    <glyph glyph-name="iogonek" unicode="&#x12f;" horiz-adv-x="233" 
d="M119 638c5 31 30 46 57 46c30 0 52 -21 47 -56c-6 -32 -29 -46 -56 -46c-30 0 -53 20 -48 56zM187 480l-76 -480c-38 -38 -78 -84 -85 -126c-4 -23 8 -41 34 -41c21 0 40 6 61 19l-11 -69c-23 -11 -46 -15 -72 -15c-68 0 -94 51 -87 98c8 47 43 101 81 140l75 474h80z
" />
    <glyph glyph-name="j" unicode="j" horiz-adv-x="233" 
d="M96 -92c-17 -108 -93 -140 -156 -140c-31 0 -56 6 -77 16l11 70c15 -8 36 -12 52 -12c44 0 83 21 93 84l88 554h80zM223 628c-6 -32 -29 -46 -56 -46c-30 0 -53 20 -48 56c5 31 30 46 57 46c30 0 52 -21 47 -56z" />
    <glyph glyph-name="k" unicode="k" horiz-adv-x="518" 
d="M431 480h95l-219 -234l161 -246h-90l-141 216h-96l-34 -216h-80l111 700h80l-65 -410h101z" />
    <glyph glyph-name="kcommaaccent" unicode="&#x137;" horiz-adv-x="518" 
d="M431 480h95l-219 -234l161 -246h-90l-141 216h-96l-34 -216h-80l111 700h80l-65 -410h101zM218 -231h-70l55 190h80z" />
    <glyph glyph-name="l" unicode="l" horiz-adv-x="232" 
d="M146 730h80l-116 -730h-80z" />
    <glyph glyph-name="lacute" unicode="&#x13a;" horiz-adv-x="232" 
d="M146 730h80l-116 -730h-80zM236 770h-89l114 147h102z" />
    <glyph glyph-name="lcaron" unicode="&#x13e;" horiz-adv-x="233" 
d="M301 730h80l-57 -184h-70zM146 730h80l-116 -730h-80z" />
    <glyph glyph-name="lcommaaccent" unicode="&#x13c;" horiz-adv-x="232" 
d="M146 730h80l-116 -730h-80zM41 -231h-70l55 190h80z" />
    <glyph glyph-name="ldot" unicode="&#x140;" horiz-adv-x="316" 
d="M146 730h80l-116 -730h-80zM335 345c-5 -32 -29 -46 -55 -46c-30 0 -54 20 -48 56c5 32 30 46 56 46c30 0 53 -20 47 -56z" />
    <glyph glyph-name="lslash" unicode="&#x142;" horiz-adv-x="294" 
d="M177 730h80l-49 -305l90 35l-11 -70l-90 -36l-56 -354h-80l51 323l-89 -35l11 70l90 36z" />
    <glyph glyph-name="m" unicode="m" horiz-adv-x="890" 
d="M481 412c50 44 114 80 186 80c121 0 173 -87 156 -199l-47 -293h-80l48 301c11 73 -22 117 -90 117s-125 -48 -157 -82c0 -14 -1 -28 -3 -43l-47 -293h-80l48 301c11 73 -22 117 -90 117c-73 0 -132 -55 -164 -89l-53 -329h-80l76 480h71l-11 -67c32 33 97 79 174 79
c72 0 120 -31 143 -80z" />
    <glyph glyph-name="n" unicode="n" horiz-adv-x="587" 
d="M163 405c47 47 115 87 192 87c117 0 183 -82 165 -199l-47 -293h-80l46 289c14 90 -33 129 -105 129c-68 0 -136 -49 -176 -98l-50 -320h-80l76 480h71z" />
    <glyph glyph-name="nacute" unicode="&#x144;" horiz-adv-x="587" 
d="M163 405c47 47 115 87 192 87c117 0 183 -82 165 -199l-47 -293h-80l46 289c14 90 -33 129 -105 129c-68 0 -136 -49 -176 -98l-50 -320h-80l76 480h71zM376 550h-89l114 147h102z" />
    <glyph glyph-name="ncaron" unicode="&#x148;" horiz-adv-x="587" 
d="M163 405c47 47 115 87 192 87c117 0 183 -82 165 -199l-47 -293h-80l46 289c14 90 -33 129 -105 129c-68 0 -136 -49 -176 -98l-50 -320h-80l76 480h71zM529 687l-155 -146h-72l-109 146h88l63 -86l89 86h96z" />
    <glyph glyph-name="ncommaaccent" unicode="&#x146;" horiz-adv-x="587" 
d="M163 405c47 47 115 87 192 87c117 0 183 -82 165 -199l-47 -293h-80l46 289c14 90 -33 129 -105 129c-68 0 -136 -49 -176 -98l-50 -320h-80l76 480h71zM234 -231h-70l55 190h80z" />
    <glyph glyph-name="eng" unicode="&#x14b;" horiz-adv-x="587" 
d="M459 -92c-18 -115 -94 -140 -157 -140c-32 0 -57 6 -77 15l11 71c16 -8 38 -12 58 -12c44 0 77 23 87 84l58 363c14 90 -33 129 -105 129c-68 0 -136 -49 -176 -98l-50 -320h-80l76 480h71l-12 -75c47 47 115 87 192 87c117 0 184 -82 165 -199z" />
    <glyph glyph-name="ntilde" unicode="&#xf1;" horiz-adv-x="587" 
d="M163 405c47 47 115 87 192 87c117 0 183 -82 165 -199l-47 -293h-80l46 289c14 90 -33 129 -105 129c-68 0 -136 -49 -176 -98l-50 -320h-80l76 480h71zM517 649c-1 -75 -48 -106 -94 -106c-63 0 -107 42 -145 42c-25 0 -37 -14 -36 -36h-69c1 74 48 106 93 106
c62 0 107 -42 146 -42c27 0 37 13 36 36h69z" />
    <glyph glyph-name="o" unicode="o" horiz-adv-x="592" 
d="M543 235c-25 -162 -164 -247 -293 -247c-127 0 -243 91 -217 257c26 162 165 247 293 247s244 -91 217 -257zM111 235c-17 -109 49 -171 145 -171c100 0 191 68 209 181c17 109 -49 171 -145 171c-100 0 -191 -68 -209 -181z" />
    <glyph glyph-name="oacute" unicode="&#xf3;" horiz-adv-x="592" 
d="M543 235c-25 -162 -164 -247 -293 -247c-127 0 -243 91 -217 257c26 162 165 247 293 247s244 -91 217 -257zM111 235c-17 -109 49 -171 145 -171c100 0 191 68 209 181c17 109 -49 171 -145 171c-100 0 -191 -68 -209 -181zM363 550h-89l114 147h102z" />
    <glyph glyph-name="ocircumflex" unicode="&#xf4;" horiz-adv-x="592" 
d="M543 235c-25 -162 -164 -247 -293 -247c-127 0 -243 91 -217 257c26 162 165 247 293 247s244 -91 217 -257zM111 235c-17 -109 49 -171 145 -171c100 0 191 68 209 181c17 109 -49 171 -145 171c-100 0 -191 -68 -209 -181zM314 697h72l109 -146h-86l-65 86l-91 -86h-94
z" />
    <glyph glyph-name="odieresis" unicode="&#xf6;" horiz-adv-x="592" 
d="M543 235c-25 -162 -164 -247 -293 -247c-127 0 -243 91 -217 257c26 162 165 247 293 247s244 -91 217 -257zM111 235c-17 -109 49 -171 145 -171c100 0 191 68 209 181c17 109 -49 171 -145 171c-100 0 -191 -68 -209 -181zM491 612c-5 -28 -31 -50 -59 -50
c-32 0 -55 28 -50 60c5 27 31 50 59 50c32 0 55 -29 50 -60zM289 612c-5 -28 -31 -50 -59 -50c-32 0 -55 28 -50 60c5 27 31 50 59 50c32 0 55 -29 50 -60z" />
    <glyph glyph-name="ograve" unicode="&#xf2;" horiz-adv-x="592" 
d="M543 235c-25 -162 -164 -247 -293 -247c-127 0 -243 91 -217 257c26 162 165 247 293 247s244 -91 217 -257zM111 235c-17 -109 49 -171 145 -171c100 0 191 68 209 181c17 109 -49 171 -145 171c-100 0 -191 -68 -209 -181zM393 550h-85l-81 147h98z" />
    <glyph glyph-name="ohungarumlaut" unicode="&#x151;" horiz-adv-x="592" 
d="M543 235c-25 -162 -164 -247 -293 -247c-127 0 -243 91 -217 257c26 162 165 247 293 247s244 -91 217 -257zM111 235c-17 -109 49 -171 145 -171c100 0 191 68 209 181c17 109 -49 171 -145 171c-100 0 -191 -68 -209 -181zM454 560h-87l92 147h92zM299 560h-87l92 147
h92z" />
    <glyph glyph-name="omacron" unicode="&#x14d;" horiz-adv-x="592" 
d="M543 235c-25 -162 -164 -247 -293 -247c-127 0 -243 91 -217 257c26 162 165 247 293 247s244 -91 217 -257zM111 235c-17 -109 49 -171 145 -171c100 0 191 68 209 181c17 109 -49 171 -145 171c-100 0 -191 -68 -209 -181zM199 637h300l-12 -73h-300z" />
    <glyph glyph-name="oslash" unicode="&#xf8;" horiz-adv-x="592" 
d="M573 543l-89 -108c47 -44 73 -111 59 -200c-25 -162 -164 -247 -293 -247c-40 0 -79 9 -113 27l-61 -75h-72l88 107c-47 43 -73 110 -59 198c26 162 165 247 293 247c40 0 78 -9 112 -26l63 77h72zM320 416c-100 0 -191 -68 -209 -181c-9 -55 4 -98 31 -127l245 296
c-20 8 -43 12 -67 12zM256 64c100 0 191 68 209 181c9 56 -4 99 -32 128l-245 -297c20 -8 43 -12 68 -12z" />
    <glyph glyph-name="otilde" unicode="&#xf5;" horiz-adv-x="592" 
d="M543 235c-25 -162 -164 -247 -293 -247c-127 0 -243 91 -217 257c26 162 165 247 293 247s244 -91 217 -257zM111 235c-17 -109 49 -171 145 -171c100 0 191 68 209 181c17 109 -49 171 -145 171c-100 0 -191 -68 -209 -181zM504 649c-1 -75 -48 -106 -94 -106
c-63 0 -107 42 -145 42c-25 0 -37 -14 -36 -36h-69c1 74 48 106 93 106c62 0 107 -42 146 -42c27 0 37 13 36 36h69z" />
    <glyph glyph-name="oe" unicode="&#x153;" horiz-adv-x="978" 
d="M484 110c-54 -82 -143 -122 -234 -122c-127 0 -243 91 -217 257c26 162 165 247 293 247c87 0 163 -42 195 -120c52 80 135 120 218 120c183 0 233 -153 181 -290h-382c-6 -102 87 -140 172 -140c60 0 122 16 171 41l-13 -81c-49 -22 -113 -34 -176 -34
c-91 0 -175 39 -208 122zM111 235c-17 -109 49 -171 145 -171c100 0 191 68 209 181c17 109 -49 171 -145 171c-100 0 -191 -68 -209 -181zM740 418c-86 0 -170 -54 -191 -146h312c15 55 -1 146 -121 146z" />
    <glyph glyph-name="p" unicode="p" horiz-adv-x="620" 
d="M162 395c50 58 118 97 206 97c139 0 226 -111 203 -257c-22 -142 -140 -247 -275 -247c-94 0 -147 45 -175 96l-48 -304h-80l111 700h72zM493 240c17 108 -47 178 -138 178c-90 0 -162 -58 -200 -121l-19 -120c17 -61 71 -115 155 -115c95 0 184 66 202 178z" />
    <glyph glyph-name="thorn" unicode="&#xfe;" horiz-adv-x="620" 
d="M73 -220h-80l146 920h80l-48 -298c46 51 109 90 197 90c139 0 226 -111 203 -257c-22 -142 -140 -247 -275 -247c-94 0 -147 45 -175 96zM136 177c17 -61 71 -115 155 -115c95 0 184 66 202 178c17 108 -47 178 -138 178c-90 0 -162 -58 -200 -121z" />
    <glyph glyph-name="q" unicode="q" horiz-adv-x="619" 
d="M33 245c22 142 140 247 275 247c89 0 148 -44 182 -99l14 87h72l-111 -700h-80l47 295c-41 -46 -106 -87 -196 -87c-139 0 -226 111 -203 257zM468 304c-16 60 -71 114 -155 114c-95 0 -184 -66 -202 -178c-17 -108 47 -178 138 -178c88 0 162 58 199 120z" />
    <glyph glyph-name="r" unicode="r" horiz-adv-x="367" 
d="M163 398c44 63 115 101 220 92l-13 -82c-91 16 -175 -33 -215 -111l-47 -297h-80l76 480h72z" />
    <glyph glyph-name="racute" unicode="&#x155;" horiz-adv-x="367" 
d="M163 398c44 63 115 101 220 92l-13 -82c-91 16 -175 -33 -215 -111l-47 -297h-80l76 480h72zM296 550h-89l114 147h102z" />
    <glyph glyph-name="rcaron" unicode="&#x159;" horiz-adv-x="367" 
d="M163 398c44 63 115 101 220 92l-13 -82c-91 16 -175 -33 -215 -111l-47 -297h-80l76 480h72zM449 687l-155 -146h-72l-109 146h88l63 -86l89 86h96z" />
    <glyph glyph-name="rcommaaccent" unicode="&#x157;" horiz-adv-x="367" 
d="M163 398c44 63 115 101 220 92l-13 -82c-91 16 -175 -33 -215 -111l-47 -297h-80l76 480h72zM39 -231h-70l55 190h80z" />
    <glyph glyph-name="s" unicode="s" horiz-adv-x="466" 
d="M53 361c13 95 115 131 205 131c66 0 124 -18 165 -42l-12 -74c-38 26 -96 44 -155 44s-117 -19 -123 -66c-12 -101 302 -60 273 -236c-16 -98 -117 -130 -215 -130c-74 0 -138 20 -179 50l12 78c44 -34 108 -54 170 -54c64 0 125 14 133 64c15 100 -297 62 -274 235z" />
    <glyph glyph-name="sacute" unicode="&#x15b;" horiz-adv-x="466" 
d="M53 361c13 95 115 131 205 131c66 0 124 -18 165 -42l-12 -74c-38 26 -96 44 -155 44s-117 -19 -123 -66c-12 -101 302 -60 273 -236c-16 -98 -117 -130 -215 -130c-74 0 -138 20 -179 50l12 78c44 -34 108 -54 170 -54c64 0 125 14 133 64c15 100 -297 62 -274 235z
M294 550h-89l114 147h102z" />
    <glyph glyph-name="scaron" unicode="&#x161;" horiz-adv-x="466" 
d="M53 361c13 95 115 131 205 131c66 0 124 -18 165 -42l-12 -74c-38 26 -96 44 -155 44s-117 -19 -123 -66c-12 -101 302 -60 273 -236c-16 -98 -117 -130 -215 -130c-74 0 -138 20 -179 50l12 78c44 -34 108 -54 170 -54c64 0 125 14 133 64c15 100 -297 62 -274 235z
M447 687l-155 -146h-72l-109 146h88l63 -86l89 86h96z" />
    <glyph glyph-name="scedilla" unicode="&#x15f;" horiz-adv-x="466" 
d="M300 -141c-9 -63 -65 -91 -138 -91c-42 0 -74 8 -105 20l11 65c24 -12 59 -20 88 -20c47 0 74 12 77 32c5 31 -52 38 -111 27l36 97c-60 5 -111 24 -146 49l12 78c44 -34 108 -54 170 -54c64 0 125 14 133 64c15 100 -297 62 -274 235c13 95 115 131 205 131
c66 0 124 -18 165 -42l-12 -74c-38 26 -96 44 -155 44s-117 -19 -123 -66c-12 -101 302 -60 273 -236c-14 -86 -94 -122 -180 -129l-20 -47c61 2 101 -29 94 -83z" />
    <glyph glyph-name="scommaaccent" unicode="&#x219;" horiz-adv-x="466" 
d="M53 361c13 95 115 131 205 131c66 0 124 -18 165 -42l-12 -74c-38 26 -96 44 -155 44s-117 -19 -123 -66c-12 -101 302 -60 273 -236c-16 -98 -117 -130 -215 -130c-74 0 -138 20 -179 50l12 78c44 -34 108 -54 170 -54c64 0 125 14 133 64c15 100 -297 62 -274 235z
M181 -231h-70l55 190h80z" />
    <glyph glyph-name="germandbls" unicode="&#xdf;" horiz-adv-x="594" 
d="M537 142c-18 -109 -125 -154 -221 -154c-43 0 -88 10 -123 25l11 69c30 -16 69 -24 100 -24c71 0 143 26 154 99c14 90 -127 147 -115 221c11 67 88 100 101 183c7 47 -28 81 -98 81c-83 0 -144 -49 -157 -134l-81 -508h-80l79 500c22 137 110 211 239 212
c137 1 189 -83 178 -152c-14 -86 -94 -127 -102 -180c-11 -64 135 -111 115 -238z" />
    <glyph glyph-name="t" unicode="t" horiz-adv-x="406" 
d="M157 627l83 23l-27 -170h193l-12 -74h-193l-40 -251c-12 -75 20 -93 84 -93c40 0 79 11 112 28l-12 -78c-37 -16 -82 -24 -126 -24c-89 0 -155 53 -138 159l41 259h-90l12 74h90z" />
    <glyph glyph-name="tbar" unicode="&#x167;" horiz-adv-x="406" 
d="M406 480l-12 -74h-193l-16 -98h158l-11 -70h-158l-13 -83c-12 -75 20 -93 84 -93c40 0 79 11 112 28l-12 -78c-37 -16 -82 -24 -126 -24c-89 0 -155 53 -138 159l14 91h-45l11 70h45l16 98h-90l12 74h90l23 147l83 23l-27 -170h193z" />
    <glyph glyph-name="tcaron" unicode="&#x165;" horiz-adv-x="406" 
d="M343 720h80l-56 -174h-70zM157 627l83 23l-27 -170h193l-12 -74h-193l-40 -251c-12 -75 20 -93 84 -93c40 0 79 11 112 28l-12 -78c-37 -16 -82 -24 -126 -24c-89 0 -155 53 -138 159l41 259h-90l12 74h90z" />
    <glyph glyph-name="tcommaaccent" unicode="&#x163;" horiz-adv-x="406" 
d="M157 627l83 23l-27 -170h193l-12 -74h-193l-40 -251c-12 -75 20 -93 84 -93c40 0 79 11 112 28l-12 -78c-37 -16 -82 -24 -126 -24c-89 0 -155 53 -138 159l41 259h-90l12 74h90zM200 -231h-70l55 190h80z" />
    <glyph glyph-name="uni021B" unicode="&#x21b;" horiz-adv-x="406" 
d="M157 627l83 23l-27 -170h193l-12 -74h-193l-40 -251c-12 -75 20 -93 84 -93c40 0 79 11 112 28l-12 -78c-37 -16 -82 -24 -126 -24c-89 0 -155 53 -138 159l41 259h-90l12 74h90zM200 -231h-70l55 190h80z" />
    <glyph glyph-name="u" unicode="u" horiz-adv-x="585" 
d="M462 480h80l-76 -480h-71l12 75c-40 -48 -111 -87 -184 -87c-121 0 -191 82 -172 201l46 291h80l-46 -289c-14 -90 29 -129 105 -129s136 46 175 98z" />
    <glyph glyph-name="uacute" unicode="&#xfa;" horiz-adv-x="585" 
d="M462 480h80l-76 -480h-71l12 75c-40 -48 -111 -87 -184 -87c-121 0 -191 82 -172 201l46 291h80l-46 -289c-14 -90 29 -129 105 -129s136 46 175 98zM355 550h-89l114 147h102z" />
    <glyph glyph-name="ucircumflex" unicode="&#xfb;" horiz-adv-x="585" 
d="M462 480h80l-76 -480h-71l12 75c-40 -48 -111 -87 -184 -87c-121 0 -191 82 -172 201l46 291h80l-46 -289c-14 -90 29 -129 105 -129s136 46 175 98zM306 697h72l109 -146h-86l-65 86l-91 -86h-94z" />
    <glyph glyph-name="udieresis" unicode="&#xfc;" horiz-adv-x="585" 
d="M462 480h80l-76 -480h-71l12 75c-40 -48 -111 -87 -184 -87c-121 0 -191 82 -172 201l46 291h80l-46 -289c-14 -90 29 -129 105 -129s136 46 175 98zM483 612c-5 -28 -31 -50 -59 -50c-32 0 -55 28 -50 60c5 27 31 50 59 50c32 0 55 -29 50 -60zM281 612
c-5 -28 -31 -50 -59 -50c-32 0 -55 28 -50 60c5 27 31 50 59 50c32 0 55 -29 50 -60z" />
    <glyph glyph-name="ugrave" unicode="&#xf9;" horiz-adv-x="585" 
d="M462 480h80l-76 -480h-71l12 75c-40 -48 -111 -87 -184 -87c-121 0 -191 82 -172 201l46 291h80l-46 -289c-14 -90 29 -129 105 -129s136 46 175 98zM385 550h-85l-81 147h98z" />
    <glyph glyph-name="uhungarumlaut" unicode="&#x171;" horiz-adv-x="585" 
d="M462 480h80l-76 -480h-71l12 75c-40 -48 -111 -87 -184 -87c-121 0 -191 82 -172 201l46 291h80l-46 -289c-14 -90 29 -129 105 -129s136 46 175 98zM446 560h-87l92 147h92zM291 560h-87l92 147h92z" />
    <glyph glyph-name="umacron" unicode="&#x16b;" horiz-adv-x="585" 
d="M462 480h80l-76 -480h-71l12 75c-40 -48 -111 -87 -184 -87c-121 0 -191 82 -172 201l46 291h80l-46 -289c-14 -90 29 -129 105 -129s136 46 175 98zM191 637h300l-12 -73h-300z" />
    <glyph glyph-name="uogonek" unicode="&#x173;" horiz-adv-x="585" 
d="M542 480l-76 -480c-62 -38 -108 -93 -113 -131c-4 -22 7 -36 34 -36c22 0 38 4 55 11l-11 -66c-18 -6 -39 -10 -65 -10c-68 0 -98 42 -90 94c7 44 43 98 122 157l9 56c-40 -48 -111 -87 -184 -87c-121 0 -191 82 -172 201l46 291h80l-46 -289c-14 -90 29 -129 105 -129
s136 46 175 98l51 320h80z" />
    <glyph glyph-name="uring" unicode="&#x16f;" horiz-adv-x="585" 
d="M462 480h80l-76 -480h-71l12 75c-40 -48 -111 -87 -184 -87c-121 0 -191 82 -172 201l46 291h80l-46 -289c-14 -90 29 -129 105 -129s136 46 175 98zM454 630c-11 -67 -70 -106 -128 -106c-61 0 -113 45 -102 116c11 65 70 104 129 104c60 0 112 -45 101 -114zM284 634
c-6 -33 16 -55 43 -55c31 0 62 18 68 55c5 32 -16 55 -43 55c-31 0 -63 -19 -68 -55z" />
    <glyph glyph-name="v" unicode="v" horiz-adv-x="534" 
d="M463 480h88l-288 -480h-84l-136 480h84l105 -389z" />
    <glyph glyph-name="w" unicode="w" horiz-adv-x="792" 
d="M718 480h86l-238 -480h-85l-70 369l-190 -369h-87l-88 480h81l66 -380l196 380h72l73 -379z" />
    <glyph glyph-name="wacute" unicode="&#x1e83;" horiz-adv-x="793" 
d="M719 480h86l-238 -480h-85l-70 369l-190 -369h-87l-88 480h81l66 -380l196 380h72l73 -379zM470 550h-89l114 147h102z" />
    <glyph glyph-name="wcircumflex" unicode="&#x175;" horiz-adv-x="793" 
d="M719 480h86l-238 -480h-85l-70 369l-190 -369h-87l-88 480h81l66 -380l196 380h72l73 -379zM421 697h72l109 -146h-86l-65 86l-91 -86h-94z" />
    <glyph glyph-name="wdieresis" unicode="&#x1e85;" horiz-adv-x="793" 
d="M719 480h86l-238 -480h-85l-70 369l-190 -369h-87l-88 480h81l66 -380l196 380h72l73 -379zM598 612c-5 -28 -31 -50 -59 -50c-32 0 -55 28 -50 60c5 27 31 50 59 50c32 0 55 -29 50 -60zM396 612c-5 -28 -31 -50 -59 -50c-32 0 -55 28 -50 60c5 27 31 50 59 50
c32 0 55 -29 50 -60z" />
    <glyph glyph-name="wgrave" unicode="&#x1e81;" horiz-adv-x="793" 
d="M719 480h86l-238 -480h-85l-70 369l-190 -369h-87l-88 480h81l66 -380l196 380h72l73 -379zM500 550h-85l-81 147h98z" />
    <glyph glyph-name="x" unicode="x" horiz-adv-x="488" 
d="M59 0h-94l227 247l-139 233h90l101 -178l160 178h94l-217 -235l149 -245h-90l-110 190z" />
    <glyph glyph-name="y" unicode="y" horiz-adv-x="538" 
d="M239 85l227 395h87l-323 -554c-68 -116 -136 -158 -204 -158c-22 0 -38 3 -55 8l11 67c12 -4 25 -5 37 -5c56 0 101 42 146 119l26 44l-151 479h80z" />
    <glyph glyph-name="yacute" unicode="&#xfd;" horiz-adv-x="538" 
d="M239 85l227 395h87l-323 -554c-68 -116 -136 -158 -204 -158c-22 0 -38 3 -55 8l11 67c12 -4 25 -5 37 -5c56 0 101 42 146 119l26 44l-151 479h80zM327 550h-89l114 147h102z" />
    <glyph glyph-name="ycircumflex" unicode="&#x177;" horiz-adv-x="538" 
d="M239 85l227 395h87l-323 -554c-68 -116 -136 -158 -204 -158c-22 0 -38 3 -55 8l11 67c12 -4 25 -5 37 -5c56 0 101 42 146 119l26 44l-151 479h80zM278 697h72l109 -146h-86l-65 86l-91 -86h-94z" />
    <glyph glyph-name="ydieresis" unicode="&#xff;" horiz-adv-x="538" 
d="M239 85l227 395h87l-323 -554c-68 -116 -136 -158 -204 -158c-22 0 -38 3 -55 8l11 67c12 -4 25 -5 37 -5c56 0 101 42 146 119l26 44l-151 479h80zM455 612c-5 -28 -31 -50 -59 -50c-32 0 -55 28 -50 60c5 27 31 50 59 50c32 0 55 -29 50 -60zM253 612
c-5 -28 -31 -50 -59 -50c-32 0 -55 28 -50 60c5 27 31 50 59 50c32 0 55 -29 50 -60z" />
    <glyph glyph-name="ygrave" unicode="&#x1ef3;" horiz-adv-x="538" 
d="M239 85l227 395h87l-323 -554c-68 -116 -136 -158 -204 -158c-22 0 -38 3 -55 8l11 67c12 -4 25 -5 37 -5c56 0 101 42 146 119l26 44l-151 479h80zM357 550h-85l-81 147h98z" />
    <glyph glyph-name="z" unicode="z" horiz-adv-x="465" 
d="M78 480h369l-12 -72l-337 -338h298l-11 -70h-395l11 72l338 338h-272z" />
    <glyph glyph-name="zacute" unicode="&#x17a;" horiz-adv-x="465" 
d="M78 480h369l-12 -72l-337 -338h298l-11 -70h-395l11 72l338 338h-272zM307 550h-89l114 147h102z" />
    <glyph glyph-name="zcaron" unicode="&#x17e;" horiz-adv-x="465" 
d="M78 480h369l-12 -72l-337 -338h298l-11 -70h-395l11 72l338 338h-272zM460 687l-155 -146h-72l-109 146h88l63 -86l89 86h96z" />
    <glyph glyph-name="zdotaccent" unicode="&#x17c;" horiz-adv-x="465" 
d="M78 480h369l-12 -72l-337 -338h298l-11 -70h-395l11 72l338 338h-272zM335 602c-6 -37 -33 -54 -64 -54c-34 0 -61 23 -54 64c6 36 34 53 64 53c35 0 61 -23 54 -63z" />
    <glyph glyph-name="a.ss01" horiz-adv-x="542" 
d="M433 97c-5 -29 9 -34 28 -34c14 0 30 3 42 7l-10 -66c-19 -7 -40 -10 -58 -10c-39 0 -72 16 -81 57c-51 -42 -116 -63 -186 -63c-86 0 -167 55 -158 156c11 122 137 152 228 152c54 0 102 -6 145 -17l4 25c12 77 -30 114 -136 114c-55 0 -118 -17 -166 -37l13 80
c39 15 109 31 165 31c150 0 222 -65 200 -205zM184 57c61 0 129 25 174 69l15 91c-33 7 -80 12 -127 12c-62 0 -149 -18 -155 -90c-4 -52 37 -82 93 -82z" />
    <glyph glyph-name="aacute.ss01" horiz-adv-x="542" 
d="M433 97c-5 -29 9 -34 28 -34c14 0 30 3 42 7l-10 -66c-19 -7 -40 -10 -58 -10c-39 0 -72 16 -81 57c-51 -42 -116 -63 -186 -63c-86 0 -167 55 -158 156c11 122 137 152 228 152c54 0 102 -6 145 -17l4 25c12 77 -30 114 -136 114c-55 0 -118 -17 -166 -37l13 80
c39 15 109 31 165 31c150 0 222 -65 200 -205zM184 57c61 0 129 25 174 69l15 91c-33 7 -80 12 -127 12c-62 0 -149 -18 -155 -90c-4 -52 37 -82 93 -82zM328 550h-89l114 147h102z" />
    <glyph glyph-name="abreve.ss01" horiz-adv-x="542" 
d="M433 97c-5 -29 9 -34 28 -34c14 0 30 3 42 7l-10 -66c-19 -7 -40 -10 -58 -10c-39 0 -72 16 -81 57c-51 -42 -116 -63 -186 -63c-86 0 -167 55 -158 156c11 122 137 152 228 152c54 0 102 -6 145 -17l4 25c12 77 -30 114 -136 114c-55 0 -118 -17 -166 -37l13 80
c39 15 109 31 165 31c150 0 222 -65 200 -205zM184 57c61 0 129 25 174 69l15 91c-33 7 -80 12 -127 12c-62 0 -149 -18 -155 -90c-4 -52 37 -82 93 -82zM444 596c-50 -32 -97 -42 -145 -42s-95 10 -135 42l12 78c45 -33 82 -44 131 -44s94 11 149 44z" />
    <glyph glyph-name="acircumflex.ss01" horiz-adv-x="542" 
d="M433 97c-5 -29 9 -34 28 -34c14 0 30 3 42 7l-10 -66c-19 -7 -40 -10 -58 -10c-39 0 -72 16 -81 57c-51 -42 -116 -63 -186 -63c-86 0 -167 55 -158 156c11 122 137 152 228 152c54 0 102 -6 145 -17l4 25c12 77 -30 114 -136 114c-55 0 -118 -17 -166 -37l13 80
c39 15 109 31 165 31c150 0 222 -65 200 -205zM184 57c61 0 129 25 174 69l15 91c-33 7 -80 12 -127 12c-62 0 -149 -18 -155 -90c-4 -52 37 -82 93 -82zM279 697h72l109 -146h-86l-65 86l-91 -86h-94z" />
    <glyph glyph-name="adieresis.ss01" horiz-adv-x="542" 
d="M433 97c-5 -29 9 -34 28 -34c14 0 30 3 42 7l-10 -66c-19 -7 -40 -10 -58 -10c-39 0 -72 16 -81 57c-51 -42 -116 -63 -186 -63c-86 0 -167 55 -158 156c11 122 137 152 228 152c54 0 102 -6 145 -17l4 25c12 77 -30 114 -136 114c-55 0 -118 -17 -166 -37l13 80
c39 15 109 31 165 31c150 0 222 -65 200 -205zM184 57c61 0 129 25 174 69l15 91c-33 7 -80 12 -127 12c-62 0 -149 -18 -155 -90c-4 -52 37 -82 93 -82zM456 612c-5 -28 -31 -50 -59 -50c-32 0 -55 28 -50 60c5 27 31 50 59 50c32 0 55 -29 50 -60zM254 612
c-5 -28 -31 -50 -59 -50c-32 0 -55 28 -50 60c5 27 31 50 59 50c32 0 55 -29 50 -60z" />
    <glyph glyph-name="agrave.ss01" horiz-adv-x="542" 
d="M433 97c-5 -29 9 -34 28 -34c14 0 30 3 42 7l-10 -66c-19 -7 -40 -10 -58 -10c-39 0 -72 16 -81 57c-51 -42 -116 -63 -186 -63c-86 0 -167 55 -158 156c11 122 137 152 228 152c54 0 102 -6 145 -17l4 25c12 77 -30 114 -136 114c-55 0 -118 -17 -166 -37l13 80
c39 15 109 31 165 31c150 0 222 -65 200 -205zM184 57c61 0 129 25 174 69l15 91c-33 7 -80 12 -127 12c-62 0 -149 -18 -155 -90c-4 -52 37 -82 93 -82zM358 550h-85l-81 147h98z" />
    <glyph glyph-name="amacron.ss01" horiz-adv-x="542" 
d="M433 97c-5 -29 9 -34 28 -34c14 0 30 3 42 7l-10 -66c-19 -7 -40 -10 -58 -10c-39 0 -72 16 -81 57c-51 -42 -116 -63 -186 -63c-86 0 -167 55 -158 156c11 122 137 152 228 152c54 0 102 -6 145 -17l4 25c12 77 -30 114 -136 114c-55 0 -118 -17 -166 -37l13 80
c39 15 109 31 165 31c150 0 222 -65 200 -205zM184 57c61 0 129 25 174 69l15 91c-33 7 -80 12 -127 12c-62 0 -149 -18 -155 -90c-4 -52 37 -82 93 -82zM164 637h300l-12 -73h-300z" />
    <glyph glyph-name="aogonek.ss01" horiz-adv-x="542" 
d="M503 70l-10 -66c-62 -38 -108 -93 -113 -131c-4 -22 7 -36 34 -36c22 0 38 4 55 11l-11 -66c-18 -6 -39 -10 -65 -10c-68 0 -98 42 -90 94c6 38 34 84 94 134c-21 8 -37 25 -43 51c-51 -42 -116 -63 -186 -63c-86 0 -167 55 -158 156c11 122 137 152 228 152
c54 0 102 -6 145 -17l4 25c12 77 -30 114 -136 114c-55 0 -118 -17 -166 -37l13 80c39 15 109 31 165 31c150 0 222 -65 200 -205l-30 -190c-5 -29 9 -34 28 -34c14 0 30 3 42 7zM184 57c61 0 129 25 174 69l15 91c-33 7 -80 12 -127 12c-62 0 -149 -18 -155 -90
c-4 -52 37 -82 93 -82z" />
    <glyph glyph-name="aring.ss01" horiz-adv-x="542" 
d="M433 97c-5 -29 9 -34 28 -34c14 0 30 3 42 7l-10 -66c-19 -7 -40 -10 -58 -10c-39 0 -72 16 -81 57c-51 -42 -116 -63 -186 -63c-86 0 -167 55 -158 156c11 122 137 152 228 152c54 0 102 -6 145 -17l4 25c12 77 -30 114 -136 114c-55 0 -118 -17 -166 -37l13 80
c39 15 109 31 165 31c150 0 222 -65 200 -205zM184 57c61 0 129 25 174 69l15 91c-33 7 -80 12 -127 12c-62 0 -149 -18 -155 -90c-4 -52 37 -82 93 -82zM427 630c-11 -67 -70 -106 -128 -106c-61 0 -113 45 -102 116c11 65 70 104 129 104c60 0 112 -45 101 -114zM257 634
c-6 -33 16 -55 43 -55c31 0 62 18 68 55c5 32 -16 55 -43 55c-31 0 -63 -19 -68 -55z" />
    <glyph glyph-name="atilde.ss01" horiz-adv-x="542" 
d="M433 97c-5 -29 9 -34 28 -34c14 0 30 3 42 7l-10 -66c-19 -7 -40 -10 -58 -10c-39 0 -72 16 -81 57c-51 -42 -116 -63 -186 -63c-86 0 -167 55 -158 156c11 122 137 152 228 152c54 0 102 -6 145 -17l4 25c12 77 -30 114 -136 114c-55 0 -118 -17 -166 -37l13 80
c39 15 109 31 165 31c150 0 222 -65 200 -205zM184 57c61 0 129 25 174 69l15 91c-33 7 -80 12 -127 12c-62 0 -149 -18 -155 -90c-4 -52 37 -82 93 -82zM469 649c-1 -75 -48 -106 -94 -106c-63 0 -107 42 -145 42c-25 0 -37 -14 -36 -36h-69c1 74 48 106 93 106
c62 0 107 -42 146 -42c27 0 37 13 36 36h69z" />
    <glyph glyph-name="ae.ss01" horiz-adv-x="890" 
d="M412 73c-76 -62 -162 -85 -240 -85c-92 0 -171 55 -162 156c11 122 137 152 238 152c44 0 92 -6 135 -17l4 25c12 74 -30 114 -126 114c-66 0 -128 -19 -175 -37l13 80c38 13 107 31 174 31c93 0 155 -33 175 -95c55 60 134 95 213 95c173 0 223 -153 171 -290h-382
c-6 -102 78 -140 175 -140c60 0 121 16 168 41l-13 -81c-47 -22 -111 -34 -174 -34c-80 0 -153 28 -194 85zM91 139c-4 -52 41 -82 97 -82c58 0 116 15 195 71c-8 26 -13 56 -9 89c-35 7 -81 12 -118 12c-72 0 -159 -18 -165 -90zM652 418c-86 0 -170 -54 -191 -146h312
c15 55 -1 146 -121 146z" />
    <glyph glyph-name="y.ss01" horiz-adv-x="586" 
d="M466 -3c-32 -173 -156 -229 -273 -229c-78 0 -144 16 -183 40l12 76c44 -30 101 -42 165 -42c92 0 181 36 200 161l9 60c-40 -39 -104 -75 -173 -75c-127 0 -191 82 -172 199l46 293h80l-46 -289c-15 -95 23 -129 105 -129c73 0 135 50 175 95l51 323h80z" />
    <glyph glyph-name="yacute.ss01" horiz-adv-x="586" 
d="M466 -3c-32 -173 -156 -229 -273 -229c-78 0 -144 16 -183 40l12 76c44 -30 101 -42 165 -42c92 0 181 36 200 161l9 60c-40 -39 -104 -75 -173 -75c-127 0 -191 82 -172 199l46 293h80l-46 -289c-15 -95 23 -129 105 -129c73 0 135 50 175 95l51 323h80zM359 550h-89
l114 147h102z" />
    <glyph glyph-name="ycircumflex.ss01" horiz-adv-x="586" 
d="M466 -3c-32 -173 -156 -229 -273 -229c-78 0 -144 16 -183 40l12 76c44 -30 101 -42 165 -42c92 0 181 36 200 161l9 60c-40 -39 -104 -75 -173 -75c-127 0 -191 82 -172 199l46 293h80l-46 -289c-15 -95 23 -129 105 -129c73 0 135 50 175 95l51 323h80zM310 697h72
l109 -146h-86l-65 86l-91 -86h-94z" />
    <glyph glyph-name="ydieresis.ss01" horiz-adv-x="586" 
d="M466 -3c-32 -173 -156 -229 -273 -229c-78 0 -144 16 -183 40l12 76c44 -30 101 -42 165 -42c92 0 181 36 200 161l9 60c-40 -39 -104 -75 -173 -75c-127 0 -191 82 -172 199l46 293h80l-46 -289c-15 -95 23 -129 105 -129c73 0 135 50 175 95l51 323h80zM487 612
c-5 -28 -31 -50 -59 -50c-32 0 -55 28 -50 60c5 27 31 50 59 50c32 0 55 -29 50 -60zM285 612c-5 -28 -31 -50 -59 -50c-32 0 -55 28 -50 60c5 27 31 50 59 50c32 0 55 -29 50 -60z" />
    <glyph glyph-name="ygrave.ss01" horiz-adv-x="586" 
d="M466 -3c-32 -173 -156 -229 -273 -229c-78 0 -144 16 -183 40l12 76c44 -30 101 -42 165 -42c92 0 181 36 200 161l9 60c-40 -39 -104 -75 -173 -75c-127 0 -191 82 -172 199l46 293h80l-46 -289c-15 -95 23 -129 105 -129c73 0 135 50 175 95l51 323h80zM389 550h-85
l-81 147h98z" />
    <glyph glyph-name="f_b" horiz-adv-x="965" 
d="M516 406c43 45 109 86 197 86c139 0 226 -111 203 -257c-22 -142 -131 -247 -275 -247c-94 0 -147 45 -182 94l-14 -82h-72l98 614c-35 17 -71 24 -107 24c-67 0 -120 -27 -132 -98l-10 -60h150l-12 -74h-150l-64 -406h-80l64 406h-90l12 74h90l11 66
c17 109 104 166 211 166c46 0 88 -11 128 -29l72 17zM636 62c104 0 184 66 202 178c17 108 -47 178 -138 178c-92 0 -162 -58 -199 -120l-21 -120c18 -62 72 -116 156 -116z" />
    <glyph glyph-name="f_f_b" horiz-adv-x="1275" 
d="M826 406c43 45 109 86 197 86c139 0 226 -111 203 -257c-22 -142 -131 -247 -275 -247c-94 0 -147 45 -182 94l-14 -82h-72l99 624c-35 17 -71 24 -106 24c-67 0 -121 -27 -134 -108l-10 -60h150l-12 -74h-150l-64 -406h-80l64 406h-230l-64 -406h-80l64 406h-90l12 74
h90l9 56c17 109 108 166 211 166c59 0 102 -15 151 -44c39 43 96 64 158 64c51 0 92 -11 133 -29l72 17zM452 480l11 66c3 18 7 35 13 50c-32 22 -63 32 -113 32c-63 0 -122 -28 -133 -98l-8 -50h230zM946 62c104 0 184 66 202 178c17 108 -47 178 -138 178
c-92 0 -162 -58 -199 -120l-21 -120c18 -62 72 -116 156 -116z" />
    <glyph glyph-name="f_f_h" horiz-adv-x="1242" 
d="M828 414c46 43 112 78 181 78c118 0 184 -82 166 -199l-46 -293h-81l46 289c14 90 -33 129 -105 129c-68 0 -136 -49 -176 -99l-50 -319h-80l99 624c-35 17 -71 24 -106 24c-67 0 -121 -27 -134 -108l-10 -60h150l-12 -74h-150l-64 -406h-80l64 406h-230l-64 -406h-80
l64 406h-90l12 74h90l9 56c17 109 108 166 211 166c59 0 102 -15 151 -44c39 43 96 64 158 64c51 0 92 -11 133 -29l72 17zM452 480l11 66c3 18 7 35 13 50c-32 22 -63 32 -113 32c-63 0 -122 -28 -133 -98l-8 -50h230z" />
    <glyph glyph-name="f_f_j" horiz-adv-x="875" 
d="M738 -92c-17 -108 -93 -140 -156 -140c-31 0 -56 6 -77 16l11 70c15 -8 36 -12 52 -12c44 0 83 21 93 84l76 480h-217l-64 -406h-80l64 406h-230l-64 -406h-80l64 406h-90l12 74h90l9 56c17 109 104 166 211 166c61 0 103 -15 152 -44c40 43 98 64 161 64
c55 0 98 -13 143 -36l-12 -78c-42 27 -81 40 -130 40c-67 0 -121 -28 -134 -108l-10 -60h297zM230 530l-8 -50h230l11 66c3 18 7 34 13 49c-33 22 -62 33 -113 33c-67 0 -122 -28 -133 -98z" />
    <glyph glyph-name="f_f_k" horiz-adv-x="1175" 
d="M1088 480h95l-219 -234l161 -246h-90l-141 216h-96l-34 -216h-80l98 623c-35 18 -71 25 -106 25c-67 0 -121 -27 -134 -108l-10 -60h150l-12 -74h-150l-64 -406h-80l64 406h-230l-64 -406h-80l64 406h-90l12 74h90l9 56c17 109 108 166 211 166c59 0 102 -15 151 -44
c39 43 96 64 158 64c51 0 92 -11 133 -29l72 17l-66 -420h101zM452 480l11 66c3 18 7 35 13 50c-32 22 -63 32 -113 32c-63 0 -122 -28 -133 -98l-8 -50h230z" />
    <glyph glyph-name="f_h" horiz-adv-x="932" 
d="M518 414c46 43 112 78 181 78c118 0 184 -82 166 -199l-46 -293h-81l46 289c14 90 -33 129 -105 129c-68 0 -136 -49 -176 -99l-50 -319h-80l98 614c-35 17 -71 24 -107 24c-67 0 -120 -27 -132 -98l-10 -60h150l-12 -74h-150l-64 -406h-80l64 406h-90l12 74h90l11 66
c17 109 104 166 211 166c46 0 88 -11 128 -29l72 17z" />
    <glyph glyph-name="f_i" horiz-adv-x="565" 
d="M146 0h-80l64 406h-90l12 74h90l11 66c17 109 100 166 207 166c55 0 104 -13 148 -36l-13 -77c-43 27 -82 39 -131 39c-67 0 -120 -27 -132 -98l-10 -60h297l-76 -480h-80l64 406h-217z" />
    <glyph glyph-name="f_j" horiz-adv-x="565" 
d="M428 -92c-17 -108 -93 -140 -156 -140c-31 0 -56 6 -77 16l11 70c15 -8 36 -12 52 -12c44 0 83 21 93 84l76 480h-217l-64 -406h-80l64 406h-90l12 74h90l11 66c17 109 100 166 207 166c55 0 104 -13 148 -36l-13 -77c-43 27 -82 39 -131 39c-67 0 -120 -27 -132 -98
l-10 -60h297z" />
    <glyph glyph-name="f_k" horiz-adv-x="865" 
d="M778 480h95l-219 -234l161 -246h-90l-141 216h-97l-34 -216h-80l98 614c-35 17 -71 24 -107 24c-67 0 -120 -27 -132 -98l-10 -60h150l-12 -74h-150l-64 -406h-80l64 406h-90l12 74h90l11 66c17 109 104 166 211 166c46 0 88 -11 128 -29l72 17l-65 -410h102z" />
    <glyph glyph-name="f_l" horiz-adv-x="575" 
d="M364 712c46 0 88 -11 128 -29l72 17l-111 -700h-80l98 614c-35 17 -71 24 -107 24c-67 0 -120 -27 -132 -98l-10 -60h150l-12 -74h-150l-64 -406h-80l64 406h-90l12 74h90l11 66c17 109 104 166 211 166z" />
    <glyph glyph-name="uni0410" unicode="&#x410;" horiz-adv-x="718" 
d="M664 0h-87l-45 169h-378l-98 -169h-94l415 700h94zM398 585l-199 -338h312l-91 340c-3 10 -5 19 -6 29c-5 -11 -10 -21 -16 -31z" />
    <glyph glyph-name="uni0411" unicode="&#x411;" horiz-adv-x="668" 
d="M197 417h189c119 0 260 -41 232 -214c-26 -169 -175 -203 -299 -203h-272l111 700h485l-13 -80h-401zM144 80h188c84 0 184 17 203 133c18 113 -75 124 -153 124h-197z" />
    <glyph glyph-name="uni0412" unicode="&#x412;" horiz-adv-x="693" 
d="M158 700h285c129 0 230 -64 211 -184c-14 -87 -76 -133 -136 -149c54 -16 130 -64 112 -180c-25 -157 -179 -187 -286 -187h-297zM548 206c17 107 -84 116 -147 116h-219l-38 -242h192c83 0 193 9 212 126zM569 516c13 81 -48 104 -142 104h-198l-34 -218h217
c78 0 144 32 157 114z" />
    <glyph glyph-name="uni0413" unicode="&#x413;" horiz-adv-x="571" 
d="M131 0h-84l111 700h460l-13 -80h-376z" />
    <glyph glyph-name="uni0414" unicode="&#x414;" horiz-adv-x="770" 
d="M28 -165h-80l39 245h88c111 165 179 405 211 620h428l-98 -620h88l-39 -245h-80l26 165h-557zM357 620c-39 -191 -102 -404 -191 -540h366l85 540h-260z" />
    <glyph glyph-name="uni0415" unicode="&#x415;" horiz-adv-x="619" 
d="M158 700h472l-13 -80h-388l-36 -227h358l-12 -80h-358l-37 -233h394l-13 -80h-478z" />
    <glyph glyph-name="uni0401" unicode="&#x401;" horiz-adv-x="619" 
d="M566 832c-5 -28 -31 -50 -59 -50c-32 0 -55 28 -50 60c5 27 31 50 59 50c32 0 55 -29 50 -60zM364 832c-5 -28 -31 -50 -59 -50c-32 0 -55 28 -50 60c5 27 31 50 59 50c32 0 55 -29 50 -60zM158 700h472l-13 -80h-388l-36 -227h358l-12 -80h-358l-37 -233h394l-13 -80
h-478z" />
    <glyph glyph-name="uni0416" unicode="&#x416;" horiz-adv-x="936" 
d="M878 700h95l-261 -341l169 -359h-87l-150 317h-129l-50 -317h-84l50 317h-120l-254 -317h-98l288 359l-151 341h89l131 -303h128l48 303h84l-48 -303h120z" />
    <glyph glyph-name="uni0417" unicode="&#x417;" horiz-adv-x="609" 
d="M546 184c-23 -149 -172 -196 -304 -196c-96 0 -170 15 -244 45l13 82c72 -35 143 -47 230 -47c95 0 205 28 222 134c16 99 -76 121 -167 121h-145l13 80h132c100 0 178 42 190 119c12 79 -62 110 -156 110c-80 0 -151 -12 -236 -53l13 83c76 35 153 50 235 50
c140 0 248 -68 229 -190c-13 -83 -71 -136 -140 -157c60 -13 133 -66 115 -181z" />
    <glyph glyph-name="uni0418" unicode="&#x418;" horiz-adv-x="769" 
d="M741 700l-111 -700h-84l80 503c3 21 6 39 12 63l-508 -566h-83l111 700h84l-80 -502c-3 -21 -7 -43 -12 -64l508 566h83z" />
    <glyph glyph-name="uni0419" unicode="&#x419;" horiz-adv-x="769" 
d="M741 700l-111 -700h-84l80 503c3 21 6 39 12 63l-508 -566h-83l111 700h84l-80 -502c-3 -21 -7 -43 -12 -64l508 566h83zM622 816c-50 -32 -97 -42 -145 -42s-95 10 -135 42l12 78c45 -33 82 -44 131 -44s94 11 149 44z" />
    <glyph glyph-name="uni041A" unicode="&#x41a;" horiz-adv-x="662" 
d="M609 700h96l-288 -344l197 -356h-89l-179 317h-165l-50 -317h-84l111 700h84l-48 -303h159z" />
    <glyph glyph-name="uni041B" unicode="&#x41b;" horiz-adv-x="747" 
d="M288 700h431l-111 -700h-84l98 620h-267c-79 -351 -146 -630 -322 -630c-34 0 -52 4 -73 12l13 82c15 -6 35 -10 51 -10c119 0 192 287 264 626z" />
    <glyph glyph-name="uni041C" unicode="&#x41c;" horiz-adv-x="906" 
d="M791 700h87l-111 -700h-84l88 551l-310 -386h-54l-188 386l-88 -551h-84l111 700h75l211 -433z" />
    <glyph glyph-name="uni041D" unicode="&#x41d;" horiz-adv-x="769" 
d="M657 700h84l-111 -700h-84l49 311h-415l-49 -311h-84l111 700h84l-49 -309h415z" />
    <glyph glyph-name="uni041E" unicode="&#x41e;" horiz-adv-x="819" 
d="M784 345c-29 -179 -166 -357 -419 -357c-227 0 -341 184 -312 367c29 179 176 357 419 357c227 0 341 -184 312 -367zM137 350c-21 -132 45 -282 233 -282c192 0 307 136 330 282c21 132 -45 282 -233 282c-192 0 -307 -136 -330 -282z" />
    <glyph glyph-name="uni041F" unicode="&#x41f;" horiz-adv-x="757" 
d="M131 0h-84l111 700h571l-111 -700h-84l98 620h-403z" />
    <glyph glyph-name="uni0420" unicode="&#x420;" horiz-adv-x="662" 
d="M158 700h247c140 0 280 -54 252 -231c-27 -173 -168 -221 -330 -221h-157l-39 -248h-84zM574 479c19 117 -81 141 -174 141h-171l-46 -292h157c119 0 215 31 234 151z" />
    <glyph glyph-name="uni0421" unicode="&#x421;" horiz-adv-x="650" 
d="M57 370c36 221 243 342 418 342c72 0 134 -16 186 -48l-12 -81c-42 33 -101 49 -165 49c-147 0 -314 -90 -344 -272c-33 -205 117 -292 250 -292c69 0 137 18 190 52l-14 -91c-58 -29 -131 -41 -199 -41c-168 0 -352 127 -310 382z" />
    <glyph glyph-name="uni0422" unicode="&#x422;" horiz-adv-x="603" 
d="M78 700h576l-13 -80h-246l-98 -620h-84l98 620h-246z" />
    <glyph glyph-name="uni0423" unicode="&#x423;" horiz-adv-x="629" 
d="M355 157c-87 -137 -169 -169 -244 -169c-36 0 -68 6 -97 17l12 78c24 -10 49 -15 75 -15c53 0 100 14 159 94l19 26l-209 512h88l174 -435l269 435h95z" />
    <glyph glyph-name="uni0424" unicode="&#x424;" horiz-adv-x="865" 
d="M422 -37h-84l14 91c-190 6 -342 118 -313 305c28 183 186 281 407 287l15 91h84l-15 -91c177 -6 345 -118 316 -305c-29 -183 -184 -281 -410 -287zM123 354c-19 -129 67 -215 241 -224l70 440c-183 -9 -291 -83 -311 -216zM518 570l-70 -440c184 9 293 83 314 216
c21 129 -77 215 -244 224z" />
    <glyph glyph-name="uni0425" unicode="&#x425;" horiz-adv-x="645" 
d="M60 0h-106l331 364l-199 336h93l163 -274l249 274h106l-314 -345l211 -355h-93l-174 293z" />
    <glyph glyph-name="uni0427" unicode="&#x427;" horiz-adv-x="683" 
d="M545 0h-84l43 272c-72 -23 -143 -34 -206 -33c-157 2 -249 83 -224 241l35 220h84l-36 -230c-18 -112 51 -150 166 -151c62 0 127 12 194 32l55 349h84z" />
    <glyph glyph-name="uni0426" unicode="&#x426;" horiz-adv-x="787" 
d="M681 -165h-79l26 165h-581l111 700h84l-98 -620h405l98 620h84l-98 -620h87z" />
    <glyph glyph-name="uni0428" unicode="&#x428;" horiz-adv-x="1062" 
d="M923 0h-876l111 700h84l-98 -620h312l98 620h84l-98 -620h312l98 620h84z" />
    <glyph glyph-name="uni0429" unicode="&#x429;" horiz-adv-x="1090" 
d="M984 -165h-79l26 165h-884l111 700h84l-98 -620h312l98 620h84l-98 -620h312l98 620h84l-98 -620h87z" />
    <glyph glyph-name="uni042F" unicode="&#x42f;" horiz-adv-x="690" 
d="M78 0h-100l258 269c-101 27 -162 99 -143 214c25 158 152 217 313 217h256l-111 -700h-84l40 256h-184zM178 473c-16 -103 57 -137 167 -137h175l45 284h-171c-110 0 -199 -40 -216 -147z" />
    <glyph glyph-name="uni042C" unicode="&#x42c;" horiz-adv-x="663" 
d="M288 0h-241l111 700h84l-39 -249h158c152 0 285 -53 257 -230c-27 -173 -163 -221 -330 -221zM190 371l-46 -291h157c120 0 215 30 234 151c18 116 -75 140 -179 140h-166z" />
    <glyph glyph-name="uni042A" unicode="&#x42a;" horiz-adv-x="758" 
d="M383 0h-241l98 620h-178l13 80h262l-39 -249h158c152 0 285 -53 257 -230c-27 -173 -163 -221 -330 -221zM285 371l-46 -291h157c120 0 215 30 234 151c18 116 -75 140 -179 140h-166z" />
    <glyph glyph-name="uni042B" unicode="&#x42b;" horiz-adv-x="883" 
d="M288 0h-241l111 700h84l-39 -249h158c152 0 285 -53 257 -230c-27 -173 -163 -221 -330 -221zM190 371l-46 -291h157c120 0 215 30 234 151c18 116 -75 140 -179 140h-166zM744 0h-84l111 700h84z" />
    <glyph glyph-name="uni042D" unicode="&#x42d;" horiz-adv-x="652" 
d="M103 669c59 28 131 43 200 43c172 0 351 -121 311 -374c-39 -245 -221 -350 -410 -350c-72 0 -149 18 -201 48l12 79c46 -29 117 -47 182 -47c152 0 288 70 328 245l-366 -3l13 80l364 3c11 169 -124 239 -250 239c-73 0 -142 -18 -197 -49z" />
    <glyph glyph-name="uni042E" unicode="&#x42e;" horiz-adv-x="1093" 
d="M1058 345c-29 -179 -166 -357 -419 -357c-208 0 -322 155 -316 322h-143l-49 -310h-84l111 700h84l-49 -310h141c42 166 185 322 412 322s341 -184 312 -367zM411 350c-21 -132 45 -282 233 -282c192 0 307 136 330 282c21 132 -45 282 -233 282
c-192 0 -307 -136 -330 -282z" />
    <glyph glyph-name="uni0414.loclBGR" horiz-adv-x="786" 
d="M33 -165h-80l39 245h75l343 620h93l148 -620h76l-39 -245h-80l26 165h-575zM447 605l-286 -525h407z" />
    <glyph glyph-name="uni041B.loclBGR" horiz-adv-x="685" 
d="M-37 0l401 700h87l179 -700h-88l-146 600l-341 -600h-92z" />
    <glyph glyph-name="uni0424.loclBGR" horiz-adv-x="905" 
d="M431 -100h-82l15 95c-215 10 -341 163 -310 360c31 193 190 340 423 350l15 95h82l-15 -95c215 -10 341 -163 310 -360c-31 -193 -190 -340 -423 -350zM138 350c-22 -140 48 -264 239 -275l87 550c-191 -11 -303 -131 -326 -275zM546 625l-87 -550
c191 11 304 131 326 275c23 140 -49 264 -239 275z" />
    <glyph glyph-name="uni0430" unicode="&#x430;" horiz-adv-x="619" 
d="M441 82c-48 -53 -115 -94 -205 -94c-139 0 -226 111 -203 257c22 142 140 247 275 247c94 0 149 -46 183 -95l13 83h72l-76 -480h-72zM111 240c-17 -108 47 -178 138 -178c88 0 162 58 199 120l19 120c-15 61 -70 116 -154 116c-95 0 -184 -66 -202 -178z" />
    <glyph glyph-name="uni0431" unicode="&#x431;" horiz-adv-x="584" 
d="M532 221c-23 -148 -130 -233 -268 -233c-146 0 -247 97 -217 286c26 169 104 269 200 321c149 81 247 64 319 119l-14 -88c-64 -41 -150 -29 -266 -93c-73 -40 -115 -101 -143 -163c43 55 120 90 189 90c112 0 223 -94 200 -239zM118 229c-14 -99 45 -165 148 -165
c107 0 173 72 187 165c14 89 -50 157 -138 157c-102 0 -184 -69 -197 -157z" />
    <glyph glyph-name="uni0432" unicode="&#x432;" horiz-adv-x="548" 
d="M291 0h-263l76 480h251c94 0 153 -48 139 -135c-8 -48 -40 -86 -81 -103c36 -12 71 -52 61 -114c-12 -77 -69 -128 -183 -128zM141 208l-22 -138h168c60 0 101 18 110 73c8 55 -31 65 -71 65h-185zM173 410l-21 -133h173c42 0 80 19 88 70c8 52 -29 63 -73 63h-167z" />
    <glyph glyph-name="uni0433" unicode="&#x433;" horiz-adv-x="442" 
d="M108 0h-80l76 480h351l-12 -74h-271z" />
    <glyph glyph-name="uni0434" unicode="&#x434;" horiz-adv-x="633" 
d="M38 -130h-78l32 202h67c77 108 121 229 148 408h353l-64 -408h70l-32 -202h-78l21 130h-418zM270 406c-27 -146 -67 -244 -126 -334h272l53 334h-199z" />
    <glyph glyph-name="uni0435" unicode="&#x435;" horiz-adv-x="546" 
d="M33 243c26 166 160 249 276 249c183 0 233 -153 181 -290h-382c-6 -102 87 -140 172 -140c62 0 124 16 171 41l-13 -81c-47 -22 -107 -34 -172 -34c-125 0 -260 82 -233 255zM431 272c15 55 -1 146 -121 146c-86 0 -170 -54 -191 -146h312z" />
    <glyph glyph-name="uni0451" unicode="&#x451;" horiz-adv-x="546" 
d="M478 612c-5 -28 -31 -50 -59 -50c-32 0 -55 28 -50 60c5 27 31 50 59 50c32 0 55 -29 50 -60zM276 612c-5 -28 -31 -50 -59 -50c-32 0 -55 28 -50 60c5 27 31 50 59 50c32 0 55 -29 50 -60zM33 243c26 166 160 249 276 249c183 0 233 -153 181 -290h-382
c-6 -102 87 -140 172 -140c62 0 124 16 171 41l-13 -81c-47 -22 -107 -34 -172 -34c-125 0 -260 82 -233 255zM431 272c15 55 -1 146 -121 146c-86 0 -170 -54 -191 -146h312z" />
    <glyph glyph-name="uni0436" unicode="&#x436;" horiz-adv-x="753" 
d="M54 0h-94l233 244l-130 236h84l114 -205h74l32 205h80l-32 -205h73l177 205h91l-210 -242l154 -238h-88l-132 201h-77l-32 -201h-80l32 201h-75z" />
    <glyph glyph-name="uni0437" unicode="&#x437;" horiz-adv-x="485" 
d="M415 124c-14 -89 -93 -135 -239 -136c-75 -1 -136 16 -178 38l12 75c37 -22 99 -39 160 -39c93 0 158 17 168 81c9 57 -46 64 -94 64h-117l12 74h113c54 0 101 19 108 67c8 51 -54 71 -122 71c-64 0 -128 -17 -176 -39l12 77c51 22 110 37 177 36
c131 -2 203 -58 189 -144c-8 -56 -47 -92 -105 -104c50 -14 90 -57 80 -121z" />
    <glyph glyph-name="uni0438" unicode="&#x438;" horiz-adv-x="589" 
d="M97 0h-69l76 480h80l-54 -346l347 346h69l-76 -480h-80l54 345z" />
    <glyph glyph-name="uni0439" unicode="&#x439;" horiz-adv-x="589" 
d="M485 596c-50 -32 -97 -42 -145 -42s-95 10 -135 42l11 72c45 -33 82 -44 131 -44s94 11 149 44zM97 0h-69l76 480h80l-54 -346l347 346h69l-76 -480h-80l54 345z" />
    <glyph glyph-name="uni043A" unicode="&#x43a;" horiz-adv-x="521" 
d="M108 0h-80l76 480h80l-30 -190h101l177 190h95l-219 -234l161 -246h-90l-141 216h-96z" />
    <glyph glyph-name="uni043B" unicode="&#x43b;" horiz-adv-x="591" 
d="M261 406c-55 -248 -98 -414 -225 -414c-30 0 -49 4 -68 12l10 65c11 -7 27 -9 45 -9c87 0 123 162 173 420h352l-76 -480h-80l64 406h-195z" />
    <glyph glyph-name="uni043C" unicode="&#x43c;" horiz-adv-x="679" 
d="M108 0h-80l76 480h81l139 -266l216 266h96l-76 -480h-80l58 363l-186 -229h-67l-119 228z" />
    <glyph glyph-name="uni043D" unicode="&#x43d;" horiz-adv-x="585" 
d="M108 0h-80l76 480h80l-32 -203h278l32 203h80l-76 -480h-80l32 203h-278z" />
    <glyph glyph-name="uni043E" unicode="&#x43e;" horiz-adv-x="592" 
d="M543 235c-25 -162 -164 -247 -293 -247c-127 0 -243 91 -217 257c26 162 165 247 293 247s244 -91 217 -257zM111 235c-17 -109 49 -171 145 -171c100 0 191 68 209 181c17 109 -49 171 -145 171c-100 0 -191 -68 -209 -181z" />
    <glyph glyph-name="uni043F" unicode="&#x43f;" horiz-adv-x="585" 
d="M108 0h-80l76 480h438l-76 -480h-80l64 406h-278z" />
    <glyph glyph-name="uni0440" unicode="&#x440;" horiz-adv-x="620" 
d="M162 395c50 58 118 97 206 97c139 0 226 -111 203 -257c-22 -142 -140 -247 -275 -247c-94 0 -147 45 -175 96l-48 -304h-80l111 700h72zM493 240c17 108 -47 178 -138 178c-90 0 -162 -58 -200 -121l-19 -120c17 -61 71 -115 155 -115c95 0 184 66 202 178z" />
    <glyph glyph-name="uni0441" unicode="&#x441;" horiz-adv-x="498" 
d="M34 248c27 175 172 244 295 244c56 0 105 -15 148 -44l-13 -75c-35 32 -80 45 -129 45c-95 0 -202 -48 -223 -178c-19 -123 60 -178 162 -178c53 0 105 18 153 43l-13 -83c-49 -22 -99 -34 -158 -34c-132 0 -250 85 -222 260z" />
    <glyph glyph-name="uni0442" unicode="&#x442;" horiz-adv-x="465" 
d="M227 0h-80l64 406h-177l12 74h433l-12 -74h-176z" />
    <glyph glyph-name="uni0443" unicode="&#x443;" horiz-adv-x="538" 
d="M239 85l227 395h87l-323 -554c-68 -116 -136 -158 -204 -158c-22 0 -38 3 -55 8l11 67c12 -4 25 -5 37 -5c56 0 101 42 146 119l26 44l-151 479h80z" />
    <glyph glyph-name="uni0444" unicode="&#x444;" horiz-adv-x="720" 
d="M318 -220h-78l33 208c-147 4 -265 103 -241 257c24 150 158 243 321 247l33 208h78l-33 -208c147 -4 266 -103 241 -257c-23 -150 -158 -243 -321 -247zM110 240c-17 -108 51 -178 174 -182l58 364c-121 -4 -214 -70 -232 -182zM420 422l-58 -364c121 4 214 70 232 182
c17 108 -51 178 -174 182z" />
    <glyph glyph-name="uni0445" unicode="&#x445;" horiz-adv-x="488" 
d="M59 0h-94l227 247l-139 233h90l101 -178l160 178h94l-217 -235l149 -245h-90l-110 190z" />
    <glyph glyph-name="uni0447" unicode="&#x447;" horiz-adv-x="520" 
d="M401 0h-80l26 165c-44 -16 -84 -23 -142 -23c-107 0 -180 57 -162 175l26 163h80l-26 -163c-12 -81 31 -101 109 -101c45 0 83 8 127 22l38 242h80z" />
    <glyph glyph-name="uni0446" unicode="&#x446;" horiz-adv-x="601" 
d="M502 -130h-78l20 130h-416l76 480h80l-64 -406h263l64 406h80l-64 -406h71z" />
    <glyph glyph-name="uni0448" unicode="&#x448;" horiz-adv-x="817" 
d="M698 0h-670l76 480h80l-64 -406h215l64 406h80l-64 -406h215l64 406h80z" />
    <glyph glyph-name="uni0449" unicode="&#x449;" horiz-adv-x="847" 
d="M748 -130h-78l20 130h-662l76 480h80l-64 -406h215l64 406h80l-64 -406h215l64 406h80l-64 -406h70z" />
    <glyph glyph-name="uni044F" unicode="&#x44f;" horiz-adv-x="539" 
d="M74 0h-91l166 178c-66 22 -104 76 -92 151c13 82 85 151 207 151h232l-76 -480h-80l27 168h-134zM136 319c-8 -51 30 -79 97 -79h145l27 168h-141c-72 0 -120 -34 -128 -89z" />
    <glyph glyph-name="uni044C" unicode="&#x44c;" horiz-adv-x="517" 
d="M258 0h-230l76 480h80l-26 -168h156c107 0 166 -70 152 -161c-14 -87 -86 -151 -208 -151zM146 240l-26 -168h136c75 0 121 30 131 89c8 55 -31 79 -91 79h-150z" />
    <glyph glyph-name="uni044A" unicode="&#x44a;" horiz-adv-x="590" 
d="M331 0h-230l65 410h-131l11 70h211l-26 -168h156c107 0 166 -70 152 -161c-14 -87 -86 -151 -208 -151zM219 240l-26 -168h136c75 0 121 30 131 89c8 55 -31 79 -91 79h-150z" />
    <glyph glyph-name="uni044B" unicode="&#x44b;" horiz-adv-x="734" 
d="M258 0h-230l76 480h80l-26 -168h156c107 0 166 -70 152 -161c-14 -87 -86 -151 -208 -151zM146 240l-26 -168h136c75 0 121 30 131 89c8 55 -31 79 -91 79h-150zM615 0h-80l76 480h80z" />
    <glyph glyph-name="uni044D" unicode="&#x44d;" horiz-adv-x="504" 
d="M453 228c-27 -173 -158 -240 -285 -240c-71 0 -118 15 -166 43l12 75c39 -27 91 -44 142 -44c105 0 186 35 212 144l-249 -3l12 74l248 3c5 105 -87 138 -167 138c-55 0 -111 -17 -156 -44l12 77c49 28 99 41 157 41c122 0 257 -80 228 -264z" />
    <glyph glyph-name="uni044E" unicode="&#x44e;" horiz-adv-x="823" 
d="M774 235c-25 -162 -164 -247 -293 -247c-116 0 -223 76 -221 215h-120l-32 -203h-80l76 480h80l-32 -203h119c38 141 167 215 286 215c128 0 244 -91 217 -257zM342 235c-17 -109 49 -171 145 -171c100 0 191 68 209 181c17 109 -49 171 -145 171
c-100 0 -191 -68 -209 -181z" />
    <glyph glyph-name="uni0432.loclBGR" horiz-adv-x="580" 
d="M363 712c118 0 183 -85 169 -175c-9 -56 -39 -105 -122 -141c86 -23 131 -104 116 -201c-19 -119 -117 -207 -258 -207s-240 87 -211 266l22 143c33 203 126 315 284 315zM307 416c109 23 136 76 144 124c7 45 -18 98 -91 98c-96 0 -173 -62 -201 -241l-2 -13zM269 62
c93 0 164 49 177 133c15 92 -40 171 -147 148l-153 -33l-8 -56c-21 -135 30 -192 131 -192z" />
    <glyph glyph-name="uni0433.loclBGR" horiz-adv-x="476" 
d="M389 35c-50 -29 -126 -47 -194 -47c-114 0 -200 42 -186 145c25 181 332 99 351 221c8 49 -45 64 -102 64c-61 0 -128 -18 -182 -48l12 76c54 28 118 46 187 46c95 0 182 -43 166 -144c-30 -190 -334 -106 -352 -221c-8 -54 44 -65 122 -65c60 0 136 20 190 55z" />
    <glyph glyph-name="uni0434.loclBGR" horiz-adv-x="621" 
d="M501 -3c-26 -165 -155 -229 -286 -229c-88 0 -152 19 -199 50l12 76c46 -34 102 -52 181 -52c104 0 194 47 212 161l11 68c-41 -42 -106 -83 -196 -83c-139 0 -226 111 -203 257c22 142 140 247 275 247c95 0 148 -45 181 -99l14 87h74zM111 240
c-17 -108 47 -178 138 -178c88 0 162 55 199 113l21 128c-17 61 -71 115 -156 115c-95 0 -184 -66 -202 -178z" />
    <glyph glyph-name="uni0436.loclBGR" horiz-adv-x="753" 
d="M54 0h-94l233 244l-130 236h84l114 -205h74l67 425h80l-67 -425h73l177 205h91l-210 -242l154 -238h-88l-132 201h-77l-32 -201h-80l32 201h-75z" />
    <glyph glyph-name="uni0438.loclBGR" horiz-adv-x="585" 
d="M462 480h80l-76 -480h-71l12 75c-40 -48 -111 -87 -184 -87c-121 0 -191 82 -172 201l46 291h80l-46 -289c-14 -90 29 -129 105 -129s136 46 175 98z" />
    <glyph glyph-name="uni0439.loclBGR" horiz-adv-x="585" 
d="M472 596c-50 -32 -97 -42 -145 -42s-95 10 -135 42l11 72c45 -33 82 -44 131 -44s94 11 149 44zM462 480h80l-76 -480h-71l12 75c-40 -48 -111 -87 -184 -87c-121 0 -191 82 -172 201l46 291h80l-46 -289c-14 -90 29 -129 105 -129s136 46 175 98z" />
    <glyph glyph-name="uni043A.loclBGR" horiz-adv-x="520" 
d="M431 480h95l-219 -234l161 -246h-90l-141 216h-96l-34 -216h-80l111 700h80l-65 -410h101z" />
    <glyph glyph-name="uni043B.loclBGR" horiz-adv-x="535" 
d="M340 480l136 -480h-85l-104 390l-227 -390h-92l288 480h84z" />
    <glyph glyph-name="uni043F.loclBGR" horiz-adv-x="587" 
d="M163 405c47 47 115 87 192 87c117 0 183 -82 165 -199l-47 -293h-80l46 289c14 90 -33 129 -105 129c-68 0 -136 -49 -176 -98l-50 -320h-80l76 480h71z" />
    <glyph glyph-name="uni0442.loclBGR" horiz-adv-x="890" 
d="M481 412c50 44 114 80 186 80c121 0 173 -87 156 -199l-47 -293h-80l48 301c11 73 -22 117 -90 117s-125 -48 -157 -82c0 -14 -1 -28 -3 -43l-47 -293h-80l48 301c11 73 -22 117 -90 117c-73 0 -132 -55 -164 -89l-53 -329h-80l76 480h71l-11 -67c32 33 97 79 174 79
c72 0 120 -31 143 -80z" />
    <glyph glyph-name="uni0446.loclBGR" horiz-adv-x="617" 
d="M481 97c-4 -29 10 -34 32 -34h37l-31 -193h-74l20 125c-35 5 -62 27 -64 73c-41 -45 -109 -80 -178 -80c-121 0 -191 82 -172 201l46 291h80l-46 -289c-14 -90 29 -129 105 -129s136 46 175 98l51 320h80z" />
    <glyph glyph-name="uni0448.loclBGR" horiz-adv-x="889" 
d="M713 144l53 336h80l-76 -480h-72l10 65c-29 -30 -93 -77 -172 -77c-71 0 -120 33 -143 84c-50 -48 -114 -84 -186 -84c-116 0 -173 87 -155 199l46 293h80l-48 -301c-11 -73 22 -117 90 -117c69 0 126 49 158 83c0 14 1 28 3 42l46 293h80l-48 -301
c-11 -73 22 -117 90 -117c73 0 133 48 164 82z" />
    <glyph glyph-name="uni0449.loclBGR" horiz-adv-x="921" 
d="M785 92c-3 -24 10 -29 31 -29h38l-31 -193h-74l20 125c-33 5 -60 25 -64 66c-31 -30 -93 -73 -169 -73c-71 0 -120 33 -143 84c-50 -48 -114 -84 -186 -84c-116 0 -173 87 -155 199l46 293h80l-48 -301c-11 -73 22 -117 90 -117c69 0 126 49 158 83c0 14 1 28 3 42
l46 293h80l-48 -301c-11 -73 22 -117 90 -117c73 0 133 48 164 82l53 336h80z" />
    <glyph glyph-name="uni044E.loclBGR" horiz-adv-x="822" 
d="M773 235c-25 -162 -164 -247 -293 -247c-116 0 -223 76 -221 215h-120l-32 -203h-80l111 700h80l-67 -423h119c38 141 167 215 286 215c128 0 244 -91 217 -257zM341 235c-17 -109 49 -171 145 -171c100 0 191 68 209 181c17 109 -49 171 -145 171
c-100 0 -191 -68 -209 -181z" />
    <glyph glyph-name="uni0430.ss01" horiz-adv-x="548" 
d="M433 97c-5 -29 9 -34 28 -34c14 0 30 3 42 7l-10 -66c-19 -7 -40 -10 -58 -10c-39 0 -72 16 -81 57c-51 -42 -116 -63 -186 -63c-86 0 -167 55 -158 156c11 122 137 152 228 152c54 0 102 -6 145 -17l4 25c12 77 -30 114 -136 114c-55 0 -118 -17 -166 -37l13 80
c39 15 109 31 165 31c150 0 222 -65 200 -205zM184 57c61 0 129 25 174 69l15 91c-33 7 -80 12 -127 12c-62 0 -149 -18 -155 -90c-4 -52 37 -82 93 -82z" />
    <glyph glyph-name="uni0437.ss01" horiz-adv-x="460" 
d="M384 -32c-23 -145 -141 -200 -274 -200c-55 0 -122 12 -169 47l12 76c42 -33 96 -50 147 -50c97 0 188 36 204 137c15 90 -40 169 -147 146l-70 -15l11 74l81 17c97 24 122 75 130 121c11 66 -42 97 -102 97c-54 0 -114 -16 -169 -52l12 85c61 31 108 42 164 42
c104 0 193 -69 176 -177c-9 -58 -42 -108 -118 -141c83 -26 127 -113 112 -207z" />
    <glyph glyph-name="uni0443.ss01" horiz-adv-x="586" 
d="M466 -3c-32 -173 -156 -229 -273 -229c-78 0 -144 16 -183 40l12 76c44 -30 101 -42 165 -42c92 0 181 36 200 161l9 60c-40 -39 -104 -75 -173 -75c-127 0 -191 82 -172 199l46 293h80l-46 -289c-15 -95 23 -129 105 -129c73 0 135 50 175 95l51 323h80z" />
    <glyph glyph-name="zero" unicode="0" horiz-adv-x="701" 
d="M59 345c31 199 147 347 351 347c199 0 280 -154 248 -357c-31 -199 -147 -347 -352 -347c-198 0 -279 154 -247 357zM575 340c26 168 -23 272 -170 272c-150 0 -236 -100 -263 -272c-26 -168 23 -272 169 -272c151 0 237 100 264 272z" />
    <glyph glyph-name="one" unicode="1" horiz-adv-x="428" 
d="M281 680h62l-95 -600h127l-13 -80h-355l13 80h144l81 511l-152 -54l13 80z" />
    <glyph glyph-name="two" unicode="2" horiz-adv-x="575" 
d="M121 627c76 47 154 65 227 65c131 0 225 -69 206 -187c-18 -114 -108 -174 -226 -237c-103 -55 -208 -102 -224 -188h388l-13 -80h-479l7 43c26 166 141 227 271 291c92 45 180 90 194 180c10 65 -40 100 -136 100c-71 0 -146 -24 -229 -76z" />
    <glyph glyph-name="three" unicode="3" horiz-adv-x="587" 
d="M544 502c-11 -68 -59 -126 -123 -147c54 -17 116 -69 100 -175c-21 -130 -147 -192 -276 -192c-99 0 -169 16 -231 46l12 78c61 -33 129 -46 217 -46c97 0 184 37 199 128c14 91 -54 117 -146 117h-106l13 78h93c99 -1 157 51 167 116c11 68 -38 109 -140 109
c-74 0 -142 -18 -218 -52l13 83c66 31 138 47 221 47c131 0 222 -78 205 -190z" />
    <glyph glyph-name="four" unicode="4" horiz-adv-x="645" 
d="M458 680h93l-72 -451h127l-12 -78h-127l-24 -151h-84l24 151h-379l11 74zM395 229l54 337l-329 -337h275z" />
    <glyph glyph-name="five" unicode="5" horiz-adv-x="579" 
d="M155 680h407l-12 -80h-329l-44 -191c37 10 78 14 116 14c120 0 253 -62 227 -227c-22 -136 -152 -208 -294 -208c-81 0 -158 18 -212 47l12 76c49 -29 124 -45 195 -45c109 0 201 46 215 140c18 109 -72 141 -176 141c-62 0 -128 -14 -183 -33z" />
    <glyph glyph-name="six" unicode="6" horiz-adv-x="620" 
d="M148 362c76 45 143 62 218 62c110 0 226 -74 203 -218c-23 -143 -144 -218 -275 -218c-189 0 -270 134 -236 346c39 248 189 358 362 358c55 0 115 -15 160 -40l-12 -76c-44 25 -99 36 -151 36c-114 0 -227 -66 -269 -250zM293 66c93 0 175 41 192 146
c16 105 -58 134 -144 134c-69 0 -144 -24 -207 -74c-10 -142 50 -206 159 -206z" />
    <glyph glyph-name="seven" unicode="7" horiz-adv-x="539" 
d="M86 680h491l-12 -76l-380 -604h-92l378 600h-398z" />
    <glyph glyph-name="eight" unicode="8" horiz-adv-x="646" 
d="M577 160c-15 -92 -106 -172 -287 -172c-187 0 -274 98 -256 208c9 60 54 128 144 177c-46 31 -80 77 -68 148c13 84 96 171 264 171c153 0 244 -100 231 -200c-7 -60 -43 -115 -118 -162c59 -30 103 -87 90 -170zM118 196c-13 -82 56 -130 182 -130c104 0 183 42 193 106
c13 86 -68 107 -155 135c-31 8 -62 18 -92 29c-76 -35 -119 -87 -128 -140zM338 383c26 -6 54 -14 80 -22c61 37 95 82 103 130c10 65 -43 123 -151 123c-100 0 -167 -42 -176 -98c-13 -86 72 -109 144 -133z" />
    <glyph glyph-name="nine" unicode="9" horiz-adv-x="619" 
d="M66 474c23 143 144 218 275 218c189 0 270 -134 236 -346c-39 -248 -189 -358 -362 -358c-60 0 -115 15 -160 40l12 77c43 -26 99 -37 151 -37c114 0 227 66 269 250c-76 -45 -143 -62 -218 -62c-110 0 -226 74 -203 218zM342 614c-93 0 -175 -40 -192 -145
c-16 -105 58 -135 144 -135c69 0 144 24 207 74c10 142 -50 206 -159 206z" />
    <glyph glyph-name="zero.osf" horiz-adv-x="649" 
d="M599 253c-21 -129 -131 -265 -315 -265c-188 0 -265 146 -244 279c21 129 138 265 314 265c188 0 266 -146 245 -279zM124 260c-16 -98 35 -192 161 -192c130 0 214 90 230 192c16 98 -35 192 -161 192c-130 0 -214 -90 -230 -192z" />
    <glyph glyph-name="one.osf" horiz-adv-x="431" 
d="M256 520h62l-69 -440h127l-13 -80h-354l13 80h143l55 351l-151 -54l13 80z" />
    <glyph glyph-name="two.osf" horiz-adv-x="531" 
d="M437 0h-439l9 53c19 124 138 158 240 198c69 27 149 54 160 119c9 53 -38 84 -113 84c-68 0 -134 -21 -209 -62l13 86c72 37 137 54 207 54c120 0 201 -67 184 -173c-17 -105 -134 -147 -219 -182c-82 -34 -162 -63 -168 -97h348z" />
    <glyph glyph-name="three.osf" horiz-adv-x="541" 
d="M479 342c-10 -68 -59 -126 -122 -147c53 -17 116 -69 99 -175c-20 -130 -151 -192 -265 -192c-94 0 -157 16 -214 46l13 80c57 -34 115 -47 198 -47c82 0 175 36 190 127c14 91 -54 117 -126 117h-96l13 80l83 -1c78 -1 136 50 147 115c11 68 -39 109 -125 109
c-69 0 -135 -18 -201 -53l14 84c60 29 124 47 202 47c125 0 208 -78 190 -190z" />
    <glyph glyph-name="four.osf" horiz-adv-x="594" 
d="M397 520h92l-71 -451h118l-12 -78h-118l-24 -151h-83l24 151h-349l11 75zM335 69l54 334l-303 -334h249z" />
    <glyph glyph-name="five.osf" horiz-adv-x="535" 
d="M124 520h378l-12 -80h-301l-40 -191c35 10 76 14 104 14c102 0 231 -63 206 -223c-21 -136 -147 -212 -286 -212c-75 0 -137 18 -192 47l12 78c53 -31 109 -47 174 -47c106 0 194 50 209 144c17 109 -70 137 -156 137c-52 0 -118 -14 -173 -33z" />
    <glyph glyph-name="six.osf" horiz-adv-x="593" 
d="M549 575c-47 27 -91 37 -143 37c-95 0 -214 -65 -258 -246c67 42 130 58 195 58c105 0 218 -74 195 -218c-23 -143 -140 -218 -261 -218c-179 0 -254 134 -220 346c39 248 199 358 352 358c62 0 109 -15 152 -40zM272 66c83 0 165 41 182 146c16 105 -58 134 -134 134
c-60 0 -126 -24 -187 -74c-10 -142 48 -206 139 -206z" />
    <glyph glyph-name="seven.osf" horiz-adv-x="494" 
d="M53 520h460l-11 -76l-369 -604h-92l367 600h-367z" />
    <glyph glyph-name="eight.osf" horiz-adv-x="616" 
d="M109 521c13 84 98 171 254 171c142 0 226 -92 213 -192c-7 -60 -45 -123 -120 -170c59 -30 105 -80 92 -162c-15 -92 -100 -180 -279 -180c-168 0 -254 94 -236 204c9 60 54 132 144 181c-46 30 -79 78 -68 148zM317 310c-23 7 -46 16 -72 26c-76 -35 -120 -93 -129 -145
c-13 -82 51 -125 158 -125c98 0 181 44 191 108c11 73 -29 88 -148 136zM492 495c10 65 -41 119 -134 119c-88 0 -158 -46 -167 -102c-10 -64 31 -93 130 -131c22 -6 43 -13 66 -19c61 35 97 85 105 133z" />
    <glyph glyph-name="nine.osf" horiz-adv-x="580" 
d="M38 318c23 143 139 214 260 214c179 0 254 -134 221 -346c-40 -248 -197 -358 -350 -358c-60 0 -109 15 -154 40l11 78c46 -27 92 -38 144 -38c94 0 213 65 258 245c-66 -41 -129 -57 -196 -57c-107 0 -217 78 -194 222zM302 454c-83 0 -163 -37 -180 -142
s58 -138 134 -138c64 0 126 24 187 74c9 142 -50 206 -141 206z" />
    <glyph glyph-name="zero.sinf" horiz-adv-x="433" 
d="M369 99c-19 -117 -97 -207 -212 -207c-129 0 -172 96 -153 217c19 117 97 207 212 207c129 0 172 -96 153 -217zM73 104c-15 -92 9 -146 86 -146c81 0 126 50 141 146c15 92 -9 146 -86 146c-81 0 -126 -50 -141 -146z" />
    <glyph glyph-name="one.sinf" horiz-adv-x="276" 
d="M140 308h52l-54 -342h69l-10 -66h-224l10 66h86l43 270l-88 -33l11 67z" />
    <glyph glyph-name="two.sinf" horiz-adv-x="360" 
d="M44 277c42 26 92 39 137 39c74 0 143 -44 129 -120c-11 -60 -64 -106 -133 -141c-56 -29 -107 -54 -115 -89h214l-11 -66h-295l5 35c14 99 88 136 159 171c60 29 100 60 107 98c6 35 -26 47 -63 47c-54 0 -97 -16 -145 -47z" />
    <glyph glyph-name="three.sinf" horiz-adv-x="363" 
d="M300 198c-6 -40 -33 -71 -71 -85c31 -11 67 -42 57 -105c-12 -80 -89 -116 -170 -116c-57 0 -100 10 -140 29l11 68c36 -21 77 -31 125 -31c55 0 102 14 109 64c8 46 -26 55 -74 55h-67l10 66h56c50 0 82 22 88 59c6 35 -30 48 -74 48c-42 0 -86 -11 -130 -34l11 71
c37 18 84 29 130 29c77 0 140 -49 129 -118z" />
    <glyph glyph-name="four.sinf" horiz-adv-x="400" 
d="M236 308h75l-41 -259h70l-10 -65h-70l-13 -84h-68l13 84h-220l10 64zM202 49l26 164l-160 -164h134z" />
    <glyph glyph-name="five.sinf" horiz-adv-x="360" 
d="M62 308h252l-11 -66h-186l-20 -82c17 4 35 5 52 5c68 0 156 -36 140 -142c-14 -87 -95 -131 -183 -131c-49 0 -95 11 -129 29l10 64c31 -18 72 -27 112 -27c62 0 112 22 120 75c10 60 -41 70 -97 70c-37 0 -76 -10 -107 -21z" />
    <glyph glyph-name="six.sinf" horiz-adv-x="389" 
d="M81 130c43 25 75 29 115 29c69 0 140 -47 126 -135s-89 -132 -169 -132c-116 0 -169 83 -148 214c22 143 121 210 218 210c39 0 74 -10 104 -25l-10 -64c-26 17 -62 23 -94 23c-53 0 -116 -31 -142 -120zM150 -43c49 0 93 11 102 69c9 55 -32 69 -76 69
c-36 0 -73 -9 -106 -32c-6 -78 26 -106 80 -106z" />
    <glyph glyph-name="seven.sinf" horiz-adv-x="329" 
d="M93 -100h-76l209 342h-216l11 66h292l-10 -64z" />
    <glyph glyph-name="eight.sinf" horiz-adv-x="401" 
d="M33 211c8 51 63 105 165 105c96 0 149 -57 142 -122c-4 -28 -21 -65 -62 -95c28 -17 53 -49 45 -97c-9 -56 -60 -110 -179 -110c-114 0 -166 60 -155 127c5 29 26 70 78 103c-23 19 -40 48 -34 89zM177 75c-18 4 -36 9 -53 16c-41 -21 -62 -50 -65 -72
c-7 -45 27 -62 89 -62c55 0 101 17 106 52c7 42 -34 50 -77 66zM269 189c6 36 -19 62 -74 62c-51 0 -88 -18 -93 -47c-7 -43 35 -53 74 -68c14 -3 30 -6 45 -10c31 22 45 45 48 63z" />
    <glyph glyph-name="nine.sinf" horiz-adv-x="389" 
d="M9 184c14 88 89 132 169 132c122 0 169 -83 148 -214c-23 -143 -121 -210 -219 -210c-38 0 -75 10 -104 25l10 65c29 -18 63 -24 95 -24c53 0 116 31 142 120c-43 -25 -75 -29 -115 -29c-69 0 -140 47 -126 135zM181 251c-49 0 -94 -14 -103 -69s32 -69 77 -69
c36 0 74 9 106 32c6 78 -26 106 -80 106z" />
    <glyph glyph-name="zero.sups" horiz-adv-x="433" 
d="M445 575c-19 -117 -97 -207 -212 -207c-129 0 -172 96 -153 217c19 117 97 207 212 207c129 0 172 -96 153 -217zM149 580c-15 -92 9 -146 86 -146c81 0 126 50 141 146c15 92 -9 146 -86 146c-81 0 -126 -50 -141 -146z" />
    <glyph glyph-name="one.sups" horiz-adv-x="277" 
d="M215 780h52l-54 -342h69l-10 -66h-224l10 66h86l43 270l-88 -33l11 67z" />
    <glyph glyph-name="two.sups" horiz-adv-x="360" 
d="M119 753c42 26 92 39 137 39c74 0 143 -44 129 -120c-11 -60 -64 -106 -133 -141c-56 -29 -107 -54 -115 -89h214l-11 -66h-295l5 35c14 99 88 136 159 171c60 29 100 60 107 98c6 35 -26 47 -63 47c-54 0 -97 -16 -145 -47z" />
    <glyph glyph-name="three.sups" horiz-adv-x="363" 
d="M375 674c-6 -40 -33 -71 -71 -85c31 -11 67 -42 57 -105c-12 -80 -89 -116 -170 -116c-57 0 -100 10 -140 29l11 68c36 -21 77 -31 125 -31c55 0 102 14 109 64c8 46 -26 55 -74 55h-67l10 66h56c50 0 82 22 88 59c6 35 -30 48 -74 48c-42 0 -86 -11 -130 -34l11 71
c37 18 84 29 130 29c77 0 140 -49 129 -118z" />
    <glyph glyph-name="four.sups" horiz-adv-x="400" 
d="M311 780h75l-41 -259h70l-10 -65h-70l-13 -84h-68l13 84h-220l10 64zM277 521l26 164l-160 -164h134z" />
    <glyph glyph-name="five.sups" horiz-adv-x="359" 
d="M136 780h252l-11 -66h-186l-20 -82c17 4 35 5 52 5c68 0 156 -36 140 -142c-14 -87 -95 -131 -183 -131c-49 0 -95 11 -129 29l10 64c31 -18 72 -27 112 -27c62 0 112 22 120 75c10 60 -41 70 -97 70c-37 0 -76 -10 -107 -21z" />
    <glyph glyph-name="six.sups" horiz-adv-x="389" 
d="M156 606c43 25 75 29 115 29c69 0 140 -47 126 -135s-89 -132 -169 -132c-116 0 -169 83 -148 214c22 143 121 210 218 210c39 0 74 -10 104 -25l-10 -64c-26 17 -62 23 -94 23c-53 0 -116 -31 -142 -120zM225 433c49 0 93 11 102 69c9 55 -32 69 -76 69
c-36 0 -73 -9 -106 -32c-6 -78 26 -106 80 -106z" />
    <glyph glyph-name="seven.sups" horiz-adv-x="328" 
d="M167 372h-76l209 342h-216l11 66h292l-10 -64z" />
    <glyph glyph-name="eight.sups" horiz-adv-x="402" 
d="M109 687c8 51 63 105 165 105c96 0 149 -57 142 -122c-4 -28 -21 -65 -62 -95c28 -17 53 -49 45 -97c-9 -56 -60 -110 -179 -110c-114 0 -166 60 -155 127c5 29 26 70 78 103c-23 19 -40 48 -34 89zM253 551c-18 4 -36 9 -53 16c-41 -21 -62 -50 -65 -72
c-7 -45 27 -62 89 -62c55 0 101 17 106 52c7 42 -34 50 -77 66zM345 665c6 36 -19 62 -74 62c-51 0 -88 -18 -93 -47c-7 -43 35 -53 74 -68c14 -3 30 -6 45 -10c31 22 45 45 48 63z" />
    <glyph glyph-name="nine.sups" horiz-adv-x="389" 
d="M84 660c14 88 89 132 169 132c122 0 169 -83 148 -214c-23 -143 -121 -210 -219 -210c-38 0 -75 10 -104 25l10 65c29 -18 63 -24 95 -24c53 0 116 31 142 120c-43 -25 -75 -29 -115 -29c-69 0 -140 47 -126 135zM256 727c-49 0 -94 -14 -103 -69s32 -69 77 -69
c36 0 74 9 106 32c6 78 -26 106 -80 106z" />
    <glyph glyph-name="zero.tf" 
d="M48 345c31 199 147 347 326 347c174 0 255 -154 223 -357c-31 -199 -147 -347 -327 -347c-173 0 -254 154 -222 357zM514 340c26 168 -23 272 -145 272c-125 0 -211 -100 -238 -272c-26 -168 23 -272 144 -272c126 0 212 100 239 272z" />
    <glyph glyph-name="one.tf" 
d="M379 680h62l-95 -600h207l-13 -80h-515l13 80h224l81 511l-203 -71l13 80z" />
    <glyph glyph-name="two.tf" 
d="M138 627c86 47 164 65 237 65c141 0 233 -79 214 -197c-17 -110 -111 -162 -234 -227c-102 -54 -212 -102 -230 -188h404l-13 -80h-499l7 43c26 166 145 215 283 289c89 48 187 92 200 172c11 65 -38 110 -144 110c-71 0 -146 -24 -229 -76z" />
    <glyph glyph-name="three.tf" 
d="M575 502c-11 -68 -59 -126 -123 -147c54 -17 116 -69 100 -175c-21 -130 -152 -192 -286 -192c-109 0 -179 16 -241 46l12 78c61 -33 129 -47 227 -46c102 1 194 37 209 128c14 91 -54 117 -156 117h-116l13 78h103c109 0 167 51 177 116c11 68 -38 109 -150 109
c-84 0 -152 -18 -228 -52l13 83c66 31 138 47 231 47c141 0 232 -78 215 -190z" />
    <glyph glyph-name="four.tf" 
d="M455 680h93l-72 -451h117l-12 -78h-117l-24 -151h-84l24 151h-379l11 74zM392 229l54 337l-329 -337h275z" />
    <glyph glyph-name="five.tf" 
d="M170 680h427l-12 -80h-349l-44 -191c37 10 78 14 126 14c130 0 263 -62 237 -227c-22 -136 -152 -208 -304 -208c-91 0 -168 18 -222 47l12 76c49 -29 124 -45 205 -45c119 0 211 46 225 140c18 109 -72 141 -186 141c-72 0 -138 -14 -193 -33z" />
    <glyph glyph-name="six.tf" 
d="M153 362c76 45 143 62 218 62c110 0 226 -74 203 -218c-23 -143 -144 -218 -275 -218c-189 0 -270 134 -236 346c39 248 189 358 362 358c55 0 115 -15 160 -40l-12 -76c-44 25 -99 36 -151 36c-114 0 -227 -66 -269 -250zM298 66c93 0 175 41 192 146
c16 105 -58 134 -144 134c-69 0 -144 -24 -207 -74c-10 -142 50 -206 159 -206z" />
    <glyph glyph-name="seven.tf" 
d="M111 680h531l-12 -76l-380 -604h-92l378 600h-438z" />
    <glyph glyph-name="eight.tf" 
d="M568 160c-15 -92 -98 -172 -287 -172c-182 0 -274 94 -256 204c9 60 54 132 144 181c-46 31 -80 77 -68 148c13 84 94 171 268 171c157 0 240 -100 227 -200c-7 -60 -43 -115 -118 -162c59 -30 103 -87 90 -170zM109 196c-13 -82 55 -130 182 -130c108 0 183 42 193 106
c13 86 -68 107 -155 135c-31 8 -62 18 -92 29c-76 -35 -119 -87 -128 -140zM329 383c26 -6 54 -14 80 -22c61 37 95 82 103 130c10 65 -35 123 -147 123c-106 0 -171 -42 -180 -98c-13 -86 72 -109 144 -133z" />
    <glyph glyph-name="nine.tf" 
d="M72 474c23 143 144 218 275 218c189 0 270 -134 236 -346c-39 -248 -189 -358 -362 -358c-60 0 -115 15 -160 40l12 77c43 -26 99 -37 151 -37c114 0 227 66 269 250c-76 -45 -143 -62 -218 -62c-110 0 -226 74 -203 218zM348 614c-93 0 -175 -46 -192 -151
c-16 -105 58 -129 144 -129c69 0 144 24 207 74c10 142 -50 206 -159 206z" />
    <glyph glyph-name="zero.tosf" 
d="M590 255c-21 -129 -129 -267 -313 -267c-182 0 -267 144 -246 277c21 129 130 267 314 267c182 0 266 -144 245 -277zM115 259c-16 -98 35 -191 163 -191c130 0 212 91 228 193c16 98 -37 191 -163 191c-130 0 -212 -91 -228 -193z" />
    <glyph glyph-name="one.tosf" 
d="M352 520h62l-69 -440h207l-13 -80h-515l13 80h224l55 351l-202 -71l13 80z" />
    <glyph glyph-name="two.tosf" 
d="M512 0h-489l9 53c24 140 168 168 270 197c109 31 166 60 176 120c9 55 -44 84 -129 84c-81 0 -162 -27 -240 -74l14 86c76 43 154 66 237 66c130 0 217 -65 200 -173c-16 -100 -111 -145 -234 -179c-86 -24 -189 -56 -197 -100h396z" />
    <glyph glyph-name="three.tosf" 
d="M544 342c-11 -68 -59 -126 -123 -147c54 -17 116 -69 100 -175c-21 -130 -147 -192 -286 -192c-99 0 -169 16 -231 46l12 78c61 -33 129 -46 217 -46c107 0 194 37 209 128c14 91 -54 117 -156 117h-106l13 78h93c109 -1 167 51 177 116c11 68 -38 109 -150 109
c-74 0 -142 -18 -218 -52l13 83c66 31 138 47 221 47c141 0 232 -78 215 -190z" />
    <glyph glyph-name="four.tosf" 
d="M425 510h93l-72 -451h127l-12 -78h-127l-24 -151h-84l24 151h-379l11 74zM362 59l54 337l-329 -337h275z" />
    <glyph glyph-name="five.tosf" 
d="M151 520h417l-12 -80h-339l-44 -191c37 10 78 14 116 14c130 0 263 -62 237 -227c-22 -136 -152 -208 -304 -208c-81 0 -158 18 -212 47l12 76c49 -29 124 -45 195 -45c119 0 211 46 225 140c18 109 -72 141 -186 141c-62 0 -128 -14 -183 -33z" />
    <glyph glyph-name="six.tosf" 
d="M153 362c76 45 143 62 218 62c110 0 226 -74 203 -218c-23 -143 -144 -218 -275 -218c-189 0 -270 134 -236 346c39 248 189 358 362 358c55 0 115 -15 160 -40l-12 -76c-44 25 -99 36 -151 36c-114 0 -227 -66 -269 -250zM298 66c93 0 175 41 192 146
c16 105 -58 134 -144 134c-69 0 -144 -24 -207 -74c-10 -142 50 -206 159 -206z" />
    <glyph glyph-name="seven.tosf" 
d="M91 520h521l-12 -76l-380 -604h-92l378 600h-428z" />
    <glyph glyph-name="eight.tosf" 
d="M569 160c-15 -92 -102 -172 -287 -172c-188 0 -274 98 -256 208c9 60 54 128 144 177c-46 31 -80 77 -68 148c13 84 90 171 264 171c157 0 244 -100 231 -200c-7 -60 -43 -115 -118 -162c59 -30 103 -87 90 -170zM110 196c-13 -82 55 -130 182 -130c108 0 183 42 193 106
c13 86 -68 107 -155 135c-31 8 -62 18 -92 29c-76 -35 -119 -87 -128 -140zM330 383c26 -6 54 -14 80 -22c61 37 95 82 103 130c10 65 -39 123 -151 123c-106 0 -167 -42 -176 -98c-13 -86 72 -109 144 -133z" />
    <glyph glyph-name="nine.tosf" 
d="M46 314c23 143 144 218 275 218c189 0 270 -134 236 -346c-39 -248 -189 -358 -362 -358c-60 0 -115 15 -160 40l12 77c43 -26 99 -37 151 -37c114 0 227 66 269 250c-76 -45 -143 -62 -218 -62c-110 0 -226 74 -203 218zM322 454c-93 0 -175 -40 -192 -145
c-16 -105 58 -135 144 -135c69 0 144 24 207 74c10 142 -50 206 -159 206z" />
    <glyph glyph-name="fraction" unicode="&#x2044;" horiz-adv-x="171" 
d="M-172 -13h-37l573 725h37z" />
    <glyph glyph-name="onehalf" unicode="&#xbd;" horiz-adv-x="899" 
d="M194 -13h-37l573 725h37zM593 377c42 26 92 39 137 39c74 0 143 -44 129 -120c-11 -60 -64 -106 -133 -141c-56 -29 -107 -54 -115 -89h214l-11 -66h-295l5 35c14 99 88 136 159 171c60 29 100 60 107 98c6 35 -26 47 -63 47c-54 0 -97 -16 -145 -47zM212 680h52
l-54 -342h69l-10 -66h-224l10 66h86l43 270l-88 -33l11 67z" />
    <glyph glyph-name="onequarter" unicode="&#xbc;" horiz-adv-x="941" 
d="M780 408h75l-41 -259h70l-10 -65h-70l-13 -84h-68l13 84h-220l10 64zM746 149l26 164l-160 -164h134zM199 -13h-37l573 725h37zM217 680h52l-54 -342h69l-10 -66h-224l10 66h86l43 270l-88 -33l11 67z" />
    <glyph glyph-name="threequarters" unicode="&#xbe;" horiz-adv-x="995" 
d="M263 -13h-37l573 725h37zM834 408h75l-41 -259h70l-10 -65h-70l-13 -84h-68l13 84h-220l10 64zM800 149l26 164l-160 -164h134zM374 574c-6 -40 -33 -71 -71 -85c31 -11 67 -42 57 -105c-12 -80 -89 -116 -170 -116c-57 0 -100 10 -140 29l11 68c36 -21 77 -31 125 -31
c55 0 102 14 109 64c8 46 -26 55 -74 55h-67l10 66h56c50 0 82 22 88 59c6 35 -30 48 -74 48c-42 0 -86 -11 -130 -34l11 71c37 18 84 29 130 29c77 0 140 -49 129 -118z" />
    <glyph glyph-name="oneeighth" unicode="&#x215b;" horiz-adv-x="930" 
d="M574 311c8 51 63 105 165 105c96 0 149 -57 142 -122c-4 -28 -21 -65 -62 -95c28 -17 53 -49 45 -97c-9 -56 -60 -110 -179 -110c-114 0 -166 60 -155 127c5 29 26 70 78 103c-23 19 -40 48 -34 89zM718 175c-18 4 -36 9 -53 16c-41 -21 -62 -50 -65 -72
c-7 -45 27 -62 89 -62c55 0 101 17 106 52c7 42 -34 50 -77 66zM810 289c6 36 -19 62 -74 62c-51 0 -88 -18 -93 -47c-7 -43 35 -53 74 -68c14 -3 30 -6 45 -10c31 22 45 45 48 63zM187 -13h-37l573 725h37zM215 680h52l-54 -342h69l-10 -66h-224l10 66h86l43 270l-88 -33
l11 67z" />
    <glyph glyph-name="threeeighths" unicode="&#x215c;" horiz-adv-x="965" 
d="M609 311c8 51 63 105 165 105c96 0 149 -57 142 -122c-4 -28 -21 -65 -62 -95c28 -17 53 -49 45 -97c-9 -56 -60 -110 -179 -110c-114 0 -166 60 -155 127c5 29 26 70 78 103c-23 19 -40 48 -34 89zM753 175c-18 4 -36 9 -53 16c-41 -21 -62 -50 -65 -72
c-7 -45 27 -62 89 -62c55 0 101 17 106 52c7 42 -34 50 -77 66zM845 289c6 36 -19 62 -74 62c-51 0 -88 -18 -93 -47c-7 -43 35 -53 74 -68c14 -3 30 -6 45 -10c31 22 45 45 48 63zM232 -13h-37l573 725h37zM372 574c-6 -40 -33 -71 -71 -85c31 -11 67 -42 57 -105
c-12 -80 -89 -116 -170 -116c-57 0 -100 10 -140 29l11 68c36 -21 77 -31 125 -31c55 0 102 14 109 64c8 46 -26 55 -74 55h-67l10 66h56c50 0 82 22 88 59c6 35 -30 48 -74 48c-42 0 -86 -11 -130 -34l11 71c37 18 84 29 130 29c77 0 140 -49 129 -118z" />
    <glyph glyph-name="fiveeighths" unicode="&#x215d;" horiz-adv-x="956" 
d="M600 311c8 51 63 105 165 105c96 0 149 -57 142 -122c-4 -28 -21 -65 -62 -95c28 -17 53 -49 45 -97c-9 -56 -60 -110 -179 -110c-114 0 -166 60 -155 127c5 29 26 70 78 103c-23 19 -40 48 -34 89zM744 175c-18 4 -36 9 -53 16c-41 -21 -62 -50 -65 -72
c-7 -45 27 -62 89 -62c55 0 101 17 106 52c7 42 -34 50 -77 66zM836 289c6 36 -19 62 -74 62c-51 0 -88 -18 -93 -47c-7 -43 35 -53 74 -68c14 -3 30 -6 45 -10c31 22 45 45 48 63zM223 -13h-37l573 725h37zM131 680h252l-11 -66h-186l-20 -82c17 4 35 5 52 5
c68 0 156 -36 140 -142c-14 -87 -95 -131 -183 -131c-49 0 -95 11 -129 29l10 64c31 -18 72 -27 112 -27c62 0 112 22 120 75c10 60 -41 70 -97 70c-37 0 -76 -10 -107 -21z" />
    <glyph glyph-name="seveneighths" unicode="&#x215e;" horiz-adv-x="870" 
d="M131 -13h-37l573 725h37zM513 311c8 51 63 105 165 105c96 0 149 -57 142 -122c-4 -28 -21 -65 -62 -95c28 -17 53 -49 45 -97c-9 -56 -60 -110 -179 -110c-114 0 -166 60 -155 127c5 29 26 70 78 103c-23 19 -40 48 -34 89zM657 175c-18 4 -36 9 -53 16
c-41 -21 -62 -50 -65 -72c-7 -45 27 -62 89 -62c55 0 101 17 106 52c7 42 -34 50 -77 66zM749 289c6 36 -19 62 -74 62c-51 0 -88 -18 -93 -47c-7 -43 35 -53 74 -68c14 -3 30 -6 45 -10c31 22 45 45 48 63zM169 272h-76l209 342h-216l11 66h292l-10 -64z" />
    <glyph glyph-name="zero.dnom" horiz-adv-x="433" 
d="M386 199c-19 -117 -97 -207 -212 -207c-129 0 -172 96 -153 217c19 117 97 207 212 207c129 0 172 -96 153 -217zM90 204c-15 -92 9 -146 86 -146c81 0 126 50 141 146c15 92 -9 146 -86 146c-81 0 -126 -50 -141 -146z" />
    <glyph glyph-name="one.dnom" horiz-adv-x="276" 
d="M156 408h52l-54 -342h69l-10 -66h-224l10 66h86l43 270l-88 -33l11 67z" />
    <glyph glyph-name="two.dnom" horiz-adv-x="361" 
d="M60 377c42 26 92 39 137 39c74 0 143 -44 129 -120c-11 -60 -64 -106 -133 -141c-56 -29 -107 -54 -115 -89h214l-11 -66h-295l5 35c14 99 88 136 159 171c60 29 100 60 107 98c6 35 -26 47 -63 47c-54 0 -97 -16 -145 -47z" />
    <glyph glyph-name="three.dnom" horiz-adv-x="362" 
d="M315 298c-6 -40 -33 -71 -71 -85c31 -11 67 -42 57 -105c-12 -80 -89 -116 -170 -116c-57 0 -100 10 -140 29l11 68c36 -21 77 -31 125 -31c55 0 102 14 109 64c8 46 -26 55 -74 55h-67l10 66h56c50 0 82 22 88 59c6 35 -30 48 -74 48c-42 0 -86 -11 -130 -34l11 71
c37 18 84 29 130 29c77 0 140 -49 129 -118z" />
    <glyph glyph-name="four.dnom" horiz-adv-x="400" 
d="M252 408h75l-41 -259h70l-10 -65h-70l-13 -84h-68l13 84h-220l10 64zM218 149l26 164l-160 -164h134z" />
    <glyph glyph-name="five.dnom" horiz-adv-x="360" 
d="M78 408h252l-11 -66h-186l-20 -82c17 4 35 5 52 5c68 0 156 -36 140 -142c-14 -87 -95 -131 -183 -131c-49 0 -95 11 -129 29l10 64c31 -18 72 -27 112 -27c62 0 112 22 120 75c10 60 -41 70 -97 70c-37 0 -76 -10 -107 -21z" />
    <glyph glyph-name="six.dnom" horiz-adv-x="389" 
d="M97 230c43 25 75 29 115 29c69 0 140 -47 126 -135s-89 -132 -169 -132c-116 0 -169 83 -148 214c22 143 121 210 218 210c39 0 74 -10 104 -25l-10 -64c-26 17 -62 23 -94 23c-53 0 -116 -31 -142 -120zM166 57c49 0 93 11 102 69c9 55 -32 69 -76 69
c-36 0 -73 -9 -106 -32c-6 -78 26 -106 80 -106z" />
    <glyph glyph-name="seven.dnom" horiz-adv-x="328" 
d="M108 0h-76l209 342h-216l11 66h292l-10 -64z" />
    <glyph glyph-name="eight.dnom" horiz-adv-x="401" 
d="M49 311c8 51 63 105 165 105c96 0 149 -57 142 -122c-4 -28 -21 -65 -62 -95c28 -17 53 -49 45 -97c-9 -56 -60 -110 -179 -110c-114 0 -166 60 -155 127c5 29 26 70 78 103c-23 19 -40 48 -34 89zM193 175c-18 4 -36 9 -53 16c-41 -21 -62 -50 -65 -72
c-7 -45 27 -62 89 -62c55 0 101 17 106 52c7 42 -34 50 -77 66zM285 289c6 36 -19 62 -74 62c-51 0 -88 -18 -93 -47c-7 -43 35 -53 74 -68c14 -3 30 -6 45 -10c31 22 45 45 48 63z" />
    <glyph glyph-name="nine.dnom" horiz-adv-x="389" 
d="M25 284c14 88 89 132 169 132c122 0 169 -83 148 -214c-23 -143 -121 -210 -219 -210c-38 0 -75 10 -104 25l10 65c29 -18 63 -24 95 -24c53 0 116 31 142 120c-43 -25 -75 -29 -115 -29c-69 0 -140 47 -126 135zM197 351c-49 0 -94 -14 -103 -69s32 -69 77 -69
c36 0 74 9 106 32c6 78 -26 106 -80 106z" />
    <glyph glyph-name="zero.numr" horiz-adv-x="433" 
d="M429 475c-19 -117 -97 -207 -212 -207c-129 0 -172 96 -153 217c19 117 97 207 212 207c129 0 172 -96 153 -217zM133 480c-15 -92 9 -146 86 -146c81 0 126 50 141 146c15 92 -9 146 -86 146c-81 0 -126 -50 -141 -146z" />
    <glyph glyph-name="one.numr" horiz-adv-x="276" 
d="M199 680h52l-54 -342h69l-10 -66h-224l10 66h86l43 270l-88 -33l11 67z" />
    <glyph glyph-name="two.numr" horiz-adv-x="361" 
d="M104 653c42 26 92 39 137 39c74 0 143 -44 129 -120c-11 -60 -64 -106 -133 -141c-56 -29 -107 -54 -115 -89h214l-11 -66h-295l5 35c14 99 88 136 159 171c60 29 100 60 107 98c6 35 -26 47 -63 47c-54 0 -97 -16 -145 -47z" />
    <glyph glyph-name="three.numr" horiz-adv-x="362" 
d="M359 574c-6 -40 -33 -71 -71 -85c31 -11 67 -42 57 -105c-12 -80 -89 -116 -170 -116c-57 0 -100 10 -140 29l11 68c36 -21 77 -31 125 -31c55 0 102 14 109 64c8 46 -26 55 -74 55h-67l10 66h56c50 0 82 22 88 59c6 35 -30 48 -74 48c-42 0 -86 -11 -130 -34l11 71
c37 18 84 29 130 29c77 0 140 -49 129 -118z" />
    <glyph glyph-name="four.numr" horiz-adv-x="400" 
d="M295 680h75l-41 -259h70l-10 -65h-70l-13 -84h-68l13 84h-220l10 64zM261 421l26 164l-160 -164h134z" />
    <glyph glyph-name="five.numr" horiz-adv-x="360" 
d="M121 680h252l-11 -66h-186l-20 -82c17 4 35 5 52 5c68 0 156 -36 140 -142c-14 -87 -95 -131 -183 -131c-49 0 -95 11 -129 29l10 64c31 -18 72 -27 112 -27c62 0 112 22 120 75c10 60 -41 70 -97 70c-37 0 -76 -10 -107 -21z" />
    <glyph glyph-name="six.numr" horiz-adv-x="389" 
d="M140 506c43 25 75 29 115 29c69 0 140 -47 126 -135s-89 -132 -169 -132c-116 0 -169 83 -148 214c22 143 121 210 218 210c39 0 74 -10 104 -25l-10 -64c-26 17 -62 23 -94 23c-53 0 -116 -31 -142 -120zM209 333c49 0 93 11 102 69c9 55 -32 69 -76 69
c-36 0 -73 -9 -106 -32c-6 -78 26 -106 80 -106z" />
    <glyph glyph-name="seven.numr" horiz-adv-x="329" 
d="M152 272h-76l209 342h-216l11 66h292l-10 -64z" />
    <glyph glyph-name="eight.numr" horiz-adv-x="401" 
d="M93 587c8 51 63 105 165 105c96 0 149 -57 142 -122c-4 -28 -21 -65 -62 -95c28 -17 53 -49 45 -97c-9 -56 -60 -110 -179 -110c-114 0 -166 60 -155 127c5 29 26 70 78 103c-23 19 -40 48 -34 89zM237 451c-18 4 -36 9 -53 16c-41 -21 -62 -50 -65 -72
c-7 -45 27 -62 89 -62c55 0 101 17 106 52c7 42 -34 50 -77 66zM329 565c6 36 -19 62 -74 62c-51 0 -88 -18 -93 -47c-7 -43 35 -53 74 -68c14 -3 30 -6 45 -10c31 22 45 45 48 63z" />
    <glyph glyph-name="nine.numr" horiz-adv-x="389" 
d="M68 560c14 88 89 132 169 132c122 0 169 -83 148 -214c-23 -143 -121 -210 -219 -210c-38 0 -75 10 -104 25l10 65c29 -18 63 -24 95 -24c53 0 116 31 142 120c-43 -25 -75 -29 -115 -29c-69 0 -140 47 -126 135zM240 627c-49 0 -94 -14 -103 -69s32 -69 77 -69
c36 0 74 9 106 32c6 78 -26 106 -80 106z" />
    <glyph glyph-name="asterisk" unicode="*" horiz-adv-x="444" 
d="M255 492l-94 -120l-56 42l102 106l-123 32l36 70l117 -49l12 127h74l-29 -127l132 49l15 -70l-137 -32l72 -106l-66 -42z" />
    <glyph glyph-name="backslash" unicode="\" horiz-adv-x="422" 
d="M334 -58h-58l-169 816h58z" />
    <glyph glyph-name="periodcentered" unicode="&#xb7;" horiz-adv-x="233" 
d="M160 234c-5 -32 -29 -46 -55 -46c-30 0 -54 20 -48 56c5 32 30 46 56 46c30 0 53 -20 47 -56z" />
    <glyph glyph-name="bullet" unicode="&#x2022;" horiz-adv-x="334" 
d="M94 355c8 51 48 74 89 74c46 0 81 -29 73 -84c-8 -51 -48 -74 -90 -74c-45 0 -80 29 -72 84z" />
    <glyph glyph-name="colon" unicode=":" horiz-adv-x="231" 
d="M183 385c-5 -32 -29 -46 -56 -46c-29 0 -53 20 -47 56c5 32 30 46 55 46c31 0 54 -20 48 -56zM128 37c-5 -32 -29 -46 -56 -46c-29 0 -53 20 -47 56c4 31 30 45 55 45c31 0 54 -20 48 -55z" />
    <glyph glyph-name="comma" unicode="," horiz-adv-x="226" 
d="M20 -150h-66l92 230h86z" />
    <glyph glyph-name="ellipsis" unicode="&#x2026;" horiz-adv-x="588" 
d="M497 37c-5 -32 -29 -46 -56 -46c-29 0 -53 20 -47 56c4 31 30 45 55 45c31 0 54 -20 48 -55zM123 37c-5 -32 -29 -46 -55 -46c-30 0 -54 20 -48 56c4 31 30 45 56 45c30 0 53 -20 47 -55zM310 37c-5 -32 -29 -46 -55 -46c-30 0 -54 20 -48 56c4 31 30 45 56 45
c30 0 53 -20 47 -55z" />
    <glyph glyph-name="exclam" unicode="!" horiz-adv-x="231" 
d="M137 203h-70l72 497h84zM127 35c-5 -31 -29 -45 -54 -45c-29 0 -52 20 -47 55c5 31 29 45 54 45c29 0 52 -20 47 -55z" />
    <glyph glyph-name="exclamdown" unicode="&#xa1;" horiz-adv-x="217" 
d="M70 -218h-84l85 497h70zM182 437c-5 -31 -29 -45 -54 -45c-29 0 -52 20 -46 55c5 31 29 45 54 45c29 0 52 -20 46 -55z" />
    <glyph glyph-name="numbersign" unicode="#" horiz-adv-x="655" 
d="M111 0h-80l67 171h-79l11 70h96l79 199h-93l11 70h109l67 170h80l-66 -170h181l67 170h80l-67 -170h77l-11 -70h-94l-79 -199h91l-11 -70h-107l-68 -171h-80l67 171h-180zM285 440l-79 -199h181l79 199h-181z" />
    <glyph glyph-name="period" unicode="." horiz-adv-x="214" 
d="M123 37c-5 -32 -29 -46 -55 -46c-30 0 -54 20 -48 56c4 31 30 45 56 45c30 0 53 -20 47 -55z" />
    <glyph glyph-name="question" unicode="?" horiz-adv-x="492" 
d="M257 208h-81c20 144 216 215 235 332c11 70 -45 92 -136 92c-67 0 -134 -23 -194 -57l13 83c55 32 126 54 199 54c119 0 221 -59 202 -174c-22 -140 -224 -214 -238 -330zM242 37c-5 -32 -29 -46 -55 -46c-30 0 -54 20 -48 56c4 31 30 45 56 45c30 0 53 -20 47 -55z" />
    <glyph glyph-name="questiondown" unicode="&#xbf;" horiz-adv-x="486" 
d="M379 -180c-56 -30 -126 -52 -199 -52c-121 0 -221 59 -203 174c23 140 222 223 239 330h79c-21 -134 -214 -215 -233 -332c-11 -70 45 -92 136 -92c68 0 134 21 195 59zM334 436c-5 -31 -30 -45 -56 -45c-30 0 -53 20 -47 55c5 32 29 46 55 46c30 0 54 -20 48 -56z" />
    <glyph glyph-name="quotedbl" unicode="&#x22;" horiz-adv-x="319" 
d="M283 520h-56l29 180h76zM153 520h-56l29 180h76z" />
    <glyph glyph-name="quotesingle" unicode="'" horiz-adv-x="189" 
d="M153 520h-56l29 180h76z" />
    <glyph glyph-name="semicolon" unicode=";" horiz-adv-x="284" 
d="M48 -150h-66l92 230h86zM212 421c-5 -32 -29 -46 -56 -46c-29 0 -53 20 -48 56c5 32 31 46 56 46c31 0 54 -20 48 -56z" />
    <glyph glyph-name="slash" unicode="/" horiz-adv-x="428" 
d="M40 -58h-62l427 816h62z" />
    <glyph glyph-name="underscore" unicode="_" horiz-adv-x="454" 
d="M384 -149h-454l12 76h454z" />
    <glyph glyph-name="braceleft" unicode="{" horiz-adv-x="304" 
d="M211 -40l-11 -71c-106 -22 -153 31 -139 119l37 232c10 63 -19 74 -67 74l12 73c47 0 81 18 91 82l37 232c14 88 72 130 175 108l-11 -69c-53 8 -76 -16 -87 -84l-33 -211c-9 -56 -31 -85 -73 -96c30 -5 53 -33 42 -101l-34 -211c-9 -58 2 -85 61 -77z" />
    <glyph glyph-name="braceright" unicode="}" horiz-adv-x="303" 
d="M152 1c-14 -88 -67 -136 -175 -110l12 74c52 -13 75 9 84 67l37 232c9 57 37 86 81 91c-38 7 -61 40 -51 100l34 213c10 60 -2 85 -62 75l11 68c105 22 152 -31 138 -119l-36 -230c-10 -64 27 -79 65 -79l-11 -70c-45 0 -81 -19 -91 -82z" />
    <glyph glyph-name="bracketleft" unicode="[" horiz-adv-x="285" 
d="M193 -110h-187l146 920h186l-12 -80h-103l-121 -760h103z" />
    <glyph glyph-name="bracketright" unicode="]" horiz-adv-x="286" 
d="M153 -110h-187l12 80h104l120 760h-103l12 80h187z" />
    <glyph glyph-name="parenleft" unicode="(" horiz-adv-x="288" 
d="M270 809h79c-105 -129 -182 -305 -207 -464c-25 -155 -5 -329 60 -454h-76c-68 129 -98 301 -73 464c26 159 108 329 217 454z" />
    <glyph glyph-name="parenright" unicode=")" horiz-adv-x="289" 
d="M106 809h75c68 -129 99 -301 73 -464c-25 -159 -108 -329 -216 -454h-80c105 129 182 305 207 464c25 155 5 329 -59 454z" />
    <glyph glyph-name="emdash" unicode="&#x2014;" horiz-adv-x="761" 
d="M684 210h-634l12 76h634z" />
    <glyph glyph-name="endash" unicode="&#x2013;" horiz-adv-x="573" 
d="M496 210h-446l12 76h446z" />
    <glyph glyph-name="hyphen" unicode="-" horiz-adv-x="484" 
d="M62 286h357l-12 -76h-357z" />
    <glyph glyph-name="emdash.case" horiz-adv-x="771" 
d="M705 312h-634l12 76h634z" />
    <glyph glyph-name="endash.case" horiz-adv-x="583" 
d="M517 312h-446l12 76h446z" />
    <glyph glyph-name="hyphen.case" horiz-adv-x="494" 
d="M83 388h357l-12 -76h-357z" />
    <glyph glyph-name="guillemotleft" unicode="&#xab;" horiz-adv-x="493" 
d="M402 58h-84l-95 174l3 19l148 171h88l-158 -182zM215 58h-84l-95 174l3 19l148 171h88l-159 -182z" />
    <glyph glyph-name="guillemotright" unicode="&#xbb;" horiz-adv-x="492" 
d="M289 58h-87l158 182l-98 182h83l96 -174l-3 -19zM102 58h-87l158 182l-98 182h83l96 -174l-3 -19z" />
    <glyph glyph-name="guilsinglleft" unicode="&#x2039;" horiz-adv-x="306" 
d="M215 58h-84l-95 174l3 19l148 171h88l-159 -182z" />
    <glyph glyph-name="guilsinglright" unicode="&#x203a;" horiz-adv-x="305" 
d="M102 58h-87l158 182l-98 182h83l96 -174l-3 -19z" />
    <glyph glyph-name="quotedblbase" unicode="&#x201e;" horiz-adv-x="366" 
d="M160 -150h-66l92 230h86zM20 -150h-66l92 230h86z" />
    <glyph glyph-name="quotedblleft" unicode="&#x201c;" horiz-adv-x="366" 
d="M300 470h-86l111 230h66zM160 470h-86l111 230h66z" />
    <glyph glyph-name="quotedblright" unicode="&#x201d;" horiz-adv-x="361" 
d="M283 470h-66l91 230h86zM143 470h-66l91 230h86z" />
    <glyph glyph-name="quoteleft" unicode="&#x2018;" horiz-adv-x="226" 
d="M160 470h-86l111 230h66z" />
    <glyph glyph-name="quoteright" unicode="&#x2019;" horiz-adv-x="221" 
d="M143 470h-66l91 230h86z" />
    <glyph glyph-name="quotesinglbase" unicode="&#x201a;" horiz-adv-x="226" 
d="M20 -150h-66l92 230h86z" />
    <glyph glyph-name="guillemotleft.case" horiz-adv-x="510" 
d="M426 168h-84l-95 174l3 19l148 171h88l-158 -182zM239 168h-84l-95 174l3 19l148 171h88l-159 -182z" />
    <glyph glyph-name="guillemotright.case" horiz-adv-x="509" 
d="M316 168h-87l158 182l-98 182h83l96 -174l-3 -19zM129 168h-87l158 182l-98 182h83l96 -174l-3 -19z" />
    <glyph glyph-name="guilsinglleft.case" horiz-adv-x="323" 
d="M239 168h-84l-95 174l3 19l148 171h88l-159 -182z" />
    <glyph glyph-name="guilsinglright.case" horiz-adv-x="322" 
d="M129 168h-87l158 182l-98 182h83l96 -174l-3 -19z" />
    <glyph glyph-name="space" unicode=" " horiz-adv-x="251" 
 />
    <glyph glyph-name="cent" unicode="&#xa2;" horiz-adv-x="510" 
d="M482 448l-13 -75c-32 29 -72 43 -116 45l-56 -355c47 3 92 20 135 42l-13 -83c-42 -19 -85 -30 -134 -33l-17 -109h-70l18 111c-113 18 -202 102 -177 257c24 157 143 228 256 242l17 110h70l-17 -110c43 -4 82 -18 117 -42zM282 412c-76 -17 -148 -68 -165 -172
c-16 -101 35 -157 111 -173z" />
    <glyph glyph-name="currency" unicode="&#xa4;" horiz-adv-x="577" 
d="M167 187l-76 -65l-48 56l72 63c-17 30 -24 68 -17 114c7 42 24 79 50 108l-50 59l64 56l53 -63c34 18 72 26 109 26c42 0 77 -11 105 -28l76 65l48 -56l-72 -63c16 -30 23 -68 16 -114c-7 -41 -24 -78 -50 -108l51 -59l-64 -56l-54 63c-33 -18 -72 -26 -109 -26
c-41 0 -76 11 -104 28zM177 345c-11 -71 28 -112 98 -112c74 0 131 47 143 122c12 71 -28 112 -98 112c-74 0 -131 -47 -143 -122z" />
    <glyph glyph-name="dollar" unicode="$" horiz-adv-x="588" 
d="M265 -130h-70l19 120c-75 7 -145 27 -198 59l13 82c65 -45 152 -63 230 -63c89 0 177 23 190 104c26 165 -406 107 -366 355c18 106 129 159 241 164l19 119h70l-19 -120c61 -7 118 -25 159 -51l-12 -79c-49 34 -124 52 -204 52c-79 0 -158 -25 -169 -92
c-30 -175 402 -119 366 -352c-20 -128 -136 -175 -250 -180z" />
    <glyph glyph-name="Euro" unicode="&#x20ac;" horiz-adv-x="722" 
d="M705 563c-48 34 -108 49 -172 49c-120 0 -242 -47 -299 -171h339l-11 -70h-351c-4 -16 -7 -44 -7 -62h348l-11 -70h-330c26 -108 121 -171 231 -171c69 0 147 16 202 49l-13 -88c-62 -28 -124 -41 -202 -41c-154 0 -281 97 -306 251h-92l11 70h77c0 20 2 41 6 62h-73
l11 70h81c65 174 235 251 390 251c72 0 130 -19 184 -50z" />
    <glyph glyph-name="sterling" unicode="&#xa3;" horiz-adv-x="603" 
d="M519 0h-525l13 80h35c42 0 76 38 83 86l21 130h-85l12 78h85l14 88c27 172 147 230 263 230c56 0 105 -14 147 -39l-12 -78c-35 24 -81 40 -139 40c-78 0 -156 -41 -176 -161l-13 -80h222l-12 -78h-222l-22 -136c-6 -41 -18 -68 -50 -82l374 2z" />
    <glyph glyph-name="yen" unicode="&#xa5;" horiz-adv-x="675" 
d="M607 680h94l-280 -354h130l-11 -70h-168l-10 -56h169l-11 -70h-169l-21 -130h-84l21 130h-167l11 70h167l10 56h-168l11 70h131l-169 354h90l157 -341z" />
    <glyph glyph-name="cent.tf" 
d="M541 448l-13 -75c-32 29 -73 43 -117 45l-56 -355c47 3 93 20 136 42l-13 -83c-42 -19 -86 -31 -135 -33l-17 -109h-70l18 112c-112 18 -201 102 -176 256c24 156 142 228 255 242l17 110h70l-17 -109c44 -5 83 -19 118 -43zM340 412c-76 -17 -147 -69 -164 -172
c-16 -101 35 -156 110 -173z" />
    <glyph glyph-name="currency.tf" 
d="M193 187l-76 -65l-48 56l72 63c-17 30 -24 68 -17 114c7 42 24 79 50 108l-50 59l64 56l53 -63c34 18 72 26 109 26c42 0 77 -11 105 -28l76 65l48 -56l-72 -63c16 -30 23 -68 16 -114c-7 -41 -24 -78 -50 -108l51 -59l-64 -56l-54 63c-33 -18 -72 -26 -109 -26
c-41 0 -76 11 -104 28zM203 345c-11 -71 28 -112 98 -112c74 0 131 47 143 122c12 71 -28 112 -98 112c-74 0 -131 -47 -143 -122z" />
    <glyph glyph-name="dollar.tf" 
d="M286 -130h-70l19 120c-75 7 -145 27 -198 59l13 82c65 -45 152 -63 230 -63c89 0 177 23 190 104c26 165 -406 107 -366 355c18 106 129 159 241 164l19 119h70l-19 -120c61 -7 118 -25 159 -51l-12 -79c-49 34 -124 52 -204 52c-79 0 -158 -25 -169 -92
c-30 -175 402 -119 366 -352c-20 -128 -136 -175 -250 -180z" />
    <glyph glyph-name="Euro.tf" 
d="M634 596c-31 11 -78 16 -125 16c-120 0 -236 -49 -289 -171h300l-11 -70h-311c-5 -22 -7 -43 -7 -62h308l-11 -70h-291c25 -109 118 -171 228 -171c51 0 100 7 138 18l-12 -80c-41 -12 -87 -18 -139 -18c-144 0 -274 95 -301 251h-93l11 70h78c0 22 2 44 6 62h-74l11 70
h81c63 174 228 251 385 251c48 0 93 -8 130 -21z" />
    <glyph glyph-name="sterling.tf" 
d="M533 0h-525l13 80h35c42 0 76 38 83 86l21 130h-85l12 78h85l14 88c27 172 147 230 263 230c56 0 105 -14 147 -39l-12 -78c-35 24 -81 40 -139 40c-78 0 -156 -41 -176 -161l-13 -80h222l-12 -78h-222l-22 -136c-6 -41 -18 -68 -50 -82l374 2z" />
    <glyph glyph-name="yen.tf" 
d="M584 680h94l-280 -354h130l-11 -70h-168l-10 -56h169l-11 -70h-169l-21 -130h-84l21 130h-167l11 70h167l10 56h-168l11 70h131l-169 354h90l157 -341z" />
    <glyph glyph-name="approxequal" unicode="&#x2248;" horiz-adv-x="589" 
d="M553 490c-3 -78 -56 -120 -121 -120c-73 0 -155 55 -222 55c-28 0 -50 -15 -50 -45h-75c4 81 59 120 120 120c78 0 151 -54 223 -54c28 0 50 13 50 44h75zM529 338c-3 -78 -56 -120 -121 -120c-73 0 -155 55 -222 55c-28 0 -50 -15 -50 -45h-75c4 81 59 120 120 120
c78 0 151 -54 223 -54c28 0 50 13 50 44h75z" />
    <glyph glyph-name="asciitilde" unicode="~" horiz-adv-x="587" 
d="M535 385c-3 -78 -56 -120 -121 -120c-73 0 -155 55 -222 55c-28 0 -50 -15 -50 -45h-75c4 81 59 120 120 120c78 0 151 -54 223 -54c28 0 50 13 50 44h75z" />
    <glyph glyph-name="divide" unicode="&#xf7;" horiz-adv-x="613" 
d="M550 312h-480l12 76h480zM331 121c-5 -32 -28 -46 -55 -46c-30 0 -53 20 -47 56c5 32 29 45 55 45c31 0 53 -19 47 -55zM402 568c-5 -32 -28 -46 -55 -46c-30 0 -53 20 -47 56c5 32 29 45 55 45c31 0 53 -19 47 -55z" />
    <glyph glyph-name="emptyset" unicode="&#x2205;" horiz-adv-x="814" 
d="M779 340c-32 -198 -218 -352 -416 -352c-83 0 -156 29 -211 77l-66 -65h-51l92 91c-60 68 -90 164 -73 269c32 198 218 352 416 352c83 0 156 -29 210 -77l66 65h51l-92 -90c61 -69 91 -165 74 -270zM96 350c-14 -89 10 -171 61 -230l493 486c-46 40 -108 64 -179 64
c-179 0 -347 -142 -375 -320zM182 95c47 -41 109 -65 180 -65c179 0 347 142 375 320c14 90 -10 172 -61 231z" />
    <glyph glyph-name="equal" unicode="=" horiz-adv-x="558" 
d="M508 403h-423l12 76h423zM479 221h-423l12 76h423z" />
    <glyph glyph-name="greater" unicode="&#x3e;" horiz-adv-x="502" 
d="M460 310l-400 -153l12 78l314 115l-277 115l12 78l352 -153z" />
    <glyph glyph-name="greaterequal" unicode="&#x2265;" horiz-adv-x="523" 
d="M465 334l-400 -153l12 78l313 115l-276 115l12 78l352 -153zM412 0h-376l12 76h376z" />
    <glyph glyph-name="infinity" unicode="&#x221e;" horiz-adv-x="852" 
d="M445 420c58 66 122 121 211 121c88 0 169 -71 150 -188c-18 -113 -106 -178 -200 -178c-85 0 -143 59 -178 121c-58 -66 -122 -121 -211 -121c-88 0 -169 71 -150 188c18 113 106 178 200 178c85 0 142 -59 178 -121zM393 361c-30 56 -60 104 -118 104
c-61 0 -118 -30 -130 -107c-12 -73 31 -107 88 -107c62 0 111 50 160 110zM728 363c11 73 -31 102 -88 102c-62 0 -111 -50 -161 -110c30 -56 61 -104 119 -104c61 0 117 35 130 112z" />
    <glyph glyph-name="integral" unicode="&#x222b;" horiz-adv-x="422" 
d="M227 641c19 118 106 151 178 151c34 0 63 -8 83 -16l-12 -74c-14 8 -37 14 -67 14c-39 0 -92 -11 -104 -83l-113 -715c-19 -118 -106 -150 -178 -150c-34 0 -63 8 -83 16l11 74c15 -9 35 -14 58 -14c49 0 103 11 114 83z" />
    <glyph glyph-name="less" unicode="&#x3c;" horiz-adv-x="501" 
d="M411 235l-12 -78l-352 153l13 80l400 153l-12 -78l-313 -115z" />
    <glyph glyph-name="lessequal" unicode="&#x2264;" horiz-adv-x="526" 
d="M440 259l-12 -78l-352 153l13 80l400 153l-12 -78l-314 -115zM399 0h-376l12 76h376z" />
    <glyph glyph-name="logicalnot" unicode="&#xac;" horiz-adv-x="573" 
d="M498 271h-80l21 133h-366l12 76h446z" />
    <glyph glyph-name="minus" unicode="&#x2212;" horiz-adv-x="519" 
d="M452 307h-382l12 76h382z" />
    <glyph glyph-name="multiply" unicode="&#xd7;" horiz-adv-x="469" 
d="M237 301l-148 -128l-44 51l148 128l-108 127l58 51l107 -127l148 127l44 -51l-148 -127l108 -128l-58 -51z" />
    <glyph glyph-name="notequal" unicode="&#x2260;" horiz-adv-x="558" 
d="M151 120h-72l76 101h-99l12 76h144l80 106h-207l12 76h252l76 101h72l-76 -101h99l-12 -76h-144l-80 -106h207l-12 -76h-252z" />
    <glyph glyph-name="partialdiff" unicode="&#x2202;" horiz-adv-x="590" 
d="M537 266c-29 -186 -147 -278 -291 -278c-138 0 -238 95 -215 238c20 128 137 218 257 218c94 0 167 -45 189 -105c1 10 2 16 2 27c-9 211 -189 269 -327 259l12 75c191 0 426 -98 373 -434zM109 216c-14 -92 40 -152 141 -152c103 0 166 61 192 146
c13 94 -46 160 -144 160c-97 0 -174 -64 -189 -154z" />
    <glyph glyph-name="percent" unicode="%" horiz-adv-x="898" 
d="M230 -60h-82l539 820h82zM402 550c-15 -99 -99 -152 -183 -152s-159 59 -143 162c16 99 100 152 185 152c83 0 158 -59 141 -162zM150 555c-7 -45 15 -87 72 -87c59 0 98 38 106 87c7 45 -15 87 -70 87c-61 0 -100 -38 -108 -87zM840 140c-15 -99 -99 -152 -183 -152
s-159 59 -143 162c16 99 100 152 185 152c83 0 158 -59 141 -162zM588 145c-7 -45 15 -87 72 -87c59 0 98 38 106 87c7 45 -15 87 -70 87c-61 0 -100 -38 -108 -87z" />
    <glyph glyph-name="perthousand" unicode="&#x2030;" horiz-adv-x="1285" 
d="M230 -60h-82l539 820h82zM402 550c-15 -99 -99 -152 -183 -152s-159 59 -143 162c16 99 100 152 185 152c83 0 158 -59 141 -162zM150 555c-7 -45 15 -87 72 -87c59 0 98 38 106 87c7 45 -15 87 -70 87c-61 0 -100 -38 -108 -87zM840 140c-15 -99 -99 -152 -183 -152
s-159 59 -143 162c16 99 100 152 185 152c83 0 158 -59 141 -162zM588 145c-7 -45 15 -87 72 -87c59 0 98 38 106 87c7 45 -15 87 -70 87c-61 0 -100 -38 -108 -87zM1229 140c-15 -99 -99 -152 -183 -152s-159 59 -143 162c16 99 100 152 185 152c83 0 158 -59 141 -162z
M977 145c-7 -45 15 -87 72 -87c59 0 98 38 106 87c7 45 -15 87 -70 87c-61 0 -100 -38 -108 -87z" />
    <glyph glyph-name="plus" unicode="+" horiz-adv-x="532" 
d="M319 388h185l-12 -76h-186l-29 -185h-76l29 185h-184l12 76h185l29 185h76z" />
    <glyph glyph-name="plusminus" unicode="&#xb1;" horiz-adv-x="574" 
d="M377 607l-29 -185h185l-12 -76h-185l-29 -185h-76l29 185h-185l12 76h185l29 185h76zM466 0h-446l12 76h446z" />
    <glyph glyph-name="product" unicode="&#x220f;" horiz-adv-x="755" 
d="M136 -220h-84l133 840h-95l13 80h680l-13 -80h-95l-133 -840h-84l133 840h-322z" />
    <glyph glyph-name="radical" unicode="&#x221a;" horiz-adv-x="739" 
d="M323 0h-75l-107 400h-101l13 80h144l102 -382l428 682h90z" />
    <glyph glyph-name="summation" unicode="&#x2211;" horiz-adv-x="566" 
d="M470 0h-477l7 47l314 305l-217 302l7 46h477l-13 -80h-346l187 -261l-4 -25l-261 -254h339z" />
    <glyph glyph-name="lozenge" unicode="&#x25ca;" horiz-adv-x="565" 
d="M282 0h-89l-148 350l257 350h89l148 -350zM134 343l112 -266l205 279l-112 266z" />
    <glyph glyph-name="bar" unicode="|" horiz-adv-x="224" 
d="M92 -100h-84l144 910h84z" />
    <glyph glyph-name="brokenbar" unicode="&#xa6;" horiz-adv-x="240" 
d="M188 453h-84l56 357h84zM100 -100h-84l57 357h84z" />
    <glyph glyph-name="at" unicode="@" horiz-adv-x="1052" 
d="M38 255c38 240 249 457 560 457c303 0 434 -243 404 -438c-29 -181 -123 -266 -236 -266c-80 0 -132 38 -142 104c-41 -57 -101 -83 -161 -83c-105 0 -186 92 -167 213c19 118 114 205 225 205c65 0 113 -38 133 -82l11 72h78l-42 -265c-9 -60 7 -94 69 -94
c80 0 131 89 149 206c26 162 -85 348 -326 348c-261 0 -440 -179 -473 -387c-39 -250 143 -397 370 -397c78 0 153 12 228 37l-13 -83c-73 -25 -147 -34 -222 -34c-265 0 -494 177 -445 487zM640 276c-5 50 -43 97 -113 97c-71 0 -139 -52 -152 -135
c-12 -79 34 -135 101 -135c74 0 132 51 152 101z" />
    <glyph glyph-name="ampersand" unicode="&#x26;" horiz-adv-x="696" 
d="M543 120l111 -120h-97l-65 70c-63 -50 -145 -82 -246 -82c-148 0 -232 85 -215 190c15 96 111 156 180 192c-39 44 -70 106 -59 175c15 96 115 167 232 167c100 0 190 -67 175 -162c-16 -104 -143 -163 -226 -203l157 -170c34 43 56 95 63 150h83
c-11 -75 -43 -148 -93 -207zM381 636c-93 0 -142 -47 -150 -106c-7 -47 20 -91 50 -128c69 30 186 85 197 155c8 51 -46 79 -97 79zM114 172c-11 -65 48 -108 147 -108c69 0 130 23 178 62l-176 188c-60 -29 -139 -72 -149 -142z" />
    <glyph glyph-name="paragraph" unicode="&#xb6;" horiz-adv-x="639" 
d="M257 -220h-83l80 500c-139 0 -212 81 -190 215c20 130 114 205 253 205h304l-146 -920h-84l133 840h-134z" />
    <glyph glyph-name="copyright" unicode="&#xa9;" horiz-adv-x="848" 
d="M810 345c-38 -239 -249 -357 -430 -357c-175 0 -361 124 -323 367c38 239 249 357 430 357c175 0 361 -124 323 -367zM559 181c-45 -22 -87 -33 -140 -33c-94 0 -196 62 -174 199c23 146 143 205 242 205c50 0 90 -13 121 -35l-5 -59c-30 21 -67 32 -107 32
c-78 0 -166 -37 -184 -150c-16 -101 52 -130 125 -130c44 0 90 14 128 33zM87 355c-35 -219 125 -337 290 -337c169 0 368 104 403 327c35 219 -125 337 -290 337c-169 0 -368 -104 -403 -327z" />
    <glyph glyph-name="registered" unicode="&#xae;" horiz-adv-x="848" 
d="M810 345c-38 -239 -249 -357 -430 -357c-175 0 -361 124 -323 367c38 239 249 357 430 357c175 0 361 -124 323 -367zM87 355c-35 -219 125 -337 290 -337c169 0 368 104 403 327c35 219 -125 337 -290 337c-169 0 -368 -104 -403 -327zM321 154h-60l62 393h167
c63 0 148 -26 131 -128c-10 -66 -54 -96 -102 -110l84 -155h-67l-78 147h-13h-101zM374 489l-21 -130h101c37 0 99 3 110 70c10 63 -48 60 -85 60h-105z" />
    <glyph glyph-name="section" unicode="&#xa7;" horiz-adv-x="500" 
d="M406 96c-15 -98 -112 -130 -214 -130c-60 0 -130 19 -171 48l12 74c44 -33 110 -52 158 -52c70 0 128 14 137 68c7 47 -51 64 -121 85c-78 23 -159 52 -143 149c7 45 35 87 100 129c-36 21 -61 55 -52 112c15 97 117 133 205 133c56 0 114 -18 155 -42l-11 -73
c-33 26 -86 45 -142 45c-59 0 -120 -22 -127 -71c-8 -50 53 -66 125 -87c78 -23 159 -52 143 -149c-7 -45 -36 -87 -100 -129c32 -21 55 -55 46 -110zM235 255c20 -7 41 -10 58 -16c50 20 84 62 89 94c8 50 -40 66 -93 85c-19 7 -40 11 -57 16c-51 -19 -85 -62 -90 -94
c-8 -50 40 -66 93 -85z" />
    <glyph glyph-name="trademark" unicode="&#x2122;" horiz-adv-x="666" 
d="M375 446h-48l41 254h53l67 -134l109 134h58l-40 -254h-48l30 184l-102 -120h-27l-63 120zM198 446h-49l34 210h-85l7 44h218l-7 -44h-85z" />
    <glyph glyph-name="degree" unicode="&#xb0;" horiz-adv-x="393" 
d="M392 557c-15 -95 -94 -147 -174 -147c-79 0 -151 58 -135 157c15 92 96 145 175 145c80 0 150 -59 134 -155zM141 562c-8 -55 24 -93 78 -93c58 0 106 34 115 93c8 54 -23 91 -77 91c-58 0 -106 -33 -116 -91z" />
    <glyph glyph-name="asciicircum" unicode="^" horiz-adv-x="533" 
d="M155 380h-93l236 320h70l136 -320h-86l-95 231z" />
    <glyph glyph-name="dagger" unicode="&#x2020;" horiz-adv-x="514" 
d="M218 -220h-84l98 620h-183l13 80h183l35 220h84l-35 -220h182l-13 -80h-182z" />
    <glyph glyph-name="daggerdbl" unicode="&#x2021;" horiz-adv-x="569" 
d="M247 -220h-84l47 294h-182l13 80h182l38 246h-181l13 80h181l35 220h84l-35 -220h182l-13 -80h-182l-38 -246h182l-13 -80h-182z" />
    <glyph glyph-name="acute" unicode="&#xb4;" horiz-adv-x="185" 
d="M214 770h-89l114 147h102z" />
    <glyph glyph-name="breve" unicode="&#x2d8;" horiz-adv-x="338" 
d="M417 816c-50 -32 -97 -42 -145 -42s-95 10 -135 42l12 78c45 -33 82 -44 131 -44s94 11 149 44z" />
    <glyph glyph-name="caron" unicode="&#x2c7;" horiz-adv-x="328" 
d="M456 907l-155 -146h-72l-109 146h88l63 -86l89 86h96z" />
    <glyph glyph-name="cedilla" unicode="&#xb8;" horiz-adv-x="215" 
d="M46 0h68l-24 -58c61 2 101 -29 94 -83c-9 -63 -65 -91 -138 -91c-42 0 -74 8 -105 20l11 65c24 -12 59 -20 88 -20c47 0 74 12 77 32c5 31 -52 38 -111 27z" />
    <glyph glyph-name="circumflex" unicode="&#x2c6;" horiz-adv-x="328" 
d="M251 917h72l109 -146h-86l-65 86l-91 -86h-94z" />
    <glyph glyph-name="dieresis" unicode="&#xa8;" horiz-adv-x="301" 
d="M419 832c-5 -28 -31 -50 -59 -50c-32 0 -55 28 -50 60c5 27 31 50 59 50c32 0 55 -29 50 -60zM217 832c-5 -28 -31 -50 -59 -50c-32 0 -55 28 -50 60c5 27 31 50 59 50c32 0 55 -29 50 -60z" />
    <glyph glyph-name="dotaccent" unicode="&#x2d9;" horiz-adv-x="111" 
d="M225 822c-6 -37 -33 -54 -64 -54c-34 0 -61 23 -54 64c6 36 34 53 64 53c35 0 61 -23 54 -63z" />
    <glyph glyph-name="grave" unicode="`" horiz-adv-x="185" 
d="M276 770h-85l-81 147h98z" />
    <glyph glyph-name="hungarumlaut" unicode="&#x2dd;" horiz-adv-x="374" 
d="M374 780h-87l92 147h92zM219 780h-87l92 147h92z" />
    <glyph glyph-name="macron" unicode="&#xaf;" horiz-adv-x="360" 
d="M145 857h300l-12 -73h-300z" />
    <glyph glyph-name="ogonek" unicode="&#x2db;" horiz-adv-x="215" 
d="M73 0h86c-62 -39 -108 -90 -113 -128c-4 -22 7 -40 34 -40c23 0 49 8 68 19l-11 -69c-23 -11 -51 -15 -80 -15c-68 0 -96 42 -88 94c7 44 43 98 104 139z" />
    <glyph glyph-name="ring" unicode="&#x2da;" horiz-adv-x="223" 
d="M341 850c-11 -67 -70 -106 -128 -106c-61 0 -113 45 -102 116c11 65 70 104 129 104c60 0 112 -45 101 -114zM171 854c-6 -33 16 -55 43 -55c31 0 62 18 68 55c5 32 -16 55 -43 55c-31 0 -63 -19 -68 -55z" />
    <glyph glyph-name="tilde" unicode="&#x2dc;" horiz-adv-x="351" 
d="M456 869c-1 -75 -48 -106 -94 -106c-63 0 -107 42 -145 42c-25 0 -37 -14 -36 -36h-69c1 74 48 106 93 106c62 0 107 -42 146 -42c27 0 37 13 36 36h69z" />
    <glyph glyph-name="uni0326" unicode="&#x326;" horiz-adv-x="145" 
d="M33 -231h-70l55 190h80z" />
    <glyph glyph-name="A" unicode="A" horiz-adv-x="718" 
d="M664 0h-87l-45 169h-378l-98 -169h-94l415 700h94zM398 585l-199 -338h312l-91 340c-3 10 -5 19 -6 29c-5 -11 -10 -21 -16 -31z" />
    </font>
</defs>
</svg>
