<?xml version="1.0" standalone="no"?>
<!DOCTYPE svg PUBLIC "-//W3C//DTD SVG 1.1//EN" "http://www.w3.org/Graphics/SVG/1.1/DTD/svg11.dtd" >
<svg xmlns="http://www.w3.org/2000/svg" xmlns:xlink="http://www.w3.org/1999/xlink" version="1.1">
<metadata>
Created by FontForge 20160407 at Tue Nov  8 10:20:58 2016
 By Jimmy Wärting
Copyright \(c\) 2015 by Fontfabric LLC. All rights reserved.
</metadata>
<defs>
<font id="MullerLightItalic" horiz-adv-x="623" >
  <font-face 
    font-family="Muller Light Italic"
    font-weight="300"
    font-style="italic"
    font-stretch="normal"
    units-per-em="1000"
    panose-1="0 0 0 0 0 0 0 0 0 0"
    ascent="780"
    descent="-220"
    x-height="480"
    cap-height="700"
    bbox="-207 -234 1221.56 946"
    underline-thickness="50"
    underline-position="-125"
    slope="-9"
    stemh="43"
    stemv="57"
    unicode-range="U+0020-25CA"
  />
<missing-glyph horiz-adv-x="259" 
 />
    <glyph glyph-name="f_f" unicode="ff" horiz-adv-x="679" 
d="M756 647c-24 13 -63 22 -100 22c-64 0 -123 -26 -137 -115l-12 -74h193l-8 -53h-194l-67 -427h-57l68 427h-254l-67 -427h-57l68 427h-87l8 53h87l9 57c17 107 104 161 204 161c59 0 101 -15 147 -44c36 50 94 67 148 67c44 0 88 -10 116 -23zM197 480h253l13 80
c3 19 7 35 13 50c-35 23 -71 35 -121 35c-78 0 -137 -36 -149 -112z" />
    <glyph glyph-name="f_f_i" unicode="ffi" horiz-adv-x="860" 
d="M121 0h-57l68 427h-87l8 53h87l9 57c17 107 102 161 204 161c61 0 105 -17 152 -48c38 46 96 68 158 68c55 0 102 -15 146 -40l-9 -55c-40 27 -84 42 -136 42c-74 0 -133 -36 -146 -119l-11 -66h301l-76 -480h-57l68 427h-245l-67 -427h-57l68 427h-254zM206 533l-9 -53
h253l12 70c3 21 9 39 17 56c-36 25 -70 39 -124 39c-78 0 -137 -36 -149 -112z" />
    <glyph glyph-name="f_f_l" unicode="ffl" horiz-adv-x="870" 
d="M794 687l1 6l59 15l-112 -708h-57l101 635c-38 20 -80 30 -122 30c-74 0 -133 -35 -146 -119l-11 -66h168l-8 -53h-169l-67 -427h-57l68 427h-254l-67 -427h-57l68 427h-87l8 53h87l9 57c17 107 105 161 204 161c59 0 104 -17 151 -48c38 46 96 68 156 68
c51 0 95 -11 134 -31zM450 480l12 70c3 21 9 40 17 56c-36 26 -71 39 -124 39c-75 0 -137 -36 -149 -112l-9 -53h253z" />
    <glyph glyph-name=".notdef" horiz-adv-x="259" 
 />
    <glyph glyph-name="Aacute" unicode="&#xc1;" horiz-adv-x="714" 
d="M656 0h-62l-53 188h-396l-112 -188h-67l422 700h68zM402 616l-224 -372h349l-106 373c-2 8 -4 16 -5 24c-4 -9 -9 -17 -14 -25zM451 773h-63l112 142h72z" />
    <glyph glyph-name="Abreve" unicode="&#x102;" horiz-adv-x="714" 
d="M656 0h-62l-53 188h-396l-112 -188h-67l422 700h68zM402 616l-224 -372h349l-106 373c-2 8 -4 16 -5 24c-4 -9 -9 -17 -14 -25zM574 819c-47 -31 -90 -41 -138 -41s-93 10 -129 41l9 57c40 -33 77 -44 125 -44c47 0 91 11 141 44z" />
    <glyph glyph-name="Acircumflex" unicode="&#xc2;" horiz-adv-x="714" 
d="M656 0h-62l-53 188h-396l-112 -188h-67l422 700h68zM402 616l-224 -372h349l-106 373c-2 8 -4 16 -5 24c-4 -9 -9 -17 -14 -25zM427 911h51l108 -137h-62l-76 94l-105 -94h-67z" />
    <glyph glyph-name="Adieresis" unicode="&#xc4;" horiz-adv-x="714" 
d="M656 0h-62l-53 188h-396l-112 -188h-67l422 700h68zM402 616l-224 -372h349l-106 373c-2 8 -4 16 -5 24c-4 -9 -9 -17 -14 -25zM581 833c-3 -21 -23 -38 -44 -38c-25 0 -42 21 -38 45c4 20 24 38 45 38c24 0 41 -22 37 -45zM380 833c-3 -21 -23 -38 -44 -38
c-25 0 -42 21 -38 45c4 20 24 38 45 38c24 0 41 -22 37 -45z" />
    <glyph glyph-name="Agrave" unicode="&#xc0;" horiz-adv-x="714" 
d="M656 0h-62l-53 188h-396l-112 -188h-67l422 700h68zM402 616l-224 -372h349l-106 373c-2 8 -4 16 -5 24c-4 -9 -9 -17 -14 -25zM482 773h-61l-76 142h69z" />
    <glyph glyph-name="Amacron" unicode="&#x100;" horiz-adv-x="714" 
d="M656 0h-62l-53 188h-396l-112 -188h-67l422 700h68zM402 616l-224 -372h349l-106 373c-2 8 -4 16 -5 24c-4 -9 -9 -17 -14 -25zM308 847h280l-8 -52h-280z" />
    <glyph glyph-name="Aogonek" unicode="&#x104;" horiz-adv-x="714" 
d="M656 0c-65 -40 -120 -94 -126 -139c-5 -27 10 -45 43 -45c18 0 38 6 55 15l-7 -49c-21 -9 -42 -13 -63 -13c-63 0 -91 38 -83 88c7 45 48 100 116 155l-50 176h-396l-112 -188h-67l422 700h68zM402 616l-224 -372h349l-106 373c-2 8 -4 16 -5 24c-4 -9 -9 -17 -14 -25z
" />
    <glyph glyph-name="Aring" unicode="&#xc5;" horiz-adv-x="714" 
d="M656 0h-62l-53 188h-396l-112 -188h-67l422 700h68zM402 616l-224 -372h349l-106 373c-2 8 -4 16 -5 24c-4 -9 -9 -17 -14 -25zM549 845c-9 -59 -62 -95 -114 -95c-54 0 -100 40 -90 102c10 58 63 94 115 94c54 0 99 -40 89 -101zM388 848c-6 -35 18 -58 47 -58
c33 0 66 20 72 58c5 35 -18 58 -47 58c-33 0 -66 -21 -72 -58z" />
    <glyph glyph-name="Atilde" unicode="&#xc3;" horiz-adv-x="714" 
d="M656 0h-62l-53 188h-396l-112 -188h-67l422 700h68zM402 616l-224 -372h349l-106 373c-2 8 -4 16 -5 24c-4 -9 -9 -17 -14 -25zM599 866c-1 -62 -39 -92 -83 -92c-59 0 -109 48 -151 48c-26 0 -41 -17 -41 -43h-49c1 61 40 93 82 93c59 0 110 -48 152 -48
c29 0 41 15 41 42h49z" />
    <glyph glyph-name="AE" unicode="&#xc6;" horiz-adv-x="1000" 
d="M1007 700l-9 -57h-375l-41 -262h345l-9 -57h-345l-43 -267h382l-9 -57h-441l30 190h-314l-162 -190h-72l602 700h461zM224 244h276l63 395z" />
    <glyph glyph-name="B" unicode="B" horiz-adv-x="686" 
d="M163 700h271c130 0 228 -60 209 -181c-15 -91 -81 -137 -150 -152c62 -14 144 -59 126 -180c-26 -161 -182 -187 -292 -187h-275zM560 200c19 122 -96 136 -163 136h-233l-44 -279h202c93 0 217 12 238 143zM583 520c14 92 -54 123 -161 123h-210l-39 -251h236
c82 0 159 36 174 128z" />
    <glyph glyph-name="C" unicode="C" horiz-adv-x="647" 
d="M60 364c37 229 243 347 417 347c71 0 133 -16 185 -48l-9 -57c-44 32 -104 49 -170 49c-154 0 -332 -97 -365 -299c-34 -214 119 -311 265 -311c69 0 138 18 194 52l-10 -64c-58 -30 -131 -44 -199 -44c-170 0 -349 124 -308 375z" />
    <glyph glyph-name="Cacute" unicode="&#x106;" horiz-adv-x="647" 
d="M60 364c37 229 243 347 417 347c71 0 133 -16 185 -48l-9 -57c-44 32 -104 49 -170 49c-154 0 -332 -97 -365 -299c-34 -214 119 -311 265 -311c69 0 138 18 194 52l-10 -64c-58 -30 -131 -44 -199 -44c-170 0 -349 124 -308 375zM509 773h-63l112 142h72z" />
    <glyph glyph-name="Ccaron" unicode="&#x10c;" horiz-adv-x="647" 
d="M60 364c37 229 243 347 417 347c71 0 133 -16 185 -48l-9 -57c-44 32 -104 49 -170 49c-154 0 -332 -97 -365 -299c-34 -214 119 -311 265 -311c69 0 138 18 194 52l-10 -64c-58 -30 -131 -44 -199 -44c-170 0 -349 124 -308 375zM664 901l-151 -137h-51l-108 137h63
l75 -94l103 94h69z" />
    <glyph glyph-name="Ccedilla" unicode="&#xc7;" horiz-adv-x="647" 
d="M653 606c-44 32 -104 49 -170 49c-154 0 -332 -97 -365 -299c-34 -214 119 -311 265 -311c69 0 138 18 194 52l-10 -64c-54 -28 -121 -42 -185 -44l-25 -62c59 7 109 -20 102 -75c-8 -54 -57 -83 -130 -83c-44 0 -76 9 -104 21l8 46c25 -13 59 -21 91 -21
c55 0 83 18 87 42c5 37 -55 46 -115 32l39 102c-160 15 -313 139 -275 373c37 229 243 347 417 347c71 0 133 -16 185 -48z" />
    <glyph glyph-name="Cdotaccent" unicode="&#x10a;" horiz-adv-x="647" 
d="M60 364c37 229 243 347 417 347c71 0 133 -16 185 -48l-9 -57c-44 32 -104 49 -170 49c-154 0 -332 -97 -365 -299c-34 -214 119 -311 265 -311c69 0 138 18 194 52l-10 -64c-58 -30 -131 -44 -199 -44c-170 0 -349 124 -308 375zM540 819c-4 -28 -26 -42 -50 -42
c-26 0 -47 18 -42 50c5 27 27 41 50 41c28 0 48 -18 42 -49z" />
    <glyph glyph-name="D" unicode="D" horiz-adv-x="735" 
d="M163 700h214c244 0 350 -150 318 -354c-32 -200 -169 -346 -425 -346h-218zM635 354c29 175 -55 289 -264 289h-159l-92 -586h156c209 0 331 118 359 297z" />
    <glyph glyph-name="Eth" unicode="&#xd0;" horiz-adv-x="737" 
d="M165 700h214c243 0 350 -150 318 -354c-32 -200 -170 -346 -425 -346h-218l51 322h-74l8 54h74zM278 57c209 0 331 118 359 297c29 175 -55 289 -264 289h-159l-42 -267h232l-9 -54h-231l-42 -265h156z" />
    <glyph glyph-name="Dcaron" unicode="&#x10e;" horiz-adv-x="735" 
d="M163 700h214c244 0 350 -150 318 -354c-32 -200 -169 -346 -425 -346h-218zM635 354c29 175 -55 289 -264 289h-159l-92 -586h156c209 0 331 118 359 297zM576 901l-151 -137h-51l-108 137h63l75 -94l103 94h69z" />
    <glyph glyph-name="Dcroat" unicode="&#x110;" horiz-adv-x="737" 
d="M165 700h214c243 0 350 -150 318 -354c-32 -200 -170 -346 -425 -346h-218l51 322h-74l8 54h74zM278 57c209 0 331 118 359 297c29 175 -55 289 -264 289h-159l-42 -267h232l-9 -54h-231l-42 -265h156z" />
    <glyph glyph-name="E" unicode="E" horiz-adv-x="621" 
d="M163 700h465l-9 -57h-406l-41 -262h375l-8 -57h-376l-42 -267h411l-9 -57h-471z" />
    <glyph glyph-name="Eacute" unicode="&#xc9;" horiz-adv-x="621" 
d="M163 700h465l-9 -57h-406l-41 -262h375l-8 -57h-376l-42 -267h411l-9 -57h-471zM425 773h-63l112 142h72z" />
    <glyph glyph-name="Ecaron" unicode="&#x11a;" horiz-adv-x="621" 
d="M163 700h465l-9 -57h-406l-41 -262h375l-8 -57h-376l-42 -267h411l-9 -57h-471zM580 901l-151 -137h-51l-108 137h63l75 -94l103 94h69z" />
    <glyph glyph-name="Ecircumflex" unicode="&#xca;" horiz-adv-x="621" 
d="M163 700h465l-9 -57h-406l-41 -262h375l-8 -57h-376l-42 -267h411l-9 -57h-471zM401 911h51l108 -137h-62l-76 94l-105 -94h-67z" />
    <glyph glyph-name="Edieresis" unicode="&#xcb;" horiz-adv-x="621" 
d="M163 700h465l-9 -57h-406l-41 -262h375l-8 -57h-376l-42 -267h411l-9 -57h-471zM555 833c-3 -21 -23 -38 -44 -38c-25 0 -42 21 -38 45c4 20 24 38 45 38c24 0 41 -22 37 -45zM354 833c-3 -21 -23 -38 -44 -38c-25 0 -42 21 -38 45c4 20 24 38 45 38c24 0 41 -22 37 -45z
" />
    <glyph glyph-name="Edotaccent" unicode="&#x116;" horiz-adv-x="621" 
d="M163 700h465l-9 -57h-406l-41 -262h375l-8 -57h-376l-42 -267h411l-9 -57h-471zM456 819c-4 -28 -26 -42 -50 -42c-26 0 -47 18 -42 50c5 27 27 41 50 41c28 0 48 -18 42 -49z" />
    <glyph glyph-name="Egrave" unicode="&#xc8;" horiz-adv-x="621" 
d="M163 700h465l-9 -57h-406l-41 -262h375l-8 -57h-376l-42 -267h411l-9 -57h-471zM456 773h-61l-76 142h69z" />
    <glyph glyph-name="Emacron" unicode="&#x112;" horiz-adv-x="621" 
d="M163 700h465l-9 -57h-406l-41 -262h375l-8 -57h-376l-42 -267h411l-9 -57h-471zM282 847h280l-8 -52h-280z" />
    <glyph glyph-name="Eogonek" unicode="&#x118;" horiz-adv-x="621" 
d="M493 -172l-8 -49c-20 -7 -42 -10 -64 -10c-59 0 -87 37 -79 87c7 46 46 99 110 144h-400l111 700h465l-9 -57h-406l-41 -262h375l-8 -57h-376l-42 -267h411l-9 -57c-65 -41 -120 -93 -126 -137c-5 -28 10 -47 39 -47c19 0 39 4 57 12z" />
    <glyph glyph-name="F" unicode="F" horiz-adv-x="604" 
d="M163 700h467l-10 -57h-407l-43 -273h378l-9 -57h-378l-50 -313h-59z" />
    <glyph glyph-name="G" unicode="G" horiz-adv-x="709" 
d="M60 364c38 244 250 347 424 347c78 0 145 -17 200 -47l-8 -57c-47 32 -118 48 -187 48c-154 0 -336 -81 -370 -299c-35 -221 121 -311 271 -311c57 0 115 12 162 34l46 290h60l-52 -334c-69 -30 -149 -46 -223 -46c-178 0 -365 112 -323 375z" />
    <glyph glyph-name="Gbreve" unicode="&#x11e;" horiz-adv-x="709" 
d="M60 364c38 244 250 347 424 347c78 0 145 -17 200 -47l-8 -57c-47 32 -118 48 -187 48c-154 0 -336 -81 -370 -299c-35 -221 121 -311 271 -311c57 0 115 12 162 34l46 290h60l-52 -334c-69 -30 -149 -46 -223 -46c-178 0 -365 112 -323 375zM621 819
c-47 -31 -90 -41 -138 -41s-93 10 -129 41l9 57c40 -33 77 -44 125 -44c47 0 91 11 141 44z" />
    <glyph glyph-name="Gcommaaccent" unicode="&#x122;" horiz-adv-x="709" 
d="M60 364c38 244 250 347 424 347c78 0 145 -17 200 -47l-8 -57c-47 32 -118 48 -187 48c-154 0 -336 -81 -370 -299c-35 -221 121 -311 271 -311c57 0 115 12 162 34l46 290h60l-52 -334c-69 -30 -149 -46 -223 -46c-178 0 -365 112 -323 375zM345 -234h-50l51 180h57z
" />
    <glyph glyph-name="Gdotaccent" unicode="&#x120;" horiz-adv-x="709" 
d="M60 364c38 244 250 347 424 347c78 0 145 -17 200 -47l-8 -57c-47 32 -118 48 -187 48c-154 0 -336 -81 -370 -299c-35 -221 121 -311 271 -311c57 0 115 12 162 34l46 290h60l-52 -334c-69 -30 -149 -46 -223 -46c-178 0 -365 112 -323 375zM529 819
c-4 -28 -26 -42 -50 -42c-26 0 -47 18 -42 50c5 27 27 41 50 41c28 0 48 -18 42 -49z" />
    <glyph glyph-name="H" unicode="H" horiz-adv-x="768" 
d="M676 700h59l-111 -700h-59l51 323h-454l-51 -323h-59l111 700h59l-50 -320h453z" />
    <glyph glyph-name="Hbar" unicode="&#x126;" horiz-adv-x="772" 
d="M113 0h-59l81 510h-76l8 50h76l22 140h59l-22 -140h454l22 140h59l-22 -140h76l-8 -50h-76l-81 -510h-59l51 323h-454zM195 510l-21 -130h453l21 130h-453z" />
    <glyph glyph-name="I" unicode="I" horiz-adv-x="255" 
d="M163 700h59l-111 -700h-59z" />
    <glyph glyph-name="IJ" unicode="&#x132;" horiz-adv-x="771" 
d="M163 700h59l-111 -700h-59zM470 700h275l-79 -503c-23 -148 -125 -207 -252 -207c-72 0 -134 16 -175 44l9 58c41 -30 95 -45 158 -45c105 0 183 41 201 156l70 440h-217z" />
    <glyph glyph-name="Iacute" unicode="&#xcd;" horiz-adv-x="255" 
d="M163 700h59l-111 -700h-59zM221 773h-63l112 142h72z" />
    <glyph glyph-name="Icircumflex" unicode="&#xce;" horiz-adv-x="255" 
d="M163 700h59l-111 -700h-59zM197 911h51l108 -137h-62l-76 94l-105 -94h-67z" />
    <glyph glyph-name="Idieresis" unicode="&#xcf;" horiz-adv-x="255" 
d="M163 700h59l-111 -700h-59zM351 833c-3 -21 -23 -38 -44 -38c-25 0 -42 21 -38 45c4 20 24 38 45 38c24 0 41 -22 37 -45zM150 833c-3 -21 -23 -38 -44 -38c-25 0 -42 21 -38 45c4 20 24 38 45 38c24 0 41 -22 37 -45z" />
    <glyph glyph-name="Idotaccent" unicode="&#x130;" horiz-adv-x="255" 
d="M163 700h59l-111 -700h-59zM252 819c-4 -28 -26 -42 -50 -42c-26 0 -47 18 -42 50c5 27 27 41 50 41c28 0 48 -18 42 -49z" />
    <glyph glyph-name="Igrave" unicode="&#xcc;" horiz-adv-x="255" 
d="M163 700h59l-111 -700h-59zM252 773h-61l-76 142h69z" />
    <glyph glyph-name="Imacron" unicode="&#x12a;" horiz-adv-x="255" 
d="M163 700h59l-111 -700h-59zM78 847h280l-8 -52h-280z" />
    <glyph glyph-name="Iogonek" unicode="&#x12e;" horiz-adv-x="255" 
d="M111 0c-44 -44 -83 -92 -90 -136c-4 -28 11 -50 44 -49c26 0 49 8 73 22l-8 -49c-25 -14 -52 -19 -80 -19c-60 0 -91 39 -83 89c7 47 39 96 86 148l110 694h59z" />
    <glyph glyph-name="J" unicode="J" horiz-adv-x="516" 
d="M215 700h275l-79 -503c-23 -148 -125 -207 -252 -207c-72 0 -134 16 -175 44l9 58c41 -30 95 -45 158 -45c105 0 183 41 201 156l70 440h-217z" />
    <glyph glyph-name="K" unicode="K" horiz-adv-x="658" 
d="M629 700h68l-297 -343l209 -357h-64l-195 330h-187l-52 -330h-59l111 700h59l-49 -314h183z" />
    <glyph glyph-name="Kcommaaccent" unicode="&#x136;" horiz-adv-x="658" 
d="M629 700h68l-297 -343l209 -357h-64l-195 330h-187l-52 -330h-59l111 700h59l-49 -314h183zM282 -224h-50l51 180h57z" />
    <glyph glyph-name="L" unicode="L" horiz-adv-x="572" 
d="M163 700h59l-101 -643h404l-9 -57h-464z" />
    <glyph glyph-name="Lacute" unicode="&#x139;" horiz-adv-x="572" 
d="M163 700h59l-101 -643h404l-9 -57h-464zM236 773h-63l112 142h72z" />
    <glyph glyph-name="Lcaron" unicode="&#x13d;" horiz-adv-x="573" 
d="M442 700h57l-53 -172h-49zM163 700h59l-101 -643h404l-9 -57h-464z" />
    <glyph glyph-name="Lcommaaccent" unicode="&#x13b;" horiz-adv-x="572" 
d="M163 700h59l-101 -643h404l-9 -57h-464zM263 -224h-50l51 180h57z" />
    <glyph glyph-name="Ldot" unicode="&#x13f;" horiz-adv-x="576" 
d="M406 340c-4 -24 -22 -36 -42 -36c-23 0 -41 16 -37 43c4 24 23 35 43 35c23 0 40 -15 36 -42zM163 700h59l-101 -643h404l-9 -57h-464z" />
    <glyph glyph-name="Lslash" unicode="&#x141;" horiz-adv-x="577" 
d="M522 0h-464l44 279l-92 -37l8 50l92 37l59 371h59l-55 -348l239 95l-8 -50l-239 -95l-38 -245h404z" />
    <glyph glyph-name="M" unicode="M" horiz-adv-x="903" 
d="M810 700h60l-111 -700h-59l94 593l-339 -415h-39l-210 415l-95 -593h-59l111 700h52l227 -450z" />
    <glyph glyph-name="N" unicode="N" horiz-adv-x="768" 
d="M111 0h-59l111 700h50l368 -604c3 25 6 41 8 61l87 543h59l-111 -700h-50l-368 605c-3 -25 -6 -42 -8 -61z" />
    <glyph glyph-name="Nacute" unicode="&#x143;" horiz-adv-x="768" 
d="M111 0h-59l111 700h50l368 -604c3 25 6 41 8 61l87 543h59l-111 -700h-50l-368 605c-3 -25 -6 -42 -8 -61zM479 773h-63l112 142h72z" />
    <glyph glyph-name="Ncaron" unicode="&#x147;" horiz-adv-x="768" 
d="M111 0h-59l111 700h50l368 -604c3 25 6 41 8 61l87 543h59l-111 -700h-50l-368 605c-3 -25 -6 -42 -8 -61zM634 901l-151 -137h-51l-108 137h63l75 -94l103 94h69z" />
    <glyph glyph-name="Ncommaaccent" unicode="&#x145;" horiz-adv-x="768" 
d="M111 0h-59l111 700h50l368 -604c3 25 6 41 8 61l87 543h59l-111 -700h-50l-368 605c-3 -25 -6 -42 -8 -61zM319 -224h-50l51 180h57z" />
    <glyph glyph-name="Eng" unicode="&#x14a;" horiz-adv-x="769" 
d="M609 -97c-16 -97 -77 -134 -150 -134c-26 0 -50 4 -74 12l9 54c16 -6 36 -10 54 -10c54 0 92 24 103 89l16 98l-361 593c-3 -25 -6 -42 -8 -61l-87 -544h-59l111 700h50l368 -604c3 25 6 41 8 61l87 543h59z" />
    <glyph glyph-name="Ntilde" unicode="&#xd1;" horiz-adv-x="768" 
d="M111 0h-59l111 700h50l368 -604c3 25 6 41 8 61l87 543h59l-111 -700h-50l-368 605c-3 -25 -6 -42 -8 -61zM627 866c-1 -62 -39 -92 -83 -92c-59 0 -109 48 -151 48c-26 0 -41 -17 -41 -43h-49c1 61 40 93 82 93c59 0 110 -48 152 -48c29 0 41 15 41 42h49z" />
    <glyph glyph-name="O" unicode="O" horiz-adv-x="822" 
d="M784 346c-28 -177 -171 -357 -418 -357c-231 0 -337 185 -309 365c29 177 179 357 418 357c232 0 338 -185 309 -365zM117 350c-23 -144 50 -305 253 -305c205 0 331 152 355 305c23 144 -50 305 -253 305c-205 0 -331 -152 -355 -305z" />
    <glyph glyph-name="Oacute" unicode="&#xd3;" horiz-adv-x="822" 
d="M784 346c-28 -177 -171 -357 -418 -357c-231 0 -337 185 -309 365c29 177 179 357 418 357c232 0 338 -185 309 -365zM117 350c-23 -144 50 -305 253 -305c205 0 331 152 355 305c23 144 -50 305 -253 305c-205 0 -331 -152 -355 -305zM505 773h-63l112 142h72z" />
    <glyph glyph-name="Ocircumflex" unicode="&#xd4;" horiz-adv-x="822" 
d="M784 346c-28 -177 -171 -357 -418 -357c-231 0 -337 185 -309 365c29 177 179 357 418 357c232 0 338 -185 309 -365zM117 350c-23 -144 50 -305 253 -305c205 0 331 152 355 305c23 144 -50 305 -253 305c-205 0 -331 -152 -355 -305zM481 911h51l108 -137h-62l-76 94
l-105 -94h-67z" />
    <glyph glyph-name="Odieresis" unicode="&#xd6;" horiz-adv-x="822" 
d="M784 346c-28 -177 -171 -357 -418 -357c-231 0 -337 185 -309 365c29 177 179 357 418 357c232 0 338 -185 309 -365zM117 350c-23 -144 50 -305 253 -305c205 0 331 152 355 305c23 144 -50 305 -253 305c-205 0 -331 -152 -355 -305zM635 833c-3 -21 -23 -38 -44 -38
c-25 0 -42 21 -38 45c4 20 24 38 45 38c24 0 41 -22 37 -45zM434 833c-3 -21 -23 -38 -44 -38c-25 0 -42 21 -38 45c4 20 24 38 45 38c24 0 41 -22 37 -45z" />
    <glyph glyph-name="Ograve" unicode="&#xd2;" horiz-adv-x="822" 
d="M784 346c-28 -177 -171 -357 -418 -357c-231 0 -337 185 -309 365c29 177 179 357 418 357c232 0 338 -185 309 -365zM117 350c-23 -144 50 -305 253 -305c205 0 331 152 355 305c23 144 -50 305 -253 305c-205 0 -331 -152 -355 -305zM536 773h-61l-76 142h69z" />
    <glyph glyph-name="Ohungarumlaut" unicode="&#x150;" horiz-adv-x="822" 
d="M784 346c-28 -177 -171 -357 -418 -357c-231 0 -337 185 -309 365c29 177 179 357 418 357c232 0 338 -185 309 -365zM117 350c-23 -144 50 -305 253 -305c205 0 331 152 355 305c23 144 -50 305 -253 305c-205 0 -331 -152 -355 -305zM596 779h-62l95 145h65zM443 779
h-62l95 145h65z" />
    <glyph glyph-name="Omacron" unicode="&#x14c;" horiz-adv-x="822" 
d="M784 346c-28 -177 -171 -357 -418 -357c-231 0 -337 185 -309 365c29 177 179 357 418 357c232 0 338 -185 309 -365zM117 350c-23 -144 50 -305 253 -305c205 0 331 152 355 305c23 144 -50 305 -253 305c-205 0 -331 -152 -355 -305zM362 847h280l-8 -52h-280z" />
    <glyph glyph-name="Oslash" unicode="&#xd8;" horiz-adv-x="822" 
d="M98 -48h-59l105 119c-74 71 -103 177 -87 283c29 177 179 357 418 357c77 0 140 -20 189 -54l80 91h59l-106 -119c75 -71 104 -177 87 -283c-28 -177 -171 -357 -418 -357c-76 0 -139 20 -188 54zM116 350c-13 -85 7 -175 67 -235l441 498c-39 26 -89 42 -152 42
c-205 0 -332 -152 -356 -305zM217 87c39 -26 90 -42 153 -42c205 0 331 152 355 305c13 85 -6 175 -67 235z" />
    <glyph glyph-name="Otilde" unicode="&#xd5;" horiz-adv-x="822" 
d="M784 346c-28 -177 -171 -357 -418 -357c-231 0 -337 185 -309 365c29 177 179 357 418 357c232 0 338 -185 309 -365zM117 350c-23 -144 50 -305 253 -305c205 0 331 152 355 305c23 144 -50 305 -253 305c-205 0 -331 -152 -355 -305zM653 866c-1 -62 -39 -92 -83 -92
c-59 0 -109 48 -151 48c-26 0 -41 -17 -41 -43h-49c1 61 40 93 82 93c59 0 110 -48 152 -48c29 0 41 15 41 42h49z" />
    <glyph glyph-name="OE" unicode="&#x152;" horiz-adv-x="1022" 
d="M485 -1c-34 -7 -69 -10 -108 -10c-239 0 -351 189 -318 381c29 170 180 341 407 341c47 0 90 -5 117 -12l446 1l-9 -57h-375l-42 -262h346l-9 -57h-346l-42 -267h381l-9 -57zM118 363c-28 -164 59 -318 262 -318c43 0 77 5 111 14l92 581c-33 12 -73 15 -120 15
c-192 0 -320 -146 -345 -292z" />
    <glyph glyph-name="P" unicode="P" horiz-adv-x="660" 
d="M163 700h234c145 0 282 -52 255 -226c-27 -171 -169 -219 -328 -219h-172l-41 -255h-59zM592 481c21 131 -86 162 -198 162h-182l-52 -331h172c129 0 239 36 260 169z" />
    <glyph glyph-name="Thorn" unicode="&#xde;" horiz-adv-x="655" 
d="M202 572h171c151 0 286 -51 259 -226c-28 -171 -168 -218 -328 -218h-172l-21 -128h-59l111 700h59zM140 184h172c129 0 239 36 260 170c21 131 -84 162 -201 162h-178z" />
    <glyph glyph-name="Q" unicode="Q" horiz-adv-x="822" 
d="M727 -22l-42 -36l-93 109c-62 -38 -137 -62 -226 -62c-231 0 -337 185 -309 365c29 177 179 357 418 357c232 0 338 -185 309 -365c-15 -96 -65 -194 -147 -263zM117 350c-23 -144 50 -305 253 -305c71 0 134 20 185 51l-117 138l42 36l120 -143c69 58 112 141 125 223
c23 144 -50 305 -253 305c-205 0 -331 -152 -355 -305z" />
    <glyph glyph-name="R" unicode="R" horiz-adv-x="691" 
d="M111 0h-59l111 700h267c121 0 249 -54 224 -212c-21 -132 -127 -187 -233 -200l203 -288h-70l-200 283h-198zM212 643l-47 -303h211c95 0 200 37 218 155c19 116 -76 148 -168 148h-214z" />
    <glyph glyph-name="Racute" unicode="&#x154;" horiz-adv-x="691" 
d="M111 0h-59l111 700h267c121 0 249 -54 224 -212c-21 -132 -127 -187 -233 -200l203 -288h-70l-200 283h-198zM212 643l-47 -303h211c95 0 200 37 218 155c19 116 -76 148 -168 148h-214zM429 773h-63l112 142h72z" />
    <glyph glyph-name="Rcaron" unicode="&#x158;" horiz-adv-x="691" 
d="M111 0h-59l111 700h267c121 0 249 -54 224 -212c-21 -132 -127 -187 -233 -200l203 -288h-70l-200 283h-198zM212 643l-47 -303h211c95 0 200 37 218 155c19 116 -76 148 -168 148h-214zM584 901l-151 -137h-51l-108 137h63l75 -94l103 94h69z" />
    <glyph glyph-name="Rcommaaccent" unicode="&#x156;" horiz-adv-x="691" 
d="M111 0h-59l111 700h267c121 0 249 -54 224 -212c-21 -132 -127 -187 -233 -200l203 -288h-70l-200 283h-198zM212 643l-47 -303h211c95 0 200 37 218 155c19 116 -76 148 -168 148h-214zM300 -224h-50l51 180h57z" />
    <glyph glyph-name="S" unicode="S" horiz-adv-x="575" 
d="M94 541c19 121 144 170 258 170c79 0 150 -21 199 -53l-9 -57c-49 35 -119 54 -189 54c-97 0 -185 -31 -200 -119c-31 -191 404 -124 365 -373c-20 -131 -145 -175 -266 -174c-90 0 -176 22 -237 60l9 57c65 -42 148 -61 227 -61c104 0 193 29 207 121
c33 202 -401 135 -364 375z" />
    <glyph glyph-name="Sacute" unicode="&#x15a;" horiz-adv-x="575" 
d="M94 541c19 121 144 170 258 170c79 0 150 -21 199 -53l-9 -57c-49 35 -119 54 -189 54c-97 0 -185 -31 -200 -119c-31 -191 404 -124 365 -373c-20 -131 -145 -175 -266 -174c-90 0 -176 22 -237 60l9 57c65 -42 148 -61 227 -61c104 0 193 29 207 121
c33 202 -401 135 -364 375zM366 773h-63l112 142h72z" />
    <glyph glyph-name="Scaron" unicode="&#x160;" horiz-adv-x="575" 
d="M94 541c19 121 144 170 258 170c79 0 150 -21 199 -53l-9 -57c-49 35 -119 54 -189 54c-97 0 -185 -31 -200 -119c-31 -191 404 -124 365 -373c-20 -131 -145 -175 -266 -174c-90 0 -176 22 -237 60l9 57c65 -42 148 -61 227 -61c104 0 193 29 207 121
c33 202 -401 135 -364 375zM521 901l-151 -137h-51l-108 137h63l75 -94l103 94h69z" />
    <glyph glyph-name="Scedilla" unicode="&#x15e;" horiz-adv-x="575" 
d="M355 -148c-8 -54 -57 -83 -130 -83c-44 0 -76 9 -104 21l8 46c25 -13 59 -21 91 -21c55 0 83 18 87 42c5 37 -55 46 -115 32l38 100c-81 4 -159 25 -215 60l9 57c65 -42 148 -61 227 -61c104 0 193 29 207 121c33 202 -401 135 -364 375c19 121 144 170 258 170
c79 0 150 -21 199 -53l-9 -57c-49 35 -119 54 -189 54c-97 0 -185 -31 -200 -119c-31 -191 404 -124 365 -373c-18 -121 -128 -168 -239 -174l-26 -62c59 7 109 -20 102 -75z" />
    <glyph glyph-name="Scommaaccent" unicode="&#x218;" horiz-adv-x="575" 
d="M94 541c19 121 144 170 258 170c79 0 150 -21 199 -53l-9 -57c-49 35 -119 54 -189 54c-97 0 -185 -31 -200 -119c-31 -191 404 -124 365 -373c-20 -131 -145 -175 -266 -174c-90 0 -176 22 -237 60l9 57c65 -42 148 -61 227 -61c104 0 193 29 207 121
c33 202 -401 135 -364 375zM239 -224h-50l51 180h57z" />
    <glyph glyph-name="T" unicode="T" horiz-adv-x="596" 
d="M77 700h571l-9 -57h-256l-102 -643h-59l102 643h-256z" />
    <glyph glyph-name="Tbar" unicode="&#x166;" horiz-adv-x="607" 
d="M286 0h-59l52 327h-128l8 50h128l42 266h-256l9 57h571l-9 -57h-256l-42 -266h128l-8 -50h-128z" />
    <glyph glyph-name="Tcaron" unicode="&#x164;" horiz-adv-x="596" 
d="M77 700h571l-9 -57h-256l-102 -643h-59l102 643h-256zM549 901l-151 -137h-51l-108 137h63l75 -94l103 94h69z" />
    <glyph glyph-name="Tcommaaccent" unicode="&#x162;" horiz-adv-x="596" 
d="M77 700h571l-9 -57h-256l-102 -643h-59l102 643h-256zM217 -224h-50l51 180h57z" />
    <glyph glyph-name="uni021A" unicode="&#x21a;" horiz-adv-x="596" 
d="M77 700h571l-9 -57h-256l-102 -643h-59l102 643h-256zM218 -224h-50l51 180h57z" />
    <glyph glyph-name="U" unicode="U" horiz-adv-x="753" 
d="M669 700h59l-71 -452c-31 -195 -166 -259 -321 -259c-157 0 -283 68 -252 263l71 448h59l-71 -450c-24 -153 63 -205 192 -205c137 0 239 56 264 209z" />
    <glyph glyph-name="Uacute" unicode="&#xda;" horiz-adv-x="753" 
d="M669 700h59l-71 -452c-31 -195 -166 -259 -321 -259c-157 0 -283 68 -252 263l71 448h59l-71 -450c-24 -153 63 -205 192 -205c137 0 239 56 264 209zM464 773h-63l112 142h72z" />
    <glyph glyph-name="Ucircumflex" unicode="&#xdb;" horiz-adv-x="753" 
d="M669 700h59l-71 -452c-31 -195 -166 -259 -321 -259c-157 0 -283 68 -252 263l71 448h59l-71 -450c-24 -153 63 -205 192 -205c137 0 239 56 264 209zM440 911h51l108 -137h-62l-76 94l-105 -94h-67z" />
    <glyph glyph-name="Udieresis" unicode="&#xdc;" horiz-adv-x="753" 
d="M669 700h59l-71 -452c-31 -195 -166 -259 -321 -259c-157 0 -283 68 -252 263l71 448h59l-71 -450c-24 -153 63 -205 192 -205c137 0 239 56 264 209zM594 833c-3 -21 -23 -38 -44 -38c-25 0 -42 21 -38 45c4 20 24 38 45 38c24 0 41 -22 37 -45zM393 833
c-3 -21 -23 -38 -44 -38c-25 0 -42 21 -38 45c4 20 24 38 45 38c24 0 41 -22 37 -45z" />
    <glyph glyph-name="Ugrave" unicode="&#xd9;" horiz-adv-x="753" 
d="M669 700h59l-71 -452c-31 -195 -166 -259 -321 -259c-157 0 -283 68 -252 263l71 448h59l-71 -450c-24 -153 63 -205 192 -205c137 0 239 56 264 209zM495 773h-61l-76 142h69z" />
    <glyph glyph-name="Uhungarumlaut" unicode="&#x170;" horiz-adv-x="753" 
d="M669 700h59l-71 -452c-31 -195 -166 -259 -321 -259c-157 0 -283 68 -252 263l71 448h59l-71 -450c-24 -153 63 -205 192 -205c137 0 239 56 264 209zM555 779h-62l95 145h65zM402 779h-62l95 145h65z" />
    <glyph glyph-name="Umacron" unicode="&#x16a;" horiz-adv-x="753" 
d="M669 700h59l-71 -452c-31 -195 -166 -259 -321 -259c-157 0 -283 68 -252 263l71 448h59l-71 -450c-24 -153 63 -205 192 -205c137 0 239 56 264 209zM321 847h280l-8 -52h-280z" />
    <glyph glyph-name="Uogonek" unicode="&#x172;" horiz-adv-x="753" 
d="M599 254l70 446h59l-71 -452c-14 -92 -54 -158 -112 -201c-105 -77 -148 -142 -154 -186c-5 -27 12 -47 44 -46c24 0 50 8 72 21l-8 -48c-25 -13 -52 -19 -81 -19c-62 0 -93 37 -85 87c7 41 39 92 96 144c-28 -8 -57 -11 -93 -11c-157 0 -283 68 -252 263l71 448h59
l-71 -450c-24 -153 63 -205 192 -205c137 0 239 56 264 209z" />
    <glyph glyph-name="Uring" unicode="&#x16e;" horiz-adv-x="753" 
d="M669 700h59l-71 -452c-31 -195 -166 -259 -321 -259c-157 0 -283 68 -252 263l71 448h59l-71 -450c-24 -153 63 -205 192 -205c137 0 239 56 264 209zM562 845c-9 -59 -62 -95 -114 -95c-54 0 -100 40 -90 102c10 58 63 94 115 94c54 0 99 -40 89 -101zM401 848
c-6 -35 18 -58 47 -58c33 0 66 20 72 58c5 35 -18 58 -47 58c-33 0 -66 -21 -72 -58z" />
    <glyph glyph-name="V" unicode="V" horiz-adv-x="685" 
d="M327 0h-61l-186 700h62l162 -633l365 633h66z" />
    <glyph glyph-name="W" unicode="W" horiz-adv-x="995" 
d="M979 700h63l-329 -700h-67l-97 590l-285 -590h-70l-111 700h60l98 -624l299 621h49l101 -613z" />
    <glyph glyph-name="Wacute" unicode="&#x1e82;" horiz-adv-x="997" 
d="M979 700h63l-329 -700h-67l-97 590l-285 -590h-70l-111 700h60l98 -624l299 621h49l101 -613zM591 773h-63l112 142h72z" />
    <glyph glyph-name="Wcircumflex" unicode="&#x174;" horiz-adv-x="997" 
d="M979 700h63l-329 -700h-67l-97 590l-285 -590h-70l-111 700h60l98 -624l299 621h49l101 -613zM567 911h51l108 -137h-62l-76 94l-105 -94h-67z" />
    <glyph glyph-name="Wdieresis" unicode="&#x1e84;" horiz-adv-x="997" 
d="M979 700h63l-329 -700h-67l-97 590l-285 -590h-70l-111 700h60l98 -624l299 621h49l101 -613zM721 833c-3 -21 -23 -38 -44 -38c-25 0 -42 21 -38 45c4 20 24 38 45 38c24 0 41 -22 37 -45zM520 833c-3 -21 -23 -38 -44 -38c-25 0 -42 21 -38 45c4 20 24 38 45 38
c24 0 41 -22 37 -45z" />
    <glyph glyph-name="Wgrave" unicode="&#x1e80;" horiz-adv-x="997" 
d="M979 700h63l-329 -700h-67l-97 590l-285 -590h-70l-111 700h60l98 -624l299 621h49l101 -613zM622 773h-61l-76 142h69z" />
    <glyph glyph-name="X" unicode="X" horiz-adv-x="628" 
d="M33 0h-75l333 363l-203 337h66l177 -294l270 294h75l-316 -344l214 -356h-65l-189 312z" />
    <glyph glyph-name="Y" unicode="Y" horiz-adv-x="643" 
d="M305 0h-60l44 273l-207 427h62l181 -370l299 370h68l-343 -427z" />
    <glyph glyph-name="Yacute" unicode="&#xdd;" horiz-adv-x="643" 
d="M305 0h-60l44 273l-207 427h62l181 -370l299 370h68l-343 -427zM409 773h-63l112 142h72z" />
    <glyph glyph-name="Ycircumflex" unicode="&#x176;" horiz-adv-x="643" 
d="M305 0h-60l44 273l-207 427h62l181 -370l299 370h68l-343 -427zM385 911h51l108 -137h-62l-76 94l-105 -94h-67z" />
    <glyph glyph-name="Ydieresis" unicode="&#x178;" horiz-adv-x="643" 
d="M305 0h-60l44 273l-207 427h62l181 -370l299 370h68l-343 -427zM539 833c-3 -21 -23 -38 -44 -38c-25 0 -42 21 -38 45c4 20 24 38 45 38c24 0 41 -22 37 -45zM338 833c-3 -21 -23 -38 -44 -38c-25 0 -42 21 -38 45c4 20 24 38 45 38c24 0 41 -22 37 -45z" />
    <glyph glyph-name="Ygrave" unicode="&#x1ef2;" horiz-adv-x="643" 
d="M305 0h-60l44 273l-207 427h62l181 -370l299 370h68l-343 -427zM440 773h-61l-76 142h69z" />
    <glyph glyph-name="Z" unicode="Z" horiz-adv-x="578" 
d="M501 0h-517l8 53l524 590h-416l9 57h491l-8 -53l-525 -590h444z" />
    <glyph glyph-name="Zacute" unicode="&#x179;" horiz-adv-x="578" 
d="M501 0h-517l8 53l524 590h-416l9 57h491l-8 -53l-525 -590h444zM392 773h-63l112 142h72z" />
    <glyph glyph-name="Zcaron" unicode="&#x17d;" horiz-adv-x="578" 
d="M501 0h-517l8 53l524 590h-416l9 57h491l-8 -53l-525 -590h444zM547 901l-151 -137h-51l-108 137h63l75 -94l103 94h69z" />
    <glyph glyph-name="Zdotaccent" unicode="&#x17b;" horiz-adv-x="578" 
d="M501 0h-517l8 53l524 590h-416l9 57h491l-8 -53l-525 -590h444zM423 819c-4 -28 -26 -42 -50 -42c-26 0 -47 18 -42 50c5 27 27 41 50 41c28 0 48 -18 42 -49z" />
    <glyph glyph-name="a" unicode="a" horiz-adv-x="618" 
d="M458 99c-49 -62 -125 -110 -219 -110c-138 0 -226 107 -202 256c23 147 142 246 275 246c96 0 159 -52 190 -112l16 101h51l-76 -480h-51zM92 241c-19 -122 52 -200 155 -200c96 0 178 63 217 134l21 132c-15 71 -79 132 -169 132c-105 0 -204 -73 -224 -198z" />
    <glyph glyph-name="aacute" unicode="&#xe1;" horiz-adv-x="618" 
d="M458 99c-49 -62 -125 -110 -219 -110c-138 0 -226 107 -202 256c23 147 142 246 275 246c96 0 159 -52 190 -112l16 101h51l-76 -480h-51zM92 241c-19 -122 52 -200 155 -200c96 0 178 63 217 134l21 132c-15 71 -79 132 -169 132c-105 0 -204 -73 -224 -198zM359 553
h-63l112 142h72z" />
    <glyph glyph-name="abreve" unicode="&#x103;" horiz-adv-x="618" 
d="M458 99c-49 -62 -125 -110 -219 -110c-138 0 -226 107 -202 256c23 147 142 246 275 246c96 0 159 -52 190 -112l16 101h51l-76 -480h-51zM92 241c-19 -122 52 -200 155 -200c96 0 178 63 217 134l21 132c-15 71 -79 132 -169 132c-105 0 -204 -73 -224 -198zM482 599
c-47 -31 -90 -41 -138 -41s-93 10 -129 41l9 57c40 -33 77 -44 125 -44c47 0 91 11 141 44z" />
    <glyph glyph-name="acircumflex" unicode="&#xe2;" horiz-adv-x="618" 
d="M458 99c-49 -62 -125 -110 -219 -110c-138 0 -226 107 -202 256c23 147 142 246 275 246c96 0 159 -52 190 -112l16 101h51l-76 -480h-51zM92 241c-19 -122 52 -200 155 -200c96 0 178 63 217 134l21 132c-15 71 -79 132 -169 132c-105 0 -204 -73 -224 -198zM335 691h51
l108 -137h-62l-76 94l-105 -94h-67z" />
    <glyph glyph-name="adieresis" unicode="&#xe4;" horiz-adv-x="618" 
d="M458 99c-49 -62 -125 -110 -219 -110c-138 0 -226 107 -202 256c23 147 142 246 275 246c96 0 159 -52 190 -112l16 101h51l-76 -480h-51zM92 241c-19 -122 52 -200 155 -200c96 0 178 63 217 134l21 132c-15 71 -79 132 -169 132c-105 0 -204 -73 -224 -198zM489 613
c-3 -21 -23 -38 -44 -38c-25 0 -42 21 -38 45c4 20 24 38 45 38c24 0 41 -22 37 -45zM288 613c-3 -21 -23 -38 -44 -38c-25 0 -42 21 -38 45c4 20 24 38 45 38c24 0 41 -22 37 -45z" />
    <glyph glyph-name="agrave" unicode="&#xe0;" horiz-adv-x="618" 
d="M458 99c-49 -62 -125 -110 -219 -110c-138 0 -226 107 -202 256c23 147 142 246 275 246c96 0 159 -52 190 -112l16 101h51l-76 -480h-51zM92 241c-19 -122 52 -200 155 -200c96 0 178 63 217 134l21 132c-15 71 -79 132 -169 132c-105 0 -204 -73 -224 -198zM390 553
h-61l-76 142h69z" />
    <glyph glyph-name="amacron" unicode="&#x101;" horiz-adv-x="618" 
d="M458 99c-49 -62 -125 -110 -219 -110c-138 0 -226 107 -202 256c23 147 142 246 275 246c96 0 159 -52 190 -112l16 101h51l-76 -480h-51zM92 241c-19 -122 52 -200 155 -200c96 0 178 63 217 134l21 132c-15 71 -79 132 -169 132c-105 0 -204 -73 -224 -198zM216 627
h280l-8 -52h-280z" />
    <glyph glyph-name="aogonek" unicode="&#x105;" horiz-adv-x="618" 
d="M569 480l-76 -480c-64 -40 -117 -95 -123 -139c-5 -28 10 -46 40 -46c21 0 37 4 55 11l-8 -48c-18 -6 -38 -9 -61 -9c-59 0 -89 37 -81 88c7 47 50 101 129 158l14 84c-49 -62 -125 -110 -219 -110c-138 0 -226 107 -202 256c23 147 142 246 275 246
c96 0 159 -52 190 -112l16 101h51zM92 241c-19 -122 52 -200 155 -200c96 0 178 63 217 134l21 132c-15 71 -79 132 -169 132c-105 0 -204 -73 -224 -198z" />
    <glyph glyph-name="aring" unicode="&#xe5;" horiz-adv-x="618" 
d="M458 99c-49 -62 -125 -110 -219 -110c-138 0 -226 107 -202 256c23 147 142 246 275 246c96 0 159 -52 190 -112l16 101h51l-76 -480h-51zM92 241c-19 -122 52 -200 155 -200c96 0 178 63 217 134l21 132c-15 71 -79 132 -169 132c-105 0 -204 -73 -224 -198zM457 625
c-9 -59 -62 -95 -114 -95c-54 0 -100 40 -90 102c10 58 63 94 115 94c54 0 99 -40 89 -101zM296 628c-6 -35 18 -58 47 -58c33 0 66 20 72 58c5 35 -18 58 -47 58c-33 0 -66 -21 -72 -58z" />
    <glyph glyph-name="atilde" unicode="&#xe3;" horiz-adv-x="618" 
d="M458 99c-49 -62 -125 -110 -219 -110c-138 0 -226 107 -202 256c23 147 142 246 275 246c96 0 159 -52 190 -112l16 101h51l-76 -480h-51zM92 241c-19 -122 52 -200 155 -200c96 0 178 63 217 134l21 132c-15 71 -79 132 -169 132c-105 0 -204 -73 -224 -198zM507 646
c-1 -62 -39 -92 -83 -92c-59 0 -109 48 -151 48c-26 0 -41 -17 -41 -43h-49c1 61 40 93 82 93c59 0 110 -48 152 -48c29 0 41 15 41 42h49z" />
    <glyph glyph-name="ae" unicode="&#xe6;" horiz-adv-x="992" 
d="M458 99c-49 -62 -124 -110 -219 -110c-137 0 -226 107 -202 256c23 147 142 246 275 246c96 0 159 -52 190 -112l16 101h51l-16 -106c48 77 127 117 209 117c180 0 217 -152 171 -279h-399c-12 -123 89 -171 185 -171c57 0 119 16 165 40l-9 -57
c-46 -23 -108 -35 -166 -35c-81 0 -171 39 -197 125l-19 -114h-51zM92 241c-19 -122 52 -200 155 -200c96 0 178 63 217 134l21 132c-15 71 -80 132 -169 132c-106 0 -204 -73 -224 -198zM756 439c-100 0 -194 -70 -214 -177h349c20 71 -1 177 -135 177z" />
    <glyph glyph-name="b" unicode="b" horiz-adv-x="619" 
d="M144 700h57l-51 -315c46 58 122 106 214 106c134 0 225 -107 202 -256c-23 -147 -134 -246 -276 -246c-97 0 -157 51 -189 113l-17 -102h-51zM510 239c19 122 -55 200 -155 200c-97 0 -177 -63 -217 -135l-22 -131c18 -72 78 -132 170 -132c114 0 204 73 224 198z" />
    <glyph glyph-name="c" unicode="c" horiz-adv-x="495" 
d="M37 246c27 175 174 245 296 245c53 0 102 -13 143 -42l-9 -53c-35 30 -83 43 -130 43c-103 0 -221 -56 -244 -199c-22 -136 65 -199 174 -199c53 0 108 16 155 42l-9 -59c-49 -24 -101 -35 -158 -35c-130 0 -245 83 -218 257z" />
    <glyph glyph-name="cacute" unicode="&#x107;" horiz-adv-x="495" 
d="M37 246c27 175 174 245 296 245c53 0 102 -13 143 -42l-9 -53c-35 30 -83 43 -130 43c-103 0 -221 -56 -244 -199c-22 -136 65 -199 174 -199c53 0 108 16 155 42l-9 -59c-49 -24 -101 -35 -158 -35c-130 0 -245 83 -218 257zM352 553h-63l112 142h72z" />
    <glyph glyph-name="ccaron" unicode="&#x10d;" horiz-adv-x="495" 
d="M37 246c27 175 174 245 296 245c53 0 102 -13 143 -42l-9 -53c-35 30 -83 43 -130 43c-103 0 -221 -56 -244 -199c-22 -136 65 -199 174 -199c53 0 108 16 155 42l-9 -59c-49 -24 -101 -35 -158 -35c-130 0 -245 83 -218 257zM507 681l-151 -137h-51l-108 137h63l75 -94
l103 94h69z" />
    <glyph glyph-name="ccedilla" unicode="&#xe7;" horiz-adv-x="495" 
d="M467 396c-35 30 -82 43 -130 43c-102 0 -220 -56 -244 -199c-21 -136 66 -199 175 -199c53 0 107 16 155 42l-9 -59c-45 -22 -93 -33 -145 -35l-25 -62c59 7 109 -20 102 -75c-8 -54 -57 -83 -130 -83c-43 0 -75 9 -103 21l8 46c25 -13 58 -21 91 -21c55 0 83 18 86 42
c6 37 -55 46 -115 32l39 102c-115 13 -209 96 -184 255c27 175 174 245 295 245c53 0 103 -13 144 -42z" />
    <glyph glyph-name="cdotaccent" unicode="&#x10b;" horiz-adv-x="495" 
d="M37 246c27 175 174 245 296 245c53 0 102 -13 143 -42l-9 -53c-35 30 -83 43 -130 43c-103 0 -221 -56 -244 -199c-22 -136 65 -199 174 -199c53 0 108 16 155 42l-9 -59c-49 -24 -101 -35 -158 -35c-130 0 -245 83 -218 257zM383 599c-4 -28 -26 -42 -50 -42
c-26 0 -47 18 -42 50c5 27 27 41 50 41c28 0 48 -18 42 -49z" />
    <glyph glyph-name="d" unicode="d" horiz-adv-x="618" 
d="M548 700h56l-111 -700h-50l16 102c-48 -65 -123 -113 -220 -113c-137 0 -226 107 -202 256c23 147 137 246 272 246c97 0 161 -51 188 -110zM486 307c-16 72 -78 132 -170 132c-107 0 -204 -72 -224 -198c-19 -121 53 -200 155 -200c96 0 178 63 217 135z" />
    <glyph glyph-name="eth" unicode="&#xf0;" horiz-adv-x="595" 
d="M536 265c-28 -178 -145 -276 -290 -276c-140 0 -234 93 -211 237c20 130 139 220 261 220c98 0 182 -52 195 -140c1 9 2 16 3 27c10 155 -62 239 -153 280l-121 -105l-29 33l103 88c-43 13 -90 17 -135 17l6 54c52 0 115 -8 173 -31l101 86l28 -33l-86 -74
c105 -55 189 -168 155 -383zM91 219c-17 -108 48 -176 158 -176c109 0 183 66 215 163c16 119 -59 187 -161 187c-105 0 -196 -71 -212 -174z" />
    <glyph glyph-name="dcaron" unicode="&#x10f;" horiz-adv-x="617" 
d="M683 700h57l-53 -172h-49zM548 700h56l-111 -700h-50l16 102c-48 -65 -123 -113 -220 -113c-137 0 -226 107 -202 256c23 147 137 246 272 246c97 0 161 -51 188 -110zM486 307c-16 72 -78 132 -170 132c-107 0 -204 -72 -224 -198c-19 -121 53 -200 155 -200
c96 0 178 63 217 135z" />
    <glyph glyph-name="dcroat" unicode="&#x111;" horiz-adv-x="617" 
d="M591 617h73l-6 -44h-74l-91 -573h-50l16 102c-48 -65 -123 -113 -220 -113c-137 0 -226 107 -202 256c23 147 137 246 272 246c97 0 161 -51 188 -110l31 192h-182l6 44h182l14 83h56zM247 41c96 0 178 63 217 135l22 131c-16 72 -78 132 -170 132
c-107 0 -204 -72 -224 -198c-19 -121 53 -200 155 -200z" />
    <glyph glyph-name="e" unicode="e" horiz-adv-x="547" 
d="M36 242c25 164 154 249 273 249c178 0 225 -152 179 -279h-399c-12 -123 89 -171 185 -171c60 0 122 16 168 40l-9 -57c-46 -23 -106 -35 -168 -35c-125 0 -257 79 -229 253zM446 262c19 71 -5 177 -137 177c-96 0 -190 -64 -213 -177h350z" />
    <glyph glyph-name="eacute" unicode="&#xe9;" horiz-adv-x="547" 
d="M36 242c25 164 154 249 273 249c178 0 225 -152 179 -279h-399c-12 -123 89 -171 185 -171c60 0 122 16 168 40l-9 -57c-46 -23 -106 -35 -168 -35c-125 0 -257 79 -229 253zM446 262c19 71 -5 177 -137 177c-96 0 -190 -64 -213 -177h350zM338 553h-63l112 142h72z" />
    <glyph glyph-name="ecaron" unicode="&#x11b;" horiz-adv-x="547" 
d="M36 242c25 164 154 249 273 249c178 0 225 -152 179 -279h-399c-12 -123 89 -171 185 -171c60 0 122 16 168 40l-9 -57c-46 -23 -106 -35 -168 -35c-125 0 -257 79 -229 253zM446 262c19 71 -5 177 -137 177c-96 0 -190 -64 -213 -177h350zM493 681l-151 -137h-51
l-108 137h63l75 -94l103 94h69z" />
    <glyph glyph-name="ecircumflex" unicode="&#xea;" horiz-adv-x="547" 
d="M36 242c25 164 154 249 273 249c178 0 225 -152 179 -279h-399c-12 -123 89 -171 185 -171c60 0 122 16 168 40l-9 -57c-46 -23 -106 -35 -168 -35c-125 0 -257 79 -229 253zM446 262c19 71 -5 177 -137 177c-96 0 -190 -64 -213 -177h350zM314 691h51l108 -137h-62
l-76 94l-105 -94h-67z" />
    <glyph glyph-name="edieresis" unicode="&#xeb;" horiz-adv-x="547" 
d="M36 242c25 164 154 249 273 249c178 0 225 -152 179 -279h-399c-12 -123 89 -171 185 -171c60 0 122 16 168 40l-9 -57c-46 -23 -106 -35 -168 -35c-125 0 -257 79 -229 253zM446 262c19 71 -5 177 -137 177c-96 0 -190 -64 -213 -177h350zM468 613
c-3 -21 -23 -38 -44 -38c-25 0 -42 21 -38 45c4 20 24 38 45 38c24 0 41 -22 37 -45zM267 613c-3 -21 -23 -38 -44 -38c-25 0 -42 21 -38 45c4 20 24 38 45 38c24 0 41 -22 37 -45z" />
    <glyph glyph-name="edotaccent" unicode="&#x117;" horiz-adv-x="547" 
d="M36 242c25 164 154 249 273 249c178 0 225 -152 179 -279h-399c-12 -123 89 -171 185 -171c60 0 122 16 168 40l-9 -57c-46 -23 -106 -35 -168 -35c-125 0 -257 79 -229 253zM446 262c19 71 -5 177 -137 177c-96 0 -190 -64 -213 -177h350zM369 599
c-4 -28 -26 -42 -50 -42c-26 0 -47 18 -42 50c5 27 27 41 50 41c28 0 48 -18 42 -49z" />
    <glyph glyph-name="egrave" unicode="&#xe8;" horiz-adv-x="547" 
d="M36 242c25 164 154 249 273 249c178 0 225 -152 179 -279h-399c-12 -123 89 -171 185 -171c60 0 122 16 168 40l-9 -57c-46 -23 -106 -35 -168 -35c-125 0 -257 79 -229 253zM446 262c19 71 -5 177 -137 177c-96 0 -190 -64 -213 -177h350zM369 553h-61l-76 142h69z" />
    <glyph glyph-name="emacron" unicode="&#x113;" horiz-adv-x="547" 
d="M36 242c25 164 154 249 273 249c178 0 225 -152 179 -279h-399c-12 -123 89 -171 185 -171c60 0 122 16 168 40l-9 -57c-46 -23 -106 -35 -168 -35c-125 0 -257 79 -229 253zM446 262c19 71 -5 177 -137 177c-96 0 -190 -64 -213 -177h350zM195 627h280l-8 -52h-280z" />
    <glyph glyph-name="eogonek" unicode="&#x119;" horiz-adv-x="548" 
d="M385 -211c-24 -14 -53 -20 -80 -20c-63 -1 -91 37 -83 87c7 45 49 95 112 140c-22 -4 -46 -7 -69 -7c-125 0 -257 79 -229 253c25 164 154 249 273 249c178 0 225 -152 179 -279h-399c-12 -123 89 -171 185 -171c60 0 122 16 168 40l-9 -57c-96 -66 -149 -119 -156 -163
c-4 -27 10 -46 43 -46c26 1 52 10 73 23zM309 439c-96 0 -190 -64 -213 -177h350c19 71 -5 177 -137 177z" />
    <glyph glyph-name="f" unicode="f" horiz-adv-x="369" 
d="M152 557c19 117 106 154 189 154c45 0 80 -8 111 -23l-9 -51c-24 13 -59 22 -96 22c-66 0 -125 -22 -139 -108l-11 -71h193l-8 -53h-194l-67 -427h-57l68 427h-87l8 53h87z" />
    <glyph glyph-name="g" unicode="g" horiz-adv-x="619" 
d="M494 -2c-26 -167 -156 -229 -285 -229c-80 0 -143 18 -190 48l9 54c46 -32 103 -50 176 -50c111 0 213 50 233 181l15 91c-44 -56 -119 -104 -213 -104c-139 0 -226 107 -202 256c23 147 140 246 275 246c98 0 158 -51 189 -116l16 105h53zM92 241
c-19 -121 51 -200 155 -200c96 0 178 61 217 130l22 136c-16 72 -77 132 -170 132c-106 0 -204 -72 -224 -198z" />
    <glyph glyph-name="gbreve" unicode="&#x11f;" horiz-adv-x="619" 
d="M494 -2c-26 -167 -156 -229 -285 -229c-80 0 -143 18 -190 48l9 54c46 -32 103 -50 176 -50c111 0 213 50 233 181l15 91c-44 -56 -119 -104 -213 -104c-139 0 -226 107 -202 256c23 147 140 246 275 246c98 0 158 -51 189 -116l16 105h53zM92 241
c-19 -121 51 -200 155 -200c96 0 178 61 217 130l22 136c-16 72 -77 132 -170 132c-106 0 -204 -72 -224 -198zM471 599c-47 -31 -90 -41 -138 -41s-93 10 -129 41l9 57c40 -33 77 -44 125 -44c47 0 91 11 141 44z" />
    <glyph glyph-name="gcommaaccent" unicode="&#x123;" horiz-adv-x="619" 
d="M347 548h-57l54 159h50zM494 -2c-26 -167 -156 -229 -285 -229c-80 0 -143 18 -190 48l9 54c46 -32 103 -50 176 -50c111 0 213 50 233 181l15 91c-44 -56 -119 -104 -213 -104c-139 0 -226 107 -202 256c23 147 140 246 275 246c98 0 158 -51 189 -116l16 105h53z
M92 241c-19 -121 51 -200 155 -200c96 0 178 61 217 130l22 136c-16 72 -77 132 -170 132c-106 0 -204 -72 -224 -198z" />
    <glyph glyph-name="gdotaccent" unicode="&#x121;" horiz-adv-x="619" 
d="M494 -2c-26 -167 -156 -229 -285 -229c-80 0 -143 18 -190 48l9 54c46 -32 103 -50 176 -50c111 0 213 50 233 181l15 91c-44 -56 -119 -104 -213 -104c-139 0 -226 107 -202 256c23 147 140 246 275 246c98 0 158 -51 189 -116l16 105h53zM92 241
c-19 -121 51 -200 155 -200c96 0 178 61 217 130l22 136c-16 72 -77 132 -170 132c-106 0 -204 -72 -224 -198zM379 599c-4 -28 -26 -42 -50 -42c-26 0 -47 18 -42 50c5 27 27 41 50 41c28 0 48 -18 42 -49z" />
    <glyph glyph-name="h" unicode="h" horiz-adv-x="584" 
d="M144 700h57l-49 -303c44 46 116 94 198 94c112 0 180 -78 162 -197l-47 -294h-57l46 291c16 99 -37 148 -117 148c-81 0 -155 -58 -196 -112l-51 -327h-57z" />
    <glyph glyph-name="hbar" unicode="&#x127;" horiz-adv-x="583" 
d="M151 397c44 46 116 94 198 94c112 0 180 -78 162 -197l-47 -294h-57l46 291c16 99 -37 148 -117 148c-81 0 -155 -58 -196 -112l-51 -327h-57l91 573h-59l6 44h59l14 83h57l-14 -83h196l-7 -44h-195z" />
    <glyph glyph-name="i" unicode="i" horiz-adv-x="221" 
d="M93 0h-57l76 480h57zM202 622c-4 -24 -22 -34 -42 -34c-22 0 -39 14 -35 41c3 23 22 35 42 35c22 0 39 -16 35 -42z" />
    <glyph glyph-name="dotlessi" unicode="&#x131;" horiz-adv-x="221" 
d="M93 0h-57l76 480h57z" />
    <glyph glyph-name="iacute" unicode="&#xed;" horiz-adv-x="221" 
d="M93 0h-57l76 480h57zM170 553h-63l112 142h72z" />
    <glyph glyph-name="icircumflex" unicode="&#xee;" horiz-adv-x="221" 
d="M93 0h-57l76 480h57zM80 554h-67l134 137h51l91 -137h-61l-59 94z" />
    <glyph glyph-name="idieresis" unicode="&#xef;" horiz-adv-x="221" 
d="M93 0h-57l76 480h57zM120 613c-3 -19 -22 -35 -42 -35c-22 0 -38 19 -34 42c4 18 22 35 41 35c23 0 39 -20 35 -42zM274 613c-3 -19 -22 -35 -42 -35c-22 0 -38 19 -34 42c4 18 22 35 41 35c23 0 39 -20 35 -42z" />
    <glyph glyph-name="i.loclTRK" horiz-adv-x="221" 
d="M93 0h-57l76 480h57zM201 599c-4 -28 -26 -42 -50 -42c-26 0 -47 18 -42 50c5 27 27 41 50 41c28 0 48 -18 42 -49z" />
    <glyph glyph-name="igrave" unicode="&#xec;" horiz-adv-x="221" 
d="M191 553h-57l-53 142h69zM93 0h-57l76 480h57z" />
    <glyph glyph-name="ij" unicode="&#x133;" horiz-adv-x="442" 
d="M93 0h-57l76 480h57zM202 622c-4 -24 -22 -34 -42 -34c-22 0 -39 14 -35 41c3 23 22 35 42 35c22 0 39 -16 35 -42zM297 -102c-15 -100 -83 -129 -146 -129c-29 0 -53 5 -74 14l8 50c17 -8 38 -12 56 -12c50 0 91 22 102 89l90 570h57zM423 622c-4 -24 -22 -34 -42 -34
c-22 0 -39 14 -35 41c3 23 22 35 42 35c22 0 39 -16 35 -42z" />
    <glyph glyph-name="imacron" unicode="&#x12b;" horiz-adv-x="221" 
d="M267 582h-220l8 53h220zM93 0h-57l76 480h57z" />
    <glyph glyph-name="iogonek" unicode="&#x12f;" horiz-adv-x="221" 
d="M125 629c3 23 22 35 42 35c22 0 39 -16 35 -42c-4 -24 -22 -34 -42 -34c-22 0 -39 14 -35 41zM169 480l-76 -480c-36 -37 -80 -89 -88 -136c-5 -28 11 -49 44 -49c23 0 44 6 67 19l-8 -49c-23 -11 -47 -16 -74 -16c-63 0 -89 43 -82 90c8 49 49 107 85 146l75 475h57z
" />
    <glyph glyph-name="j" unicode="j" horiz-adv-x="221" 
d="M76 -102c-15 -100 -83 -129 -146 -129c-29 0 -53 5 -74 14l8 50c17 -8 38 -12 56 -12c50 0 91 22 102 89l90 570h57zM202 622c-4 -24 -22 -34 -42 -34c-22 0 -39 14 -35 41c3 23 22 35 42 35c22 0 39 -16 35 -42z" />
    <glyph glyph-name="k" unicode="k" horiz-adv-x="508" 
d="M444 480h68l-227 -234l172 -246h-64l-158 226h-110l-35 -226h-57l111 700h57l-67 -422h114z" />
    <glyph glyph-name="kcommaaccent" unicode="&#x137;" horiz-adv-x="508" 
d="M444 480h68l-227 -234l172 -246h-64l-158 226h-110l-35 -226h-57l111 700h57l-67 -422h114zM205 -224h-50l51 180h57z" />
    <glyph glyph-name="l" unicode="l" horiz-adv-x="221" 
d="M152 730h57l-116 -730h-57z" />
    <glyph glyph-name="lacute" unicode="&#x13a;" horiz-adv-x="221" 
d="M152 730h57l-116 -730h-57zM216 776h-63l112 142h72z" />
    <glyph glyph-name="lcaron" unicode="&#x13e;" horiz-adv-x="221" 
d="M288 730h57l-53 -172h-49zM152 730h57l-116 -730h-57z" />
    <glyph glyph-name="lcommaaccent" unicode="&#x13c;" horiz-adv-x="221" 
d="M152 730h57l-116 -730h-57zM26 -224h-50l51 180h57z" />
    <glyph glyph-name="ldot" unicode="&#x140;" horiz-adv-x="286" 
d="M152 730h57l-116 -730h-57zM301 346c-4 -23 -22 -35 -42 -35c-23 0 -41 16 -37 43c4 23 23 35 43 35c23 0 40 -16 36 -43z" />
    <glyph glyph-name="lslash" unicode="&#x142;" horiz-adv-x="262" 
d="M172 730h57l-52 -320l93 37l-8 -50l-92 -38l-57 -359h-57l53 337l-91 -37l8 50l92 38z" />
    <glyph glyph-name="m" unicode="m" horiz-adv-x="893" 
d="M477 399c47 46 116 92 195 92c112 0 167 -82 150 -190l-48 -301h-56l48 306c13 79 -26 133 -103 133c-76 0 -139 -54 -175 -95c0 -14 -1 -28 -3 -43l-48 -301h-57l49 306c12 79 -26 133 -103 133c-81 0 -147 -61 -183 -103l-53 -336h-57l76 480h51l-14 -82
c35 39 106 93 188 93c74 0 124 -36 143 -92z" />
    <glyph glyph-name="n" unicode="n" horiz-adv-x="584" 
d="M145 391c45 49 118 100 206 100c111 0 179 -78 161 -197l-47 -294h-57l46 291c16 99 -37 148 -117 148c-81 0 -155 -58 -196 -111l-51 -328h-57l76 480h51z" />
    <glyph glyph-name="nacute" unicode="&#x144;" horiz-adv-x="584" 
d="M145 391c45 49 118 100 206 100c111 0 179 -78 161 -197l-47 -294h-57l46 291c16 99 -37 148 -117 148c-81 0 -155 -58 -196 -111l-51 -328h-57l76 480h51zM354 553h-63l112 142h72z" />
    <glyph glyph-name="ncaron" unicode="&#x148;" horiz-adv-x="584" 
d="M145 391c45 49 118 100 206 100c111 0 179 -78 161 -197l-47 -294h-57l46 291c16 99 -37 148 -117 148c-81 0 -155 -58 -196 -111l-51 -328h-57l76 480h51zM509 681l-151 -137h-51l-108 137h63l75 -94l103 94h69z" />
    <glyph glyph-name="ncommaaccent" unicode="&#x146;" horiz-adv-x="584" 
d="M145 391c45 49 118 100 206 100c111 0 179 -78 161 -197l-47 -294h-57l46 291c16 99 -37 148 -117 148c-81 0 -155 -58 -196 -111l-51 -328h-57l76 480h51zM223 -224h-50l51 180h57z" />
    <glyph glyph-name="eng" unicode="&#x14b;" horiz-adv-x="584" 
d="M449 -102c-16 -104 -85 -129 -147 -129c-30 0 -54 5 -74 13l8 51c17 -8 39 -12 60 -12c49 0 87 23 98 89l60 381c16 99 -37 148 -117 148c-81 0 -155 -58 -196 -111l-51 -328h-57l76 480h51l-15 -89c45 49 118 100 206 100c111 0 180 -78 161 -197z" />
    <glyph glyph-name="ntilde" unicode="&#xf1;" horiz-adv-x="584" 
d="M145 391c45 49 118 100 206 100c111 0 179 -78 161 -197l-47 -294h-57l46 291c16 99 -37 148 -117 148c-81 0 -155 -58 -196 -111l-51 -328h-57l76 480h51zM502 646c-1 -62 -39 -92 -83 -92c-59 0 -109 48 -151 48c-26 0 -41 -17 -41 -43h-49c1 61 40 93 82 93
c59 0 110 -48 152 -48c29 0 41 15 41 42h49z" />
    <glyph glyph-name="o" unicode="o" horiz-adv-x="593" 
d="M540 235c-25 -161 -161 -246 -290 -246c-125 0 -239 92 -213 256c25 161 162 246 290 246c126 0 239 -92 213 -256zM92 238c-19 -123 59 -195 162 -195c109 0 211 72 231 199c19 123 -59 195 -162 195c-108 0 -211 -72 -231 -199z" />
    <glyph glyph-name="oacute" unicode="&#xf3;" horiz-adv-x="593" 
d="M540 235c-25 -161 -161 -246 -290 -246c-125 0 -239 92 -213 256c25 161 162 246 290 246c126 0 239 -92 213 -256zM92 238c-19 -123 59 -195 162 -195c109 0 211 72 231 199c19 123 -59 195 -162 195c-108 0 -211 -72 -231 -199zM352 550h-63l112 142h72z" />
    <glyph glyph-name="ocircumflex" unicode="&#xf4;" horiz-adv-x="593" 
d="M540 235c-25 -161 -161 -246 -290 -246c-125 0 -239 92 -213 256c25 161 162 246 290 246c126 0 239 -92 213 -256zM92 238c-19 -123 59 -195 162 -195c109 0 211 72 231 199c19 123 -59 195 -162 195c-108 0 -211 -72 -231 -199zM328 688h51l108 -137h-62l-76 94
l-105 -94h-67z" />
    <glyph glyph-name="odieresis" unicode="&#xf6;" horiz-adv-x="593" 
d="M540 235c-25 -161 -161 -246 -290 -246c-125 0 -239 92 -213 256c25 161 162 246 290 246c126 0 239 -92 213 -256zM92 238c-19 -123 59 -195 162 -195c109 0 211 72 231 199c19 123 -59 195 -162 195c-108 0 -211 -72 -231 -199zM482 610c-3 -21 -23 -38 -44 -38
c-25 0 -42 21 -38 45c4 20 24 38 45 38c24 0 41 -22 37 -45zM281 610c-3 -21 -23 -38 -44 -38c-25 0 -42 21 -38 45c4 20 24 38 45 38c24 0 41 -22 37 -45z" />
    <glyph glyph-name="ograve" unicode="&#xf2;" horiz-adv-x="593" 
d="M540 235c-25 -161 -161 -246 -290 -246c-125 0 -239 92 -213 256c25 161 162 246 290 246c126 0 239 -92 213 -256zM92 238c-19 -123 59 -195 162 -195c109 0 211 72 231 199c19 123 -59 195 -162 195c-108 0 -211 -72 -231 -199zM383 550h-61l-76 142h69z" />
    <glyph glyph-name="ohungarumlaut" unicode="&#x151;" horiz-adv-x="593" 
d="M540 235c-25 -161 -161 -246 -290 -246c-125 0 -239 92 -213 256c25 161 162 246 290 246c126 0 239 -92 213 -256zM92 238c-19 -123 59 -195 162 -195c109 0 211 72 231 199c19 123 -59 195 -162 195c-108 0 -211 -72 -231 -199zM443 556h-62l95 145h65zM290 556h-62
l95 145h65z" />
    <glyph glyph-name="omacron" unicode="&#x14d;" horiz-adv-x="593" 
d="M540 235c-25 -161 -161 -246 -290 -246c-125 0 -239 92 -213 256c25 161 162 246 290 246c126 0 239 -92 213 -256zM92 238c-19 -123 59 -195 162 -195c109 0 211 72 231 199c19 123 -59 195 -162 195c-108 0 -211 -72 -231 -199zM209 624h280l-8 -52h-280z" />
    <glyph glyph-name="oslash" unicode="&#xf8;" horiz-adv-x="593" 
d="M559 543l-84 -103c50 -44 79 -113 65 -205c-25 -161 -161 -246 -290 -246c-42 0 -82 10 -117 31l-63 -79h-52l83 102c-50 43 -79 112 -64 202c25 161 162 246 290 246c41 0 81 -10 115 -29l65 81h52zM322 437c-108 0 -210 -72 -230 -199c-11 -67 8 -119 44 -152l269 332
c-24 13 -53 19 -83 19zM254 43c108 0 211 72 231 199c11 69 -9 121 -46 154l-270 -333c25 -13 54 -20 85 -20z" />
    <glyph glyph-name="otilde" unicode="&#xf5;" horiz-adv-x="593" 
d="M540 235c-25 -161 -161 -246 -290 -246c-125 0 -239 92 -213 256c25 161 162 246 290 246c126 0 239 -92 213 -256zM92 238c-19 -123 59 -195 162 -195c109 0 211 72 231 199c19 123 -59 195 -162 195c-108 0 -211 -72 -231 -199zM500 643c-1 -62 -39 -92 -83 -92
c-59 0 -109 48 -151 48c-26 0 -41 -17 -41 -43h-49c1 61 40 93 82 93c59 0 110 -48 152 -48c29 0 41 15 41 42h49z" />
    <glyph glyph-name="oe" unicode="&#x153;" horiz-adv-x="985" 
d="M492 134c-50 -96 -142 -145 -244 -145c-123 0 -237 93 -211 257c25 160 162 245 287 245c94 0 175 -52 199 -146c47 97 136 146 226 146c178 0 223 -152 178 -281h-395c-11 -121 89 -169 182 -169c59 0 119 16 167 40l-10 -57c-46 -23 -109 -35 -168 -35
c-95 0 -187 45 -211 145zM92 238c-19 -123 59 -195 160 -195c112 0 209 73 229 199c19 124 -57 195 -160 195c-106 0 -209 -72 -229 -199zM750 439c-95 0 -187 -64 -210 -179h345c19 73 -3 179 -135 179z" />
    <glyph glyph-name="p" unicode="p" horiz-adv-x="619" 
d="M144 378c50 66 127 113 220 113c135 0 225 -107 202 -256c-23 -147 -140 -246 -276 -246c-97 0 -157 51 -184 114l-51 -323h-57l111 700h51zM510 239c20 121 -53 200 -155 200c-95 0 -177 -63 -217 -136l-21 -130c17 -72 78 -132 170 -132c107 0 203 72 223 198z" />
    <glyph glyph-name="thorn" unicode="&#xfe;" horiz-adv-x="619" 
d="M55 -220h-57l146 920h57l-51 -318c48 62 121 109 214 109c135 0 225 -107 202 -256c-23 -147 -140 -246 -276 -246c-97 0 -157 51 -184 114zM117 173c17 -72 78 -132 170 -132c107 0 203 72 223 198c20 121 -53 200 -155 200c-95 0 -177 -63 -217 -136z" />
    <glyph glyph-name="q" unicode="q" horiz-adv-x="618" 
d="M37 245c23 147 142 246 275 246c93 0 159 -51 189 -115l17 104h51l-111 -700h-56l50 315c-44 -58 -119 -106 -213 -106c-138 0 -226 107 -202 256zM486 308c-16 71 -80 131 -170 131c-105 0 -204 -73 -224 -198c-19 -122 52 -200 155 -200c96 0 178 63 217 134z" />
    <glyph glyph-name="r" unicode="r" horiz-adv-x="356" 
d="M143 371c44 71 120 125 230 119l-9 -58c-103 11 -190 -57 -228 -140l-46 -292h-57l76 480h51z" />
    <glyph glyph-name="racute" unicode="&#x155;" horiz-adv-x="356" 
d="M143 371c44 71 120 125 230 119l-9 -58c-103 11 -190 -57 -228 -140l-46 -292h-57l76 480h51zM274 553h-63l112 142h72z" />
    <glyph glyph-name="rcaron" unicode="&#x159;" horiz-adv-x="355" 
d="M142 371c44 71 120 125 230 119l-9 -58c-103 11 -190 -57 -228 -140l-46 -292h-57l76 480h51zM428 681l-151 -137h-51l-108 137h63l75 -94l103 94h69z" />
    <glyph glyph-name="rcommaaccent" unicode="&#x157;" horiz-adv-x="356" 
d="M143 371c44 71 120 125 230 119l-9 -58c-103 11 -190 -57 -228 -140l-46 -292h-57l76 480h51zM26 -224h-50l51 180h57z" />
    <glyph glyph-name="s" unicode="s" horiz-adv-x="462" 
d="M57 365c13 91 111 126 199 126c64 0 122 -17 161 -42l-8 -52c-37 25 -96 43 -155 43c-65 0 -133 -23 -141 -80c-17 -124 314 -68 285 -245c-15 -93 -111 -126 -207 -126c-71 0 -138 20 -178 49l9 56c43 -33 109 -53 171 -53c72 0 140 21 149 80c19 122 -310 68 -285 244z
" />
    <glyph glyph-name="sacute" unicode="&#x15b;" horiz-adv-x="462" 
d="M57 365c13 91 111 126 199 126c64 0 122 -17 161 -42l-8 -52c-37 25 -96 43 -155 43c-65 0 -133 -23 -141 -80c-17 -124 314 -68 285 -245c-15 -93 -111 -126 -207 -126c-71 0 -138 20 -178 49l9 56c43 -33 109 -53 171 -53c72 0 140 21 149 80c19 122 -310 68 -285 244z
M279 553h-63l112 142h72z" />
    <glyph glyph-name="scaron" unicode="&#x161;" horiz-adv-x="462" 
d="M57 365c13 91 111 126 199 126c64 0 122 -17 161 -42l-8 -52c-37 25 -96 43 -155 43c-65 0 -133 -23 -141 -80c-17 -124 314 -68 285 -245c-15 -93 -111 -126 -207 -126c-71 0 -138 20 -178 49l9 56c43 -33 109 -53 171 -53c72 0 140 21 149 80c19 122 -310 68 -285 244z
M434 681l-151 -137h-51l-108 137h63l75 -94l103 94h69z" />
    <glyph glyph-name="scedilla" unicode="&#x15f;" horiz-adv-x="462" 
d="M292 -148c-8 -54 -57 -83 -130 -83c-44 0 -76 9 -104 21l8 46c25 -13 59 -21 91 -21c55 0 83 18 87 42c5 37 -55 46 -115 32l38 100c-61 4 -118 23 -154 49l9 56c43 -33 109 -53 171 -53c72 0 140 21 149 80c19 122 -310 68 -285 244c13 91 111 126 199 126
c64 0 122 -17 161 -42l-8 -52c-37 25 -96 43 -155 43c-65 0 -133 -23 -141 -80c-17 -124 314 -68 285 -245c-13 -85 -95 -121 -182 -126l-26 -62c59 7 109 -20 102 -75z" />
    <glyph glyph-name="scommaaccent" unicode="&#x219;" horiz-adv-x="462" 
d="M57 365c13 91 111 126 199 126c64 0 122 -17 161 -42l-8 -52c-37 25 -96 43 -155 43c-65 0 -133 -23 -141 -80c-17 -124 314 -68 285 -245c-15 -93 -111 -126 -207 -126c-71 0 -138 20 -178 49l9 56c43 -33 109 -53 171 -53c72 0 140 21 149 80c19 122 -310 68 -285 244z
M176 -224h-50l51 180h57z" />
    <glyph glyph-name="germandbls" unicode="&#xdf;" horiz-adv-x="594" 
d="M534 145c-18 -110 -125 -156 -223 -156c-43 0 -90 9 -126 28l8 49c34 -19 75 -27 109 -27c81 0 163 32 176 116c16 101 -129 157 -117 231c10 66 90 94 103 178c8 51 -34 97 -114 97c-94 0 -165 -57 -180 -154l-80 -507h-57l79 502c22 134 113 209 238 209
c126 1 182 -79 171 -148c-14 -87 -96 -120 -104 -176c-11 -65 137 -115 117 -242z" />
    <glyph glyph-name="t" unicode="t" horiz-adv-x="389" 
d="M157 631l59 17l-27 -168h202l-8 -53h-202l-45 -281c-12 -77 22 -105 91 -105c41 0 79 11 111 27l-9 -55c-33 -16 -76 -24 -119 -24c-87 0 -147 51 -131 152l46 286h-90l8 53h90z" />
    <glyph glyph-name="tbar" unicode="&#x167;" horiz-adv-x="389" 
d="M391 480l-8 -53h-202l-19 -119h162l-8 -50h-162l-18 -112c-12 -77 22 -105 91 -105c41 0 79 11 111 27l-9 -55c-33 -16 -76 -24 -119 -24c-87 0 -147 51 -131 152l19 117h-50l8 50h50l19 119h-90l8 53h90l24 151l59 17l-27 -168h202z" />
    <glyph glyph-name="tcaron" unicode="&#x165;" horiz-adv-x="389" 
d="M330 718h56l-52 -166h-49zM157 631l59 17l-27 -168h202l-8 -53h-202l-45 -281c-12 -77 22 -105 91 -105c41 0 79 11 111 27l-9 -55c-33 -16 -76 -24 -119 -24c-87 0 -147 51 -131 152l46 286h-90l8 53h90z" />
    <glyph glyph-name="tcommaaccent" unicode="&#x163;" horiz-adv-x="389" 
d="M157 631l59 17l-27 -168h202l-8 -53h-202l-45 -281c-12 -77 22 -105 91 -105c41 0 79 11 111 27l-9 -55c-33 -16 -76 -24 -119 -24c-87 0 -147 51 -131 152l46 286h-90l8 53h90zM183 -224h-50l51 180h57z" />
    <glyph glyph-name="uni021B" unicode="&#x21b;" horiz-adv-x="389" 
d="M157 631l59 17l-27 -168h202l-8 -53h-202l-45 -281c-12 -77 22 -105 91 -105c41 0 79 11 111 27l-9 -55c-33 -16 -76 -24 -119 -24c-87 0 -147 51 -131 152l46 286h-90l8 53h90zM183 -224h-50l51 180h57z" />
    <glyph glyph-name="u" unicode="u" horiz-adv-x="583" 
d="M477 480h57l-76 -480h-51l15 89c-40 -49 -116 -100 -200 -100c-114 0 -185 78 -166 199l46 292h57l-46 -291c-16 -99 35 -148 117 -148c86 0 155 56 195 112z" />
    <glyph glyph-name="uacute" unicode="&#xfa;" horiz-adv-x="583" 
d="M477 480h57l-76 -480h-51l15 89c-40 -49 -116 -100 -200 -100c-114 0 -185 78 -166 199l46 292h57l-46 -291c-16 -99 35 -148 117 -148c86 0 155 56 195 112zM342 553h-63l112 142h72z" />
    <glyph glyph-name="ucircumflex" unicode="&#xfb;" horiz-adv-x="583" 
d="M477 480h57l-76 -480h-51l15 89c-40 -49 -116 -100 -200 -100c-114 0 -185 78 -166 199l46 292h57l-46 -291c-16 -99 35 -148 117 -148c86 0 155 56 195 112zM318 691h51l108 -137h-62l-76 94l-105 -94h-67z" />
    <glyph glyph-name="udieresis" unicode="&#xfc;" horiz-adv-x="583" 
d="M477 480h57l-76 -480h-51l15 89c-40 -49 -116 -100 -200 -100c-114 0 -185 78 -166 199l46 292h57l-46 -291c-16 -99 35 -148 117 -148c86 0 155 56 195 112zM472 613c-3 -21 -23 -38 -44 -38c-25 0 -42 21 -38 45c4 20 24 38 45 38c24 0 41 -22 37 -45zM271 613
c-3 -21 -23 -38 -44 -38c-25 0 -42 21 -38 45c4 20 24 38 45 38c24 0 41 -22 37 -45z" />
    <glyph glyph-name="ugrave" unicode="&#xf9;" horiz-adv-x="583" 
d="M477 480h57l-76 -480h-51l15 89c-40 -49 -116 -100 -200 -100c-114 0 -185 78 -166 199l46 292h57l-46 -291c-16 -99 35 -148 117 -148c86 0 155 56 195 112zM373 553h-61l-76 142h69z" />
    <glyph glyph-name="uhungarumlaut" unicode="&#x171;" horiz-adv-x="583" 
d="M477 480h57l-76 -480h-51l15 89c-40 -49 -116 -100 -200 -100c-114 0 -185 78 -166 199l46 292h57l-46 -291c-16 -99 35 -148 117 -148c86 0 155 56 195 112zM433 559h-62l95 145h65zM280 559h-62l95 145h65z" />
    <glyph glyph-name="umacron" unicode="&#x16b;" horiz-adv-x="583" 
d="M477 480h57l-76 -480h-51l15 89c-40 -49 -116 -100 -200 -100c-114 0 -185 78 -166 199l46 292h57l-46 -291c-16 -99 35 -148 117 -148c86 0 155 56 195 112zM199 627h280l-8 -52h-280z" />
    <glyph glyph-name="uogonek" unicode="&#x173;" horiz-adv-x="583" 
d="M534 480l-76 -480c-64 -40 -117 -95 -123 -139c-5 -28 10 -46 40 -46c20 0 37 4 54 11l-8 -48c-17 -6 -37 -9 -60 -9c-59 0 -89 37 -81 88c7 47 51 103 130 162l12 70c-40 -49 -116 -100 -200 -100c-114 0 -185 78 -166 199l46 292h57l-46 -291c-16 -99 35 -148 117 -148
c86 0 155 56 195 112l52 327h57z" />
    <glyph glyph-name="uring" unicode="&#x16f;" horiz-adv-x="583" 
d="M477 480h57l-76 -480h-51l15 89c-40 -49 -116 -100 -200 -100c-114 0 -185 78 -166 199l46 292h57l-46 -291c-16 -99 35 -148 117 -148c86 0 155 56 195 112zM440 625c-9 -59 -62 -95 -114 -95c-54 0 -100 40 -90 102c10 58 63 94 115 94c54 0 99 -40 89 -101zM279 628
c-6 -35 18 -58 47 -58c33 0 66 20 72 58c5 35 -18 58 -47 58c-33 0 -66 -21 -72 -58z" />
    <glyph glyph-name="v" unicode="v" horiz-adv-x="530" 
d="M481 480h62l-294 -480h-60l-141 480h59l120 -416z" />
    <glyph glyph-name="w" unicode="w" horiz-adv-x="795" 
d="M742 480h61l-248 -480h-59l-79 399l-209 -399h-61l-96 480h57l81 -408l212 405h51l81 -404z" />
    <glyph glyph-name="wacute" unicode="&#x1e83;" horiz-adv-x="795" 
d="M742 480h61l-248 -480h-59l-79 399l-209 -399h-61l-96 480h57l81 -408l212 405h51l81 -404zM456 553h-63l112 142h72z" />
    <glyph glyph-name="wcircumflex" unicode="&#x175;" horiz-adv-x="795" 
d="M742 480h61l-248 -480h-59l-79 399l-209 -399h-61l-96 480h57l81 -408l212 405h51l81 -404zM432 691h51l108 -137h-62l-76 94l-105 -94h-67z" />
    <glyph glyph-name="wdieresis" unicode="&#x1e85;" horiz-adv-x="795" 
d="M742 480h61l-248 -480h-59l-79 399l-209 -399h-61l-96 480h57l81 -408l212 405h51l81 -404zM586 613c-3 -21 -23 -38 -44 -38c-25 0 -42 21 -38 45c4 20 24 38 45 38c24 0 41 -22 37 -45zM385 613c-3 -21 -23 -38 -44 -38c-25 0 -42 21 -38 45c4 20 24 38 45 38
c24 0 41 -22 37 -45z" />
    <glyph glyph-name="wgrave" unicode="&#x1e81;" horiz-adv-x="795" 
d="M742 480h61l-248 -480h-59l-79 399l-209 -399h-61l-96 480h57l81 -408l212 405h51l81 -404zM487 553h-61l-76 142h69z" />
    <glyph glyph-name="x" unicode="x" horiz-adv-x="486" 
d="M35 0h-67l236 247l-148 233h64l121 -194l185 194h67l-225 -235l158 -245h-64l-130 206z" />
    <glyph glyph-name="y" unicode="y" horiz-adv-x="535" 
d="M238 58l247 422h62l-332 -560c-67 -112 -127 -151 -193 -151c-20 0 -36 2 -52 7l7 48c14 -4 28 -5 40 -5c58 0 103 41 152 124l34 57l-160 480h57z" />
    <glyph glyph-name="yacute" unicode="&#xfd;" horiz-adv-x="535" 
d="M238 58l247 422h62l-332 -560c-67 -112 -127 -151 -193 -151c-20 0 -36 2 -52 7l7 48c14 -4 28 -5 40 -5c58 0 103 41 152 124l34 57l-160 480h57zM313 553h-63l112 142h72z" />
    <glyph glyph-name="ycircumflex" unicode="&#x177;" horiz-adv-x="535" 
d="M238 58l247 422h62l-332 -560c-67 -112 -127 -151 -193 -151c-20 0 -36 2 -52 7l7 48c14 -4 28 -5 40 -5c58 0 103 41 152 124l34 57l-160 480h57zM289 691h51l108 -137h-62l-76 94l-105 -94h-67z" />
    <glyph glyph-name="ydieresis" unicode="&#xff;" horiz-adv-x="535" 
d="M238 58l247 422h62l-332 -560c-67 -112 -127 -151 -193 -151c-20 0 -36 2 -52 7l7 48c14 -4 28 -5 40 -5c58 0 103 41 152 124l34 57l-160 480h57zM443 613c-3 -21 -23 -38 -44 -38c-25 0 -42 21 -38 45c4 20 24 38 45 38c24 0 41 -22 37 -45zM242 613
c-3 -21 -23 -38 -44 -38c-25 0 -42 21 -38 45c4 20 24 38 45 38c24 0 41 -22 37 -45z" />
    <glyph glyph-name="ygrave" unicode="&#x1ef3;" horiz-adv-x="535" 
d="M238 58l247 422h62l-332 -560c-67 -112 -127 -151 -193 -151c-20 0 -36 2 -52 7l7 48c14 -4 28 -5 40 -5c58 0 103 41 152 124l34 57l-160 480h57zM344 553h-61l-76 142h69z" />
    <glyph glyph-name="z" unicode="z" horiz-adv-x="457" 
d="M77 480h364l-9 -50l-366 -380h319l-8 -50h-389l8 50l367 380h-294z" />
    <glyph glyph-name="zacute" unicode="&#x17a;" horiz-adv-x="457" 
d="M77 480h364l-9 -50l-366 -380h319l-8 -50h-389l8 50l367 380h-294zM289 553h-63l112 142h72z" />
    <glyph glyph-name="zcaron" unicode="&#x17e;" horiz-adv-x="457" 
d="M77 480h364l-9 -50l-366 -380h319l-8 -50h-389l8 50l367 380h-294zM444 681l-151 -137h-51l-108 137h63l75 -94l103 94h69z" />
    <glyph glyph-name="zdotaccent" unicode="&#x17c;" horiz-adv-x="457" 
d="M77 480h364l-9 -50l-366 -380h319l-8 -50h-389l8 50l367 380h-294zM320 599c-4 -28 -26 -42 -50 -42c-26 0 -47 18 -42 50c5 27 27 41 50 41c28 0 48 -18 42 -49z" />
    <glyph glyph-name="a.ss01" horiz-adv-x="542" 
d="M425 85c-6 -32 12 -40 34 -40c14 0 28 3 41 7l-8 -47c-16 -6 -35 -9 -51 -9c-40 0 -75 19 -74 71c-53 -51 -127 -78 -198 -78c-88 0 -165 52 -156 150c11 117 133 149 227 149c56 0 111 -8 157 -22l6 37c14 87 -31 136 -145 136c-61 0 -120 -17 -165 -34l9 56
c39 15 102 30 164 30c145 0 212 -68 191 -199zM180 38c69 0 149 33 196 94l14 89c-39 11 -94 19 -144 19c-74 0 -168 -22 -175 -105c-6 -62 43 -97 109 -97z" />
    <glyph glyph-name="aacute.ss01" horiz-adv-x="541" 
d="M424 85c-6 -32 12 -40 34 -40c14 0 28 3 41 7l-8 -47c-16 -6 -35 -9 -51 -9c-40 0 -75 19 -74 71c-53 -51 -127 -78 -198 -78c-88 0 -165 52 -156 150c11 117 133 149 227 149c56 0 111 -8 157 -22l6 37c14 87 -31 136 -145 136c-61 0 -120 -17 -165 -34l9 56
c39 15 102 30 164 30c145 0 212 -68 191 -199zM179 38c69 0 149 33 196 94l14 89c-39 11 -94 19 -144 19c-74 0 -168 -22 -175 -105c-6 -62 43 -97 109 -97zM310 553h-63l112 142h72z" />
    <glyph glyph-name="abreve.ss01" horiz-adv-x="541" 
d="M424 85c-6 -32 12 -40 34 -40c14 0 28 3 41 7l-8 -47c-16 -6 -35 -9 -51 -9c-40 0 -75 19 -74 71c-53 -51 -127 -78 -198 -78c-88 0 -165 52 -156 150c11 117 133 149 227 149c56 0 111 -8 157 -22l6 37c14 87 -31 136 -145 136c-61 0 -120 -17 -165 -34l9 56
c39 15 102 30 164 30c145 0 212 -68 191 -199zM179 38c69 0 149 33 196 94l14 89c-39 11 -94 19 -144 19c-74 0 -168 -22 -175 -105c-6 -62 43 -97 109 -97zM433 599c-47 -31 -90 -41 -138 -41s-93 10 -129 41l9 57c40 -33 77 -44 125 -44c47 0 91 11 141 44z" />
    <glyph glyph-name="acircumflex.ss01" horiz-adv-x="541" 
d="M424 85c-6 -32 12 -40 34 -40c14 0 28 3 41 7l-8 -47c-16 -6 -35 -9 -51 -9c-40 0 -75 19 -74 71c-53 -51 -127 -78 -198 -78c-88 0 -165 52 -156 150c11 117 133 149 227 149c56 0 111 -8 157 -22l6 37c14 87 -31 136 -145 136c-61 0 -120 -17 -165 -34l9 56
c39 15 102 30 164 30c145 0 212 -68 191 -199zM179 38c69 0 149 33 196 94l14 89c-39 11 -94 19 -144 19c-74 0 -168 -22 -175 -105c-6 -62 43 -97 109 -97zM286 691h51l108 -137h-62l-76 94l-105 -94h-67z" />
    <glyph glyph-name="adieresis.ss01" horiz-adv-x="541" 
d="M424 85c-6 -32 12 -40 34 -40c14 0 28 3 41 7l-8 -47c-16 -6 -35 -9 -51 -9c-40 0 -75 19 -74 71c-53 -51 -127 -78 -198 -78c-88 0 -165 52 -156 150c11 117 133 149 227 149c56 0 111 -8 157 -22l6 37c14 87 -31 136 -145 136c-61 0 -120 -17 -165 -34l9 56
c39 15 102 30 164 30c145 0 212 -68 191 -199zM179 38c69 0 149 33 196 94l14 89c-39 11 -94 19 -144 19c-74 0 -168 -22 -175 -105c-6 -62 43 -97 109 -97zM440 613c-3 -21 -23 -38 -44 -38c-25 0 -42 21 -38 45c4 20 24 38 45 38c24 0 41 -22 37 -45zM239 613
c-3 -21 -23 -38 -44 -38c-25 0 -42 21 -38 45c4 20 24 38 45 38c24 0 41 -22 37 -45z" />
    <glyph glyph-name="agrave.ss01" horiz-adv-x="541" 
d="M424 85c-6 -32 12 -40 34 -40c14 0 28 3 41 7l-8 -47c-16 -6 -35 -9 -51 -9c-40 0 -75 19 -74 71c-53 -51 -127 -78 -198 -78c-88 0 -165 52 -156 150c11 117 133 149 227 149c56 0 111 -8 157 -22l6 37c14 87 -31 136 -145 136c-61 0 -120 -17 -165 -34l9 56
c39 15 102 30 164 30c145 0 212 -68 191 -199zM179 38c69 0 149 33 196 94l14 89c-39 11 -94 19 -144 19c-74 0 -168 -22 -175 -105c-6 -62 43 -97 109 -97zM341 553h-61l-76 142h69z" />
    <glyph glyph-name="amacron.ss01" horiz-adv-x="541" 
d="M424 85c-6 -32 12 -40 34 -40c14 0 28 3 41 7l-8 -47c-16 -6 -35 -9 -51 -9c-40 0 -75 19 -74 71c-53 -51 -127 -78 -198 -78c-88 0 -165 52 -156 150c11 117 133 149 227 149c56 0 111 -8 157 -22l6 37c14 87 -31 136 -145 136c-61 0 -120 -17 -165 -34l9 56
c39 15 102 30 164 30c145 0 212 -68 191 -199zM179 38c69 0 149 33 196 94l14 89c-39 11 -94 19 -144 19c-74 0 -168 -22 -175 -105c-6 -62 43 -97 109 -97zM167 627h280l-8 -52h-280z" />
    <glyph glyph-name="aogonek.ss01" horiz-adv-x="541" 
d="M499 52l-8 -47c-67 -43 -120 -97 -126 -142c-5 -27 10 -45 40 -45c20 0 37 4 54 10l-8 -47c-17 -6 -37 -10 -60 -10c-59 0 -89 38 -81 88c6 42 41 89 105 140c-28 7 -50 27 -49 68c-53 -51 -127 -78 -198 -78c-88 0 -165 52 -156 150c11 117 133 149 227 149
c56 0 111 -8 157 -22l6 37c14 87 -31 136 -145 136c-61 0 -120 -17 -165 -34l9 56c39 15 102 30 164 30c145 0 212 -68 191 -199l-32 -207c-6 -32 12 -40 34 -40c14 0 28 3 41 7zM179 38c69 0 149 33 196 94l14 89c-39 11 -94 19 -144 19c-74 0 -168 -22 -175 -105
c-6 -62 43 -97 109 -97z" />
    <glyph glyph-name="aring.ss01" horiz-adv-x="541" 
d="M424 85c-6 -32 12 -40 34 -40c14 0 28 3 41 7l-8 -47c-16 -6 -35 -9 -51 -9c-40 0 -75 19 -74 71c-53 -51 -127 -78 -198 -78c-88 0 -165 52 -156 150c11 117 133 149 227 149c56 0 111 -8 157 -22l6 37c14 87 -31 136 -145 136c-61 0 -120 -17 -165 -34l9 56
c39 15 102 30 164 30c145 0 212 -68 191 -199zM179 38c69 0 149 33 196 94l14 89c-39 11 -94 19 -144 19c-74 0 -168 -22 -175 -105c-6 -62 43 -97 109 -97zM408 625c-9 -59 -62 -95 -114 -95c-54 0 -100 40 -90 102c10 58 63 94 115 94c54 0 99 -40 89 -101zM247 628
c-6 -35 18 -58 47 -58c33 0 66 20 72 58c5 35 -18 58 -47 58c-33 0 -66 -21 -72 -58z" />
    <glyph glyph-name="atilde.ss01" horiz-adv-x="541" 
d="M424 85c-6 -32 12 -40 34 -40c14 0 28 3 41 7l-8 -47c-16 -6 -35 -9 -51 -9c-40 0 -75 19 -74 71c-53 -51 -127 -78 -198 -78c-88 0 -165 52 -156 150c11 117 133 149 227 149c56 0 111 -8 157 -22l6 37c14 87 -31 136 -145 136c-61 0 -120 -17 -165 -34l9 56
c39 15 102 30 164 30c145 0 212 -68 191 -199zM179 38c69 0 149 33 196 94l14 89c-39 11 -94 19 -144 19c-74 0 -168 -22 -175 -105c-6 -62 43 -97 109 -97zM458 646c-1 -62 -39 -92 -83 -92c-59 0 -109 48 -151 48c-26 0 -41 -17 -41 -43h-49c1 61 40 93 82 93
c59 0 110 -48 152 -48c29 0 41 15 41 42h49z" />
    <glyph glyph-name="ae.ss01" horiz-adv-x="895" 
d="M417 90c-74 -70 -159 -101 -246 -101c-89 0 -170 54 -159 152c13 117 133 147 234 147c48 0 104 -8 150 -22l6 37c14 84 -32 136 -135 136c-68 0 -130 -18 -175 -34l9 56c38 13 105 30 174 30c100 0 162 -45 172 -122c50 78 133 122 221 122c166 0 215 -150 168 -281
h-392c-11 -123 82 -169 184 -169c58 0 118 15 162 40l-9 -58c-44 -22 -107 -34 -166 -34c-82 0 -160 31 -198 101zM69 137c-7 -62 50 -99 112 -99c73 0 139 25 216 93c-8 26 -11 56 -7 90c-41 11 -95 19 -139 19c-80 0 -172 -20 -182 -103zM662 439
c-99 0 -188 -64 -211 -179h343c20 76 -6 179 -132 179z" />
    <glyph glyph-name="y.ss01" horiz-adv-x="583" 
d="M457 -5c-29 -170 -152 -226 -269 -226c-73 0 -137 16 -173 38l9 54c39 -26 96 -40 159 -40c100 0 198 43 218 178l13 83c-40 -44 -110 -93 -192 -93c-119 0 -185 78 -166 197l46 294h57l-47 -291c-16 -103 31 -148 118 -148c84 0 154 59 195 110l52 329h57z" />
    <glyph glyph-name="yacute.ss01" horiz-adv-x="583" 
d="M457 -5c-29 -170 -152 -226 -269 -226c-73 0 -137 16 -173 38l9 54c39 -26 96 -40 159 -40c100 0 198 43 218 178l13 83c-40 -44 -110 -93 -192 -93c-119 0 -185 78 -166 197l46 294h57l-47 -291c-16 -103 31 -148 118 -148c84 0 154 59 195 110l52 329h57zM345 553h-63
l112 142h72z" />
    <glyph glyph-name="ycircumflex.ss01" horiz-adv-x="583" 
d="M457 -5c-29 -170 -152 -226 -269 -226c-73 0 -137 16 -173 38l9 54c39 -26 96 -40 159 -40c100 0 198 43 218 178l13 83c-40 -44 -110 -93 -192 -93c-119 0 -185 78 -166 197l46 294h57l-47 -291c-16 -103 31 -148 118 -148c84 0 154 59 195 110l52 329h57zM321 691h51
l108 -137h-62l-76 94l-105 -94h-67z" />
    <glyph glyph-name="ydieresis.ss01" horiz-adv-x="583" 
d="M457 -5c-29 -170 -152 -226 -269 -226c-73 0 -137 16 -173 38l9 54c39 -26 96 -40 159 -40c100 0 198 43 218 178l13 83c-40 -44 -110 -93 -192 -93c-119 0 -185 78 -166 197l46 294h57l-47 -291c-16 -103 31 -148 118 -148c84 0 154 59 195 110l52 329h57zM475 613
c-3 -21 -23 -38 -44 -38c-25 0 -42 21 -38 45c4 20 24 38 45 38c24 0 41 -22 37 -45zM274 613c-3 -21 -23 -38 -44 -38c-25 0 -42 21 -38 45c4 20 24 38 45 38c24 0 41 -22 37 -45z" />
    <glyph glyph-name="ygrave.ss01" horiz-adv-x="583" 
d="M457 -5c-29 -170 -152 -226 -269 -226c-73 0 -137 16 -173 38l9 54c39 -26 96 -40 159 -40c100 0 198 43 218 178l13 83c-40 -44 -110 -93 -192 -93c-119 0 -185 78 -166 197l46 294h57l-47 -291c-16 -103 31 -148 118 -148c84 0 154 59 195 110l52 329h57zM376 553h-61
l-76 142h69z" />
    <glyph glyph-name="f_b" horiz-adv-x="961" 
d="M492 385c46 58 122 106 214 106c134 0 225 -107 202 -256c-23 -147 -134 -246 -276 -246c-97 0 -157 51 -189 113l-17 -102h-51l100 629c-37 20 -78 30 -122 30c-76 0 -133 -36 -145 -113l-11 -66h168l-8 -53h-169l-67 -427h-57l68 427h-87l8 53h87l12 70
c16 107 100 161 200 161c49 0 92 -11 131 -30l1 6l59 15zM629 41c114 0 204 73 224 198c19 122 -55 200 -155 200c-97 0 -177 -63 -217 -135l-22 -131c18 -72 78 -132 170 -132z" />
    <glyph glyph-name="f_f_b" horiz-adv-x="1271" 
d="M802 385c46 58 122 106 214 106c134 0 225 -107 202 -256c-23 -147 -134 -246 -276 -246c-97 0 -157 51 -189 113l-17 -102h-51l101 635c-38 20 -80 30 -122 30c-74 0 -133 -35 -146 -119l-11 -66h168l-8 -53h-169l-67 -427h-57l68 427h-254l-67 -427h-57l68 427h-87
l8 53h87l9 57c17 107 105 161 204 161c59 0 104 -17 151 -48c38 46 96 68 156 68c51 0 95 -11 134 -31l1 6l59 15zM450 480l12 70c3 21 9 40 17 56c-36 26 -71 39 -124 39c-75 0 -137 -36 -149 -112l-9 -53h253zM939 41c114 0 204 73 224 198c19 122 -55 200 -155 200
c-97 0 -177 -63 -217 -135l-22 -131c18 -72 78 -132 170 -132z" />
    <glyph glyph-name="f_f_h" horiz-adv-x="1236" 
d="M804 397c44 46 116 94 198 94c112 0 180 -78 162 -197l-47 -294h-57l46 291c16 99 -37 148 -117 148c-81 0 -155 -58 -196 -112l-51 -327h-57l101 635c-38 20 -80 30 -122 30c-74 0 -133 -35 -146 -119l-11 -66h168l-8 -53h-169l-67 -427h-57l68 427h-254l-67 -427h-57
l68 427h-87l8 53h87l9 57c17 107 105 161 204 161c59 0 104 -17 151 -48c38 46 96 68 156 68c51 0 95 -11 134 -31l1 6l59 15zM450 480l12 70c3 21 9 40 17 56c-36 26 -71 39 -124 39c-75 0 -137 -36 -149 -112l-9 -53h253z" />
    <glyph glyph-name="f_f_j" horiz-adv-x="860" 
d="M716 -102c-16 -100 -83 -129 -147 -129c-29 0 -53 5 -73 14l8 50c16 -8 37 -12 56 -12c49 0 90 22 101 89l82 517h-245l-67 -427h-57l68 427h-254l-67 -427h-57l68 427h-87l8 53h87l9 57c17 107 102 161 204 161c61 0 105 -17 152 -48c38 46 96 68 158 68
c55 0 102 -15 146 -40l-9 -55c-40 27 -84 42 -136 42c-74 0 -133 -36 -146 -119l-11 -66h301zM206 533l-9 -53h253l12 70c3 21 9 39 17 56c-36 25 -70 39 -124 39c-78 0 -137 -36 -149 -112z" />
    <glyph glyph-name="f_f_k" horiz-adv-x="1161" 
d="M1097 480h68l-227 -234l172 -246h-64l-158 226h-110l-35 -226h-57l101 635c-38 20 -80 30 -123 30c-74 0 -133 -35 -146 -119l-11 -66h168l-8 -53h-169l-67 -427h-57l68 427h-254l-67 -427h-57l68 427h-87l8 53h87l9 57c17 107 105 161 204 161c59 0 104 -17 151 -48
c38 46 96 68 156 68c52 0 95 -11 135 -31l1 6l59 15l-68 -430h114zM450 480l12 70c3 21 9 40 17 56c-36 26 -71 39 -124 39c-75 0 -137 -36 -149 -112l-9 -53h253z" />
    <glyph glyph-name="f_h" horiz-adv-x="926" 
d="M494 397c44 46 116 94 198 94c112 0 180 -78 162 -197l-47 -294h-57l46 291c16 99 -37 148 -117 148c-81 0 -155 -58 -196 -112l-51 -327h-57l100 629c-37 20 -78 30 -122 30c-76 0 -133 -36 -145 -113l-11 -66h168l-8 -53h-169l-67 -427h-57l68 427h-87l8 53h87l12 70
c16 107 100 161 200 161c49 0 92 -11 131 -30l1 6l59 15z" />
    <glyph glyph-name="f_i" horiz-adv-x="550" 
d="M121 0h-57l68 427h-87l8 53h87l12 70c16 107 99 161 198 161c55 0 106 -14 149 -40l-9 -54c-42 27 -86 42 -137 42c-74 0 -133 -36 -145 -113l-11 -66h301l-76 -480h-57l68 427h-245z" />
    <glyph glyph-name="f_j" horiz-adv-x="550" 
d="M406 -102c-16 -100 -83 -129 -147 -129c-29 0 -53 5 -73 14l8 50c16 -8 37 -12 56 -12c49 0 90 22 101 89l82 517h-245l-67 -427h-57l68 427h-87l8 53h87l12 70c16 107 99 161 198 161c55 0 106 -14 149 -40l-9 -54c-42 27 -86 42 -137 42c-74 0 -133 -36 -145 -113
l-11 -66h301z" />
    <glyph glyph-name="f_k" horiz-adv-x="850" 
d="M787 480h67l-226 -234l172 -246h-64l-158 226h-111l-35 -226h-57l100 629c-37 20 -78 30 -122 30c-76 0 -133 -36 -145 -113l-11 -66h168l-8 -53h-169l-67 -427h-57l68 427h-87l8 53h87l12 70c16 107 100 161 200 161c49 0 92 -11 131 -30l1 6l59 15l-67 -424h115z" />
    <glyph glyph-name="f_l" horiz-adv-x="560" 
d="M483 681l1 6l59 15l-111 -702h-57l100 629c-37 20 -78 30 -122 30c-76 0 -133 -36 -145 -113l-11 -66h168l-8 -53h-169l-67 -427h-57l68 427h-87l8 53h87l12 70c16 107 100 161 200 161c49 0 92 -11 131 -30z" />
    <glyph glyph-name="uni0410" unicode="&#x410;" horiz-adv-x="714" 
d="M656 0h-62l-53 188h-396l-112 -188h-67l422 700h68zM402 616l-224 -372h349l-106 373c-2 8 -4 16 -5 24c-4 -9 -9 -17 -14 -25z" />
    <glyph glyph-name="uni0411" unicode="&#x411;" horiz-adv-x="663" 
d="M176 408h192c131 0 270 -36 242 -208c-26 -168 -171 -200 -306 -200h-252l111 700h474l-10 -57h-414zM120 57h193c106 0 217 19 238 150c20 129 -84 144 -186 144h-198z" />
    <glyph glyph-name="uni0412" unicode="&#x412;" horiz-adv-x="686" 
d="M163 700h271c130 0 228 -60 209 -181c-15 -91 -81 -137 -150 -152c62 -14 144 -59 126 -180c-26 -161 -182 -187 -292 -187h-275zM560 200c19 122 -96 136 -163 136h-233l-44 -279h202c93 0 217 12 238 143zM583 520c14 92 -54 123 -161 123h-210l-39 -251h236
c82 0 159 36 174 128z" />
    <glyph glyph-name="uni0413" unicode="&#x413;" horiz-adv-x="573" 
d="M111 0h-59l111 700h456l-9 -57h-397z" />
    <glyph glyph-name="uni0414" unicode="&#x414;" horiz-adv-x="761" 
d="M4 -170h-57l36 227h82c116 168 189 420 222 643h419l-102 -643h87l-36 -227h-56l26 170h-594zM338 643c-39 -205 -108 -438 -208 -586h416l92 586h-300z" />
    <glyph glyph-name="uni0415" unicode="&#x415;" horiz-adv-x="619" 
d="M163 700h465l-9 -57h-406l-41 -262h375l-8 -57h-376l-42 -267h411l-9 -57h-471z" />
    <glyph glyph-name="uni0401" unicode="&#x401;" horiz-adv-x="619" 
d="M555 833c-3 -21 -23 -38 -44 -38c-25 0 -42 21 -38 45c4 20 24 38 45 38c24 0 41 -22 37 -45zM354 833c-3 -21 -23 -38 -44 -38c-25 0 -42 21 -38 45c4 20 24 38 45 38c24 0 41 -22 37 -45zM163 700h465l-9 -57h-406l-41 -262h375l-8 -57h-376l-42 -267h411l-9 -57h-471z
" />
    <glyph glyph-name="uni0416" unicode="&#x416;" horiz-adv-x="930" 
d="M897 700h67l-264 -341l176 -359h-62l-162 330h-149l-52 -330h-60l52 330h-142l-269 -330h-70l294 359l-156 341h63l141 -314h149l49 314h60l-50 -314h143z" />
    <glyph glyph-name="uni0417" unicode="&#x417;" horiz-adv-x="605" 
d="M539 185c-23 -147 -171 -196 -300 -196c-100 0 -172 15 -240 44l9 58c67 -32 137 -46 230 -46c103 0 224 36 243 152c17 111 -89 139 -189 139h-139l9 56h130c113 0 199 49 213 134c13 90 -70 129 -173 129c-85 0 -153 -14 -232 -50l9 58c72 33 145 48 231 48
c135 0 243 -64 224 -186c-13 -86 -80 -142 -165 -160c76 -12 159 -62 140 -180z" />
    <glyph glyph-name="uni0418" unicode="&#x418;" horiz-adv-x="768" 
d="M735 700l-111 -700h-59l87 547c2 19 5 36 10 57l-552 -604h-58l111 700h59l-87 -548c-3 -19 -6 -37 -10 -56l552 604h58z" />
    <glyph glyph-name="uni0419" unicode="&#x419;" horiz-adv-x="768" 
d="M735 700l-111 -700h-59l87 547c2 19 5 36 10 57l-552 -604h-58l111 700h59l-87 -548c-3 -19 -6 -37 -10 -56l552 604h58zM610 819c-47 -31 -90 -41 -138 -41s-93 10 -129 41l9 57c40 -33 77 -44 125 -44c47 0 91 11 141 44z" />
    <glyph glyph-name="uni041A" unicode="&#x41a;" horiz-adv-x="658" 
d="M629 700h68l-297 -343l209 -357h-64l-195 330h-187l-52 -330h-59l111 700h59l-49 -314h183z" />
    <glyph glyph-name="uni041B" unicode="&#x41b;" horiz-adv-x="742" 
d="M296 700h413l-111 -700h-59l101 643h-297c-81 -355 -154 -653 -324 -653c-27 0 -44 3 -63 11l9 58c16 -6 33 -10 48 -10c130 0 206 303 283 651z" />
    <glyph glyph-name="uni041C" unicode="&#x41c;" horiz-adv-x="903" 
d="M810 700h60l-111 -700h-59l94 593l-339 -415h-39l-210 415l-95 -593h-59l111 700h52l227 -450z" />
    <glyph glyph-name="uni041D" unicode="&#x41d;" horiz-adv-x="768" 
d="M676 700h59l-111 -700h-59l51 323h-454l-51 -323h-59l111 700h59l-50 -320h453z" />
    <glyph glyph-name="uni041E" unicode="&#x41e;" horiz-adv-x="822" 
d="M784 346c-28 -177 -171 -357 -418 -357c-231 0 -337 185 -309 365c29 177 179 357 418 357c232 0 338 -185 309 -365zM117 350c-23 -144 50 -305 253 -305c205 0 331 152 355 305c23 144 -50 305 -253 305c-205 0 -331 -152 -355 -305z" />
    <glyph glyph-name="uni041F" unicode="&#x41f;" horiz-adv-x="753" 
d="M111 0h-59l111 700h557l-111 -700h-59l102 643h-439z" />
    <glyph glyph-name="uni0420" unicode="&#x420;" horiz-adv-x="658" 
d="M163 700h234c145 0 282 -52 255 -226c-27 -171 -169 -219 -328 -219h-172l-41 -255h-59zM592 481c21 131 -86 162 -198 162h-182l-52 -331h172c129 0 239 36 260 169z" />
    <glyph glyph-name="uni0421" unicode="&#x421;" horiz-adv-x="652" 
d="M60 364c37 229 243 347 417 347c71 0 133 -16 185 -48l-9 -57c-44 32 -104 49 -170 49c-154 0 -332 -97 -365 -299c-34 -214 119 -311 265 -311c69 0 138 18 194 52l-10 -64c-58 -30 -131 -44 -199 -44c-170 0 -349 124 -308 375z" />
    <glyph glyph-name="uni0422" unicode="&#x422;" horiz-adv-x="596" 
d="M77 700h571l-9 -57h-256l-102 -643h-59l102 643h-256z" />
    <glyph glyph-name="uni0423" unicode="&#x423;" horiz-adv-x="624" 
d="M342 158c-89 -138 -165 -169 -239 -169c-31 0 -61 5 -87 14l9 56c23 -9 47 -14 71 -14c58 0 110 20 175 110l17 24l-217 521h63l191 -467l297 467h67z" />
    <glyph glyph-name="uni0424" unicode="&#x424;" horiz-adv-x="857" 
d="M406 -36h-59l14 92c-201 4 -349 115 -320 302c29 184 190 282 414 286l15 92h59l-15 -92c193 -4 351 -115 322 -302c-29 -184 -189 -282 -415 -286zM101 354c-22 -146 78 -238 269 -244l76 480c-197 -6 -322 -87 -345 -236zM505 590l-76 -480c198 6 323 88 347 236
c23 146 -85 238 -271 244z" />
    <glyph glyph-name="uni0425" unicode="&#x425;" horiz-adv-x="628" 
d="M33 0h-75l333 363l-203 337h66l177 -294l270 294h75l-316 -344l214 -356h-65l-189 312z" />
    <glyph glyph-name="uni0427" unicode="&#x427;" horiz-adv-x="677" 
d="M534 0h-60l45 282c-77 -25 -151 -37 -219 -36c-159 2 -249 82 -224 239l34 215h59l-35 -222c-20 -125 55 -174 183 -175c68 -1 138 12 211 35l57 362h60z" />
    <glyph glyph-name="uni0426" unicode="&#x426;" horiz-adv-x="777" 
d="M670 -170h-56l27 170h-589l111 700h59l-101 -643h440l101 643h60l-102 -643h86z" />
    <glyph glyph-name="uni0428" unicode="&#x428;" horiz-adv-x="1063" 
d="M919 0h-867l111 700h59l-101 -643h344l102 643h59l-101 -643h344l102 643h59z" />
    <glyph glyph-name="uni0429" unicode="&#x429;" horiz-adv-x="1085" 
d="M979 -170h-56l27 170h-898l111 700h59l-101 -643h344l102 643h59l-101 -643h344l102 643h59l-101 -643h86z" />
    <glyph glyph-name="uni042F" unicode="&#x42f;" horiz-adv-x="685" 
d="M55 0h-71l261 272c-107 25 -170 97 -151 213c24 155 152 215 307 215h251l-111 -700h-60l42 263h-187c-10 0 -19 0 -28 1zM154 478c-18 -116 66 -158 185 -158h193l51 323h-191c-118 0 -219 -46 -238 -165z" />
    <glyph glyph-name="uni042C" unicode="&#x42c;" horiz-adv-x="658" 
d="M283 0h-231l111 700h59l-40 -256h173c151 0 284 -51 256 -225c-26 -171 -165 -219 -328 -219zM172 387l-52 -330h172c130 0 239 35 260 169c21 130 -82 161 -202 161h-178z" />
    <glyph glyph-name="uni042A" unicode="&#x42a;" horiz-adv-x="752" 
d="M377 0h-232l102 643h-182l9 57h242l-41 -256h173c151 0 284 -51 257 -225c-27 -171 -165 -219 -328 -219zM266 387l-52 -330h172c130 0 239 35 260 169c21 130 -82 161 -202 161h-178z" />
    <glyph glyph-name="uni042B" unicode="&#x42b;" horiz-adv-x="860" 
d="M283 0h-231l111 700h59l-40 -256h173c151 0 284 -51 256 -225c-26 -171 -164 -219 -328 -219zM172 387l-52 -330h172c130 0 239 35 260 169c21 130 -82 161 -202 161h-178zM716 0h-59l111 700h59z" />
    <glyph glyph-name="uni042D" unicode="&#x42d;" horiz-adv-x="654" 
d="M105 666c59 30 131 45 200 45c169 0 347 -122 308 -371c-39 -245 -225 -351 -411 -351c-72 0 -146 18 -197 48l9 56c48 -30 116 -48 183 -48c161 0 314 83 353 279l-384 -2l9 56l383 2c17 189 -128 275 -264 275c-73 0 -143 -19 -199 -49z" />
    <glyph glyph-name="uni042E" unicode="&#x42e;" horiz-adv-x="1085" 
d="M1047 346c-28 -177 -171 -357 -418 -357c-218 0 -324 165 -312 333h-155l-51 -322h-59l111 700h59l-51 -322h154c38 168 185 333 413 333c232 0 338 -185 309 -365zM380 350c-23 -144 50 -305 253 -305c205 0 331 152 355 305c23 144 -50 305 -253 305
c-205 0 -331 -152 -355 -305z" />
    <glyph glyph-name="uni0414.loclBGR" horiz-adv-x="790" 
d="M11 -170h-57l36 227h74l362 643h67l160 -643h74l-36 -227h-57l27 170h-623zM453 634l-322 -577h463z" />
    <glyph glyph-name="uni041B.loclBGR" horiz-adv-x="681" 
d="M-33 0l408 700h61l186 -700h-62l-162 629l-365 -629h-66z" />
    <glyph glyph-name="uni0424.loclBGR" horiz-adv-x="896" 
d="M414 -103h-58l16 96c-219 8 -346 162 -314 362c31 197 195 344 427 352l15 96h58l-15 -96c219 -8 346 -162 314 -362c-31 -197 -195 -344 -427 -352zM117 351c-25 -159 62 -293 264 -301l95 600c-202 -8 -333 -136 -359 -299zM534 650l-95 -600c202 8 334 136 359 299
c26 159 -63 293 -264 301z" />
    <glyph glyph-name="uni0430" unicode="&#x430;" horiz-adv-x="618" 
d="M458 99c-49 -62 -125 -110 -219 -110c-138 0 -226 107 -202 256c23 147 142 246 275 246c96 0 159 -52 190 -112l16 101h51l-76 -480h-51zM92 241c-19 -122 52 -200 155 -200c96 0 178 63 217 134l21 132c-15 71 -79 132 -169 132c-105 0 -204 -73 -224 -198z" />
    <glyph glyph-name="uni0431" unicode="&#x431;" horiz-adv-x="591" 
d="M534 220c-22 -145 -126 -231 -267 -231c-147 0 -244 105 -215 289c24 156 105 262 200 315c150 82 242 61 313 119l-9 -62c-66 -48 -151 -32 -275 -101c-79 -44 -130 -116 -160 -197c47 66 132 108 212 108c119 0 224 -97 201 -240zM103 250c-18 -125 49 -207 166 -207
c118 0 193 76 209 183c17 103 -55 181 -156 181s-192 -64 -219 -157z" />
    <glyph glyph-name="uni0432" unicode="&#x432;" horiz-adv-x="546" 
d="M291 0h-258l76 480h246c91 0 148 -48 134 -131c-8 -51 -41 -90 -90 -106c44 -11 82 -49 71 -117c-12 -80 -74 -126 -179 -126zM124 218l-27 -168h191c67 0 117 23 127 87c10 65 -35 81 -87 81h-204zM158 430l-26 -162h192c57 0 99 27 108 83c8 57 -30 79 -88 79h-186z
" />
    <glyph glyph-name="uni0433" unicode="&#x433;" horiz-adv-x="441" 
d="M90 0h-57l76 480h345l-8 -53h-289z" />
    <glyph glyph-name="uni0434" unicode="&#x434;" 
d="M15 -133h-55l29 184h65c79 117 126 240 155 429h341l-68 -429h70l-30 -184h-55l21 133h-452zM254 427c-29 -165 -74 -272 -140 -376h312l59 376h-231z" />
    <glyph glyph-name="uni0435" unicode="&#x435;" horiz-adv-x="545" 
d="M36 242c25 164 154 249 273 249c178 0 225 -152 179 -279h-399c-12 -123 89 -171 185 -171c60 0 122 16 168 40l-9 -57c-46 -23 -106 -35 -168 -35c-125 0 -257 79 -229 253zM446 262c19 71 -5 177 -137 177c-96 0 -190 -64 -213 -177h350z" />
    <glyph glyph-name="uni0451" unicode="&#x451;" horiz-adv-x="545" 
d="M468 613c-3 -21 -23 -38 -44 -38c-25 0 -42 21 -38 45c4 20 24 38 45 38c24 0 41 -22 37 -45zM267 613c-3 -21 -23 -38 -44 -38c-25 0 -42 21 -38 45c4 20 24 38 45 38c24 0 41 -22 37 -45zM36 242c25 164 154 249 273 249c178 0 225 -152 179 -279h-399
c-12 -123 89 -171 185 -171c60 0 122 16 168 40l-9 -57c-46 -23 -106 -35 -168 -35c-125 0 -257 79 -229 253zM446 262c19 71 -5 177 -137 177c-96 0 -190 -64 -213 -177h350z" />
    <glyph glyph-name="uni0436" unicode="&#x436;" horiz-adv-x="734" 
d="M29 0h-67l243 246l-139 234h59l128 -212h83l33 212h57l-34 -212h83l193 212h64l-216 -238l164 -242h-63l-148 216h-85l-34 -216h-57l34 216h-82z" />
    <glyph glyph-name="uni0437" unicode="&#x437;" horiz-adv-x="479" 
d="M405 124c-15 -92 -101 -135 -233 -135c-72 -1 -133 15 -175 36l9 54c38 -22 100 -38 162 -38c95 0 170 23 182 96c10 63 -49 81 -99 81h-120l9 52h113c65 0 113 28 121 81c9 61 -59 88 -135 88c-64 0 -125 -15 -175 -37l9 55c52 22 108 36 175 35
c119 -1 196 -54 182 -141c-8 -57 -48 -95 -109 -106c51 -13 94 -56 84 -121z" />
    <glyph glyph-name="uni0438" unicode="&#x438;" horiz-adv-x="589" 
d="M83 0h-50l76 480h57l-61 -386l385 386h50l-76 -480h-56l60 385z" />
    <glyph glyph-name="uni0439" unicode="&#x439;" horiz-adv-x="589" 
d="M479 599c-47 -31 -90 -41 -138 -41s-93 10 -129 41l8 53c40 -33 77 -44 125 -44s91 11 142 44zM83 0h-50l76 480h57l-61 -386l385 386h50l-76 -480h-56l60 385z" />
    <glyph glyph-name="uni043A" unicode="&#x43a;" horiz-adv-x="511" 
d="M90 0h-57l76 480h57l-32 -202h114l196 202h68l-226 -233l172 -247h-64l-158 226h-111z" />
    <glyph glyph-name="uni043B" unicode="&#x43b;" horiz-adv-x="591" 
d="M250 427c-55 -266 -107 -434 -226 -434c-24 0 -41 3 -58 10l8 47c11 -7 26 -8 41 -8c90 0 137 164 189 438h338l-76 -480h-57l68 427h-227z" />
    <glyph glyph-name="uni043C" unicode="&#x43c;" horiz-adv-x="675" 
d="M90 0h-57l76 480h57l154 -284l238 284h68l-76 -480h-57l63 397l-217 -258h-47l-139 257z" />
    <glyph glyph-name="uni043D" unicode="&#x43d;" horiz-adv-x="583" 
d="M90 0h-57l76 480h57l-34 -214h312l34 214h56l-76 -480h-56l33 214h-312z" />
    <glyph glyph-name="uni043E" unicode="&#x43e;" horiz-adv-x="593" 
d="M540 235c-25 -161 -161 -246 -290 -246c-125 0 -239 92 -213 256c25 161 162 246 290 246c126 0 239 -92 213 -256zM92 238c-19 -123 59 -195 162 -195c109 0 211 72 231 199c19 123 -59 195 -162 195c-108 0 -211 -72 -231 -199z" />
    <glyph glyph-name="uni043F" unicode="&#x43f;" horiz-adv-x="583" 
d="M90 0h-57l76 480h425l-76 -480h-56l67 427h-312z" />
    <glyph glyph-name="uni0440" unicode="&#x440;" horiz-adv-x="619" 
d="M144 378c50 66 127 113 220 113c135 0 225 -107 202 -256c-23 -147 -140 -246 -276 -246c-97 0 -157 51 -184 114l-51 -323h-57l111 700h51zM510 239c20 121 -53 200 -155 200c-95 0 -177 -63 -217 -136l-21 -130c17 -72 78 -132 170 -132c107 0 203 72 223 198z" />
    <glyph glyph-name="uni0441" unicode="&#x441;" horiz-adv-x="498" 
d="M37 246c27 175 174 245 296 245c53 0 102 -13 143 -42l-9 -53c-35 30 -83 43 -130 43c-103 0 -221 -56 -244 -199c-22 -136 65 -199 174 -199c53 0 108 16 155 42l-9 -59c-49 -24 -101 -35 -158 -35c-130 0 -245 83 -218 257z" />
    <glyph glyph-name="uni0442" unicode="&#x442;" horiz-adv-x="460" 
d="M212 0h-56l67 427h-186l8 53h429l-8 -53h-186z" />
    <glyph glyph-name="uni0443" unicode="&#x443;" horiz-adv-x="535" 
d="M238 58l247 422h62l-332 -560c-67 -112 -127 -151 -193 -151c-20 0 -36 2 -52 7l7 48c14 -4 28 -5 40 -5c58 0 103 41 152 124l34 57l-160 480h57z" />
    <glyph glyph-name="uni0444" unicode="&#x444;" horiz-adv-x="712" 
d="M303 -220h-56l33 209c-151 3 -268 100 -244 256c25 154 161 243 324 246l33 209h56l-33 -209c151 -3 269 -100 244 -256c-24 -154 -161 -243 -324 -246zM92 241c-19 -123 62 -199 197 -202l64 402c-134 -3 -240 -73 -261 -200zM408 441l-64 -402c134 3 241 73 261 200
c19 123 -62 199 -197 202z" />
    <glyph glyph-name="uni0445" unicode="&#x445;" horiz-adv-x="486" 
d="M35 0h-67l236 247l-148 233h64l121 -194l185 194h67l-225 -235l158 -245h-64l-130 206z" />
    <glyph glyph-name="uni0447" unicode="&#x447;" horiz-adv-x="519" 
d="M394 0h-56l27 173c-49 -18 -96 -26 -154 -26c-109 0 -183 55 -165 173l26 160h56l-25 -160c-14 -91 38 -121 126 -121c50 0 95 9 145 26l40 255h56z" />
    <glyph glyph-name="uni0446" unicode="&#x446;" horiz-adv-x="598" 
d="M498 -133h-56l21 133h-430l76 480h57l-68 -427h302l68 427h56l-67 -427h70z" />
    <glyph glyph-name="uni0448" unicode="&#x448;" horiz-adv-x="815" 
d="M690 0h-657l76 480h57l-68 -427h244l67 427h57l-68 -427h244l67 427h57z" />
    <glyph glyph-name="uni0449" unicode="&#x449;" horiz-adv-x="839" 
d="M738 -133h-55l21 133h-671l76 480h57l-68 -427h244l67 427h57l-68 -427h244l67 427h57l-68 -427h70z" />
    <glyph glyph-name="uni044F" unicode="&#x44f;" horiz-adv-x="539" 
d="M52 0h-65l172 186c-72 19 -111 72 -99 147c13 82 86 147 203 147h227l-76 -480h-56l28 178h-168zM116 325c-10 -59 34 -96 113 -96h165l32 200h-162c-83 0 -139 -41 -148 -104z" />
    <glyph glyph-name="uni044C" unicode="&#x44c;" horiz-adv-x="513" 
d="M254 0h-221l76 480h57l-28 -175h169c106 0 166 -67 152 -156c-13 -86 -87 -149 -205 -149zM130 254l-32 -203h155c85 0 139 40 150 105c10 63 -35 98 -109 98h-164z" />
    <glyph glyph-name="uni044A" unicode="&#x44a;" horiz-adv-x="583" 
d="M324 0h-221l68 430h-134l8 50h190l-27 -175h168c106 0 167 -67 153 -156c-14 -86 -87 -149 -205 -149zM200 254l-32 -203h155c85 0 139 40 150 105c10 63 -35 98 -109 98h-164z" />
    <glyph glyph-name="uni044B" unicode="&#x44b;" horiz-adv-x="713" 
d="M254 0h-221l76 480h57l-28 -175h169c106 0 166 -67 152 -156c-13 -86 -87 -149 -205 -149zM130 254l-32 -203h155c85 0 139 40 150 105c10 63 -35 98 -109 98h-164zM588 0h-57l76 480h57z" />
    <glyph glyph-name="uni044D" unicode="&#x44d;" horiz-adv-x="504" 
d="M450 230c-28 -174 -158 -241 -284 -241c-67 0 -116 15 -163 43l9 53c40 -27 93 -44 146 -44c110 0 206 46 232 175l-267 -2l9 52l266 2c10 124 -90 171 -181 171c-56 0 -112 -17 -157 -44l9 54c48 28 99 42 156 42c121 0 253 -79 225 -261z" />
    <glyph glyph-name="uni044E" unicode="&#x44e;" horiz-adv-x="814" 
d="M761 235c-25 -161 -161 -246 -289 -246c-118 0 -225 81 -217 225h-132l-33 -214h-57l76 480h57l-34 -213h131c33 142 159 224 285 224s240 -92 213 -256zM313 238c-19 -123 59 -195 162 -195c109 0 211 72 231 199c19 123 -59 195 -162 195c-108 0 -211 -72 -231 -199z
" />
    <glyph glyph-name="uni0432.loclBGR" horiz-adv-x="579" 
d="M368 711c112 0 176 -78 162 -169c-10 -63 -45 -114 -135 -149c90 -18 142 -98 126 -200c-19 -118 -114 -204 -252 -204s-236 87 -207 270l20 127c34 210 129 325 286 325zM309 405c114 24 154 77 164 139c9 60 -28 115 -107 115c-106 0 -195 -69 -227 -273l-2 -15z
M270 41c101 0 180 57 195 153c16 100 -49 182 -164 159l-172 -35l-9 -59c-24 -153 40 -218 150 -218z" />
    <glyph glyph-name="uni0433.loclBGR" horiz-adv-x="473" 
d="M384 38c-49 -30 -126 -49 -193 -49c-109 0 -192 40 -179 138c26 183 343 91 365 232c9 59 -50 80 -115 80c-60 0 -127 -18 -181 -48l9 55c54 28 118 45 184 45c91 0 175 -40 160 -136c-30 -190 -345 -96 -365 -232c-9 -62 49 -82 134 -82c60 0 137 21 190 55z" />
    <glyph glyph-name="uni0434.loclBGR" horiz-adv-x="619" 
d="M494 -2c-26 -167 -156 -229 -285 -229c-80 0 -143 18 -190 48l9 54c46 -32 103 -50 176 -50c111 0 213 50 233 181l15 91c-44 -56 -119 -104 -213 -104c-139 0 -226 107 -202 256c23 147 140 246 275 246c98 0 158 -51 189 -116l16 105h53zM92 241
c-19 -121 51 -200 155 -200c96 0 178 61 217 130l22 136c-16 72 -77 132 -170 132c-106 0 -204 -72 -224 -198z" />
    <glyph glyph-name="uni0436.loclBGR" horiz-adv-x="734" 
d="M29 0h-67l243 246l-139 234h59l128 -212h83l68 432h57l-69 -432h83l193 212h64l-216 -238l164 -242h-63l-148 216h-85l-34 -216h-57l34 216h-82z" />
    <glyph glyph-name="uni0438.loclBGR" horiz-adv-x="583" 
d="M477 480h57l-76 -480h-51l15 89c-40 -49 -116 -100 -200 -100c-114 0 -185 78 -166 199l46 292h57l-46 -291c-16 -99 35 -148 117 -148c86 0 155 56 195 112z" />
    <glyph glyph-name="uni0439.loclBGR" horiz-adv-x="583" 
d="M465 599c-47 -31 -90 -41 -138 -41s-93 10 -129 41l8 53c40 -33 77 -44 125 -44s91 11 142 44zM477 480h57l-76 -480h-51l15 89c-40 -49 -116 -100 -200 -100c-114 0 -185 78 -166 199l46 292h57l-46 -291c-16 -99 35 -148 117 -148c86 0 155 56 195 112z" />
    <glyph glyph-name="uni043A.loclBGR" horiz-adv-x="511" 
d="M444 480h68l-227 -234l172 -246h-64l-158 226h-110l-35 -226h-57l111 700h57l-67 -422h114z" />
    <glyph glyph-name="uni043B.loclBGR" horiz-adv-x="531" 
d="M326 480l142 -480h-61l-119 416l-250 -416h-66l294 480h60z" />
    <glyph glyph-name="uni043F.loclBGR" horiz-adv-x="584" 
d="M145 391c45 49 118 100 206 100c111 0 179 -78 161 -197l-47 -294h-57l46 291c16 99 -37 148 -117 148c-81 0 -155 -58 -196 -111l-51 -328h-57l76 480h51z" />
    <glyph glyph-name="uni0442.loclBGR" horiz-adv-x="893" 
d="M477 399c47 46 116 92 195 92c112 0 167 -82 150 -190l-48 -301h-56l48 306c13 79 -26 133 -103 133c-76 0 -139 -54 -175 -95c0 -14 -1 -28 -3 -43l-48 -301h-57l49 306c12 79 -26 133 -103 133c-81 0 -147 -61 -183 -103l-53 -336h-57l76 480h51l-14 -82
c35 39 106 93 188 93c74 0 124 -36 143 -92z" />
    <glyph glyph-name="uni0446.loclBGR" horiz-adv-x="612" 
d="M473 92c-5 -38 12 -47 42 -47h28l-28 -178h-53l20 130c-40 3 -71 27 -66 85c-42 -47 -114 -93 -194 -93c-114 0 -185 78 -166 199l46 292h57l-46 -291c-16 -99 35 -148 117 -148c86 0 155 56 195 112l52 327h57z" />
    <glyph glyph-name="uni0448.loclBGR" horiz-adv-x="893" 
d="M734 139l53 341h57l-76 -480h-51l12 80c-32 -37 -102 -91 -186 -91c-73 0 -124 37 -143 95c-47 -49 -115 -95 -194 -95c-110 0 -168 82 -151 190l48 301h56l-48 -306c-12 -79 26 -133 103 -133s140 55 176 96c0 14 1 28 3 42l47 301h57l-49 -306
c-12 -79 26 -133 103 -133c81 0 148 57 183 98z" />
    <glyph glyph-name="uni0449.loclBGR" horiz-adv-x="923" 
d="M783 91c-6 -36 12 -46 42 -46h29l-28 -178h-53l20 129c-39 4 -70 26 -68 79c-34 -37 -101 -86 -181 -86c-74 0 -124 37 -144 94c-48 -50 -116 -94 -194 -94c-110 0 -168 82 -151 190l48 301h56l-48 -306c-12 -79 26 -133 103 -133s141 55 176 96c0 13 1 27 3 42l48 301
h56l-48 -306c-12 -79 26 -133 103 -133c81 0 148 57 182 98l54 341h57z" />
    <glyph glyph-name="uni044E.loclBGR" horiz-adv-x="814" 
d="M761 235c-25 -161 -161 -246 -289 -246c-118 0 -224 81 -217 225h-132l-33 -214h-57l111 700h57l-69 -433h131c33 142 159 224 285 224s240 -92 213 -256zM313 238c-19 -123 59 -195 162 -195c109 0 211 72 231 199c19 123 -59 195 -162 195c-108 0 -211 -72 -231 -199z
" />
    <glyph glyph-name="uni0430.ss01" horiz-adv-x="547" 
d="M424 85c-6 -32 12 -40 34 -40c14 0 28 3 41 7l-8 -47c-16 -6 -35 -9 -51 -9c-40 0 -75 19 -74 71c-53 -51 -127 -78 -198 -78c-88 0 -165 52 -156 150c11 117 133 149 227 149c56 0 111 -8 157 -22l6 37c14 87 -31 136 -145 136c-61 0 -120 -17 -165 -34l9 56
c39 15 102 30 164 30c145 0 212 -68 191 -199zM179 38c69 0 149 33 196 94l14 89c-39 11 -94 19 -144 19c-74 0 -168 -22 -175 -105c-6 -62 43 -97 109 -97z" />
    <glyph glyph-name="uni0437.ss01" horiz-adv-x="455" 
d="M376 -34c-22 -136 -132 -197 -266 -197c-57 0 -125 12 -170 46l8 54c42 -32 102 -48 156 -48c104 0 198 45 215 151c17 99 -49 186 -163 161l-66 -14l8 53l75 16c106 25 145 77 154 138c11 70 -42 113 -115 113c-55 0 -113 -16 -168 -50l9 61c59 30 108 42 164 42
c104 0 183 -69 168 -170c-10 -65 -48 -117 -135 -150c89 -20 142 -109 126 -206z" />
    <glyph glyph-name="uni0443.ss01" horiz-adv-x="583" 
d="M457 -5c-29 -170 -152 -226 -269 -226c-73 0 -137 16 -173 38l9 54c39 -26 96 -40 159 -40c100 0 198 43 218 178l13 83c-40 -44 -110 -93 -192 -93c-119 0 -185 78 -166 197l46 294h57l-47 -291c-16 -103 31 -148 118 -148c84 0 154 59 195 110l52 329h57z" />
    <glyph glyph-name="zero" unicode="0" horiz-adv-x="703" 
d="M63 345c32 201 148 346 349 346c198 0 276 -152 244 -356c-32 -201 -149 -346 -350 -346c-198 0 -275 152 -243 356zM596 339c28 178 -27 296 -188 296c-163 0 -258 -112 -287 -294c-28 -178 27 -296 188 -296c164 0 259 112 287 294z" />
    <glyph glyph-name="one" unicode="1" horiz-adv-x="415" 
d="M282 680h43l-99 -623h133l-9 -57h-342l9 57h150l88 559l-158 -56l10 57z" />
    <glyph glyph-name="two" unicode="2" horiz-adv-x="568" 
d="M124 628c75 46 150 63 221 63c127 0 218 -66 200 -178c-18 -115 -114 -174 -229 -236c-110 -58 -220 -107 -241 -220h405l-10 -57h-468l5 32c26 166 146 228 274 292c98 50 191 98 206 195c11 74 -46 117 -150 117c-70 0 -143 -22 -223 -71z" />
    <glyph glyph-name="three" unicode="3" horiz-adv-x="587" 
d="M540 505c-11 -68 -61 -131 -139 -151c67 -16 132 -70 116 -175c-21 -126 -139 -190 -271 -190c-99 0 -170 16 -228 45l8 55c59 -31 128 -45 218 -45c110 0 200 46 217 145c15 99 -61 134 -162 134h-103l10 55h94c111 0 172 61 183 130c12 74 -43 128 -152 128
c-78 0 -143 -17 -217 -49l10 59c65 30 134 45 218 45c130 0 214 -80 198 -186z" />
    <glyph glyph-name="four" unicode="4" horiz-adv-x="641" 
d="M472 680h66l-74 -466h135l-9 -55h-135l-25 -159h-59l25 159h-389l8 52zM404 214l62 385l-376 -385h314z" />
    <glyph glyph-name="five" unicode="5" horiz-adv-x="578" 
d="M160 680h398l-9 -57h-343l-52 -233c45 13 93 19 137 19c124 0 249 -61 224 -216c-20 -129 -142 -204 -284 -204c-81 0 -159 17 -212 46l8 54c52 -29 127 -45 200 -45c119 0 214 56 229 156c19 115 -75 155 -186 155c-63 0 -130 -13 -187 -33z" />
    <glyph glyph-name="six" unicode="6" horiz-adv-x="614" 
d="M562 599c-41 24 -94 36 -144 36c-136 0 -256 -81 -296 -300c78 57 156 83 238 83c111 0 221 -71 198 -214c-22 -140 -140 -215 -268 -215c-184 0 -262 132 -229 339c40 255 184 363 359 363c54 0 109 -14 151 -38zM289 44c102 0 192 52 210 164c18 115 -61 155 -155 155
c-78 0 -163 -32 -231 -93c-11 -149 52 -226 176 -226z" />
    <glyph glyph-name="seven" unicode="7" horiz-adv-x="527" 
d="M89 680h476l-8 -53l-398 -627h-65l395 623h-409z" />
    <glyph glyph-name="eight" unicode="8" horiz-adv-x="644" 
d="M572 160c-14 -90 -108 -171 -283 -171c-184 0 -268 96 -251 205c11 68 62 135 155 182c-52 31 -89 75 -77 148c13 83 97 167 262 167c154 0 237 -98 223 -193c-9 -67 -53 -123 -130 -170c65 -30 115 -82 101 -168zM98 194c-14 -88 56 -150 198 -150c122 0 206 55 217 124
c15 98 -78 122 -177 152c-32 9 -64 19 -94 30c-83 -37 -134 -93 -144 -156zM336 374c28 -7 58 -16 86 -24c67 40 110 89 120 148c11 70 -45 138 -166 138c-118 0 -191 -53 -201 -116c-15 -96 84 -122 161 -146z" />
    <glyph glyph-name="nine" unicode="9" horiz-adv-x="613" 
d="M71 476c22 140 140 215 268 215c184 0 262 -132 229 -339c-40 -255 -184 -363 -359 -363c-57 0 -109 14 -151 38l9 55c40 -25 94 -37 144 -37c136 0 256 81 296 300c-78 -57 -156 -83 -238 -83c-112 0 -221 71 -198 214zM340 636c-102 0 -192 -51 -210 -164
c-18 -114 61 -155 155 -155c78 0 163 32 231 93c11 149 -52 226 -176 226z" />
    <glyph glyph-name="zero.osf" horiz-adv-x="656" 
d="M602 253c-21 -130 -132 -264 -315 -264c-189 0 -263 144 -242 278c21 131 137 264 314 264c186 0 264 -143 243 -278zM104 261c-17 -108 38 -216 184 -216c145 0 237 102 254 214c18 108 -41 216 -183 216c-145 0 -237 -102 -255 -214z" />
    <glyph glyph-name="one.osf" horiz-adv-x="421" 
d="M258 520h43l-73 -463h134l-10 -57h-341l9 57h149l63 399l-157 -56l9 57z" />
    <glyph glyph-name="two.osf" horiz-adv-x="526" 
d="M429 0h-428l7 39c18 120 131 155 237 199c76 31 165 58 178 135c10 62 -40 103 -127 103c-71 0 -135 -20 -207 -60l9 61c70 38 135 54 205 54c117 0 194 -65 178 -166c-18 -105 -132 -143 -219 -180c-93 -39 -178 -70 -188 -128h365z" />
    <glyph glyph-name="three.osf" horiz-adv-x="541" 
d="M475 345c-11 -68 -61 -131 -138 -151c66 -16 131 -70 114 -175c-19 -126 -142 -190 -262 -190c-90 0 -153 16 -208 45l9 57c57 -32 115 -46 197 -46c97 0 193 45 209 144s-61 134 -148 134h-86l9 57l77 -1c98 -1 159 60 170 129c12 74 -42 128 -140 128
c-69 0 -132 -17 -197 -50l10 60c60 28 121 45 197 45c126 0 204 -80 187 -186z" />
    <glyph glyph-name="four.osf" horiz-adv-x="592" 
d="M414 520h65l-73 -466h126l-8 -55h-127l-25 -159h-59l26 159h-363l8 53zM347 54l61 383l-352 -383h291z" />
    <glyph glyph-name="five.osf" horiz-adv-x="533" 
d="M127 520h369l-9 -57h-314l-50 -233c42 13 86 19 125 19c105 0 229 -62 205 -214c-20 -129 -139 -206 -277 -206c-75 0 -138 17 -191 46l9 56c52 -31 111 -47 177 -47c115 0 207 59 223 158c18 116 -75 153 -167 153c-57 0 -120 -13 -176 -33z" />
    <glyph glyph-name="six.osf" horiz-adv-x="586" 
d="M544 598c-44 26 -86 37 -139 37c-110 0 -241 -80 -283 -297c70 55 145 80 217 80c105 0 212 -71 189 -214c-22 -140 -137 -215 -252 -215c-174 0 -248 132 -215 339c40 255 198 363 345 363c62 0 106 -14 146 -38zM272 44c89 0 179 52 197 164c18 115 -61 155 -145 155
c-69 0 -146 -32 -211 -92c-11 -150 50 -227 159 -227z" />
    <glyph glyph-name="seven.osf" horiz-adv-x="481" 
d="M54 520h447l-7 -53l-389 -627h-65l386 623h-380z" />
    <glyph glyph-name="eight.osf" horiz-adv-x="614" 
d="M114 524c13 83 101 167 251 167c141 0 219 -91 206 -185c-9 -68 -55 -131 -132 -178c66 -30 117 -78 103 -163c-14 -90 -104 -176 -276 -176c-165 0 -247 90 -229 199c10 68 62 140 154 188c-52 30 -88 77 -77 148zM316 322c-27 9 -49 17 -77 28
c-82 -37 -134 -100 -144 -163c-14 -88 51 -143 174 -143c117 0 203 56 214 126c14 89 -53 108 -167 152zM512 504c11 68 -44 132 -150 132c-104 0 -180 -55 -190 -118c-13 -83 58 -112 147 -145c25 -8 45 -15 71 -22c67 38 112 93 122 153z" />
    <glyph glyph-name="nine.osf" horiz-adv-x="574" 
d="M42 319c22 139 137 212 252 212c174 0 248 -132 215 -339c-41 -255 -196 -363 -344 -363c-60 0 -106 15 -147 38l8 56c42 -25 87 -38 140 -38c109 0 241 80 281 295c-66 -53 -142 -78 -216 -78c-107 0 -212 74 -189 217zM297 476c-89 0 -178 -49 -196 -162
c-18 -114 62 -157 146 -157c72 0 147 32 210 92c11 149 -52 227 -160 227z" />
    <glyph glyph-name="zero.sinf" horiz-adv-x="433" 
d="M367 99c-19 -118 -94 -206 -210 -206c-125 0 -169 94 -150 216c19 118 94 206 211 206c124 0 168 -94 149 -216zM57 105c-16 -100 13 -165 101 -165c92 0 143 59 160 163c16 100 -13 165 -101 165c-92 0 -144 -59 -160 -163z" />
    <glyph glyph-name="one.sinf" horiz-adv-x="263" 
d="M140 308h37l-57 -361h73l-8 -47h-215l7 47h93l49 309l-92 -34l8 48z" />
    <glyph glyph-name="two.sinf" horiz-adv-x="351" 
d="M43 278c43 25 90 37 134 37c73 0 136 -41 123 -113c-11 -63 -66 -104 -136 -140c-62 -32 -119 -60 -129 -115h229l-8 -47h-287l4 26c14 99 89 137 161 173c63 32 109 62 117 109c7 41 -29 61 -76 61c-51 0 -93 -15 -140 -44z" />
    <glyph glyph-name="three.sinf" horiz-adv-x="358" 
d="M293 201c-6 -41 -35 -76 -81 -89c38 -9 77 -41 67 -105c-12 -77 -84 -114 -168 -114c-56 0 -99 10 -136 28l8 48c35 -19 77 -29 126 -29c65 0 115 22 123 77c9 54 -32 70 -87 70h-64l7 47h57c60 0 94 30 101 70c6 40 -30 64 -84 64c-45 0 -86 -10 -130 -31l8 51
c38 17 82 27 130 27c77 0 133 -49 123 -114z" />
    <glyph glyph-name="four.sinf" horiz-adv-x="395" 
d="M246 308h54l-43 -271h77l-7 -46h-77l-15 -91h-48l14 91h-228l7 45zM208 37l32 202l-198 -202h166z" />
    <glyph glyph-name="five.sinf" horiz-adv-x="355" 
d="M63 308h245l-8 -47h-198l-27 -116c23 6 48 9 70 9c70 0 152 -36 137 -135c-13 -81 -88 -126 -176 -126c-49 0 -95 10 -128 28l7 46c32 -18 75 -27 117 -27c68 0 121 29 130 87c11 65 -44 82 -105 82c-38 0 -77 -9 -111 -20z" />
    <glyph glyph-name="six.sinf" horiz-adv-x="382" 
d="M60 116c45 27 86 38 130 38c69 0 136 -44 122 -131c-13 -86 -85 -130 -164 -130c-112 0 -162 81 -142 208c24 149 117 214 216 214c37 0 70 -9 97 -24l-7 -46c-25 16 -59 23 -90 23c-68 0 -137 -40 -162 -152zM146 -61c57 0 106 22 116 85c11 63 -34 84 -85 84
c-42 0 -88 -15 -125 -44c-7 -86 29 -125 94 -125z" />
    <glyph glyph-name="seven.sinf" horiz-adv-x="316" 
d="M75 -100h-55l219 361h-228l8 47h282l-7 -45z" />
    <glyph glyph-name="eight.sinf" horiz-adv-x="398" 
d="M36 213c8 50 61 102 162 102c96 0 144 -56 137 -117c-5 -35 -28 -73 -72 -101c34 -18 63 -48 54 -97c-8 -54 -60 -107 -176 -107c-113 0 -161 58 -150 124c6 36 32 77 86 107c-27 18 -47 47 -41 89zM174 85c-19 5 -38 10 -55 17c-47 -21 -74 -54 -78 -85
c-8 -50 27 -78 102 -78c72 0 119 27 125 66c8 51 -42 63 -94 80zM284 195c7 39 -21 74 -88 74c-65 0 -105 -26 -111 -61c-8 -51 45 -64 88 -79c15 -4 33 -8 49 -12c36 21 58 49 62 78z" />
    <glyph glyph-name="nine.sinf" horiz-adv-x="382" 
d="M11 185c13 86 86 130 164 130c116 0 162 -81 142 -208c-24 -149 -116 -214 -217 -214c-36 0 -70 9 -96 24l7 46c27 -16 59 -23 90 -23c69 0 137 40 162 151c-45 -26 -86 -37 -130 -37c-69 0 -136 44 -122 131zM177 269c-56 0 -107 -24 -117 -85c-10 -63 35 -84 87 -84
c42 0 87 15 124 45c7 85 -28 124 -94 124z" />
    <glyph glyph-name="zero.sups" horiz-adv-x="432" 
d="M442 575c-19 -118 -94 -206 -210 -206c-125 0 -169 94 -150 216c19 118 94 206 211 206c124 0 168 -94 149 -216zM132 581c-16 -100 13 -165 101 -165c92 0 143 59 160 163c16 100 -13 165 -101 165c-92 0 -144 -59 -160 -163z" />
    <glyph glyph-name="one.sups" horiz-adv-x="262" 
d="M214 780h37l-57 -361h73l-8 -47h-215l7 47h93l49 309l-92 -34l8 48z" />
    <glyph glyph-name="two.sups" horiz-adv-x="352" 
d="M119 754c43 25 90 37 134 37c73 0 136 -41 123 -113c-11 -63 -66 -104 -136 -140c-62 -32 -119 -60 -129 -115h229l-8 -47h-287l4 26c14 99 89 137 161 173c63 32 109 62 117 109c7 41 -29 61 -76 61c-51 0 -93 -15 -140 -44z" />
    <glyph glyph-name="three.sups" horiz-adv-x="359" 
d="M369 677c-6 -41 -35 -76 -81 -89c38 -9 77 -41 67 -105c-12 -77 -84 -114 -168 -114c-56 0 -99 10 -136 28l8 48c35 -19 77 -29 126 -29c65 0 115 22 123 77c9 54 -32 70 -87 70h-64l7 47h57c60 0 94 30 101 70c6 40 -30 64 -84 64c-45 0 -86 -10 -130 -31l8 51
c38 17 82 27 130 27c77 0 133 -49 123 -114z" />
    <glyph glyph-name="four.sups" horiz-adv-x="395" 
d="M320 780h54l-43 -271h77l-7 -46h-77l-15 -91h-48l14 91h-228l7 45zM282 509l32 202l-198 -202h166z" />
    <glyph glyph-name="five.sups" horiz-adv-x="356" 
d="M138 780h245l-8 -47h-198l-27 -116c23 6 48 9 70 9c70 0 152 -36 137 -135c-13 -81 -88 -126 -176 -126c-49 0 -95 10 -128 28l7 46c32 -18 75 -27 117 -27c68 0 121 29 130 87c11 65 -44 82 -105 82c-38 0 -77 -9 -111 -20z" />
    <glyph glyph-name="six.sups" horiz-adv-x="381" 
d="M135 592c45 27 86 38 130 38c69 0 136 -44 122 -131c-13 -86 -85 -130 -164 -130c-112 0 -162 81 -142 208c24 149 117 214 216 214c37 0 70 -9 97 -24l-7 -46c-25 16 -59 23 -90 23c-68 0 -137 -40 -162 -152zM221 415c57 0 106 22 116 85c11 63 -34 84 -85 84
c-42 0 -88 -15 -125 -44c-7 -86 29 -125 94 -125z" />
    <glyph glyph-name="seven.sups" horiz-adv-x="316" 
d="M150 372h-55l219 361h-228l8 47h282l-7 -45z" />
    <glyph glyph-name="eight.sups" horiz-adv-x="398" 
d="M112 689c8 50 61 102 162 102c96 0 144 -56 137 -117c-5 -35 -28 -73 -72 -101c34 -18 63 -48 54 -97c-8 -54 -60 -107 -176 -107c-113 0 -161 58 -150 124c6 36 32 77 86 107c-27 18 -47 47 -41 89zM250 561c-19 5 -38 10 -55 17c-47 -21 -74 -54 -78 -85
c-8 -50 27 -78 102 -78c72 0 119 27 125 66c8 51 -42 63 -94 80zM360 671c7 39 -21 74 -88 74c-65 0 -105 -26 -111 -61c-8 -51 45 -64 88 -79c15 -4 33 -8 49 -12c36 21 58 49 62 78z" />
    <glyph glyph-name="nine.sups" horiz-adv-x="381" 
d="M86 661c13 86 86 130 164 130c116 0 162 -81 142 -208c-24 -149 -116 -214 -217 -214c-36 0 -70 9 -96 24l7 46c27 -16 59 -23 90 -23c69 0 137 40 162 151c-45 -26 -86 -37 -130 -37c-69 0 -136 44 -122 131zM252 745c-56 0 -107 -24 -117 -85c-10 -63 35 -84 87 -84
c42 0 87 15 124 45c7 85 -28 124 -94 124z" />
    <glyph glyph-name="zero.tf" 
d="M46 345c32 201 148 346 326 346c175 0 252 -152 220 -356c-32 -201 -149 -346 -326 -346c-175 0 -252 152 -220 356zM534 339c28 178 -28 296 -165 296c-140 0 -235 -112 -264 -294c-28 -178 27 -296 164 -296c141 0 236 112 265 294z" />
    <glyph glyph-name="one.tf" 
d="M384 680h43l-99 -623h214l-10 -57h-503l9 57h231l89 559l-212 -74l9 57z" />
    <glyph glyph-name="two.tf" 
d="M141 628c82 46 157 63 231 63c137 0 227 -73 209 -185s-120 -166 -239 -229c-108 -57 -225 -107 -247 -220h422l-10 -57h-488l5 32c26 166 152 220 285 291c96 51 199 99 214 190c12 73 -45 123 -159 123c-74 0 -146 -22 -226 -71z" />
    <glyph glyph-name="three.tf" 
d="M567 505c-11 -68 -61 -131 -139 -151c67 -16 132 -70 115 -175c-20 -126 -141 -190 -281 -190c-105 0 -176 16 -234 45l8 55c59 -31 128 -46 225 -45c117 1 210 46 226 145s-61 134 -168 134h-113l10 55h104c118 0 179 61 189 130c12 74 -42 128 -161 128
c-85 0 -150 -17 -224 -49l10 59c65 30 134 45 224 45c141 0 225 -80 209 -186z" />
    <glyph glyph-name="four.tf" 
d="M467 680h66l-74 -466h126l-8 -55h-127l-25 -159h-59l25 159h-389l8 52zM399 214l61 385l-376 -385h315z" />
    <glyph glyph-name="five.tf" 
d="M174 680h414l-8 -57h-360l-52 -233c45 13 93 19 146 19c132 0 256 -61 232 -216c-21 -129 -142 -204 -293 -204c-89 0 -167 17 -220 46l8 54c52 -29 127 -45 208 -45c128 0 222 56 238 156c18 115 -75 155 -195 155c-71 0 -138 -13 -195 -33z" />
    <glyph glyph-name="six.tf" 
d="M567 599c-41 24 -94 36 -144 36c-136 0 -256 -81 -296 -300c78 57 156 83 238 83c111 0 221 -71 198 -214c-22 -140 -140 -215 -268 -215c-184 0 -262 132 -229 339c40 255 184 363 359 363c54 0 109 -14 151 -38zM294 44c102 0 192 52 210 164c18 115 -61 155 -155 155
c-78 0 -163 -32 -231 -93c-11 -149 52 -226 176 -226z" />
    <glyph glyph-name="seven.tf" 
d="M116 680h516l-8 -53l-398 -627h-65l395 623h-449z" />
    <glyph glyph-name="eight.tf" 
d="M561 160c-15 -90 -103 -171 -283 -171c-185 0 -269 94 -251 203c10 69 61 139 154 184c-52 31 -89 75 -77 148c13 83 95 167 265 167c156 0 234 -98 221 -192c-9 -69 -54 -125 -131 -171c67 -30 115 -82 102 -168zM86 194c-14 -88 52 -150 198 -150c125 0 206 55 217 124
c15 98 -78 122 -177 152c-32 9 -64 19 -94 30c-83 -35 -134 -92 -144 -156zM324 374c28 -7 58 -16 85 -24c68 38 111 88 121 149c11 69 -40 137 -164 137c-123 0 -193 -53 -203 -116c-15 -96 84 -122 161 -146z" />
    <glyph glyph-name="nine.tf" 
d="M76 476c22 140 140 215 268 215c184 0 262 -132 229 -339c-40 -255 -184 -363 -359 -363c-57 0 -109 14 -151 38l9 55c40 -25 94 -37 144 -37c136 0 256 81 296 300c-78 -57 -156 -83 -238 -83c-112 0 -221 71 -198 214zM345 636c-102 0 -192 -55 -210 -168
c-18 -114 61 -151 155 -151c78 0 163 32 231 93c11 149 -52 226 -176 226z" />
    <glyph glyph-name="zero.tosf" 
d="M585 256c-21 -131 -130 -267 -314 -267c-181 0 -263 141 -242 275c21 131 133 267 315 267c180 0 262 -141 241 -275zM88 259c-17 -108 41 -214 183 -214c147 0 237 104 255 216c17 108 -43 214 -183 214c-145 0 -237 -104 -255 -216z" />
    <glyph glyph-name="one.tosf" 
d="M357 520h43l-73 -463h214l-10 -57h-503l9 57h231l63 399l-211 -74l9 57z" />
    <glyph glyph-name="two.tosf" 
d="M506 0h-481l7 39c22 132 160 169 267 200c117 33 183 64 195 133c10 65 -49 104 -147 104c-81 0 -159 -24 -235 -69l10 61c75 43 151 63 232 63c130 0 214 -64 198 -167c-16 -97 -109 -140 -235 -175c-96 -27 -206 -66 -217 -132h415z" />
    <glyph glyph-name="three.tosf" 
d="M536 345c-11 -68 -61 -131 -139 -151c67 -16 132 -70 116 -175c-21 -126 -139 -190 -280 -190c-100 0 -171 16 -229 45l8 55c59 -31 128 -45 220 -45c118 0 208 46 225 145c15 99 -61 134 -169 134h-106l10 55h97c118 0 179 61 190 130c12 74 -43 128 -160 128
c-80 0 -145 -17 -219 -49l10 59c65 30 134 45 219 45c139 0 223 -80 207 -186z" />
    <glyph glyph-name="four.tosf" 
d="M440 513h65l-74 -465h132l-9 -56h-131l-26 -159h-59l25 159h-389l8 52zM372 48l62 384l-376 -384h314z" />
    <glyph glyph-name="five.tosf" 
d="M152 520h408l-9 -57h-353l-52 -233c45 13 93 19 137 19c134 0 259 -61 234 -216c-20 -129 -142 -204 -294 -204c-81 0 -159 17 -212 46l8 54c52 -29 127 -45 200 -45c129 0 224 56 239 156c19 115 -75 155 -196 155c-63 0 -130 -13 -187 -33z" />
    <glyph glyph-name="six.tosf" 
d="M567 599c-41 24 -94 36 -144 36c-136 0 -256 -81 -296 -300c78 57 156 83 238 83c111 0 221 -71 198 -214c-22 -140 -140 -215 -268 -215c-184 0 -262 132 -229 339c40 255 184 363 359 363c54 0 109 -14 151 -38zM294 44c102 0 192 52 210 164c18 115 -61 155 -155 155
c-78 0 -163 -32 -231 -93c-11 -149 52 -226 176 -226z" />
    <glyph glyph-name="seven.tosf" 
d="M93 520h511l-8 -53l-406 -627h-66l404 623h-444z" />
    <glyph glyph-name="eight.tosf" 
d="M561 160c-15 -90 -106 -171 -283 -171c-189 0 -269 96 -251 205c10 70 61 137 154 182c-52 31 -89 75 -77 148c13 83 92 167 262 167c157 0 237 -98 224 -192c-9 -69 -54 -125 -131 -171c67 -30 115 -82 102 -168zM86 194c-14 -88 52 -150 198 -150c125 0 206 55 217 124
c15 98 -78 122 -177 152c-32 9 -64 19 -94 30c-83 -35 -134 -92 -144 -156zM324 374c28 -7 58 -16 85 -24c68 38 111 88 121 149c11 69 -43 137 -166 137c-124 0 -191 -53 -201 -116c-15 -96 84 -122 161 -146z" />
    <glyph glyph-name="nine.tosf" 
d="M50 316c22 140 140 215 268 215c184 0 262 -132 229 -339c-40 -255 -184 -363 -359 -363c-57 0 -109 14 -151 38l9 55c40 -25 94 -37 144 -37c136 0 256 81 296 300c-78 -57 -156 -83 -238 -83c-112 0 -221 71 -198 214zM319 476c-102 0 -192 -51 -210 -164
c-18 -114 61 -155 155 -155c78 0 163 32 231 93c11 149 -52 226 -176 226z" />
    <glyph glyph-name="fraction" unicode="&#x2044;" horiz-adv-x="167" 
d="M-178 -12h-29l572 723h29z" />
    <glyph glyph-name="onehalf" unicode="&#xbd;" horiz-adv-x="893" 
d="M184 -12h-29l572 723h29zM594 378c43 25 90 37 134 37c73 0 136 -41 123 -113c-11 -63 -66 -104 -136 -140c-62 -32 -119 -60 -129 -115h229l-8 -47h-287l4 26c14 99 89 137 161 173c63 32 109 62 117 109c7 41 -29 61 -76 61c-51 0 -93 -15 -140 -44zM216 680h37
l-57 -361h73l-8 -47h-215l7 47h93l49 309l-92 -34l8 48z" />
    <glyph glyph-name="onequarter" unicode="&#xbc;" horiz-adv-x="940" 
d="M792 408h54l-43 -271h77l-7 -46h-77l-15 -91h-48l14 91h-228l7 45zM754 137l32 202l-198 -202h166zM189 -12h-29l572 723h29zM221 680h37l-57 -361h73l-8 -47h-215l7 47h93l49 309l-92 -34l8 48z" />
    <glyph glyph-name="threequarters" unicode="&#xbe;" horiz-adv-x="992" 
d="M257 -12h-29l572 723h29zM843 408h54l-43 -271h77l-7 -46h-77l-15 -91h-48l14 91h-228l7 45zM805 137l32 202l-198 -202h166zM373 577c-6 -41 -35 -76 -81 -89c38 -9 77 -41 67 -105c-12 -77 -84 -114 -168 -114c-56 0 -99 10 -136 28l8 48c35 -19 77 -29 126 -29
c65 0 115 22 123 77c9 54 -32 70 -87 70h-64l7 47h57c60 0 94 30 101 70c6 40 -30 64 -84 64c-45 0 -86 -10 -130 -31l8 51c38 17 82 27 130 27c77 0 133 -49 123 -114z" />
    <glyph glyph-name="oneeighth" unicode="&#x215b;" horiz-adv-x="923" 
d="M574 313c8 50 61 102 162 102c96 0 144 -56 137 -117c-5 -35 -28 -73 -72 -101c34 -18 63 -48 54 -97c-8 -54 -60 -107 -176 -107c-113 0 -161 58 -150 124c6 36 32 77 86 107c-27 18 -47 47 -41 89zM712 185c-19 5 -38 10 -55 17c-47 -21 -74 -54 -78 -85
c-8 -50 27 -78 102 -78c72 0 119 27 125 66c8 51 -42 63 -94 80zM822 295c7 39 -21 74 -88 74c-65 0 -105 -26 -111 -61c-8 -51 45 -64 88 -79c15 -4 33 -8 49 -12c36 21 58 49 62 78zM178 -12h-29l572 723h29zM217 680h37l-57 -361h73l-8 -47h-215l7 47h93l49 309l-92 -34
l8 48z" />
    <glyph glyph-name="threeeighths" unicode="&#x215c;" horiz-adv-x="965" 
d="M616 313c8 50 61 102 162 102c96 0 144 -56 137 -117c-5 -35 -28 -73 -72 -101c34 -18 63 -48 54 -97c-8 -54 -60 -107 -176 -107c-113 0 -161 58 -150 124c6 36 32 77 86 107c-27 18 -47 47 -41 89zM754 185c-19 5 -38 10 -55 17c-47 -21 -74 -54 -78 -85
c-8 -50 27 -78 102 -78c72 0 119 27 125 66c8 51 -42 63 -94 80zM864 295c7 39 -21 74 -88 74c-65 0 -105 -26 -111 -61c-8 -51 45 -64 88 -79c15 -4 33 -8 49 -12c36 21 58 49 62 78zM230 -12h-29l572 723h29zM369 577c-6 -41 -35 -76 -81 -89c38 -9 77 -41 67 -105
c-12 -77 -84 -114 -168 -114c-56 0 -99 10 -136 28l8 48c35 -19 77 -29 126 -29c65 0 115 22 123 77c9 54 -32 70 -87 70h-64l7 47h57c60 0 94 30 101 70c6 40 -30 64 -84 64c-45 0 -86 -10 -130 -31l8 51c38 17 82 27 130 27c77 0 133 -49 123 -114z" />
    <glyph glyph-name="fiveeighths" unicode="&#x215d;" horiz-adv-x="956" 
d="M607 313c8 50 61 102 162 102c96 0 144 -56 137 -117c-5 -35 -28 -73 -72 -101c34 -18 63 -48 54 -97c-8 -54 -60 -107 -176 -107c-113 0 -161 58 -150 124c6 36 32 77 86 107c-27 18 -47 47 -41 89zM745 185c-19 5 -38 10 -55 17c-47 -21 -74 -54 -78 -85
c-8 -50 27 -78 102 -78c72 0 119 27 125 66c8 51 -42 63 -94 80zM855 295c7 39 -21 74 -88 74c-65 0 -105 -26 -111 -61c-8 -51 45 -64 88 -79c15 -4 33 -8 49 -12c36 21 58 49 62 78zM221 -12h-29l572 723h29zM134 680h245l-8 -47h-198l-27 -116c23 6 48 9 70 9
c70 0 152 -36 137 -135c-13 -81 -88 -126 -176 -126c-49 0 -95 10 -128 28l7 46c32 -18 75 -27 117 -27c68 0 121 29 130 87c11 65 -44 82 -105 82c-38 0 -77 -9 -111 -20z" />
    <glyph glyph-name="seveneighths" unicode="&#x215e;" horiz-adv-x="863" 
d="M123 -12h-29l572 723h29zM512 313c8 50 61 102 162 102c96 0 144 -56 137 -117c-5 -35 -28 -73 -72 -101c34 -18 63 -48 54 -97c-8 -54 -60 -107 -176 -107c-113 0 -161 58 -150 124c6 36 32 77 86 107c-27 18 -47 47 -41 89zM650 185c-19 5 -38 10 -55 17
c-47 -21 -74 -54 -78 -85c-8 -50 27 -78 102 -78c72 0 119 27 125 66c8 51 -42 63 -94 80zM760 295c7 39 -21 74 -88 74c-65 0 -105 -26 -111 -61c-8 -51 45 -64 88 -79c15 -4 33 -8 49 -12c36 21 58 49 62 78zM154 272h-55l219 361h-228l8 47h282l-7 -45z" />
    <glyph glyph-name="zero.dnom" horiz-adv-x="433" 
d="M383 199c-19 -118 -94 -206 -210 -206c-125 0 -169 94 -150 216c19 118 94 206 211 206c124 0 168 -94 149 -216zM73 205c-16 -100 13 -165 101 -165c92 0 143 59 160 163c16 100 -13 165 -101 165c-92 0 -144 -59 -160 -163z" />
    <glyph glyph-name="one.dnom" horiz-adv-x="262" 
d="M155 408h37l-57 -361h73l-8 -47h-215l7 47h93l49 309l-92 -34l8 48z" />
    <glyph glyph-name="two.dnom" horiz-adv-x="351" 
d="M59 378c43 25 90 37 134 37c73 0 136 -41 123 -113c-11 -63 -66 -104 -136 -140c-62 -32 -119 -60 -129 -115h229l-8 -47h-287l4 26c14 99 89 137 161 173c63 32 109 62 117 109c7 41 -29 61 -76 61c-51 0 -93 -15 -140 -44z" />
    <glyph glyph-name="three.dnom" horiz-adv-x="358" 
d="M309 301c-6 -41 -35 -76 -81 -89c38 -9 77 -41 67 -105c-12 -77 -84 -114 -168 -114c-56 0 -99 10 -136 28l8 48c35 -19 77 -29 126 -29c65 0 115 22 123 77c9 54 -32 70 -87 70h-64l7 47h57c60 0 94 30 101 70c6 40 -30 64 -84 64c-45 0 -86 -10 -130 -31l8 51
c38 17 82 27 130 27c77 0 133 -49 123 -114z" />
    <glyph glyph-name="four.dnom" horiz-adv-x="394" 
d="M261 408h54l-43 -271h77l-7 -46h-77l-15 -91h-48l14 91h-228l7 45zM223 137l32 202l-198 -202h166z" />
    <glyph glyph-name="five.dnom" horiz-adv-x="355" 
d="M79 408h245l-8 -47h-198l-27 -116c23 6 48 9 70 9c70 0 152 -36 137 -135c-13 -81 -88 -126 -176 -126c-49 0 -95 10 -128 28l7 46c32 -18 75 -27 117 -27c68 0 121 29 130 87c11 65 -44 82 -105 82c-38 0 -77 -9 -111 -20z" />
    <glyph glyph-name="six.dnom" horiz-adv-x="382" 
d="M76 216c45 27 86 38 130 38c69 0 136 -44 122 -131c-13 -86 -85 -130 -164 -130c-112 0 -162 81 -142 208c24 149 117 214 216 214c37 0 70 -9 97 -24l-7 -46c-25 16 -59 23 -90 23c-68 0 -137 -40 -162 -152zM162 39c57 0 106 22 116 85c11 63 -34 84 -85 84
c-42 0 -88 -15 -125 -44c-7 -86 29 -125 94 -125z" />
    <glyph glyph-name="seven.dnom" horiz-adv-x="316" 
d="M91 0h-55l219 361h-228l8 47h282l-7 -45z" />
    <glyph glyph-name="eight.dnom" horiz-adv-x="398" 
d="M52 313c8 50 61 102 162 102c96 0 144 -56 137 -117c-5 -35 -28 -73 -72 -101c34 -18 63 -48 54 -97c-8 -54 -60 -107 -176 -107c-113 0 -161 58 -150 124c6 36 32 77 86 107c-27 18 -47 47 -41 89zM190 185c-19 5 -38 10 -55 17c-47 -21 -74 -54 -78 -85
c-8 -50 27 -78 102 -78c72 0 119 27 125 66c8 51 -42 63 -94 80zM300 295c7 39 -21 74 -88 74c-65 0 -105 -26 -111 -61c-8 -51 45 -64 88 -79c15 -4 33 -8 49 -12c36 21 58 49 62 78z" />
    <glyph glyph-name="nine.dnom" horiz-adv-x="382" 
d="M27 285c13 86 86 130 164 130c116 0 162 -81 142 -208c-24 -149 -116 -214 -217 -214c-36 0 -70 9 -96 24l7 46c27 -16 59 -23 90 -23c69 0 137 40 162 151c-45 -26 -86 -37 -130 -37c-69 0 -136 44 -122 131zM193 369c-56 0 -107 -24 -117 -85c-10 -63 35 -84 87 -84
c42 0 87 15 124 45c7 85 -28 124 -94 124z" />
    <glyph glyph-name="zero.numr" horiz-adv-x="433" 
d="M427 475c-19 -118 -94 -206 -210 -206c-125 0 -169 94 -150 216c19 118 94 206 211 206c124 0 168 -94 149 -216zM117 481c-16 -100 13 -165 101 -165c92 0 143 59 160 163c16 100 -13 165 -101 165c-92 0 -144 -59 -160 -163z" />
    <glyph glyph-name="one.numr" horiz-adv-x="263" 
d="M199 680h37l-57 -361h73l-8 -47h-215l7 47h93l49 309l-92 -34l8 48z" />
    <glyph glyph-name="two.numr" horiz-adv-x="353" 
d="M104 654c43 25 90 37 134 37c73 0 136 -41 123 -113c-11 -63 -66 -104 -136 -140c-62 -32 -119 -60 -129 -115h229l-8 -47h-287l4 26c14 99 89 137 161 173c63 32 109 62 117 109c7 41 -29 61 -76 61c-51 0 -93 -15 -140 -44z" />
    <glyph glyph-name="three.numr" horiz-adv-x="358" 
d="M353 577c-6 -41 -35 -76 -81 -89c38 -9 77 -41 67 -105c-12 -77 -84 -114 -168 -114c-56 0 -99 10 -136 28l8 48c35 -19 77 -29 126 -29c65 0 115 22 123 77c9 54 -32 70 -87 70h-64l7 47h57c60 0 94 30 101 70c6 40 -30 64 -84 64c-45 0 -86 -10 -130 -31l8 51
c38 17 82 27 130 27c77 0 133 -49 123 -114z" />
    <glyph glyph-name="four.numr" horiz-adv-x="395" 
d="M305 680h54l-43 -271h77l-7 -46h-77l-15 -91h-48l14 91h-228l7 45zM267 409l32 202l-198 -202h166z" />
    <glyph glyph-name="five.numr" horiz-adv-x="355" 
d="M122 680h245l-8 -47h-198l-27 -116c23 6 48 9 70 9c70 0 152 -36 137 -135c-13 -81 -88 -126 -176 -126c-49 0 -95 10 -128 28l7 46c32 -18 75 -27 117 -27c68 0 121 29 130 87c11 65 -44 82 -105 82c-38 0 -77 -9 -111 -20z" />
    <glyph glyph-name="six.numr" horiz-adv-x="382" 
d="M120 492c45 27 86 38 130 38c69 0 136 -44 122 -131c-13 -86 -85 -130 -164 -130c-112 0 -162 81 -142 208c24 149 117 214 216 214c37 0 70 -9 97 -24l-7 -46c-25 16 -59 23 -90 23c-68 0 -137 -40 -162 -152zM206 315c57 0 106 22 116 85c11 63 -34 84 -85 84
c-42 0 -88 -15 -125 -44c-7 -86 29 -125 94 -125z" />
    <glyph glyph-name="seven.numr" horiz-adv-x="316" 
d="M134 272h-55l219 361h-228l8 47h282l-7 -45z" />
    <glyph glyph-name="eight.numr" horiz-adv-x="398" 
d="M96 589c8 50 61 102 162 102c96 0 144 -56 137 -117c-5 -35 -28 -73 -72 -101c34 -18 63 -48 54 -97c-8 -54 -60 -107 -176 -107c-113 0 -161 58 -150 124c6 36 32 77 86 107c-27 18 -47 47 -41 89zM234 461c-19 5 -38 10 -55 17c-47 -21 -74 -54 -78 -85
c-8 -50 27 -78 102 -78c72 0 119 27 125 66c8 51 -42 63 -94 80zM344 571c7 39 -21 74 -88 74c-65 0 -105 -26 -111 -61c-8 -51 45 -64 88 -79c15 -4 33 -8 49 -12c36 21 58 49 62 78z" />
    <glyph glyph-name="nine.numr" horiz-adv-x="382" 
d="M71 561c13 86 86 130 164 130c116 0 162 -81 142 -208c-24 -149 -116 -214 -217 -214c-36 0 -70 9 -96 24l7 46c27 -16 59 -23 90 -23c69 0 137 40 162 151c-45 -26 -86 -37 -130 -37c-69 0 -136 44 -122 131zM237 645c-56 0 -107 -24 -117 -85c-10 -63 35 -84 87 -84
c42 0 87 15 124 45c7 85 -28 124 -94 124z" />
    <glyph glyph-name="asterisk" unicode="*" horiz-adv-x="434" 
d="M252 510l-98 -119l-40 30l103 110l-125 37l26 50l121 -49l15 131h53l-27 -131l136 49l11 -50l-140 -37l71 -110l-47 -30z" />
    <glyph glyph-name="backslash" unicode="\" horiz-adv-x="413" 
d="M322 -58h-42l-169 816h42z" />
    <glyph glyph-name="periodcentered" unicode="&#xb7;" horiz-adv-x="214" 
d="M138 235c-4 -23 -22 -35 -42 -35c-23 0 -41 16 -37 43c4 23 23 35 43 35c23 0 40 -16 36 -43z" />
    <glyph glyph-name="bullet" unicode="&#x2022;" horiz-adv-x="315" 
d="M102 354c6 39 38 59 71 59c36 0 63 -24 57 -67c-6 -39 -38 -59 -71 -59c-36 0 -63 24 -57 67z" />
    <glyph glyph-name="colon" unicode=":" horiz-adv-x="214" 
d="M163 393c-4 -24 -22 -35 -43 -35c-22 0 -40 15 -36 42c4 24 23 36 42 36c24 0 41 -16 37 -43zM105 28c-4 -24 -22 -36 -43 -36c-22 0 -40 16 -35 43c3 23 23 35 42 35c24 0 41 -16 36 -42z" />
    <glyph glyph-name="comma" unicode="," horiz-adv-x="218" 
d="M11 -147h-47l89 224h60z" />
    <glyph glyph-name="ellipsis" unicode="&#x2026;" horiz-adv-x="533" 
d="M434 28c-4 -24 -22 -36 -43 -36c-22 0 -40 16 -35 43c3 23 23 35 42 35c24 0 41 -16 36 -42zM104 28c-4 -24 -22 -36 -42 -36c-23 0 -41 16 -36 43c3 23 23 35 42 35c24 0 41 -16 36 -42zM269 28c-4 -24 -22 -36 -42 -36c-23 0 -41 16 -36 43c3 23 23 35 42 35
c24 0 41 -16 36 -42z" />
    <glyph glyph-name="exclam" unicode="!" horiz-adv-x="215" 
d="M117 189h-50l77 511h59zM105 26c-4 -23 -22 -34 -41 -34c-23 0 -40 15 -36 42c4 23 22 34 41 34c23 0 40 -15 36 -42z" />
    <glyph glyph-name="exclamdown" unicode="&#xa1;" horiz-adv-x="203" 
d="M50 -217h-59l85 511h50zM165 449c-4 -23 -22 -34 -41 -34c-23 0 -40 15 -35 42c3 23 22 34 41 34c23 0 40 -15 35 -42z" />
    <glyph glyph-name="numbersign" unicode="#" horiz-adv-x="651" 
d="M92 0h-57l71 179h-85l8 50h97l88 223h-99l7 50h111l71 178h57l-70 -178h213l71 178h57l-71 -178h83l-7 -50h-95l-89 -223h98l-8 -50h-109l-71 -179h-57l70 179h-213zM271 452l-88 -223h213l88 223h-213z" />
    <glyph glyph-name="period" unicode="." horiz-adv-x="203" 
d="M104 28c-4 -24 -22 -36 -42 -36c-23 0 -41 16 -36 43c3 23 23 35 42 35c24 0 41 -16 36 -42z" />
    <glyph glyph-name="question" unicode="?" horiz-adv-x="491" 
d="M245 199h-57c20 142 224 219 244 345c12 77 -48 111 -149 111c-70 0 -138 -24 -197 -57l9 59c55 31 126 54 200 54c121 0 214 -59 196 -169c-22 -142 -229 -222 -246 -343zM229 28c-4 -24 -22 -36 -42 -36c-23 0 -41 16 -36 43c3 23 23 35 42 35c24 0 41 -16 36 -42z" />
    <glyph glyph-name="questiondown" unicode="&#xbf;" horiz-adv-x="483" 
d="M377 -176c-55 -31 -126 -54 -199 -54c-123 0 -215 60 -198 169c23 142 229 229 247 343h56c-21 -135 -223 -219 -243 -345c-12 -76 48 -110 150 -110c70 0 137 22 197 58zM321 449c-4 -23 -23 -35 -43 -35c-23 0 -40 16 -35 42c3 24 22 35 42 35c23 0 41 -15 36 -42z" />
    <glyph glyph-name="quotedbl" unicode="&#x22;" horiz-adv-x="292" 
d="M257 540h-40l26 160h54zM144 540h-40l26 160h54z" />
    <glyph glyph-name="quotesingle" unicode="'" horiz-adv-x="179" 
d="M144 540h-40l26 160h54z" />
    <glyph glyph-name="semicolon" unicode=";" horiz-adv-x="282" 
d="M44 -147h-47l89 224h60zM201 432c-4 -24 -22 -35 -43 -35c-22 0 -40 15 -36 42c3 24 24 36 43 36c24 0 40 -16 36 -43z" />
    <glyph glyph-name="slash" unicode="/" horiz-adv-x="419" 
d="M28 -58h-45l427 816h44z" />
    <glyph glyph-name="underscore" unicode="_" horiz-adv-x="443" 
d="M374 -140h-442l8 54h443z" />
    <glyph glyph-name="braceleft" unicode="{" horiz-adv-x="287" 
d="M191 -60l-8 -51c-93 -17 -130 29 -117 108l39 243c10 66 -24 84 -71 84l8 52c46 0 88 24 98 90l39 243c13 80 60 119 150 100l-8 -49c-55 9 -77 -17 -87 -81l-36 -229c-10 -59 -39 -90 -80 -101c32 -7 58 -37 47 -104l-36 -229c-9 -57 2 -85 62 -76z" />
    <glyph glyph-name="braceright" unicode="}" horiz-adv-x="285" 
d="M126 -8c-13 -79 -57 -122 -150 -101l8 52c54 -12 77 13 86 70l38 243c10 60 43 91 86 97c-37 9 -64 42 -54 104l37 230c9 59 -2 85 -63 75l8 49c92 18 129 -29 116 -108l-38 -242c-10 -66 29 -87 69 -87l-7 -50c-45 0 -88 -24 -98 -90z" />
    <glyph glyph-name="bracketleft" unicode="[" horiz-adv-x="264" 
d="M177 -110h-167l146 920h166l-9 -57h-107l-128 -806h107z" />
    <glyph glyph-name="bracketright" unicode="]" horiz-adv-x="265" 
d="M128 -110h-167l8 57h108l128 806h-107l8 57h167z" />
    <glyph glyph-name="parenleft" unicode="(" horiz-adv-x="272" 
d="M275 809h57c-108 -128 -188 -303 -213 -463c-25 -156 -1 -329 66 -455h-54c-69 129 -100 300 -75 463c26 159 109 329 219 455z" />
    <glyph glyph-name="parenright" unicode=")" horiz-adv-x="272" 
d="M105 809h54c69 -129 101 -300 75 -463c-25 -159 -109 -329 -218 -455h-58c108 128 188 303 213 463c25 156 1 329 -66 455z" />
    <glyph glyph-name="emdash" unicode="&#x2014;" horiz-adv-x="757" 
d="M679 219h-623l8 54h623z" />
    <glyph glyph-name="endash" unicode="&#x2013;" horiz-adv-x="572" 
d="M493 219h-437l8 54h438z" />
    <glyph glyph-name="hyphen" unicode="-" horiz-adv-x="486" 
d="M64 273h352l-9 -54h-351z" />
    <glyph glyph-name="emdash.case" horiz-adv-x="768" 
d="M699 323h-623l8 54h623z" />
    <glyph glyph-name="endash.case" horiz-adv-x="582" 
d="M513 323h-437l8 54h438z" />
    <glyph glyph-name="hyphen.case" horiz-adv-x="496" 
d="M84 377h352l-9 -54h-351z" />
    <glyph glyph-name="guillemotleft" unicode="&#xab;" horiz-adv-x="462" 
d="M365 63h-60l-94 171l2 14l147 169h62l-154 -177zM193 63h-60l-94 171l2 14l147 169h62l-154 -177z" />
    <glyph glyph-name="guillemotright" unicode="&#xbb;" horiz-adv-x="462" 
d="M257 63h-62l154 177l-96 177h59l95 -171l-3 -14zM86 63h-62l154 177l-96 177h59l95 -171l-3 -14z" />
    <glyph glyph-name="guilsinglleft" unicode="&#x2039;" horiz-adv-x="290" 
d="M193 63h-60l-94 171l2 14l147 169h62l-154 -177z" />
    <glyph glyph-name="guilsinglright" unicode="&#x203a;" horiz-adv-x="291" 
d="M86 63h-62l154 177l-96 177h59l95 -171l-3 -14z" />
    <glyph glyph-name="quotedblbase" unicode="&#x201e;" horiz-adv-x="351" 
d="M144 -147h-47l89 224h60zM11 -147h-47l89 224h60z" />
    <glyph glyph-name="quotedblleft" unicode="&#x201c;" horiz-adv-x="341" 
d="M273 477h-61l101 223h48zM140 477h-61l101 223h48z" />
    <glyph glyph-name="quotedblright" unicode="&#x201d;" horiz-adv-x="339" 
d="M263 477h-47l88 223h61zM129 477h-47l88 223h61z" />
    <glyph glyph-name="quoteleft" unicode="&#x2018;" horiz-adv-x="208" 
d="M140 477h-61l101 223h48z" />
    <glyph glyph-name="quoteright" unicode="&#x2019;" horiz-adv-x="205" 
d="M129 477h-47l88 223h61z" />
    <glyph glyph-name="quotesinglbase" unicode="&#x201a;" horiz-adv-x="218" 
d="M11 -147h-47l89 224h60z" />
    <glyph glyph-name="guillemotleft.case" horiz-adv-x="479" 
d="M391 173h-60l-94 171l2 14l147 169h62l-154 -177zM219 173h-60l-94 171l2 14l147 169h62l-154 -177z" />
    <glyph glyph-name="guillemotright.case" horiz-adv-x="478" 
d="M282 173h-62l154 177l-96 177h59l95 -171l-3 -14zM110 173h-62l154 177l-96 177h59l95 -171l-3 -14z" />
    <glyph glyph-name="guilsinglleft.case" horiz-adv-x="307" 
d="M219 173h-60l-94 171l2 14l147 169h62l-154 -177z" />
    <glyph glyph-name="guilsinglright.case" horiz-adv-x="306" 
d="M110 173h-62l154 177l-96 177h59l95 -171l-3 -14z" />
    <glyph glyph-name="space" unicode=" " horiz-adv-x="259" 
 />
    <glyph glyph-name="cent" unicode="&#xa2;" horiz-adv-x="511" 
d="M481 449l-9 -53c-33 28 -78 42 -123 43l-62 -398c48 3 97 18 140 42l-9 -59c-44 -21 -90 -32 -140 -35l-17 -109h-50l18 111c-117 12 -212 95 -187 255c25 161 151 233 266 244l17 110h50l-17 -110c45 -2 87 -16 123 -41zM299 436c-91 -14 -181 -73 -201 -196
c-20 -121 47 -184 139 -197z" />
    <glyph glyph-name="currency" unicode="&#xa4;" horiz-adv-x="575" 
d="M160 195l-76 -65l-34 40l73 63c-21 31 -30 71 -23 121c8 46 29 86 59 116l-51 60l45 40l54 -64c35 22 77 33 117 33c44 0 82 -13 111 -34l75 65l34 -40l-73 -63c20 -31 30 -71 22 -121c-7 -45 -28 -85 -58 -116l52 -60l-46 -40l-54 64c-35 -22 -77 -33 -117 -33
c-44 0 -81 13 -110 34zM157 346c-13 -82 38 -132 116 -132c81 0 151 54 165 140c13 82 -38 132 -116 132c-82 0 -151 -54 -165 -140z" />
    <glyph glyph-name="dollar" unicode="$" horiz-adv-x="578" 
d="M251 -130h-50l19 120c-76 6 -150 26 -204 59l9 58c64 -42 150 -62 228 -62c97 0 193 29 208 121c29 187 -413 119 -374 362c18 107 134 159 244 163l18 119h50l-18 -120c61 -5 121 -23 164 -50l-8 -56c-50 33 -124 51 -198 51c-85 0 -179 -32 -192 -112
c-32 -191 410 -124 374 -360c-20 -125 -137 -171 -251 -174z" />
    <glyph glyph-name="Euro" unicode="&#x20ac;" horiz-adv-x="725" 
d="M707 586c-48 32 -107 49 -176 49c-126 0 -263 -58 -322 -201h366l-8 -50h-374c-3 -11 -5 -23 -7 -35c-3 -18 -4 -36 -4 -53h371l-8 -50h-359c21 -127 128 -201 251 -201c73 0 148 17 202 50l-9 -62c-58 -30 -123 -44 -201 -44c-154 0 -283 97 -304 257h-90l8 50h79
c0 18 1 37 4 56c2 11 3 22 6 32h-75l8 50h81c63 177 235 257 385 257c75 0 133 -18 186 -49z" />
    <glyph glyph-name="sterling" unicode="&#xa3;" horiz-adv-x="603" 
d="M517 0h-523l9 57h34c46 0 80 36 89 91l25 161h-83l9 55h83l16 99c26 171 145 228 258 228c53 0 103 -14 142 -39l-9 -55c-35 24 -82 39 -136 39c-86 0 -175 -44 -197 -178l-15 -94h237l-9 -55h-236l-27 -165c-7 -47 -23 -75 -55 -89l398 2z" />
    <glyph glyph-name="yen" unicode="&#xa5;" horiz-adv-x="655" 
d="M613 680h66l-293 -363h150l-8 -50h-177l-12 -74h178l-8 -50h-178l-23 -143h-59l23 143h-177l8 50h177l12 74h-177l8 50h150l-178 363h64l170 -355z" />
    <glyph glyph-name="cent.tf" 
d="M537 449l-9 -53c-34 29 -79 42 -125 43l-62 -398c49 3 99 18 142 42l-9 -59c-44 -22 -91 -33 -142 -35l-17 -109h-50l18 111c-116 13 -210 96 -185 255c25 160 149 232 263 243l18 111h50l-17 -109c46 -3 89 -16 125 -42zM353 435c-90 -14 -179 -73 -199 -195
c-19 -120 46 -183 137 -196z" />
    <glyph glyph-name="currency.tf" 
d="M184 195l-76 -65l-34 40l73 63c-21 31 -30 71 -23 121c8 46 29 86 59 116l-51 60l45 40l54 -64c35 22 77 33 117 33c44 0 82 -13 111 -34l75 65l34 -40l-73 -63c20 -31 30 -71 22 -121c-7 -45 -28 -85 -58 -116l52 -60l-46 -40l-54 64c-35 -22 -77 -33 -117 -33
c-44 0 -81 13 -110 34zM181 346c-13 -82 38 -132 116 -132c81 0 151 54 165 140c13 82 -38 132 -116 132c-82 0 -151 -54 -165 -140z" />
    <glyph glyph-name="dollar.tf" 
d="M275 -130h-50l18 120c-76 6 -150 26 -204 59l9 58c64 -42 150 -62 228 -62c97 0 193 29 208 121c29 187 -413 119 -374 362c18 107 135 159 244 163l18 119h50l-18 -120c62 -5 121 -23 164 -50l-8 -56c-50 33 -124 51 -198 51c-85 0 -179 -32 -192 -112
c-32 -191 410 -124 374 -360c-20 -125 -137 -171 -251 -174z" />
    <glyph glyph-name="Euro.tf" 
d="M635 617c-33 12 -79 18 -126 18c-131 0 -264 -60 -321 -201h328l-8 -50h-336c-3 -11 -5 -22 -7 -33c-3 -19 -5 -37 -5 -55h334l-8 -50h-322c21 -129 127 -201 252 -201c52 0 99 8 138 20l-8 -57c-41 -13 -87 -19 -138 -19c-149 0 -283 94 -304 257h-91l8 50h80
c0 20 2 41 5 63c1 9 3 17 5 25h-76l8 50h82c63 177 232 257 388 257c48 0 93 -7 131 -21z" />
    <glyph glyph-name="sterling.tf" 
d="M527 0h-523l9 57h34c46 0 80 36 89 91l25 161h-83l9 55h83l16 99c26 171 145 228 258 228c53 0 103 -14 142 -39l-9 -55c-35 24 -82 39 -136 39c-86 0 -175 -44 -197 -178l-15 -94h237l-9 -55h-236l-27 -165c-7 -47 -23 -75 -55 -89l398 2z" />
    <glyph glyph-name="yen.tf" 
d="M597 680h66l-293 -363h150l-8 -50h-177l-12 -74h178l-8 -50h-178l-23 -143h-59l23 143h-177l8 50h177l12 74h-177l8 50h150l-178 363h64l170 -355z" />
    <glyph glyph-name="approxequal" unicode="&#x2248;" horiz-adv-x="584" 
d="M543 480c-4 -65 -50 -104 -110 -104c-73 0 -163 61 -231 61c-34 0 -58 -19 -60 -51h-53c5 68 52 104 109 104c78 0 161 -60 233 -60c33 0 57 18 59 50h53zM520 332c-4 -65 -50 -104 -110 -104c-73 0 -163 61 -231 61c-34 0 -58 -19 -60 -51h-53c5 68 52 104 109 104
c78 0 161 -60 233 -60c33 0 57 18 59 50h53z" />
    <glyph glyph-name="asciitilde" unicode="~" horiz-adv-x="582" 
d="M525 377c-4 -66 -49 -105 -109 -105c-74 0 -164 62 -232 62c-34 0 -58 -20 -60 -52h-53c5 68 52 105 109 105c78 0 161 -61 233 -61c33 0 57 18 59 51h53z" />
    <glyph glyph-name="divide" unicode="&#xf7;" horiz-adv-x="635" 
d="M563 323h-480l8 54h480zM330 122c-3 -24 -21 -35 -42 -35c-23 0 -40 15 -36 42c4 24 23 35 42 35c24 0 41 -15 36 -42zM402 569c-4 -24 -22 -35 -43 -35c-23 0 -40 15 -35 42c3 24 22 35 42 35c24 0 40 -15 36 -42z" />
    <glyph glyph-name="emptyset" unicode="&#x2205;" horiz-adv-x="817" 
d="M780 343c-31 -190 -207 -354 -416 -354c-88 0 -161 29 -215 78l-67 -67h-39l87 86c-62 69 -90 168 -73 271c30 190 206 354 416 354c88 0 161 -29 213 -78l68 67h39l-88 -86c64 -69 91 -168 75 -271zM88 350c-14 -92 9 -180 65 -242l511 504c-47 42 -111 68 -190 68
c-197 0 -358 -156 -386 -330zM172 89c48 -43 112 -69 191 -69c197 0 358 156 386 330c14 92 -9 180 -65 243z" />
    <glyph glyph-name="equal" unicode="=" horiz-adv-x="552" 
d="M499 414h-409l9 54h408zM470 232h-409l8 54h409z" />
    <glyph glyph-name="greater" unicode="&#x3e;" horiz-adv-x="482" 
d="M443 321l-392 -156l9 56l331 129l-290 129l8 56l344 -157z" />
    <glyph glyph-name="greaterequal" unicode="&#x2265;" horiz-adv-x="527" 
d="M465 337l-392 -156l9 56l330 129l-289 129l8 56l344 -157zM412 0h-368l9 54h367z" />
    <glyph glyph-name="infinity" unicode="&#x221e;" horiz-adv-x="833" 
d="M433 403c58 69 121 131 212 131c87 0 162 -67 144 -180c-17 -109 -102 -172 -193 -172c-86 0 -141 65 -176 131c-58 -69 -121 -131 -212 -131c-88 0 -162 67 -144 180c17 109 103 172 193 172c86 0 140 -65 176 -131zM395 360c-31 63 -66 120 -132 120
c-68 0 -131 -39 -144 -122c-13 -81 35 -122 99 -122c73 0 125 58 177 124zM734 362c12 80 -35 118 -99 118c-73 0 -125 -58 -178 -124c31 -63 67 -120 133 -120c68 0 130 42 144 126z" />
    <glyph glyph-name="integral" unicode="&#x222b;" horiz-adv-x="412" 
d="M235 652c18 107 99 139 165 139c31 0 58 -7 76 -15l-8 -52c-16 8 -38 13 -65 13c-44 0 -100 -16 -113 -93l-116 -736c-18 -108 -97 -139 -165 -139c-31 0 -58 7 -76 15l8 52c15 -8 35 -13 58 -13c53 0 108 16 120 93z" />
    <glyph glyph-name="less" unicode="&#x3c;" horiz-adv-x="483" 
d="M400 221l-9 -56l-343 157l9 57l392 156l-8 -56l-330 -129z" />
    <glyph glyph-name="lessequal" unicode="&#x2264;" horiz-adv-x="531" 
d="M435 237l-9 -56l-343 157l9 57l392 156l-8 -56l-331 -129zM397 0h-368l9 54h367z" />
    <glyph glyph-name="logicalnot" unicode="&#xac;" horiz-adv-x="575" 
d="M498 284h-57l23 142h-381l8 54h438z" />
    <glyph glyph-name="minus" unicode="&#x2212;" horiz-adv-x="519" 
d="M450 320h-375l8 54h375z" />
    <glyph glyph-name="multiply" unicode="&#xd7;" horiz-adv-x="458" 
d="M233 315l-152 -131l-31 37l151 130l-110 130l41 37l110 -130l151 130l32 -37l-152 -130l110 -131l-41 -36z" />
    <glyph glyph-name="notequal" unicode="&#x2260;" horiz-adv-x="552" 
d="M141 131h-52l79 101h-107l8 54h139l99 128h-217l8 54h250l78 101h52l-78 -101h107l-9 -54h-139l-99 -128h218l-8 -54h-250z" />
    <glyph glyph-name="partialdiff" unicode="&#x2202;" horiz-adv-x="594" 
d="M536 265c-28 -178 -145 -276 -290 -276c-138 0 -234 93 -211 237c20 130 139 220 261 220c98 0 182 -52 195 -140c1 9 3 16 3 27c9 231 -166 320 -337 314l8 53c208 0 421 -118 371 -435zM90 219c-17 -108 47 -176 158 -176c109 0 184 66 215 164
c17 118 -59 186 -161 186c-105 0 -196 -71 -212 -174z" />
    <glyph glyph-name="percent" unicode="%" horiz-adv-x="887" 
d="M213 -60h-59l539 820h59zM390 555c-14 -96 -96 -146 -176 -146s-152 56 -136 156c15 96 97 146 178 146c79 0 151 -56 134 -156zM130 561c-9 -59 26 -102 86 -102c62 0 112 39 122 100c9 59 -26 102 -84 102c-64 0 -114 -39 -124 -100zM828 135
c-15 -96 -97 -146 -177 -146s-152 56 -136 156c15 96 96 146 178 146c78 0 151 -56 135 -156zM567 141c-9 -59 26 -102 86 -102c62 0 112 39 122 100c9 59 -26 102 -84 102c-64 0 -114 -39 -124 -100z" />
    <glyph glyph-name="perthousand" unicode="&#x2030;" horiz-adv-x="1267" 
d="M213 -60h-59l539 820h59zM390 555c-14 -96 -96 -146 -176 -146s-152 56 -136 156c15 96 97 146 178 146c79 0 151 -56 134 -156zM130 561c-9 -59 26 -102 86 -102c62 0 112 39 122 100c9 59 -26 102 -84 102c-64 0 -114 -39 -124 -100zM828 135
c-15 -96 -97 -146 -177 -146s-152 56 -136 156c15 96 96 146 178 146c78 0 151 -56 135 -156zM567 141c-9 -59 26 -102 86 -102c62 0 112 39 122 100c9 59 -26 102 -84 102c-64 0 -114 -39 -124 -100zM1208 135c-15 -96 -97 -146 -177 -146s-152 56 -136 156
c15 96 96 146 178 146c78 0 151 -56 135 -156zM947 141c-9 -59 26 -102 86 -102c62 0 112 39 122 100c9 59 -26 102 -84 102c-64 0 -114 -39 -124 -100z" />
    <glyph glyph-name="plus" unicode="+" horiz-adv-x="532" 
d="M307 377h192l-9 -54h-192l-30 -192h-54l30 192h-191l8 54h192l30 192h54z" />
    <glyph glyph-name="plusminus" unicode="&#xb1;" horiz-adv-x="577" 
d="M366 591l-30 -191h192l-9 -54h-191l-31 -192h-54l31 192h-192l8 54h192l30 191h54zM464 0h-437l9 54h437z" />
    <glyph glyph-name="product" unicode="&#x220f;" horiz-adv-x="742" 
d="M114 -220h-59l137 863h-99l10 57h666l-9 -57h-98l-137 -863h-59l136 863h-351z" />
    <glyph glyph-name="radical" unicode="&#x221a;" horiz-adv-x="730" 
d="M311 0h-53l-113 423h-98l9 57h129l109 -411l446 711h64z" />
    <glyph glyph-name="summation" unicode="&#x2211;" horiz-adv-x="564" 
d="M467 0h-473l5 34l327 318l-226 315l5 33h471l-10 -57h-378l205 -286l-3 -19l-289 -281h375z" />
    <glyph glyph-name="lozenge" unicode="&#x25ca;" horiz-adv-x="555" 
d="M264 0h-64l-153 350l263 350h63l154 -350zM110 345l128 -290l226 299l-128 291z" />
    <glyph glyph-name="bar" unicode="|" horiz-adv-x="206" 
d="M71 -100h-59l144 910h59z" />
    <glyph glyph-name="brokenbar" unicode="&#xa6;" horiz-adv-x="223" 
d="M168 459h-59l55 351h59zM79 -100h-59l56 351h59z" />
    <glyph glyph-name="at" unicode="@" horiz-adv-x="1055" 
d="M41 252c38 240 248 459 559 459c301 0 431 -243 401 -437c-29 -181 -121 -265 -228 -265c-81 0 -130 41 -132 115c-41 -59 -106 -93 -174 -93c-106 0 -185 87 -165 210c19 120 114 204 225 204c71 0 123 -42 143 -94l13 85h56l-44 -274c-10 -65 13 -103 80 -103
c84 0 146 85 167 222c27 170 -88 374 -346 374c-275 0 -463 -192 -497 -410c-42 -265 149 -420 385 -420c80 0 154 12 229 37l-9 -59c-74 -25 -147 -34 -224 -34c-264 0 -488 175 -439 483zM659 284c-7 58 -53 109 -128 109c-83 0 -159 -59 -174 -155
c-14 -93 39 -155 118 -155s144 54 170 111z" />
    <glyph glyph-name="ampersand" unicode="&#x26;" horiz-adv-x="687" 
d="M530 116l109 -116h-69l-76 80c-64 -55 -149 -91 -254 -91c-145 0 -224 82 -208 183c15 97 113 159 189 199c-38 45 -77 107 -66 176c14 91 108 164 227 164c99 0 179 -62 165 -152c-15 -100 -148 -158 -241 -204l186 -199c41 48 67 106 75 165h59
c-11 -73 -44 -146 -96 -205zM381 657c-103 0 -161 -56 -170 -121c-8 -52 25 -102 59 -141c81 37 208 93 220 170c9 57 -45 92 -109 92zM91 167c-12 -72 48 -124 159 -124c82 0 153 30 207 77l-200 211c-70 -36 -154 -85 -166 -164z" />
    <glyph glyph-name="paragraph" unicode="&#xb6;" horiz-adv-x="619" 
d="M232 -220h-59l81 507c-136 0 -208 78 -187 210c20 128 114 203 250 203h283l-146 -920h-59l136 863h-162z" />
    <glyph glyph-name="copyright" unicode="&#xa9;" horiz-adv-x="851" 
d="M809 345c-37 -239 -250 -356 -428 -356c-174 0 -358 124 -320 366c38 239 250 356 428 356c175 0 358 -124 320 -366zM558 182c-44 -22 -88 -33 -138 -33c-95 0 -193 63 -171 198c23 146 143 204 240 204c49 0 89 -13 119 -35l-4 -42c-30 21 -68 33 -109 33
c-82 0 -179 -43 -198 -165c-17 -108 55 -149 134 -149c45 0 93 14 131 34zM84 355c-35 -223 129 -343 295 -343c169 0 371 107 407 333c35 223 -128 343 -294 343c-170 0 -372 -107 -408 -333z" />
    <glyph glyph-name="registered" unicode="&#xae;" horiz-adv-x="851" 
d="M809 345c-37 -239 -250 -356 -428 -356c-174 0 -358 124 -320 366c38 239 250 356 428 356c175 0 358 -124 320 -366zM84 355c-35 -223 129 -343 295 -343c169 0 371 107 407 333c35 223 -128 343 -294 343c-170 0 -372 -107 -408 -333zM311 152h-43l62 394h160
c58 0 145 -24 129 -126c-11 -69 -58 -97 -105 -109l86 -159h-48l-82 153c-8 -1 -16 -1 -22 -1h-113zM366 504l-25 -158h113c41 0 110 5 123 81c11 73 -55 77 -95 77h-116z" />
    <glyph glyph-name="section" unicode="&#xa7;" horiz-adv-x="493" 
d="M398 90c-14 -88 -107 -124 -204 -124c-62 0 -128 19 -168 46l8 53c43 -30 106 -49 159 -49c76 0 140 23 149 80c9 60 -54 79 -127 100c-80 23 -164 50 -148 145c8 55 51 97 110 130c-41 21 -71 54 -62 113c14 89 108 127 195 127c60 0 114 -18 153 -41l-8 -52
c-35 25 -85 43 -144 43c-66 0 -131 -28 -139 -83c-10 -61 59 -79 135 -100c79 -22 159 -51 143 -144c-9 -56 -53 -96 -114 -129c41 -21 71 -55 62 -115zM235 243c18 -6 36 -9 52 -14c50 18 101 56 109 104c9 60 -46 78 -107 98c-21 6 -42 11 -60 17
c-49 -17 -99 -59 -106 -106c-10 -61 49 -78 112 -99z" />
    <glyph glyph-name="trademark" unicode="&#x2122;" horiz-adv-x="660" 
d="M361 447h-35l41 253h39l75 -144l122 144h42l-40 -253h-35l32 201l-115 -133h-21l-72 133zM189 447h-36l35 220h-88l5 33h212l-5 -33h-88z" />
    <glyph glyph-name="degree" unicode="&#xb0;" horiz-adv-x="392" 
d="M388 564c-14 -92 -92 -143 -169 -143s-146 56 -131 152c15 90 95 142 171 142c77 0 145 -58 129 -151zM131 569c-10 -64 30 -106 88 -106c62 0 117 38 128 105c9 63 -30 104 -88 104c-61 0 -117 -37 -128 -103z" />
    <glyph glyph-name="asciicircum" unicode="^" horiz-adv-x="513" 
d="M135 390h-66l230 310h50l132 -310h-61l-103 247z" />
    <glyph glyph-name="dagger" unicode="&#x2020;" horiz-adv-x="501" 
d="M199 -220h-59l102 643h-187l9 57h187l35 220h59l-35 -220h187l-9 -57h-187z" />
    <glyph glyph-name="daggerdbl" unicode="&#x2021;" horiz-adv-x="525" 
d="M211 -220h-60l50 313h-186l9 56h186l43 274h-185l9 57h185l35 220h60l-35 -220h186l-9 -57h-186l-43 -274h186l-9 -56h-186z" />
    <glyph glyph-name="acute" unicode="&#xb4;" horiz-adv-x="177" 
d="M191 773h-63l112 142h72z" />
    <glyph glyph-name="breve" unicode="&#x2d8;" horiz-adv-x="329" 
d="M407 819c-47 -31 -90 -41 -138 -41s-93 10 -129 41l9 57c40 -33 77 -44 125 -44c47 0 91 11 141 44z" />
    <glyph glyph-name="caron" unicode="&#x2c7;" horiz-adv-x="299" 
d="M427 901l-151 -137h-51l-108 137h63l75 -94l103 94h69z" />
    <glyph glyph-name="cedilla" unicode="&#xb8;" horiz-adv-x="213" 
d="M55 0h49l-30 -73c59 7 109 -20 102 -75c-8 -54 -57 -83 -130 -83c-44 0 -76 9 -104 21l8 46c25 -13 59 -21 91 -21c55 0 83 18 87 42c5 37 -55 46 -115 32z" />
    <glyph glyph-name="circumflex" unicode="&#x2c6;" horiz-adv-x="299" 
d="M246 911h51l108 -137h-62l-76 94l-105 -94h-67z" />
    <glyph glyph-name="dieresis" unicode="&#xa8;" horiz-adv-x="291" 
d="M399 833c-3 -21 -23 -38 -44 -38c-25 0 -42 21 -38 45c4 20 24 38 45 38c24 0 41 -22 37 -45zM198 833c-3 -21 -23 -38 -44 -38c-25 0 -42 21 -38 45c4 20 24 38 45 38c24 0 41 -22 37 -45z" />
    <glyph glyph-name="dotaccent" unicode="&#x2d9;" horiz-adv-x="101" 
d="M206 819c-4 -28 -26 -42 -50 -42c-26 0 -47 18 -42 50c5 27 27 41 50 41c28 0 48 -18 42 -49z" />
    <glyph glyph-name="grave" unicode="`" horiz-adv-x="177" 
d="M262 773h-61l-76 142h69z" />
    <glyph glyph-name="hungarumlaut" unicode="&#x2dd;" horiz-adv-x="343" 
d="M344 779h-62l95 145h65zM191 779h-62l95 145h65z" />
    <glyph glyph-name="macron" unicode="&#xaf;" horiz-adv-x="333" 
d="M140 847h280l-8 -52h-280z" />
    <glyph glyph-name="ogonek" unicode="&#x2db;" horiz-adv-x="210" 
d="M85 3l67 -3c-65 -41 -120 -93 -126 -137c-5 -28 10 -47 43 -47c24 0 50 7 72 19l-8 -50c-23 -11 -51 -16 -79 -16c-63 0 -91 37 -83 87c7 47 48 101 114 147z" />
    <glyph glyph-name="ring" unicode="&#x2da;" horiz-adv-x="213" 
d="M322 845c-9 -59 -62 -95 -114 -95c-54 0 -100 40 -90 102c10 58 63 94 115 94c54 0 99 -40 89 -101zM161 848c-6 -35 18 -58 47 -58c33 0 66 20 72 58c5 35 -18 58 -47 58c-33 0 -66 -21 -72 -58z" />
    <glyph glyph-name="tilde" unicode="&#x2dc;" horiz-adv-x="333" 
d="M438 866c-1 -62 -39 -92 -83 -92c-59 0 -109 48 -151 48c-26 0 -41 -17 -41 -43h-49c1 61 40 93 82 93c59 0 110 -48 152 -48c29 0 41 15 41 42h49z" />
    <glyph glyph-name="uni0326" unicode="&#x326;" horiz-adv-x="120" 
d="M15 -224h-50l51 180h57z" />
    <glyph glyph-name="A" unicode="A" horiz-adv-x="714" 
d="M656 0h-62l-53 188h-396l-112 -188h-67l422 700h68zM402 616l-224 -372h349l-106 373c-2 8 -4 16 -5 24c-4 -9 -9 -17 -14 -25z" />
    </font>
</defs>
</svg>
